<svg id="Layer_1" data-name="Layer 1" xmlns="http://www.w3.org/2000/svg" xmlns:xlink="http://www.w3.org/1999/xlink" viewBox="0 0 300.1 343.09"><defs><style>.cls-1,.cls-14,.cls-7{fill:none;}.cls-2{fill:#7b7e83;}.cls-3{opacity:0.5;}.cls-4{fill:#fff;}.cls-5{fill:#ff974e;}.cls-6{fill:#493a3f;}.cls-7{stroke:#fff;stroke-linecap:round;stroke-width:1.95px;}.cls-13,.cls-14,.cls-7{stroke-miterlimit:10;}.cls-8{fill:#87622e;}.cls-9{fill:#d6984d;}.cls-10{fill:#c1c1c1;}.cls-11{fill:#fea465;}.cls-12{fill:#e08445;}.cls-13{fill:#229fdd;stroke-width:4.87px;}.cls-13,.cls-14{stroke:#87622e;}.cls-14{stroke-width:2.92px;}.cls-15{fill:#e2e2e2;}.cls-16{clip-path:url(#clip-path);}.cls-17{fill:#83c4dd;}.cls-18{clip-path:url(#clip-path-2);}.cls-19{opacity:0.3;}.cls-20{opacity:0.2;}</style><clipPath id="clip-path"><path class="cls-1" d="M81.08,88.07h6A11.81,11.81,0,0,1,98.86,99.88v17.69a0,0,0,0,1,0,0H69.27a0,0,0,0,1,0,0V99.88A11.81,11.81,0,0,1,81.08,88.07Z"/></clipPath><clipPath id="clip-path-2"><path class="cls-1" d="M207.49,88.07h6a11.81,11.81,0,0,1,11.81,11.81v17.69a0,0,0,0,1,0,0H195.68a0,0,0,0,1,0,0V99.88A11.81,11.81,0,0,1,207.49,88.07Z"/></clipPath></defs><title>Very Easy - House - v01-01</title><rect class="cls-2" x="74.27" y="25.66" width="71.38" height="85.38"/><rect class="cls-2" x="65.35" y="12.67" width="89.22" height="24.13"/><polygon class="cls-3" points="74.27 36.8 145.65 68.35 145.65 36.8 74.27 36.8"/><path class="cls-3" d="M153.87,3.66H66.05A6.23,6.23,0,0,0,60,10a6.23,6.23,0,0,0,6.09,6.33h9.46v12a4.47,4.47,0,1,0,8.93,0V23.1a4.32,4.32,0,0,0,3.1,1.32A4.56,4.56,0,0,0,92,19.78V16.33h61.87A6.23,6.23,0,0,0,160,10,6.23,6.23,0,0,0,153.87,3.66Z"/><path class="cls-4" d="M153.87,0H66.05A6.23,6.23,0,0,0,60,6.33a6.23,6.23,0,0,0,6.09,6.34h9.46v12a4.47,4.47,0,1,0,8.93,0V19.44a4.36,4.36,0,0,0,3.1,1.32A4.57,4.57,0,0,0,92,16.12V12.67h61.87A6.23,6.23,0,0,0,160,6.33,6.23,6.23,0,0,0,153.87,0Z"/><rect class="cls-5" x="24.94" y="109.07" width="246.44" height="193.97"/><polygon class="cls-4" points="295.18 136.43 3.33 136.43 30.88 73.89 271.38 73.89 295.18 136.43"/><polygon class="cls-6" points="283.91 146.85 13.35 146.85 3.33 136.43 295.18 136.43 283.91 146.85"/><rect class="cls-6" x="30.88" y="69.98" width="240.5" height="3.91"/><line class="cls-7" x1="22.57" y1="90.83" x2="278.51" y2="90.83"/><line class="cls-7" x1="22.57" y1="81.42" x2="278.51" y2="81.42"/><line class="cls-7" x1="15.72" y1="102.22" x2="283" y2="102.22"/><line class="cls-7" x1="12.61" y1="113.7" x2="287.5" y2="113.7"/><line class="cls-7" x1="12.61" y1="126.24" x2="287.5" y2="126.24"/><rect class="cls-4" x="124.34" y="202.15" width="45.92" height="92.21"/><rect class="cls-8" x="128.15" y="206.4" width="38.41" height="87.96"/><rect class="cls-6" x="135.16" y="214.8" width="9.55" height="42.2"/><rect class="cls-6" x="150" y="214.8" width="9.55" height="42.2"/><ellipse class="cls-9" cx="158.52" cy="263.15" rx="2.41" ry="1.88"/><polygon class="cls-3" points="166.56 206.4 136.38 206.4 128.15 206.4 128.15 214.97 128.15 294.36 136.38 294.36 136.38 214.97 166.56 214.97 166.56 206.4"/><rect class="cls-10" x="104.52" y="294.36" width="83.69" height="18.53"/><rect class="cls-10" x="104.52" y="303.62" width="83.69" height="9.26"/><rect class="cls-3" x="104.52" y="301.23" width="83.69" height="2.39"/><polygon class="cls-3" points="170.25 202.15 181.63 294.36 170.25 294.36 170.25 202.15"/><rect class="cls-11" x="119.35" y="174.56" width="15.81" height="5.99"/><rect class="cls-12" x="88.11" y="192.49" width="15.81" height="5.99"/><rect class="cls-12" x="138.45" y="186.49" width="15.81" height="5.99"/><rect class="cls-12" x="83.08" y="275.41" width="15.81" height="5.99"/><rect class="cls-12" x="47.64" y="291.36" width="15.81" height="5.99"/><rect class="cls-12" x="89.48" y="231.34" width="15.81" height="5.99"/><rect class="cls-11" x="197.61" y="278.41" width="15.81" height="5.99"/><rect class="cls-12" x="246.93" y="192.49" width="15.81" height="5.99"/><rect class="cls-11" x="252.2" y="222.67" width="15.81" height="5.99"/><rect class="cls-12" x="234.75" y="237.33" width="15.81" height="5.99"/><rect class="cls-12" x="250.56" y="291.36" width="15.81" height="5.99"/><rect class="cls-12" x="250.56" y="271.54" width="15.81" height="5.99"/><rect class="cls-12" x="172.39" y="192.49" width="15.81" height="5.99"/><rect class="cls-12" x="35.42" y="158.81" width="15.81" height="5.99"/><rect class="cls-11" x="35.42" y="203.06" width="15.81" height="5.99"/><rect class="cls-12" x="153.03" y="155.81" width="15.81" height="5.99"/><rect class="cls-11" x="76.16" y="158.81" width="15.81" height="5.99"/><rect class="cls-13" x="49.54" y="189.49" width="23.33" height="66.35"/><rect class="cls-13" x="72.86" y="189.49" width="23.33" height="66.35"/><line class="cls-13" x1="49.54" y1="234.34" x2="96.19" y2="234.34"/><rect class="cls-10" x="44.08" y="257.36" width="57.58" height="9.42"/><polygon class="cls-10" points="100.91 187.22 43.33 187.22 43.33 181.58 72.12 167.37 100.91 181.58 100.91 187.22"/><polyline class="cls-14" points="39.77 181.34 72.12 166.57 104.47 182.54"/><path class="cls-3" d="M43.33,181.58c1-.47,31.9-7.71,31.9-7.71l25.68,9L72.12,167.37Z"/><polyline class="cls-3" points="74.06 235.71 57.64 235.71 57.64 201.93 97.38 201.93 97.38 187.22 48.31 187.22 48.31 201.93 48.34 201.93 48.34 257.36 57.64 257.36 57.64 238.5 74.2 238.5 74.2 254.44 75.88 254.44 75.88 238.5 94.83 238.5 94.83 235.71 75.88 235.71"/><rect class="cls-13" x="194.81" y="189.49" width="23.33" height="66.35"/><rect class="cls-13" x="218.14" y="189.49" width="23.33" height="66.35"/><line class="cls-13" x1="194.81" y1="234.34" x2="241.47" y2="234.34"/><rect class="cls-10" x="189.35" y="257.36" width="57.58" height="9.42"/><rect class="cls-3" x="44.08" y="266.78" width="57.58" height="4.71"/><rect class="cls-3" x="189.35" y="266.78" width="57.58" height="4.71"/><polygon class="cls-10" points="246.18 187.22 188.6 187.22 188.6 181.58 217.39 167.37 246.18 181.58 246.18 187.22"/><polyline class="cls-14" points="185.05 181.34 217.39 166.57 249.74 182.54"/><path class="cls-3" d="M188.61,181.58c1-.47,31.9-7.71,31.9-7.71l25.67,9-28.79-15.52Z"/><polyline class="cls-3" points="219.34 235.71 202.91 235.71 202.91 201.93 242.66 201.93 242.66 187.22 193.59 187.22 193.59 201.93 193.62 201.93 193.62 257.36 202.91 257.36 202.91 238.5 219.48 238.5 219.48 254.44 221.16 254.44 221.16 238.5 240.11 238.5 240.11 235.71 221.16 235.71"/><polygon class="cls-3" points="24.94 146.85 271.38 201.13 271.38 146.85 24.94 146.85"/><path class="cls-4" d="M299.83,117.69h0L282.08,69.85a9.62,9.62,0,0,0-8.92-6.46H29.41a9.58,9.58,0,0,0-8.72,6L1.06,115a5.51,5.51,0,0,0-.83,1.94l-.13.31H.18a4.91,4.91,0,0,0-.08.86v22.29a5.18,5.18,0,0,0,5,5.32,5.18,5.18,0,0,0,5-5.32v-5.16l.19,0a4.34,4.34,0,0,0,4.19-4.46V117.2a4.93,4.93,0,0,0-.05-.54L29.28,80.6a9,9,0,0,1,8.14-5.95H265c3.67,0,7,2.55,8.32,6.45L286,116.83a4.67,4.67,0,0,0-.31,1.63V132a4.35,4.35,0,0,0,4.19,4.46l.19,0v5.16a5,5,0,1,0,10,0V119.32A5.51,5.51,0,0,0,299.83,117.69Z"/><rect class="cls-4" x="8.01" y="124.46" width="8.9" height="30.52" rx="4.28"/><rect class="cls-4" x="285.3" y="130.55" width="9.63" height="22.12" rx="4.63"/><rect class="cls-4" x="39.22" y="250.24" width="68.65" height="7.59" rx="3.56"/><rect class="cls-4" x="183.81" y="250.24" width="68.65" height="7.59" rx="3.56"/><rect class="cls-4" x="39.22" y="251.55" width="6.3" height="17.59" rx="3.03"/><rect class="cls-4" x="44.01" y="251.55" width="6.3" height="12.6" rx="3.03"/><rect class="cls-4" x="193.49" y="250.93" width="6.3" height="12.6" rx="3.03"/><rect class="cls-4" x="246.16" y="251.82" width="6.3" height="12.6" rx="3.03"/><rect class="cls-4" x="101.57" y="251.64" width="6.3" height="9.73" rx="3.03"/><rect class="cls-4" x="96.02" y="251.64" width="6.3" height="15.01" rx="3.03"/><rect class="cls-4" x="183.36" y="251.06" width="6.3" height="12.6" rx="3.03"/><rect class="cls-4" x="188.32" y="251.06" width="6.3" height="17.56" rx="3.03"/><rect class="cls-4" x="119.35" y="193.77" width="55.57" height="8.38" rx="3.93"/><rect class="cls-4" x="119.2" y="194.47" width="7.98" height="15.36" rx="3.84"/><rect class="cls-4" x="167.22" y="194.47" width="7.98" height="26.73" rx="3.84"/><rect class="cls-4" x="138.45" y="60.86" width="131.07" height="8.26" rx="3.87"/><rect class="cls-4" x="153.03" y="59.18" width="35.18" height="4.97" rx="2.33"/><rect class="cls-4" x="32.66" y="59.18" width="37.75" height="10.46" rx="4.91"/><rect class="cls-4" x="53.05" y="58.59" width="31.16" height="9.6" rx="4.5"/><rect class="cls-4" x="115" y="85.42" width="31.37" height="5.41" rx="2.54"/><rect class="cls-4" x="128.15" y="80.01" width="42.47" height="8.21" rx="3.85"/><rect class="cls-4" x="138.45" y="84.11" width="40.33" height="6.72" rx="3.15"/><path class="cls-4" d="M291.32,108.11H244.85a2.24,2.24,0,0,0-2.19,2.28h0c0,1.25,1,2.28,2.19,3.27h46.47c1.21-1,2.19-2,2.19-3.27h0A2.24,2.24,0,0,0,291.32,108.11Z"/><rect class="cls-4" x="11.15" y="106.54" width="43.27" height="6.13" rx="2.88"/><rect class="cls-4" x="11.15" y="102.82" width="28.62" height="6.25" rx="2.93"/><rect class="cls-4" x="17.82" y="78.98" width="24.54" height="7.87" rx="3.69"/><rect class="cls-4" x="24.89" y="74.42" width="20.62" height="7" rx="3.28"/><rect class="cls-4" x="245.05" y="86.84" width="39.81" height="3.98" rx="1.87"/><rect class="cls-15" x="117.05" y="84.08" width="41.57" height="6.74" rx="3.16"/><rect class="cls-15" x="128.58" y="89.38" width="41.57" height="6.74" rx="3.16"/><rect class="cls-15" x="145.77" y="85.42" width="32.33" height="6.79" rx="3.18"/><rect class="cls-15" x="19.04" y="107.5" width="32.33" height="6.79" rx="3.18"/><rect class="cls-15" x="26.2" y="101.77" width="32.33" height="6.79" rx="3.18"/><rect class="cls-15" x="29.35" y="71.94" width="32.33" height="6.79" rx="3.18"/><rect class="cls-15" x="35.07" y="75.59" width="25.85" height="6.79" rx="3.18"/><rect class="cls-15" x="131.78" y="107.5" width="25.85" height="6.79" rx="3.18"/><rect class="cls-15" x="140.2" y="110.43" width="25.85" height="6.79" rx="3.18"/><rect class="cls-15" x="225.91" y="66.24" width="25.85" height="6.79" rx="3.18"/><rect class="cls-15" x="237.64" y="68.54" width="25.85" height="6.79" rx="3.18"/><rect class="cls-15" x="245.05" y="92.73" width="32.33" height="6.79" rx="3.18"/><rect class="cls-15" x="10.05" y="129.61" width="280.07" height="6.84"/><path class="cls-13" d="M80.7,84.08h6.75a13.35,13.35,0,0,1,13.35,13.35v22.78a0,0,0,0,1,0,0H67.34a0,0,0,0,1,0,0V97.44A13.35,13.35,0,0,1,80.7,84.08Z"/><rect class="cls-10" x="60.27" y="121.55" width="47.6" height="4.68"/><g class="cls-16"><polygon class="cls-17" points="90.52 125.79 85.59 128.75 66.94 95.16 71.87 92.2 90.52 125.79"/><polygon class="cls-17" points="104.17 115.73 97.28 119.87 78.63 86.28 85.52 82.14 104.17 115.73"/></g><path class="cls-4" d="M84.07,85.42c-8.53,0-15.44,7.19-15.44,16.06v17.4H99.51v-17.4C99.51,92.61,92.59,85.42,84.07,85.42ZM96.3,97.35H85.68V88.21A13.05,13.05,0,0,1,96.3,97.35Zm-13.2-9.2v9.2H71.84A13,13,0,0,1,83.1,88.15ZM96.93,116.2H71.2V101.48a13.94,13.94,0,0,1,.08-1.45H96.85a13.94,13.94,0,0,1,.08,1.45Z"/><path class="cls-3" d="M75.61,88a16.13,16.13,0,0,0-7,13.47v17.4h7Z"/><path class="cls-13" d="M207.1,84.08h6.75A13.35,13.35,0,0,1,227.2,97.44v22.78a0,0,0,0,1,0,0H193.75a0,0,0,0,1,0,0V97.44A13.35,13.35,0,0,1,207.1,84.08Z"/><rect class="cls-10" x="186.67" y="121.55" width="47.6" height="4.68"/><g class="cls-18"><polygon class="cls-17" points="216.92 125.79 211.99 128.75 193.35 95.16 198.27 92.2 216.92 125.79"/><polygon class="cls-17" points="230.58 115.73 223.68 119.87 205.04 86.28 211.93 82.14 230.58 115.73"/></g><path class="cls-4" d="M210.47,85.42C202,85.42,195,92.61,195,101.48v17.4h30.87v-17.4C225.91,92.61,219,85.42,210.47,85.42Zm12.24,11.93H212.08V88.21A13.05,13.05,0,0,1,222.71,97.35Zm-13.2-9.2v9.2H198.24A13,13,0,0,1,209.51,88.15Zm13.83,28.05H197.61V101.48a13.94,13.94,0,0,1,.08-1.45h25.57a13.94,13.94,0,0,1,.08,1.45Z"/><path class="cls-3" d="M202,88a16.15,16.15,0,0,0-7,13.47v17.4h7Z"/><path class="cls-19" d="M123.19,126.24,110.41,99.52h0a4.05,4.05,0,0,0,.37-1.68c0-11.51-9-20.88-20.07-20.88H80.56C69.5,77,60.49,86.32,60.49,97.83a3.82,3.82,0,1,0,7.64,0,13.1,13.1,0,0,1,4.26-9.72v2.71a2.86,2.86,0,1,0,5.71,0V85.16a11.8,11.8,0,0,1,2.46-.26H90.71a12.7,12.7,0,0,1,12.43,12.93,4.91,4.91,0,0,0,.06.67h0l-.12,23.06h4.79v4.69Z"/><path class="cls-4" d="M88.5,74H78.35c-11.06,0-20.07,9.37-20.07,20.88a3.82,3.82,0,1,0,7.64,0,13.12,13.12,0,0,1,4.26-9.72v2.7a2.86,2.86,0,1,0,5.71,0V82.19a11.8,11.8,0,0,1,2.46-.25H88.5a12.7,12.7,0,0,1,12.43,12.93,3.82,3.82,0,1,0,7.64,0C108.57,83.36,99.57,74,88.5,74Z"/><path class="cls-19" d="M229.58,98.49v23.06h4.72v4.69h15.32L236.84,99.52h0a4.05,4.05,0,0,0,.37-1.68c0-11.51-9-20.88-20.07-20.88H207c-11.07,0-20.07,9.37-20.07,20.88a3.82,3.82,0,1,0,7.64,0,13.1,13.1,0,0,1,4.26-9.72v2.71a2.86,2.86,0,1,0,5.71,0V85.16A11.8,11.8,0,0,1,207,84.9h10.15a12.7,12.7,0,0,1,12.43,12.93"/><path class="cls-4" d="M214.93,74H204.78c-11.06,0-20.07,9.37-20.07,20.88a3.82,3.82,0,1,0,7.64,0,13.12,13.12,0,0,1,4.26-9.72v2.7a2.86,2.86,0,1,0,5.71,0V82.19a11.8,11.8,0,0,1,2.46-.25h10.15a12.7,12.7,0,0,1,12.43,12.93,3.82,3.82,0,1,0,7.64,0C235,83.36,226,74,214.93,74Z"/><rect class="cls-4" x="250.56" y="123.69" width="10.65" height="20.32" rx="5.12"/><rect class="cls-4" x="258.47" y="118.88" width="9.54" height="19.47" rx="4.59"/><path class="cls-15" d="M263.24,134.84a4.63,4.63,0,0,1-2-.49v.6a5.45,5.45,0,0,1-5.33,5.54h0a5.45,5.45,0,0,1-5.33-5.54v3.52a5.46,5.46,0,0,0,5.33,5.54h0a5.46,5.46,0,0,0,5.33-5.54v-.61a4.49,4.49,0,0,0,2,.49,4.88,4.88,0,0,0,4.77-5v-3.52A4.89,4.89,0,0,1,263.24,134.84Z"/><path class="cls-4" d="M151.13,130a5.52,5.52,0,0,0-4.16-5.4,4.82,4.82,0,0,0-9.5.42,5.09,5.09,0,0,0-5.87.88,5.1,5.1,0,0,0-4.16-2.21h0a5.17,5.17,0,0,0-4.87,3.67h-6v7a3.82,3.82,0,0,0,3.73,3.88,3.64,3.64,0,0,0,2-.64v4.89a5.26,5.26,0,0,0,5.14,5.35h0a5.27,5.27,0,0,0,5.15-5.35v-.23a5.13,5.13,0,0,0,2.57.7A5.34,5.34,0,0,0,140,139.7a4.64,4.64,0,0,0,2.25.61,5,5,0,0,0,4.86-5A5.5,5.5,0,0,0,151.13,130Z"/><path class="cls-15" d="M149,129.58c-.55,1.29-2.65,3-3.94,3a4.21,4.21,0,0,1-4.11,4.19,4,4,0,0,1-1.9-.51A4.52,4.52,0,0,1,135,139a4.35,4.35,0,0,1-2.17-.59v.2a4.46,4.46,0,0,1-4.35,4.52h0a4.45,4.45,0,0,1-4.34-4.52V134.5a3.06,3.06,0,0,1-1.73.54,3.23,3.23,0,0,1-3.16-3.28v-2.18l-2.68,0v4.93a3.82,3.82,0,0,0,3.73,3.89,3.57,3.57,0,0,0,2-.65v4.9a5.27,5.27,0,0,0,5.14,5.35h0a5.27,5.27,0,0,0,5.15-5.35v-.23a5.12,5.12,0,0,0,2.57.69,5.35,5.35,0,0,0,4.86-3.27,4.64,4.64,0,0,0,2.25.6,5,5,0,0,0,4.86-4.95c2.3-.62,5-3.38,5-5.94Z"/><path class="cls-15" d="M298.59,141.56a3.67,3.67,0,0,1-3.48,2.91c-1.68,0-4.6-1.25-5-2.91h0a5,5,0,1,0,10,0Z"/><path class="cls-15" d="M293.48,147.51a3.53,3.53,0,0,1-3.37,2.81c-1.62,0-4.39-1.2-4.77-2.81h0a4.83,4.83,0,1,0,9.65,0Z"/><polygon class="cls-15" points="294.94 147.51 294.94 144.93 293.47 144.93 293.47 148.01 294.94 147.51"/><polyline class="cls-15" points="298.59 141.56 300.1 130.76 300.1 141.56 298.72 141.64"/><path class="cls-20" d="M299.73,327.11h0L282,333.6c-1.44.53-5,.88-8.91.88h-3.89a13.88,13.88,0,0,1-3.62.34H188a7.28,7.28,0,0,1-2.23.23H155.26a7.28,7.28,0,0,1-2.23-.23h-7.48v3.27h8.92v2.79c3,0,5.39.41,5.39.85,0,.09-.09.17-.26.25.17.08.26.16.26.25,0,.47-2.74.86-6.08.86H66c-3.35,0-6.09-.39-6.09-.86,0-.09.1-.17.27-.25-.17-.08-.27-.16-.27-.25,0-.44,2.37-.81,5.39-.85v-2.79h8.93v-3H57.46c-.79,0-1.52,0-2.17-.08H37.47c-2.46,0-4.5-.25-4.84-.57H29.31a35.93,35.93,0,0,1-8.72-.81L1,327.48a2.68,2.68,0,0,1-.84-.26l-.13,0H.08S0,327.1,0,327.06v-3c0-.39,2.25-.72,5-.72,1.09,0,2.1.06,2.92.14v-.82c0-.32,1.93-.58,4.28-.58h.35c2.35,0,4.27.26,4.27.58v.52h8V302h79.57v-1.34h83.69V302h83.17v21.2h12.53l1.39.18v-.27h0V323c0-.35,2.08-.63,4.63-.63h.38c2.54,0,4.63.28,4.63.63v.06h0v.08H295c2.74,0,5,.33,5,.72h0v3C300,327,299.89,327,299.73,327.11Z"/></svg>