<svg id="Layer_1" data-name="Layer 1" xmlns="http://www.w3.org/2000/svg" viewBox="0 0 678.93 154.25"><defs><style>.cls-1{fill:#0749a8;}.cls-2{fill:#035eff;}.cls-3{fill:#ffd400;}.cls-4{fill:#2d9000;}.cls-5{fill:#1b4900;}.cls-6{fill:#a58500;}.cls-7{fill:#7600ff;}.cls-8{fill:#4b00b5;}.cls-9{fill:#06fff2;}.cls-10{fill:#008278;}.cls-11{fill:#ce3500;stroke-width:0.76px;}.cls-11,.cls-50{stroke:#000;}.cls-11,.cls-13,.cls-14,.cls-15,.cls-16,.cls-21,.cls-24,.cls-28,.cls-29,.cls-38,.cls-40,.cls-41,.cls-42,.cls-44,.cls-45,.cls-48,.cls-50,.cls-51{stroke-miterlimit:10;}.cls-12{fill:#931f00;}.cls-13,.cls-14,.cls-15,.cls-16,.cls-21,.cls-24,.cls-29,.cls-38,.cls-40,.cls-41,.cls-42,.cls-44,.cls-45,.cls-48,.cls-51{fill:none;}.cls-13,.cls-38{stroke:#931f00;}.cls-13,.cls-14,.cls-15,.cls-16,.cls-21,.cls-24,.cls-29,.cls-38,.cls-41,.cls-42{stroke-linecap:round;}.cls-13,.cls-14{stroke-width:3.43px;}.cls-14{stroke:#fff;}.cls-15,.cls-16{stroke:#c63300;}.cls-15,.cls-42{stroke-width:1.65px;}.cls-16{stroke-width:1.1px;}.cls-17{fill:#0e0e1e;}.cls-18{fill:#b25530;}.cls-19,.cls-50{fill:#fff;}.cls-20{fill:#ea8a59;}.cls-21{stroke:#c66738;stroke-width:0.47px;}.cls-22{fill:#cecece;}.cls-23{fill:#00a99d;}.cls-24,.cls-29{stroke:#efefef;}.cls-24{stroke-width:1.1px;}.cls-25{fill:#c1c1c1;}.cls-26{fill:#bcbcbc;}.cls-27{fill:#c66738;}.cls-28{fill:#ff76b4;stroke:#b55973;stroke-width:0.45px;}.cls-29{stroke-width:1.06px;}.cls-30{fill:#dd6c3a;}.cls-31{fill:#b55731;}.cls-32{fill:red;}.cls-33{fill:#932600;}.cls-34{fill:#c43300;}.cls-35{fill:#ff4800;}.cls-36{fill:#308200;}.cls-37{fill:#ff5d31;}.cls-38{stroke-width:4.4px;}.cls-39{fill:#915320;}.cls-40{stroke:#ffe09c;stroke-width:5.23px;}.cls-41{stroke:#c67328;stroke-width:3.3px;}.cls-42{stroke:#915320;}.cls-43{fill:#c63300;}.cls-44{stroke:#ffc200;stroke-width:3.58px;}.cls-45{stroke:#c18f02;stroke-width:1.93px;}.cls-46{fill:#936a05;}.cls-47{fill:#ffc200;}.cls-48{stroke:#ffd261;stroke-width:2.2px;}.cls-49{fill:#753823;}.cls-50{stroke-width:1.49px;}.cls-51{stroke:#cecece;stroke-width:0.94px;}.cls-52{fill:#6d6d84;}</style></defs><title>Sleigh - v01-01</title><path class="cls-1" d="M121.15,84.7a5.07,5.07,0,0,0-1-.23h-.06a5,5,0,0,0-1,9.91c7.28,1,11.3.24,11.3.24C128,87.49,123.28,85.33,121.15,84.7Zm-.1,8.89a3.22,3.22,0,1,1,.68-6.4h0a2.85,2.85,0,0,1,.67.15c1.38.4,4.4,1.8,5.91,6.39A25.65,25.65,0,0,1,121.05,93.59Z"/><path class="cls-1" d="M130.3,94.61s3.77,1.56,11.09,2.13a5,5,0,0,0,1.05-9.92h-.07a4.69,4.69,0,0,0-1.06,0C139.1,87,134.06,88.13,130.3,94.61Zm2.08-.44c2.43-4.18,5.68-4.91,7.11-5a3.18,3.18,0,0,1,.69,0h0a3.22,3.22,0,0,1-.67,6.4A26.08,26.08,0,0,1,132.38,94.17Z"/><path class="cls-2" d="M119.94,85.42H120a4.75,4.75,0,0,1,.83.19h0A11.22,11.22,0,0,1,125,88a14.82,14.82,0,0,1,4,5.85,43.54,43.54,0,0,1-8.14-.19c-.56-.06-1.13-.12-1.7-.2h0a4,4,0,0,1,.84-8m.11-1a5,5,0,0,0-1,9.91l1.73.21a37.2,37.2,0,0,0,9.57,0c-2.33-7.12-7-9.28-9.15-9.91a5.07,5.07,0,0,0-1-.23Z"/><path class="cls-2" d="M142.34,87.79a4,4,0,1,1-.84,8h0l-1.71-.16a43.55,43.55,0,0,1-8-1.52,14.8,14.8,0,0,1,5.1-4.89,11.13,11.13,0,0,1,4.53-1.4h0a4,4,0,0,1,.85,0h.06m.1-1h-.07a4.69,4.69,0,0,0-1.06,0c-2.21.17-7.25,1.3-11,7.78a37.24,37.24,0,0,0,9.36,2l1.73.16a5,5,0,0,0,1.05-9.92Z"/><path class="cls-1" d="M120.66,94.19,118.93,94a5,5,0,0,1-4.45-5.29,1.23,1.23,0,0,1,0,.19,5,5,0,0,0,4.43,5.48l1.73.21a37.2,37.2,0,0,0,9.57,0l-.12-.35A39.26,39.26,0,0,1,120.66,94.19Z"/><path class="cls-1" d="M141.33,96.34c-.6,0-1.18-.1-1.74-.15a39.79,39.79,0,0,1-9.21-1.91l-.19.32a37.4,37.4,0,0,0,9.36,2c.56.05,1.14.11,1.74.15a5,5,0,0,0,5.48-4.43c0-.06,0-.13,0-.19A5,5,0,0,1,141.33,96.34Z"/><path class="cls-1" d="M127.73,92.17a1.29,1.29,0,0,1,1.11-.34l.33,0-.26-.49-.33,0a1.33,1.33,0,0,0-1.11.34Z"/><path class="cls-1" d="M133.32,92.76a1.32,1.32,0,0,0-1-.57l-.33,0,.35-.43.33,0a1.31,1.31,0,0,1,1,.56Z"/><rect class="cls-2" x="127.1" y="92" width="6.5" height="4.21" rx="1.77" transform="translate(10.6 -13.16) rotate(6.03)"/><rect class="cls-3" x="114.44" y="96.29" width="31.23" height="28.16" rx="7.8" transform="translate(7.22 -7.99) rotate(3.62)"/><path class="cls-4" d="M148.58,104.51l.43-6.72A1.69,1.69,0,0,0,147.43,96l-32.85-2.07a1.68,1.68,0,0,0-1.78,1.57l-.42,6.72Z"/><polygon class="cls-5" points="125.36 106.98 123.97 124.08 125.52 124.18 127.04 105.79 125.36 106.98"/><polygon class="cls-6" points="114.55 108.17 146.06 104.69 146.18 103.47 115 100.91 114.55 108.17"/><path class="cls-3" d="M126.59,103.15l.43-8.49-12.43-.73a1.68,1.68,0,0,0-1.79,1.57l-.42,6.72Z"/><path class="cls-3" d="M148.9,97.74A1.68,1.68,0,0,0,147.33,96l-13.05-.83-.54,8.41,14.74.93Z"/><path class="cls-2" d="M128.22,94.1h2.57a2.67,2.67,0,0,1,2.67,2.67v25a3.32,3.32,0,0,1-3.32,3.32h-1.27a3.32,3.32,0,0,1-3.32-3.32v-25a2.67,2.67,0,0,1,2.67-2.67Z" transform="translate(7.17 -7.96) rotate(3.62)"/><path class="cls-1" d="M126.75,123.81l1.83-28.89a.9.9,0,0,1,.95-.85l-2.09-.13a.91.91,0,0,0-1,.85l-1.82,28.89a1.11,1.11,0,0,0,1,1.19l5.65.36h0L127.8,125A1.13,1.13,0,0,1,126.75,123.81Z"/><path class="cls-1" d="M129.79,124a1.13,1.13,0,0,1-1.19,1l2.8.17a1.12,1.12,0,0,0,1.19-1l.94-14.81"/><rect class="cls-7" x="60.38" y="22.72" width="27.41" height="24.71" rx="7.8" transform="translate(18.58 -25.24) rotate(22.05)"/><polygon class="cls-8" points="62.93 26.11 88.3 36.48 88.98 34.8 89.42 33.81 64.18 23.03 62.93 26.11"/><path class="cls-9" d="M72.72,20.69H75A2.34,2.34,0,0,1,77.31,23V45a2.91,2.91,0,0,1-2.91,2.91H73.28A2.91,2.91,0,0,1,70.37,45V23a2.34,2.34,0,0,1,2.34-2.34Z" transform="translate(18.27 -25.21) rotate(22.05)"/><path class="cls-7" d="M73.2,28.11l2.72-6.95L65.76,17.1a1.48,1.48,0,0,0-1.92.81l-2.22,5.48Z"/><path class="cls-7" d="M93.37,29.83a1.47,1.47,0,0,0-.81-1.92L81.92,23.6l-2.77,6.85,12,4.86Z"/><path class="cls-10" d="M73.79,11.24a5.3,5.3,0,0,0-.8-.48l0,0a4.38,4.38,0,1,0-3.62,8A35,35,0,0,0,78.65,22C78.69,15.45,75.39,12.36,73.79,11.24Zm-2.55,7.37a2.82,2.82,0,0,1,2.34-5.14l0,0a3.3,3.3,0,0,1,.51.31c1,.72,3.16,2.72,3.14,7A22.81,22.81,0,0,1,71.24,18.61Z"/><path class="cls-10" d="M78.65,22a35.26,35.26,0,0,0,8.65,4.85,4.38,4.38,0,0,0,3.62-8l0,0a4.17,4.17,0,0,0-.89-.28C88.09,18.14,83.58,17.68,78.65,22Zm1.86.21c3.19-2.81,6.1-2.51,7.32-2.21a3.13,3.13,0,0,1,.57.18l0,0a2.82,2.82,0,1,1-2.33,5.14A22.76,22.76,0,0,1,80.51,22.24Z"/><path class="cls-9" d="M72.58,11.51h0a4.21,4.21,0,0,1,.64.39h0A9.81,9.81,0,0,1,76.1,15a13,13,0,0,1,1.68,6,37.14,37.14,0,0,1-6.73-2.41c-.45-.2-.91-.42-1.36-.64h0a3.52,3.52,0,1,1,2.91-6.41m.36-.78a4.38,4.38,0,1,0-3.62,8c.47.23.93.45,1.38.65a32.54,32.54,0,0,0,8,2.68c0-6.58-3.26-9.67-4.86-10.79a5.3,5.3,0,0,0-.8-.48l0,0Z"/><path class="cls-9" d="M90.57,19.69a3.52,3.52,0,0,1-2.91,6.41h0c-.46-.19-.93-.4-1.37-.6A37.84,37.84,0,0,1,80,22a13,13,0,0,1,5.59-2.65,9.65,9.65,0,0,1,4.16.09h0a3.56,3.56,0,0,1,.72.23h0m.35-.78,0,0a4.17,4.17,0,0,0-.89-.28c-1.89-.47-6.4-.93-11.33,3.42a32.66,32.66,0,0,0,7.25,4.23c.45.21.91.41,1.4.62a4.38,4.38,0,0,0,3.62-8Z"/><path class="cls-10" d="M70.75,19l-1.38-.65a4.38,4.38,0,0,1-2.24-5.64s0,.1-.07.16a4.37,4.37,0,0,0,2.17,5.79l1.38.65a32.51,32.51,0,0,0,8,2.68c0-.11,0-.22,0-.33A34,34,0,0,1,70.75,19Z"/><path class="cls-10" d="M87.36,26.53c-.49-.2-1-.41-1.4-.61a34.36,34.36,0,0,1-7.14-4.14l-.25.21a32.66,32.66,0,0,0,7.25,4.23c.44.21.91.41,1.4.62A4.37,4.37,0,0,0,93,24.67l.06-.16A4.36,4.36,0,0,1,87.36,26.53Z"/><path class="cls-10" d="M77.19,19.28a1.17,1.17,0,0,1,1,0l.26.12L78.4,19l-.26-.12a1.14,1.14,0,0,0-1,0Z"/><path class="cls-10" d="M81.69,21.32a1.18,1.18,0,0,0-.7-.75l-.26-.12.41-.26.27.13a1.17,1.17,0,0,1,.69.75Z"/><rect class="cls-10" x="75.99" y="19.77" width="5.7" height="3.69" rx="1.55" transform="translate(16.02 -30.7) rotate(24.46)"/><path class="cls-10" d="M67.6,45.36l9.54-23.55a.79.79,0,0,1,1-.44l-1.7-.69a.8.8,0,0,0-1,.44L65.89,44.67A1,1,0,0,0,66.44,46L71,47.81h0l-2.92-1.18A1,1,0,0,1,67.6,45.36Z"/><path class="cls-1" d="M39.33.27a5,5,0,0,0-1-.23h-.07a5,5,0,1,0-1,9.91c7.28,1,11.29.24,11.29.24C46.15,3.06,41.47.9,39.33.27Zm-.09,8.89a3.22,3.22,0,0,1,.68-6.4h0a3.11,3.11,0,0,1,.67.16c1.37.4,4.4,1.8,5.9,6.39A25.59,25.59,0,0,1,39.24,9.16Z"/><path class="cls-1" d="M48.48,10.18s3.77,1.56,11.1,2.12a5,5,0,1,0,1.05-9.91h-.07a4.69,4.69,0,0,0-1.06,0C57.28,2.57,52.25,3.7,48.48,10.18Zm2.09-.44c2.43-4.18,5.68-4.91,7.11-5a3.08,3.08,0,0,1,.68,0h0a3.22,3.22,0,0,1-.68,6.4A25.93,25.93,0,0,1,50.57,9.74Z"/><path class="cls-2" d="M38.13,1h.06a4,4,0,0,1,.83.19h0A11.22,11.22,0,0,1,43.2,3.52a14.85,14.85,0,0,1,4,5.84A42.39,42.39,0,0,1,39,9.18c-.56-.06-1.14-.12-1.71-.2h0a4,4,0,0,1,.84-8m.1-1a5,5,0,1,0-1,9.91l1.72.21a37.2,37.2,0,0,0,9.57,0C46.15,3.06,41.47.9,39.33.27a5,5,0,0,0-1-.23Z"/><path class="cls-2" d="M60.53,3.36a4,4,0,0,1-.85,8h0L58,11.18a43.55,43.55,0,0,1-8-1.52A14.86,14.86,0,0,1,55,4.77a11.17,11.17,0,0,1,4.53-1.4h0a4.94,4.94,0,0,1,.86,0h.06m.1-1h-.07a4.69,4.69,0,0,0-1.06,0c-2.22.17-7.25,1.3-11,7.78a37.42,37.42,0,0,0,9.37,2c.55,0,1.13.11,1.73.15a5,5,0,1,0,1.05-9.91Z"/><path class="cls-1" d="M38.85,9.76l-1.73-.21a5,5,0,0,1-4.45-5.29,1.23,1.23,0,0,0,0,.19,5,5,0,0,0,4.43,5.48l1.73.21a37.2,37.2,0,0,0,9.57,0c0-.12-.09-.23-.13-.35A39.19,39.19,0,0,1,38.85,9.76Z"/><path class="cls-1" d="M59.51,11.91c-.6,0-1.18-.1-1.73-.16a39.47,39.47,0,0,1-9.21-1.9l-.19.32a37,37,0,0,0,9.36,2c.55.06,1.13.12,1.73.16A5,5,0,0,0,65,7.86c0-.06,0-.13,0-.19A5,5,0,0,1,59.51,11.91Z"/><path class="cls-1" d="M45.91,7.73A1.38,1.38,0,0,1,47,7.39l.33,0-.26-.49-.33,0a1.32,1.32,0,0,0-1.11.34Z"/><path class="cls-1" d="M51.51,8.32a1.37,1.37,0,0,0-1-.56l-.32,0,.35-.42.33,0a1.31,1.31,0,0,1,1,.56Z"/><rect class="cls-2" x="45.29" y="7.56" width="6.5" height="4.21" rx="1.77" transform="translate(1.28 -5.04) rotate(6.03)"/><rect class="cls-3" x="32.62" y="11.85" width="31.23" height="28.16" rx="7.8" transform="translate(1.73 -2.99) rotate(3.62)"/><path class="cls-4" d="M66.77,20.08l.42-6.72a1.68,1.68,0,0,0-1.57-1.79L32.77,9.5A1.67,1.67,0,0,0,31,11.07l-.43,6.72Z"/><polygon class="cls-5" points="43.55 22.55 42.15 39.64 43.71 39.75 45.23 21.36 43.55 22.55"/><polygon class="cls-6" points="32.73 23.74 64.25 20.26 64.37 19.04 33.19 16.48 32.73 23.74"/><path class="cls-3" d="M44.78,18.72l.43-8.49L32.77,9.5A1.67,1.67,0,0,0,31,11.07l-.43,6.72Z"/><path class="cls-3" d="M67.09,13.31a1.69,1.69,0,0,0-1.58-1.78L52.46,10.7l-.53,8.4L66.66,20Z"/><path class="cls-2" d="M46.41,9.67H49a2.67,2.67,0,0,1,2.67,2.67v25a3.32,3.32,0,0,1-3.32,3.32H47.06a3.32,3.32,0,0,1-3.32-3.32v-25a2.67,2.67,0,0,1,2.67-2.67Z" transform="translate(1.68 -2.96) rotate(3.62)"/><path class="cls-1" d="M44.94,39.38l1.83-28.89a.9.9,0,0,1,.94-.85l-2.08-.13a.91.91,0,0,0-1,.84l-1.83,28.9a1.12,1.12,0,0,0,1,1.19l5.65.36h0L46,40.57A1.11,1.11,0,0,1,44.94,39.38Z"/><path class="cls-1" d="M48,39.57a1.11,1.11,0,0,1-1.19,1l2.81.18a1.12,1.12,0,0,0,1.19-1l.94-14.81"/><path class="cls-11" d="M94.62,91.22H89.79a19.64,19.64,0,0,0-2.21-9.07L89.76,80l-6-6A21.87,21.87,0,0,0,68.26,36.7c-.33,0-.65,0-1,0a3,3,0,0,0,.2-.4,12.94,12.94,0,0,0,1.61-2.7c1.84-4.06,1.5-8.19-.76-9.21-1.36-.61-3.1,0-4.67,1.52a7.71,7.71,0,0,0-6.22,0c-.86-2.61-2.41-4.36-4.19-4.36-2.7,0-4.88,4-4.88,9a16.68,16.68,0,0,0,.14,2.16A26.47,26.47,0,0,0,39,36.36a27.39,27.39,0,0,0-3,2.15l-.84-.85L27.83,45l1.63,1.63a24.89,24.89,0,0,0-2.8,11H24.89v1.94a10.84,10.84,0,0,0-5.73,7.25A10.64,10.64,0,0,0,19,70.72a6.54,6.54,0,0,0-4.31,3.44,5.66,5.66,0,0,0-.49,2.6c-2.76.09-4.89,1-5.67,2.76C7,82.88,11.05,88,17.53,90.91c.58.26,1.15.49,1.72.7l1.92,1.92c-.05.88-.08,1.77-.08,2.67,0,12,4.09,22.36,10,27.25a19.75,19.75,0,0,0,27.12,3.3A19.74,19.74,0,0,0,89.79,111c0-.74-.05-1.47-.12-2.18h5Z"/><path class="cls-12" d="M58.22,126.88a19.75,19.75,0,0,1-27.12-3.3c-5.92-4.89-10-15.26-10-27.26,0-.9,0-1.79.08-2.67l-1.92-1.91c-.57-.21-1.14-.44-1.72-.7C11.05,88.1,7,83,8.56,79.65c.78-1.75,2.91-2.67,5.67-2.76a5.66,5.66,0,0,1,.49-2.6A6.54,6.54,0,0,1,19,70.85,10.64,10.64,0,0,1,19.16,67a10.84,10.84,0,0,1,5.73-7.25V57.77h1.77a24.82,24.82,0,0,1,2.8-11l-1.63-1.63,7.35-7.35.84.85a25,25,0,0,1,3-2.15,26.47,26.47,0,0,1,9.5-3.62S8.24,81.22,58.22,126.88Z"/><path class="cls-13" d="M32.28,58.74s8.5,20.08,50.39,15.38"/><path class="cls-13" d="M89.67,108.78s-26.51,17.79-47.51,1.33"/><path class="cls-13" d="M48.51,32.74s7.71,9.79,19.75,4"/><path class="cls-13" d="M62.45,38.07s10.62-7.72,19.27-6.94c7.81.7,6.92,12.5-.91,12.14C76.63,43.08,70.74,41.7,62.45,38.07Z"/><path class="cls-13" d="M60.43,37.39S56.17,25,48.64,20.64c-6.8-3.91-12.85,6.27-6.23,10.47C45.94,33.35,51.56,35.6,60.43,37.39Z"/><path class="cls-14" d="M80.1,49.35S82.79,58.78,78,66.78"/><path class="cls-14" d="M82.67,84s5.63,9,2,18.08"/><path class="cls-15" d="M191.72,90a267.12,267.12,0,0,1,57.94-7.47c37.71-.42,80.53,6.58,80.69,14.93"/><path class="cls-15" d="M290,84.41s45.29-3.21,82.82-2.67c33.23.48,64,8.59,64.15,15.72"/><path class="cls-16" d="M407.33,84.76S543,82.28,543.25,97.46"/><path class="cls-15" d="M514.25,87.54s134.74-5.26,135,9.92"/><path class="cls-17" d="M149.09,121.28s3.95,4.2,9.42,2.89c0,0,5.79.67,8.43-2.25a5.09,5.09,0,0,0,.48-.64Z"/><path class="cls-18" d="M178.9,129.53,172.69,127a.1.1,0,0,1,.05-.19l3.12.4a.15.15,0,0,0,0-.29c-2.32-.56-4.71-1.3-6.95-1.82h0l-2.62-.56a.08.08,0,0,1-.05-.11l1.56-3.45a.09.09,0,0,0-.07-.12l-7.83-.27a.1.1,0,0,0-.09.07l-.39,4.87a0,0,0,0,1,0,0h0a3,3,0,0,0,1.21,3.93l.91.5a2.8,2.8,0,0,0,.85.31l9.78,1.95a.56.56,0,0,0,.37-1L169,129.31a.08.08,0,0,1,.05-.15l9.68,1A.33.33,0,0,0,178.9,129.53Z"/><path class="cls-17" d="M168.22,89.72,181,100.65a4,4,0,0,0,5-.29l12.89-11.47A1.73,1.73,0,0,0,197.13,86l-9.29,3.26a7.57,7.57,0,0,1-8.07-2l-9.06-9.91-2.49,13"/><path class="cls-17" d="M167.57,122.86a41.11,41.11,0,0,1-21.28-.51c-.71-.2,2.56-6.49,1.77-6.82-.41-.18-4.86,5.64-5.29,5.44l-1.82-.91c-.38-.2,4.42-5.49,3.69-5.9-1-.55-5.25,5-6.37,4.35-1.36-.82-4.58-2.74-5.66-3.43l8.35-7.92c7.87-12.75,3.89-23.24,5.29-36.66.51-9.16,5.6-18.71,14.49-19.94h0c6.11-.67,15.67,3,18,15.68l-.2,9.27,3.71,17,0,13.42C182.36,119.69,176.05,122.86,167.57,122.86Z"/><path class="cls-19" d="M178.73,80.92c.24-1.43.38-6.25.38-7.85,0-7.39-1.8-12.89-5.75-12.89-2.48,0-3.76,1-4.72,4.5a17,17,0,0,0-.49,7.95c.53,2.92.4,7,1.8,8.86-2.9,4-4,12.39-4,13,0,1.23,0,2.44.12,3.62h0c.66,10.56,3,20.41,7.41,20.41,4.88,0,8.84-8.1,8.84-20.22A41.85,41.85,0,0,0,178.73,80.92Z"/><polygon class="cls-20" points="184.51 81.18 178.33 76.2 175.52 81.64 178.33 86.78 184.51 81.18"/><polyline class="cls-21" points="178.15 76.26 175.34 81.69 178.15 86.83"/><path d="M184.51,81.23s-6.41,1.64-9,.46C175.52,81.69,181.76,84.72,184.51,81.23Z"/><path class="cls-22" d="M178.62,73.51c0,3.65-1.33,6.6-3,6.6s-2.9-3-2.9-6.6,1.27-6.61,2.9-6.61S178.62,69.86,178.62,73.51Z"/><path class="cls-19" d="M178.79,73.51c0,3-1.08,5.4-2.42,5.4s-2.45-2.42-2.45-5.4,1.11-5.41,2.45-5.41S178.79,70.52,178.79,73.51Z"/><ellipse class="cls-23" cx="178.17" cy="73.51" rx="0.76" ry="1.37"/><ellipse class="cls-17" cx="178.33" cy="73.51" rx="0.66" ry="1.2"/><path class="cls-17" d="M172.49,67.45a1.6,1.6,0,0,1-.08-1.25,1.57,1.57,0,0,1,1-.91,2.27,2.27,0,0,1,1.26-.06,4.76,4.76,0,0,1,1.06.45l0,.07a4.5,4.5,0,0,0-1.08-.11,1.67,1.67,0,0,0-.91.24c-.25.17-.34.44-.52.68l-.59.89Z"/><path class="cls-17" d="M163,94.83l13.94,9.78a4,4,0,0,0,5-.28l12.88-11.48a1.73,1.73,0,0,0-1.72-2.92l-9.29,3.26a7.54,7.54,0,0,1-8.06-2L167.08,79.5,163,95.39"/><path class="cls-24" d="M160.14,56.79A11.37,11.37,0,0,0,155.54,67"/><path class="cls-19" d="M124.67,71.72a9.09,9.09,0,0,0-18.14-.88,9.09,9.09,0,0,0-18.15.73l-3.24,42.25a8.54,8.54,0,0,0,8.5,8.57l25.51.1a8.53,8.53,0,0,0,8.57-8.49"/><path class="cls-25" d="M99.5,124.12s-7.64-2.87-8.25-11.39c-1.23-17-6.51-56,12.41-47.78l-.51-10.28L87.42,62,85.2,80.39l-.74,41.73Z"/><path class="cls-17" d="M129,70.64a20.82,20.82,0,0,0-20.74-20.92h-3.77A20.82,20.82,0,0,0,83.58,70.44l-3.25,44.78a11.91,11.91,0,0,0,11.85,12l27.83.12a11.91,11.91,0,0,0,12-11.85Zm-9.85,51.85-25.51-.1a8.54,8.54,0,0,1-8.5-8.57l3.24-42.25a9.09,9.09,0,0,1,18.15-.73,9.09,9.09,0,0,1,18.14.88l3,42.28A8.53,8.53,0,0,1,119.15,122.49Z"/><ellipse class="cls-19" cx="99.96" cy="75.7" rx="5.46" ry="4.97" transform="translate(23.83 175.33) rotate(-89.76)"/><ellipse class="cls-26" cx="113.21" cy="75.75" rx="7.16" ry="6.52" transform="translate(36.97 188.64) rotate(-89.76)"/><ellipse class="cls-19" cx="113.21" cy="75.75" rx="6.14" ry="5.59" transform="translate(36.97 188.64) rotate(-89.76)"/><circle class="cls-23" cx="113.21" cy="78.87" r="1.47"/><circle class="cls-17" cx="113.21" cy="78.87" r="1.29"/><circle class="cls-19" cx="114.13" cy="78.14" r="0.55"/><ellipse class="cls-26" cx="100.09" cy="75.75" rx="7.16" ry="6.52" transform="translate(23.91 175.52) rotate(-89.76)"/><ellipse class="cls-19" cx="100.09" cy="75.75" rx="6.14" ry="5.59" transform="translate(23.91 175.52) rotate(-89.76)"/><circle class="cls-23" cx="100.09" cy="78.87" r="1.47"/><circle class="cls-17" cx="100.09" cy="78.87" r="1.29"/><circle class="cls-19" cx="101.01" cy="78.14" r="0.55"/><path class="cls-17" d="M104.71,70.26a6.2,6.2,0,0,0-10.53,0S99.47,65.09,104.71,70.26Z"/><path class="cls-17" d="M109.93,66.86a6.21,6.21,0,0,1,10.29,2.27S116.19,63,109.93,66.86Z"/><polygon class="cls-20" points="101.52 85.09 107.22 81.41 111.85 87.33 105.59 91.38 101.52 85.09"/><path class="cls-27" d="M107.11,82l4.08,5.21-5.46,3.54-3.58-5.54,5-3.21m.21-1.2L100.9,85l4.56,7,7.05-4.56-5.19-6.63Z"/><path class="cls-17" d="M101,84.88s2-.87,6.53,2.12c1.21.79,2.65.14,5,.44,0,0-10.41,1.29-11.58-2.56"/><path class="cls-28" d="M106.4,87.16c-.1-.29-.78-.73-1.32-1a4.51,4.51,0,0,0-.69-.37h0a6.51,6.51,0,0,0-2.31-.49l-.42.45-.13.14v0h0a.6.6,0,0,0-.09.15c-.26.68.56,1.63,1.83,2.11s2.5.33,2.77-.34Z"/><path class="cls-29" d="M121.85,57.38a12,12,0,0,1,3.41,5.85"/><path class="cls-30" d="M94.83,126.32a4.42,4.42,0,0,0-2,.42A5.55,5.55,0,0,0,89,125.45a5.4,5.4,0,0,0-4,1.37,4.24,4.24,0,0,0-2.11-.53c-1.61,0-2.91.73-2.91,1.64l17.69,0C97.73,127.07,96.43,126.32,94.83,126.32Z"/><polygon class="cls-31" points="97.73 128.28 80.04 128.24 80.04 127.94 97.73 127.95 97.73 128.28"/><path class="cls-30" d="M127.79,126.32a4.35,4.35,0,0,0-1.94.42,5.56,5.56,0,0,0-3.86-1.29,5.4,5.4,0,0,0-4,1.37,4.28,4.28,0,0,0-2.12-.53c-1.6,0-2.9.73-2.9,1.64l17.68,0C130.69,127.07,129.4,126.32,127.79,126.32Z"/><polygon class="cls-31" points="130.69 128.28 113 128.24 113.01 127.94 130.69 127.95 130.69 128.28"/><path class="cls-31" d="M89.2,125.45H89a5.4,5.4,0,0,0-4,1.37,4.24,4.24,0,0,0-2.11-.53c-1.61,0-2.91.73-2.91,1.64l10,0Z"/><path class="cls-19" d="M129.07,81.74l6.83,3.8a4.44,4.44,0,0,1,1,6.59l-14.55,17.24c-.59.92-1.71.47-2.1.35s0-.7.13-1.38L125.11,90l-2.08-2a2.78,2.78,0,0,1,1.16-4.7Z"/><path class="cls-17" d="M134.88,85.54l-5.19-3.39-3.12-3.93L122.05,84a2.92,2.92,0,0,0-.6.76h0a2.77,2.77,0,0,0,.56,3.32l2.08,2-4.77,18.31a1.14,1.14,0,0,0,2,1l14.55-17.24A4.45,4.45,0,0,0,134.88,85.54Z"/><path class="cls-19" d="M84,81.74l-6.83,3.8a4.45,4.45,0,0,0-1,6.59l14.55,17.24c.59.92,1.71.47,2.11.35s0-.7-.14-1.38L87.94,90l2.08-2a2.78,2.78,0,0,0-1.15-4.7Z"/><path class="cls-17" d="M78.18,85.54l5.18-3.39,3.13-3.93L91,84a2.72,2.72,0,0,1,.6.76h0a2.77,2.77,0,0,1-.55,3.32L89,90l4.77,18.31a1.15,1.15,0,0,1-2,1L77.21,92.13A4.45,4.45,0,0,1,78.18,85.54Z"/><path class="cls-32" d="M96.84,86.75a3.77,3.77,0,0,1,.47,0h.06a4.57,4.57,0,0,1,.92.21,11.77,11.77,0,0,1,6.94,6h0l.23.43h.12l2.27.23.11,0h0l.32-.38h0a11.82,11.82,0,0,1,8-4.38,4.75,4.75,0,0,1,.54,0l.4,0h.07a4.46,4.46,0,0,1,4,4.9,4.4,4.4,0,0,1-1.83,3.12l2.23.15a1.48,1.48,0,0,1,.6.16,1.55,1.55,0,0,1,.8.83h0v0a2.5,2.5,0,0,1,.07.26.06.06,0,0,0,0,0,1.82,1.82,0,0,1,0,.33l-.38,6-2.22-.14,0,.3-.25,0c0,.13,0,.26.06.39l.19-.42s-.89,14.62-.89,14.62a3.89,3.89,0,0,1-3.87,3.64h-.25l-3.14-.2.08-.18a8.52,8.52,0,0,1-1.24.09h-.55l-2.28-.15a1,1,0,0,1-.89.55h-.06l-2.35-.15h0l-.44,0a3.44,3.44,0,0,1-.91-.2,1,1,0,0,0,.48.17l3.2.21h0l-5-.32a1,1,0,0,1-.88-.67l-1.26-.08c-.32,0-.64-.06-1-.11l-4.11-.38a3.9,3.9,0,0,1-3.56-4.2l.78-9.45.18-2.81h0l.15-2.38-2.21-.15h-.05l.38-6a1.5,1.5,0,0,1,1.29-1.39h.3l2.89.17a4.45,4.45,0,0,1-3-4.68c0-.06,0-.11,0-.17a4.69,4.69,0,0,0,.07,1.06,4.31,4.31,0,0,1,0-.88,4.45,4.45,0,0,1,1.63-3,4.41,4.41,0,0,1,2.8-1m5.88,8.46h.06l.84,0,0-.22a1.71,1.71,0,0,1,.6-1.13,7.78,7.78,0,0,0-4.79-4.48,2.91,2.91,0,0,0-.6-.13h0l-.3,0a2.88,2.88,0,0,0-.3,5.74c.84.11,1.57.17,2.26.22.84,0,1.58.06,2.25.06m12.71,1.44a2.87,2.87,0,0,0-.09-5.7H115l-.34,0a7.79,7.79,0,0,0-5.62,3.38,1.7,1.7,0,0,1,.34,1.23l0,.22.56.15c.73.16,1.59.33,2.57.48l.56.08,2.35.15m-18.59-11h0a5.57,5.57,0,0,0-5.51,4.77h-.09l0,.21a5.55,5.55,0,0,0,.8,3.53h0a2.64,2.64,0,0,0-2.25,2.43l-.38,6-.07,1.12,1.12.07,1.15.07-.08,1.23v0l-.18,2.82-.78,9.43a5,5,0,0,0,4.57,5.4l4.07.38a9.41,9.41,0,0,0,1,.12l.69,0a2.09,2.09,0,0,0,1.45.7l5,.32h.18a2.07,2.07,0,0,0,1.38-.52l1.72.11h.1l1.61.1,3.14.19h.32a5,5,0,0,0,5-4.68c.55-9,.76-12.48.84-13.81l1.11.07,1.12.07.07-1.11.38-6a2.73,2.73,0,0,0,0-.57v-.11a2.62,2.62,0,0,0-.09-.33v0l0-.09-.92-2.38-.46.94a2.59,2.59,0,0,0-1-.26,5.79,5.79,0,0,0,.63-2,5.58,5.58,0,0,0-5-6.13h-.1l-.48,0a4.63,4.63,0,0,0-.65,0,12.72,12.72,0,0,0-8.37,4.32h0l-.32.37-1.32-.14L106,91.9h0a12.67,12.67,0,0,0-7.28-6,5.31,5.31,0,0,0-1.13-.26h-.07l-.59,0Zm5.88,8.46c-.73,0-1.45,0-2.19-.06s-1.46-.12-2.17-.21a1.76,1.76,0,0,1,.15-3.51h.19a2,2,0,0,1,.39.09h0a6.47,6.47,0,0,1,3.79,3.26,2.58,2.58,0,0,0-.2.41Zm7.67.38a6.47,6.47,0,0,1,4.38-2.4h.42a1.74,1.74,0,0,1,1.21.65,1.71,1.71,0,0,1,.38,1.29,1.75,1.75,0,0,1-1.4,1.53l-2.19-.14-.36,0-.15,0c-.74-.12-1.46-.25-2.18-.41a2.36,2.36,0,0,0-.11-.44Z"/><path class="cls-33" d="M98.29,87a4.57,4.57,0,0,0-.92-.21h-.06a4.45,4.45,0,0,0-.94,8.86,35.66,35.66,0,0,0,10.1.21C104.39,89.48,100.2,87.55,98.29,87Zm-.08,7.94a2.88,2.88,0,1,1,.6-5.72h0a2.91,2.91,0,0,1,.6.13c1.23.36,3.93,1.61,5.27,5.72A23.16,23.16,0,0,1,98.21,94.93Z"/><path class="cls-33" d="M106.47,95.84a35.77,35.77,0,0,0,9.91,1.9,4.45,4.45,0,0,0,.94-8.86h-.07a4.21,4.21,0,0,0-.94,0C114.33,89,109.83,90.05,106.47,95.84Zm1.86-.39c2.17-3.74,5.08-4.39,6.36-4.49a3.08,3.08,0,0,1,.61,0h0a2.88,2.88,0,0,1-.61,5.72A23.38,23.38,0,0,1,108.33,95.45Z"/><path class="cls-34" d="M97.21,87.63h.06a3.78,3.78,0,0,1,.74.17h0a10,10,0,0,1,3.69,2.07,13.17,13.17,0,0,1,3.54,5.22A38.82,38.82,0,0,1,98,95l-1.52-.18h0a3.58,3.58,0,0,1,.74-7.13m.1-.86a4.45,4.45,0,0,0-.94,8.86l1.55.18a32.82,32.82,0,0,0,8.55,0c-2.08-6.36-6.27-8.29-8.18-8.85a4.57,4.57,0,0,0-.92-.21Z"/><path class="cls-35" d="M117.23,89.75a3.59,3.59,0,1,1-.76,7.13h0l-1.53-.13a38.41,38.41,0,0,1-7.14-1.37A13.26,13.26,0,0,1,112.33,91a9.82,9.82,0,0,1,4-1.25h0a4,4,0,0,1,.77,0h0m.09-.87h-.07a4.21,4.21,0,0,0-.94,0c-2,.15-6.48,1.16-9.84,7a33.25,33.25,0,0,0,8.36,1.76l1.55.14a4.45,4.45,0,0,0,.94-8.86Z"/><path class="cls-33" d="M97.86,95.46l-1.54-.18a4.46,4.46,0,0,1-4-4.73c0,.06,0,.11,0,.17a4.45,4.45,0,0,0,4,4.9l1.55.18a32.76,32.76,0,0,0,8.54,0c0-.1-.07-.21-.11-.31A35.05,35.05,0,0,1,97.86,95.46Z"/><path class="cls-33" d="M116.32,97.39l-1.55-.14a35.23,35.23,0,0,1-8.22-1.7l-.18.28a33.43,33.43,0,0,0,8.37,1.76l1.55.14a4.45,4.45,0,0,0,4.89-4c0-.06,0-.12,0-.17A4.46,4.46,0,0,1,116.32,97.39Z"/><path class="cls-33" d="M104.17,93.66a1.19,1.19,0,0,1,1-.31l.29,0-.23-.43-.29,0a1.19,1.19,0,0,0-1,.3Z"/><path class="cls-33" d="M109.17,94.18a1.2,1.2,0,0,0-.92-.5l-.29,0,.32-.38.29,0a1.15,1.15,0,0,1,.91.51Z"/><rect class="cls-35" x="103.61" y="93.5" width="5.8" height="3.76" rx="1.58" transform="translate(10.6 -10.65) rotate(6.03)"/><rect class="cls-4" x="92.3" y="97.34" width="27.9" height="25.15" rx="3.02" transform="translate(7.15 -6.49) rotate(3.62)"/><path class="cls-4" d="M122.8,104.69l.38-6a1.5,1.5,0,0,0-1.4-1.6L92.43,95.23a1.5,1.5,0,0,0-1.59,1.4l-.38,6Z"/><polygon class="cls-5" points="102.06 106.89 100.81 122.16 102.2 122.26 103.56 105.83 102.06 106.89"/><path class="cls-36" d="M102.06,106.89l-1.25,15.27-5.64-.52a3.9,3.9,0,0,1-3.56-4.2L92.4,108l9.66-1.06Z"/><polygon class="cls-5" points="92.4 107.95 120.55 104.85 120.66 103.76 92.81 101.47 92.4 107.95"/><path class="cls-36" d="M103.16,103.47l.38-7.59-11.11-.65a1.5,1.5,0,0,0-1.59,1.4l-.38,6Z"/><path class="cls-36" d="M123.09,98.64a1.5,1.5,0,0,0-1.41-1.59L110,96.31l-.47,7.5,13.16.84Z"/><path class="cls-35" d="M104.62,95.38h2.3a2.38,2.38,0,0,1,2.38,2.38V120.1a3,3,0,0,1-3,3H105.2a3,3,0,0,1-3-3V97.77a2.38,2.38,0,0,1,2.38-2.38Z" transform="matrix(1, 0.06, -0.06, 1, 7.1, -6.46)"/><path class="cls-33" d="M103.3,121.93l1.64-25.82a.8.8,0,0,1,.84-.75l-1.86-.12a.81.81,0,0,0-.86.76l-1.63,25.81a1,1,0,0,0,.94,1.07l5,.32h0l-3.2-.21A1,1,0,0,1,103.3,121.93Z"/><path class="cls-37" d="M106,122.1A1,1,0,0,1,105,123l2.51.16a1,1,0,0,0,1.06-.94l.84-13.24"/><path class="cls-38" d="M8.77,83.71a1.62,1.62,0,0,1,1.26-.6h1.06a1.62,1.62,0,0,1,1.42.84c2,3.71,11.07,18.53,25.37,18.36H42a7.61,7.61,0,0,1,7.75,5.61L51.43,117"/><path class="cls-39" d="M214.43,154.25H2a2,2,0,0,1-2-2v-1.36a1.42,1.42,0,0,1,1.24-1.43,1.37,1.37,0,0,1,1.51,1.37v.65H214.46a12,12,0,1,0,0-24h0a1.37,1.37,0,0,1-1.38-1.37v-2.2a1.42,1.42,0,0,1,1.24-1.43,1.38,1.38,0,0,1,1.51,1.37v.94a14.77,14.77,0,0,1-1.41,29.49Z"/><path class="cls-40" d="M16.69,136.22a1.62,1.62,0,0,1-1.58-2c1-4.37,3-15.21.32-24.55A20.26,20.26,0,0,0,8.37,99.46c-2.88-2.25-6.51-6.86-1-13.59a1.61,1.61,0,0,1,1.25-.59H9.66a1.62,1.62,0,0,1,1.42.83c2,3.72,11.08,18.53,25.38,18.36h4.13a7.62,7.62,0,0,1,7.75,5.61l5.26,17.29a1.62,1.62,0,0,0,1.55,1.15H181.6a1.63,1.63,0,0,0,1.62-1.62V114.26s.09-9.6,10.83-9.6h7a4.15,4.15,0,0,1,4.46,4.47v2.1a1.61,1.61,0,0,1-1.54,1.62c-2.74.1-8,1.12-6.65,7.6,0,.06,0,.11,0,.17L200,129a1.1,1.1,0,0,1,.06.26c.13,1,.69,7-5.15,7"/><line class="cls-41" x1="55.03" y1="136.24" x2="49.13" y2="150.12"/><line class="cls-42" x1="52.53" y1="136.24" x2="46.64" y2="150.12"/><line class="cls-41" x1="24.41" y1="136.24" x2="18.52" y2="150.12"/><line class="cls-42" x1="21.92" y1="136.24" x2="16.02" y2="150.12"/><line class="cls-41" x1="85.64" y1="136.24" x2="79.75" y2="150.12"/><line class="cls-42" x1="83.14" y1="136.24" x2="77.25" y2="150.12"/><line class="cls-41" x1="195.7" y1="136.24" x2="189.81" y2="150.12"/><line class="cls-42" x1="193.2" y1="136.24" x2="187.31" y2="150.12"/><path class="cls-35" d="M15.11,134.23c1-4.37,3-15.21.32-24.55A20.26,20.26,0,0,0,8.37,99.46c-2.88-2.25-6.51-6.86-1-13.59a1.61,1.61,0,0,1,1.25-.59H9.66a1.62,1.62,0,0,1,1.42.83c2,3.72,11.08,18.53,25.38,18.36h4.13a7.62,7.62,0,0,1,7.75,5.61l5.26,17.29a1.62,1.62,0,0,0,1.55,1.15H181.6a1.63,1.63,0,0,0,1.62-1.62V114.26s.09-9.6,10.83-9.6h7a4.15,4.15,0,0,1,4.46,4.47v2.1a1.61,1.61,0,0,1-1.54,1.62c-2.74.1-8,1.12-6.65,7.6,0,.06,0,.11,0,.17L200,129a1.1,1.1,0,0,1,.06.26c.13,1,.69,7-5.15,7H16.69A1.62,1.62,0,0,1,15.11,134.23Z"/><path class="cls-43" d="M9.91,88.07h0M9,89.27c3.49,5.81,12.8,18.62,27.2,18.62h4.71a4.3,4.3,0,0,1,4.26,3.31l5.25,17.26a4.89,4.89,0,0,0,4.71,3.49H181.6a4.93,4.93,0,0,0,4.92-4.92V114.4c0-.64.27-6.33,7.53-6.33h7l0,0,.15,0c.67,0,1,.07,1,1.17v.56a10,10,0,0,0-6.69,3.47c-1.12,1.43-2.27,4-1.43,8a3.45,3.45,0,0,0,.12.46l2.55,8.21a4.1,4.1,0,0,1-.47,2.71,1.87,1.87,0,0,1-1.42.4H18.77c1.08-5.39,2.38-15.32-.17-24.14A23.32,23.32,0,0,0,10.41,97a6.17,6.17,0,0,1-2.58-3.85A6,6,0,0,1,9,89.27m192.28,18.8h0M9.66,85.38H8.6a1.62,1.62,0,0,0-1.25.6c-5.49,6.73-1.86,11.34,1,13.59a20.22,20.22,0,0,1,7.06,10.22c2.69,9.34.7,20.17-.32,24.55a1.62,1.62,0,0,0,1.58,2H194.91c5.84,0,5.28-6,5.15-7a1.1,1.1,0,0,0-.06-.26l-2.6-8.36s0-.1,0-.16c-1.36-6.48,3.91-7.5,6.65-7.6a1.62,1.62,0,0,0,1.54-1.62v-2.1a4.11,4.11,0,0,0-4.32-4.47h-7.18c-10.74,0-10.83,9.6-10.83,9.6V127a1.63,1.63,0,0,1-1.62,1.62H55.15a1.62,1.62,0,0,1-1.55-1.15l-5.26-17.29a7.59,7.59,0,0,0-7.41-5.62H36.22c-14.16,0-23.11-14.67-25.14-18.36a1.61,1.61,0,0,0-1.42-.84Z"/><path class="cls-44" d="M16.69,136.33a1.62,1.62,0,0,1-1.58-2c1-4.38,3-15.21.32-24.55A20.22,20.22,0,0,0,8.37,99.57c-2.88-2.25-6.51-6.86-1-13.59a1.62,1.62,0,0,1,1.25-.6H9.66a1.61,1.61,0,0,1,1.42.84c2,3.71,11.08,18.53,25.38,18.36h4.13a7.62,7.62,0,0,1,7.75,5.61l5.26,17.29a1.62,1.62,0,0,0,1.55,1.15H181.6a1.63,1.63,0,0,0,1.62-1.62V114.37s.09-9.6,10.83-9.6h7a4.15,4.15,0,0,1,4.46,4.47v2.1A1.62,1.62,0,0,1,204,113c-2.74.1-8,1.12-6.65,7.6,0,.06,0,.11,0,.16l2.6,8.36a1.1,1.1,0,0,1,.06.26c.13,1,.69,7-5.15,7"/><path class="cls-45" d="M16.69,136.33a1.62,1.62,0,0,1-1.58-2c1-4.38,3-15.21.32-24.55A20.22,20.22,0,0,0,8.37,99.57c-2.88-2.25-6.51-6.86-1-13.59a1.62,1.62,0,0,1,1.25-.6H9.66a1.61,1.61,0,0,1,1.42.84c2,3.71,11.08,18.53,25.38,18.36h4.13a7.62,7.62,0,0,1,7.75,5.61l5.26,17.29a1.62,1.62,0,0,0,1.55,1.15H181.6a1.63,1.63,0,0,0,1.62-1.62V114.37s.09-9.6,10.83-9.6h7a4.15,4.15,0,0,1,4.46,4.47v2.1A1.62,1.62,0,0,1,204,113c-2.74.1-8,1.12-6.65,7.6,0,.06,0,.11,0,.16l2.6,8.36a1.1,1.1,0,0,1,.06.26c.13,1,.69,7-5.15,7"/><path class="cls-41" d="M214.68,124.05a13.4,13.4,0,1,1,0,26.8H1.65"/><path class="cls-46" d="M10.47,135.69H203.6a0,0,0,0,1,0,0v.84a4.37,4.37,0,0,1-4.37,4.37H14.83a4.37,4.37,0,0,1-4.37-4.37v-.84a0,0,0,0,1,0,0Z"/><path class="cls-47" d="M10.47,134.55H203.6a0,0,0,0,1,0,0v.84a4.37,4.37,0,0,1-4.37,4.37H14.83a4.37,4.37,0,0,1-4.37-4.37v-.84a0,0,0,0,1,0,0Z"/><line class="cls-48" x1="10.47" y1="134.55" x2="203.6" y2="134.55"/><path class="cls-49" d="M299.32,113.83a5,5,0,0,0-1.33-1.17,1.08,1.08,0,0,0-.71-.18h0a1.89,1.89,0,0,0-.68.19L291.44,115l-7.91,3.6-1,.4c-.41.16-.56.68-.22.76l4.86-.21-5.56,5.79c-.32.37-.06.74.37.52l6.93-3.86-1.53,4.69c0,.37.5.36.77,0l.64-.88,5.53-6.86.24-.3a9.21,9.21,0,0,1,3.7-1.87A1.82,1.82,0,0,0,299.32,113.83Z"/><path class="cls-50" d="M340.71,88.27a14.7,14.7,0,0,0-11.37,5.38c-12.43-2.17-19-1.56-28,3.19-12.06,6.4-11.79,15.34-6.89,24.59s18.31,8.95,30.37,2.55a68.71,68.71,0,0,0,11.25-7.06,14.54,14.54,0,0,0,4.6.74,14.7,14.7,0,0,0,0-29.39Z"/><polygon class="cls-51" points="345.68 115.31 353.21 117.87 351.31 110.1 347.3 111.72 345.68 115.31"/><path d="M283.24,113.89c-.24.3,1.09,1.15,1.44,1.33,2.47,1.29,4.57,2,6.57,3.84,1.13,1,2.17,1.31,3.24,2.37.42-2.2,13.85-10.53,17.69-10.68,4.82-.17,13.34,1.59,20.41-2.79a4.09,4.09,0,0,0,1.71-2.21,9.8,9.8,0,0,1,4-5.18c4.23-2.73,12.13-3.79,17.09,1.79a15,15,0,0,0-15-14.57,14.56,14.56,0,0,0-8.78,2.92,7.82,7.82,0,0,1-6.46,1.44c-16.62-3.87-38.65,7-46.92,11.41-3.5,1.85-4.57,3.29-4.12,4.58.14.43,10.49-3.66,10.94-3.25s-7.87,3.82-8.74,5.45c-.2.37.28.9,1.16.68.48-.13,8.19-3.42,8.68-3.17.68.34-5.89,4.58-5.14,4.94"/><ellipse class="cls-22" cx="347.25" cy="106.53" rx="4.22" ry="3.65" transform="translate(-6.74 187.9) rotate(-30)"/><ellipse class="cls-19" cx="347.41" cy="106.49" rx="3.6" ry="3.11" transform="translate(-6.7 187.97) rotate(-30)"/><ellipse class="cls-23" cx="348.16" cy="107.44" rx="1.3" ry="1.13" transform="translate(-7.08 188.48) rotate(-30)"/><ellipse cx="348.24" cy="107.57" rx="1.13" ry="0.98" transform="translate(-7.13 188.53) rotate(-30)"/><polygon class="cls-20" points="346.29 115.4 353.09 117.81 351.36 110.75 347.73 112.23 346.29 115.4"/><path class="cls-27" d="M351.36,110.75l1.73,7.06-6.8-2.41,1.44-3.17,3.63-1.48m.65-1.27-1,.41-3.64,1.48-.34.14-.16.34L345.44,115,345,116l1,.34,6.8,2.4,1.63.58-.41-1.68-1.73-7.06-.26-1Z"/><path d="M351.32,118.34a1.56,1.56,0,1,1,1.55-1.55A1.56,1.56,0,0,1,351.32,118.34Z"/><path class="cls-27" d="M351.32,115.7a1.09,1.09,0,1,1-1.09,1.09,1.09,1.09,0,0,1,1.09-1.09m0-.93a2,2,0,1,0,2,2,2,2,0,0,0-2-2Z"/><path d="M344.79,101.12a6.63,6.63,0,0,1,4.27-.63,4.85,4.85,0,0,1,1.05.37,4.65,4.65,0,0,1,.91.67,4.83,4.83,0,0,1,1.16,1.86h0a7.39,7.39,0,0,0-1.34-1.64,4.36,4.36,0,0,0-1.81-1,5.8,5.8,0,0,0-2.12-.13,7.62,7.62,0,0,0-2.08.55Z"/><path class="cls-52" d="M345.68,103.26s4.55-.4,5.64,2.59C351.32,105.85,351,101.25,345.68,103.26Z"/><path class="cls-22" d="M335.94,102.7c-5.42,8.51.17,14.22.17,14.22s-3.89-10.83,4.26-17.42C340.37,99.5,337.15,100.8,335.94,102.7Z"/><path class="cls-18" d="M294.62,113.83a5,5,0,0,0-1.33-1.17,1.08,1.08,0,0,0-.71-.18h-.05a2,2,0,0,0-.68.19L286.74,115l-7.91,3.6-1,.4c-.41.16-.56.68-.21.76l4.85-.21-5.56,5.79c-.32.37-.06.74.37.52l6.93-3.86-1.53,4.69c0,.37.5.36.77,0l.64-.88,5.53-6.86.24-.3a9.21,9.21,0,0,1,3.7-1.87A1.82,1.82,0,0,0,294.62,113.83Z"/><path d="M295.05,108.92c-.06,0-6.94,3.22-7.32,5.63,0,0,6.49,1.44,9.64-3.12"/><path d="M297.32,111.36c-.06,0-6.94,3.22-7.31,5.63,0,0,6.49,1.44,9.63-3.12"/><path class="cls-15" d="M335.55,117.87c-6.56-3.6-1.4-14.47-1.4-14.47s2.82-5.94-5.78-8.58"/><path d="M307.65,102.18s11.63-10.61,12.51-33.71c0,0,19.13,12.57,10.48,33C330.64,101.47,312.51,109.34,307.65,102.18Z"/><path class="cls-19" d="M308.9,103.4S322,94.62,322.79,73.63c0,0,14.85,10.56,7,29.12C329.78,102.75,313.31,109.91,308.9,103.4Z"/><path class="cls-49" d="M406.91,113.83a4.72,4.72,0,0,0-1.33-1.17,1.06,1.06,0,0,0-.71-.18h0a2,2,0,0,0-.69.19L399,115l-7.91,3.6-1,.4c-.42.16-.57.68-.22.76l4.85-.21-5.55,5.79c-.33.37-.06.74.37.52L396.5,122,395,126.69c0,.37.5.36.76,0l.65-.88,5.52-6.86.25-.3a9,9,0,0,1,3.69-1.87A1.81,1.81,0,0,0,406.91,113.83Z"/><path class="cls-50" d="M448.3,88.27a14.66,14.66,0,0,0-11.36,5.38c-12.44-2.17-19-1.56-28,3.19-12.06,6.4-11.8,15.34-6.89,24.59s18.3,8.95,30.36,2.55a68.29,68.29,0,0,0,11.25-7.06,14.69,14.69,0,1,0,4.6-28.65Z"/><polygon class="cls-51" points="453.27 115.31 460.81 117.87 458.9 110.1 454.9 111.72 453.27 115.31"/><path d="M390.84,113.89c-.25.3,1.09,1.15,1.44,1.33,2.47,1.29,4.57,2,6.56,3.84,1.14,1,2.17,1.31,3.25,2.37.41-2.2,13.85-10.53,17.69-10.68,4.81-.17,13.34,1.59,20.4-2.79a4.11,4.11,0,0,0,1.72-2.21,9.77,9.77,0,0,1,4-5.18c4.24-2.73,12.14-3.79,17.1,1.79a15,15,0,0,0-15-14.57,14.57,14.57,0,0,0-8.79,2.92,7.81,7.81,0,0,1-6.46,1.44c-16.62-3.87-38.64,7-46.92,11.41-3.5,1.85-4.57,3.29-4.12,4.58.15.43,10.49-3.66,10.94-3.25s-7.87,3.82-8.73,5.45c-.2.37.27.9,1.16.68.48-.13,8.19-3.42,8.68-3.17.67.34-5.89,4.58-5.14,4.94"/><ellipse class="cls-22" cx="454.85" cy="106.53" rx="4.22" ry="3.65" transform="translate(7.67 241.7) rotate(-30)"/><ellipse class="cls-19" cx="455.01" cy="106.49" rx="3.6" ry="3.11" transform="translate(7.71 241.77) rotate(-30)"/><ellipse class="cls-23" cx="455.76" cy="107.44" rx="1.3" ry="1.13" transform="matrix(0.87, -0.5, 0.5, 0.87, 7.34, 242.27)"/><ellipse cx="455.83" cy="107.57" rx="1.13" ry="0.98" transform="translate(7.28 242.33) rotate(-30)"/><polygon class="cls-20" points="453.88 115.4 460.69 117.81 458.96 110.75 455.32 112.23 453.88 115.4"/><path class="cls-27" d="M459,110.75l1.73,7.06-6.81-2.41,1.44-3.17,3.64-1.48m.65-1.27-1,.41L455,111.37l-.35.14-.15.34L453,115l-.42.93,1,.34,6.81,2.4,1.63.58-.41-1.68-1.74-7.06-.25-1Z"/><path d="M458.91,118.34a1.56,1.56,0,1,1,1.55-1.55A1.56,1.56,0,0,1,458.91,118.34Z"/><path class="cls-27" d="M458.91,115.7a1.09,1.09,0,1,1-1.08,1.09,1.09,1.09,0,0,1,1.08-1.09m0-.93a2,2,0,1,0,2,2,2,2,0,0,0-2-2Z"/><path d="M452.38,101.12a6.63,6.63,0,0,1,4.27-.63,4.93,4.93,0,0,1,1.06.37,4.58,4.58,0,0,1,.9.67,4.85,4.85,0,0,1,1.17,1.86h0a7.72,7.72,0,0,0-1.35-1.64,4.3,4.3,0,0,0-1.81-1,5.75,5.75,0,0,0-2.11-.13,7.52,7.52,0,0,0-2.08.55Z"/><path class="cls-52" d="M453.27,103.26s4.56-.4,5.64,2.59C458.91,105.85,458.6,101.25,453.27,103.26Z"/><path class="cls-22" d="M443.54,102.7c-5.43,8.51.16,14.22.16,14.22S439.82,106.09,448,99.5C448,99.5,444.75,100.8,443.54,102.7Z"/><path class="cls-18" d="M402.21,113.83a4.72,4.72,0,0,0-1.33-1.17,1.06,1.06,0,0,0-.71-.18h0a2,2,0,0,0-.69.19L394.33,115l-7.9,3.6-1,.4c-.42.16-.56.68-.22.76l4.85-.21-5.55,5.79c-.33.37-.06.74.37.52l6.93-3.86-1.53,4.69c0,.37.5.36.77,0l.64-.88,5.53-6.86.24-.3a9.12,9.12,0,0,1,3.7-1.87A1.82,1.82,0,0,0,402.21,113.83Z"/><path d="M402.64,108.92c-.06,0-6.94,3.22-7.31,5.63,0,0,6.49,1.44,9.64-3.12"/><path d="M404.92,111.36c-.06,0-6.94,3.22-7.32,5.63,0,0,6.49,1.44,9.64-3.12"/><path class="cls-15" d="M443.15,117.87c-6.57-3.6-1.4-14.47-1.4-14.47s2.82-5.94-5.78-8.58"/><path d="M415.25,102.18s11.63-10.61,12.51-33.71c0,0,19.12,12.57,10.47,33C438.23,101.47,420.1,109.34,415.25,102.18Z"/><path class="cls-19" d="M416.5,103.4s13.08-8.78,13.88-29.77c0,0,14.85,10.56,7,29.12C437.38,102.75,420.91,109.91,416.5,103.4Z"/><path class="cls-49" d="M514.51,113.83a5,5,0,0,0-1.33-1.17,1.06,1.06,0,0,0-.71-.18h-.05a2,2,0,0,0-.68.19L506.63,115l-7.91,3.6-1,.4c-.41.16-.56.68-.21.76l4.85-.21-5.56,5.79c-.32.37-.06.74.37.52L504.1,122l-1.53,4.69c0,.37.5.36.77,0l.64-.88,5.53-6.86.24-.3a9.21,9.21,0,0,1,3.7-1.87A1.82,1.82,0,0,0,514.51,113.83Z"/><path class="cls-50" d="M555.9,88.27a14.66,14.66,0,0,0-11.36,5.38c-12.44-2.17-19-1.56-28,3.19-12.05,6.4-11.79,15.34-6.89,24.59S528,130.38,540.05,124a68.71,68.71,0,0,0,11.25-7.06,14.69,14.69,0,1,0,4.6-28.65Z"/><polygon class="cls-51" points="560.87 115.31 568.4 117.87 566.5 110.1 562.49 111.72 560.87 115.31"/><path d="M498.43,113.89c-.24.3,1.1,1.15,1.44,1.33,2.47,1.29,4.57,2,6.57,3.84,1.13,1,2.17,1.31,3.24,2.37.42-2.2,13.85-10.53,17.69-10.68,4.82-.17,13.35,1.59,20.41-2.79a4.09,4.09,0,0,0,1.71-2.21,9.8,9.8,0,0,1,4-5.18c4.23-2.73,12.14-3.79,17.1,1.79a15,15,0,0,0-15-14.57,14.57,14.57,0,0,0-8.79,2.92,7.82,7.82,0,0,1-6.46,1.44c-16.62-3.87-38.64,7-46.92,11.41-3.5,1.85-4.57,3.29-4.12,4.58.15.43,10.49-3.66,10.94-3.25s-7.87,3.82-8.74,5.45c-.2.37.28.9,1.16.68.49-.13,8.19-3.42,8.69-3.17.67.34-5.89,4.58-5.15,4.94"/><ellipse class="cls-22" cx="562.44" cy="106.53" rx="4.22" ry="3.65" transform="translate(22.09 295.49) rotate(-30)"/><ellipse class="cls-19" cx="562.61" cy="106.49" rx="3.6" ry="3.11" transform="translate(22.13 295.57) rotate(-30)"/><ellipse class="cls-23" cx="563.35" cy="107.44" rx="1.3" ry="1.13" transform="translate(21.75 296.07) rotate(-30)"/><ellipse cx="563.43" cy="107.57" rx="1.13" ry="0.98" transform="translate(21.7 296.13) rotate(-30)"/><polygon class="cls-20" points="561.48 115.4 568.28 117.81 566.55 110.75 562.92 112.23 561.48 115.4"/><path class="cls-27" d="M566.55,110.75l1.73,7.06-6.8-2.41,1.44-3.17,3.63-1.48m.65-1.27-1,.41-3.64,1.48-.34.14-.15.34L560.63,115l-.42.93,1,.34,6.8,2.4,1.64.58-.42-1.68-1.73-7.06-.26-1Z"/><path d="M566.51,118.34a1.56,1.56,0,1,1,1.55-1.55A1.55,1.55,0,0,1,566.51,118.34Z"/><path class="cls-27" d="M566.51,115.7a1.09,1.09,0,1,1-1.09,1.09,1.08,1.08,0,0,1,1.09-1.09m0-.93a2,2,0,1,0,2,2,2,2,0,0,0-2-2Z"/><path d="M560,101.12a6.63,6.63,0,0,1,4.27-.63,5.13,5.13,0,0,1,1.06.37,4.9,4.9,0,0,1,.9.67,4.71,4.71,0,0,1,1.16,1.86h0a7.72,7.72,0,0,0-1.35-1.64,4.36,4.36,0,0,0-1.81-1,5.75,5.75,0,0,0-2.11-.13,7.68,7.68,0,0,0-2.09.55Z"/><path class="cls-52" d="M560.87,103.26s4.55-.4,5.64,2.59C566.51,105.85,566.19,101.25,560.87,103.26Z"/><path class="cls-22" d="M551.13,102.7c-5.42,8.51.17,14.22.17,14.22s-3.89-10.83,4.26-17.42C555.56,99.5,552.35,100.8,551.13,102.7Z"/><path class="cls-18" d="M509.81,113.83a4.86,4.86,0,0,0-1.33-1.17,1.06,1.06,0,0,0-.71-.18h0a2,2,0,0,0-.68.19L501.93,115,494,118.6l-1,.4c-.42.16-.57.68-.22.76l4.85-.21-5.56,5.79c-.32.37-.06.74.38.52L499.4,122l-1.53,4.69c0,.37.5.36.77,0l.64-.88,5.53-6.86.24-.3a9.21,9.21,0,0,1,3.7-1.87A1.82,1.82,0,0,0,509.81,113.83Z"/><path d="M510.24,108.92c-.06,0-6.94,3.22-7.32,5.63,0,0,6.49,1.44,9.64-3.12"/><path d="M512.51,111.36c-.06,0-6.94,3.22-7.31,5.63,0,0,6.49,1.44,9.64-3.12"/><path class="cls-15" d="M550.74,117.87c-6.56-3.6-1.4-14.47-1.4-14.47s2.82-5.94-5.78-8.58"/><path d="M522.84,102.18s11.64-10.61,12.51-33.71c0,0,19.13,12.57,10.48,33C545.83,101.47,527.7,109.34,522.84,102.18Z"/><path class="cls-19" d="M524.09,103.4S537.18,94.62,538,73.63c0,0,14.85,10.56,7,29.12C545,102.75,528.5,109.91,524.09,103.4Z"/><path class="cls-49" d="M622.1,113.83a4.83,4.83,0,0,0-1.32-1.17,1.11,1.11,0,0,0-.72-.18h0a1.89,1.89,0,0,0-.68.19L614.22,115l-7.9,3.6-1,.4c-.42.16-.56.68-.22.76l4.85-.21-5.55,5.79c-.33.37-.06.74.37.52L611.7,122l-1.53,4.69c0,.37.5.36.77,0l.64-.88,5.53-6.86.24-.3a9.12,9.12,0,0,1,3.7-1.87A1.82,1.82,0,0,0,622.1,113.83Z"/><path class="cls-50" d="M663.49,88.27a14.68,14.68,0,0,0-11.36,5.38c-12.43-2.17-19-1.56-28,3.19-12.06,6.4-11.79,15.34-6.89,24.59s18.31,8.95,30.36,2.55a67.88,67.88,0,0,0,11.25-7.06,14.69,14.69,0,1,0,4.6-28.65Z"/><polygon class="cls-51" points="668.47 115.31 676 117.87 674.09 110.1 670.09 111.72 668.47 115.31"/><path d="M606,113.89c-.25.3,1.09,1.15,1.44,1.33,2.47,1.29,4.57,2,6.57,3.84,1.13,1,2.16,1.31,3.24,2.37.41-2.2,13.85-10.53,17.69-10.68,4.81-.17,13.34,1.59,20.41-2.79a4.14,4.14,0,0,0,1.71-2.21,9.77,9.77,0,0,1,4-5.18c4.24-2.73,12.14-3.79,17.1,1.79a15,15,0,0,0-15-14.57,14.57,14.57,0,0,0-8.79,2.92,7.81,7.81,0,0,1-6.46,1.44c-16.62-3.87-38.64,7-46.92,11.41-3.5,1.85-4.56,3.29-4.12,4.58.15.43,10.5-3.66,11-3.25s-7.88,3.82-8.74,5.45c-.2.37.27.9,1.16.68.48-.13,8.19-3.42,8.68-3.17.67.34-5.89,4.58-5.14,4.94"/><ellipse class="cls-22" cx="670.04" cy="106.53" rx="4.22" ry="3.65" transform="translate(36.5 349.29) rotate(-30)"/><ellipse class="cls-19" cx="670.2" cy="106.49" rx="3.6" ry="3.11" transform="translate(36.54 349.37) rotate(-30)"/><ellipse class="cls-23" cx="670.95" cy="107.44" rx="1.3" ry="1.13" transform="translate(36.17 349.87) rotate(-30)"/><ellipse cx="671.02" cy="107.57" rx="1.13" ry="0.98" transform="translate(36.11 349.92) rotate(-30)"/><polygon class="cls-20" points="669.08 115.4 675.88 117.81 674.15 110.75 670.51 112.23 669.08 115.4"/><path class="cls-27" d="M674.15,110.75l1.73,7.06-6.8-2.41,1.43-3.17,3.64-1.48m.65-1.27-1,.41-3.64,1.48-.34.14-.16.34L668.22,115l-.42.93,1,.34,6.81,2.4,1.63.58-.41-1.68-1.73-7.06-.26-1Z"/><path d="M674.1,118.34a1.56,1.56,0,1,1,1.55-1.55A1.56,1.56,0,0,1,674.1,118.34Z"/><path class="cls-27" d="M674.1,115.7a1.09,1.09,0,1,1-1.08,1.09,1.09,1.09,0,0,1,1.08-1.09m0-.93a2,2,0,1,0,2,2,2,2,0,0,0-2-2Z"/><path d="M667.58,101.12a6.62,6.62,0,0,1,4.27-.63,5,5,0,0,1,1,.37,4.58,4.58,0,0,1,.9.67,4.85,4.85,0,0,1,1.17,1.86h0a7.43,7.43,0,0,0-1.35-1.64,4.24,4.24,0,0,0-1.81-1,5.74,5.74,0,0,0-2.11-.13,7.52,7.52,0,0,0-2.08.55Z"/><path class="cls-52" d="M668.46,103.26s4.56-.4,5.64,2.59C674.1,105.85,673.79,101.25,668.46,103.26Z"/><path class="cls-22" d="M658.73,102.7c-5.42,8.51.16,14.22.16,14.22S655,106.09,663.15,99.5C663.15,99.5,659.94,100.8,658.73,102.7Z"/><path class="cls-18" d="M617.4,113.83a4.83,4.83,0,0,0-1.32-1.17,1.11,1.11,0,0,0-.72-.18h0a1.89,1.89,0,0,0-.68.19L609.52,115l-7.9,3.6-1,.4c-.42.16-.56.68-.22.76l4.85-.21-5.55,5.79c-.33.37-.06.74.37.52L607,122l-1.53,4.69c0,.37.5.36.77,0l.64-.88,5.53-6.86.24-.3a9.21,9.21,0,0,1,3.7-1.87A1.82,1.82,0,0,0,617.4,113.83Z"/><path d="M617.83,108.92c-.05,0-6.94,3.22-7.31,5.63,0,0,6.49,1.44,9.64-3.12"/><path d="M620.11,111.36c-.06,0-6.94,3.22-7.32,5.63,0,0,6.49,1.44,9.64-3.12"/><path class="cls-15" d="M658.34,117.87c-6.57-3.6-1.4-14.47-1.4-14.47s2.82-5.94-5.78-8.58"/><path d="M630.44,102.18S642.07,91.57,643,68.47c0,0,19.12,12.57,10.47,33C653.42,101.47,635.3,109.34,630.44,102.18Z"/><path class="cls-19" d="M631.69,103.4s13.09-8.78,13.88-29.77c0,0,14.86,10.56,7,29.12C652.57,102.75,636.1,109.91,631.69,103.4Z"/><path class="cls-22" d="M173.47,75s.28-8.91,4.61-5.25c0,0-1.47-5.08-3.82-2.08C174.26,67.69,172.76,69.32,173.47,75Z"/></svg>