<svg id="Layer_1" data-name="Layer 1" xmlns="http://www.w3.org/2000/svg" viewBox="0 0 47.02 80"><defs><style>.cls-1{fill:#fff;}</style></defs><title>3</title><path class="cls-1" d="M8.17,80C2.09,80,0,78,0,71.83V61.57H14.05v6.18c0,2.79,1.09,4.08,3.68,4.08H29.09c2.49,0,3.69-1.39,3.69-4V62.57c0-3.39-1.6-4.79-5-4.79h-10V49.91h10c3.28,0,5-1.09,5-4.08V28.69c0-3.68-1.1-4.78-4.09-4.78H18.63c-3.39,0-4.58,1.2-4.58,5.18V44.23H0v-31C0,2,2.09,0,11.46,0h24.9C45.13,0,47,1.89,47,12.35v32c0,6.68-2.29,8.87-7.77,9.47,5.48.5,7.77,2.09,7.77,9.26v7.77C47,77.11,45.23,80,39.75,80Z"/></svg>