<svg id="Layer_1" data-name="Layer 1" xmlns="http://www.w3.org/2000/svg" viewBox="0 0 47.12 80"><defs><style>.cls-1{fill:#fff;}</style></defs><title>6</title><path class="cls-1" d="M8.17,80C2.09,80,0,78,0,71.83V13.25C0,2,2.09,0,11.36,0H35.67C45,0,47.12,2,47.12,13.25v27.6H32.28V29.09c0-4.08-1.2-5.18-4.78-5.18H18.83c-3.59,0-4.68,1.1-4.68,5.18V45.43c0,2.59,1.39,3.89,4.08,3.89H38.16c7.07,0,8.66,2.59,8.66,8.86V71.83C46.82,78,44.33,80,37.66,80ZM33,61.57c0-2.79-1.6-4.09-4.19-4.09H18.23c-2.09,0-3.68-.89-4.08-2.39V67.75c0,2.89,1.19,4.08,4,4.08H28.69c3.09,0,4.29-1.29,4.29-4.18Z"/></svg>