<svg id="Layer_1" data-name="Layer 1" xmlns="http://www.w3.org/2000/svg" viewBox="0 0 48.52 80"><defs><style>.cls-1{fill:#fff;}</style></defs><title>8</title><path class="cls-1" d="M7.37,80C1.79,80,0,77.11,0,70.83v-8c0-7.17,2.29-8.76,7.77-9.26C2.29,53.1,0,50.81,0,44.13V12.35C0,1.89,1.89,0,10.76,0h27.1c8.77,0,10.66,1.89,10.66,12.35V44.13c0,6.68-2.29,9-7.77,9.47,5.48.5,7.77,2.09,7.77,9.26v8c0,6.28-1.79,9.17-7.27,9.17Zm26.5-51.31c0-3.68-1-4.78-4.08-4.78H18.43c-3.09,0-4,1.1-4,4.78V46.43c0,3,1.39,4.08,5,4.08h9.46c3.49,0,5-1.1,5-4.08Zm0,34.77c0-3.58-1.49-4.88-5-4.88H19.43c-3.59,0-5,1.3-5,4.88v4.39c0,2.59,1.09,4,3.68,4H30.19c2.59,0,3.68-1.39,3.68-4Z"/></svg>