<svg id="Layer_1" data-name="Layer 1" xmlns="http://www.w3.org/2000/svg" viewBox="0 0 47.12 80"><defs><style>.cls-1{fill:#fff;}</style></defs><title>9</title><path class="cls-1" d="M8.87,80C2.19,80,0,78,0,71.33V63.26H14.84V68c0,2.69,1.3,3.88,4.19,3.88H29.09C31.88,71.83,33,70.64,33,68V57.58c0-2.59-1.3-3.88-4.09-3.88H9.07C2,53.7.3,51.11.3,44.83V13.25C.3,2,2.69,0,10.06,0h28.1c6.87,0,9,2,9,13.25V71.83C47.12,78,45,80,38.85,80ZM33,29.29c0-4.18-1.2-5.38-4.69-5.38H19c-3.69,0-4.88,1.3-4.88,5.48V40.85c0,2.79,1.59,4.08,4.28,4.08H28.89c2.09,0,3.69,1,4.09,2.49Z"/></svg>