<svg id="Layer_1" data-name="Layer 1" xmlns="http://www.w3.org/2000/svg" xmlns:xlink="http://www.w3.org/1999/xlink" viewBox="0 0 270 90"><defs><style>.cls-1{fill:#00b7ff;}.cls-2{fill:url(#linear-gradient);}.cls-3{fill:url(#linear-gradient-2);}.cls-4{fill:#d7f7ff;}.cls-5{fill:#97e1f2;}.cls-6{fill:#fff;}.cls-7{fill:url(#linear-gradient-3);}</style><linearGradient id="linear-gradient" x1="133.73" y1="90" x2="133.73" y2="19" gradientUnits="userSpaceOnUse"><stop offset="0" stop-color="#1a5b96"/><stop offset="0.04" stop-color="#1a5b96" stop-opacity="0.93"/><stop offset="0.19" stop-color="#1a5b96" stop-opacity="0.65"/><stop offset="0.35" stop-color="#1a5b96" stop-opacity="0.41"/><stop offset="0.51" stop-color="#1a5b96" stop-opacity="0.23"/><stop offset="0.67" stop-color="#1a5b96" stop-opacity="0.1"/><stop offset="0.83" stop-color="#1a5b96" stop-opacity="0.03"/><stop offset="1" stop-color="#1a5b96" stop-opacity="0"/></linearGradient><linearGradient id="linear-gradient-2" x1="222.34" y1="10.06" x2="180.38" y2="67.64" xlink:href="#linear-gradient"/><linearGradient id="linear-gradient-3" x1="34.39" y1="9.26" x2="53.85" y2="50.38" gradientUnits="userSpaceOnUse"><stop offset="0" stop-color="#1a5b96" stop-opacity="0"/><stop offset="0.25" stop-color="#1a5b96" stop-opacity="0.22"/><stop offset="0.79" stop-color="#1a5b96" stop-opacity="0.77"/><stop offset="1" stop-color="#1a5b96"/></linearGradient></defs><title>Donate - 270x90 - v01</title><rect class="cls-1" x="12.73" y="19" width="242" height="71" rx="35.25"/><rect class="cls-2" x="12.73" y="19" width="242" height="71" rx="35.25"/><path class="cls-3" d="M254.65,51.82a6,6,0,0,1-3.36.43c-3.65-.66-7.59-3.37-8.47-11.67a6,6,0,0,0-5.8-5.3,19.63,19.63,0,0,1-14.88-7.48,7.06,7.06,0,0,0-6.37-2.49c-11.23,1.44-42.21,4.41-60-3.83a2.83,2.83,0,0,1-1.63-3l-.52.15a2.9,2.9,0,0,0-.45,5.41C171,32.32,202,29.35,213.17,27.91a7.08,7.08,0,0,1,6.38,2.49,19.62,19.62,0,0,0,14.87,7.48,6,6,0,0,1,5.81,5.29c.87,8.31,4.81,11,8.47,11.67a6.06,6.06,0,0,0,6-2.49Z"/><path class="cls-4" d="M155,16.73c11.23-3.27,36-8.84,58.53-2.48,0,0,23.57-7.26,29.7,6.84,0,0,15,.81,14,25.84a6.23,6.23,0,0,1-7.21,6c-3.65-.65-7.59-3.36-8.47-11.66a6,6,0,0,0-5.8-5.3,19.63,19.63,0,0,1-14.88-7.48A7.06,7.06,0,0,0,214.49,26c-11.23,1.44-42.21,4.41-60-3.83A2.91,2.91,0,0,1,155,16.73Z"/><path class="cls-5" d="M250.37,52.4c-3.65-.66-5.74-5.45-6.62-13.75a6,6,0,0,0-5.8-5.3,19.61,19.61,0,0,1-14.88-7.47,7,7,0,0,0-6.37-2.5c-11.23,1.44-42.21,4.41-60-3.83a2.83,2.83,0,0,1-1.62-3l-.52.15a2.91,2.91,0,0,0-.45,5.42c17.74,8.24,48.72,5.27,59.95,3.83a7.06,7.06,0,0,1,6.37,2.49A19.64,19.64,0,0,0,235.35,36a6,6,0,0,1,5.8,5.3c.88,8.3,4.82,11,8.48,11.66a6,6,0,0,0,5-1A7,7,0,0,1,250.37,52.4Z"/><path class="cls-6" d="M243.22,21.1c-6.14-14.1-29.7-6.84-29.7-6.84a84.54,84.54,0,0,0-33-2.14c9.7.12,21.12,1.14,31,4.91,0,0,24.71-5.74,29.78,9.68,0,0,14.5,1.75,12.76,25.49a5.71,5.71,0,0,0,3.17-5.26C258.18,21.91,243.22,21.1,243.22,21.1Z"/><path class="cls-6" d="M64.69,69.76a.38.38,0,0,1-.38-.38L64.52,55l-.21-14.39a.38.38,0,0,1,.38-.38H75.12c8.49,0,15.67,4.56,15.67,15S83.52,69.76,75.21,69.76ZM70.86,65h4.68c4.77,0,8.62-2.83,8.62-9.84S80.36,45,75.38,45H70.86s-.17,5-.17,9.88S70.86,65,70.86,65Z"/><path class="cls-6" d="M104.09,70.31C97,70.31,92.9,65.88,92.9,59S97,47.47,104.09,47.47s11.1,4.43,11.1,11.36S111.18,70.31,104.09,70.31Zm0-4.22c3.12,0,4.6-2.15,4.6-7.14s-1.52-7.26-4.64-7.26S99.36,54.1,99.36,59,100.92,66.09,104.09,66.09Z"/><path class="cls-6" d="M118.2,69.76a.37.37,0,0,1-.38-.38l.12-10,0-10.93a.38.38,0,0,1,.38-.38h5.36a.38.38,0,0,1,.38.38l-.13,2.36a8.78,8.78,0,0,1,7-3.25c4.61,0,7.56,3.13,7.56,8.45v4.56l.13,8.86a.38.38,0,0,1-.38.38h-5.66a.38.38,0,0,1-.38-.38l.08-8.86V56c0-2.36-1.39-3.88-3.29-3.88-2.28,0-4.73,2.11-4.73,6.75v1.61l.09,8.86a.38.38,0,0,1-.38.38Z"/><path class="cls-6" d="M157,69.76a.38.38,0,0,1-.38-.38l.09-2.15a8,8,0,0,1-6.42,3c-6.17,0-9.42-4.89-9.42-11.23s3.63-11.35,9.55-11.35a7.82,7.82,0,0,1,6.29,2.74l-.13-1.94A.38.38,0,0,1,157,48h5.66a.38.38,0,0,1,.38.38l-.13,10.51L163,69.38a.38.38,0,0,1-.38.38ZM152.1,66c3.08,0,4.73-2.32,4.77-6.92s-1.6-7.18-4.64-7.22c-3.21-.09-4.86,2.32-4.86,6.8C147.37,63.51,149.06,66,152.1,66Z"/><path class="cls-6" d="M179.63,69a.65.65,0,0,1-.33.51,12.56,12.56,0,0,1-4,.71c-3.68,0-7.18-1.85-7.18-6.79l0-10.9h-2.45a.38.38,0,0,1-.38-.38V48.4a.38.38,0,0,1,.38-.38h2.45l0-5.07a.38.38,0,0,1,.38-.38h5.61a.37.37,0,0,1,.38.38l0,5.07h4.82a.38.38,0,0,1,.38.38v3.71a.38.38,0,0,1-.38.38h-4.86l0,10.73c0,1.86.93,2.45,2.32,2.45a7.63,7.63,0,0,0,2.45-.38.31.31,0,0,1,.38.29Z"/><path class="cls-6" d="M202.22,62.42a.32.32,0,0,1,.34.37c-.55,4-4.35,7.52-10.43,7.52-7.26,0-11.19-4.77-11.19-11.36,0-6.92,4.14-11.48,11.07-11.48,7.13,0,11.1,4.73,11.23,12.33a.38.38,0,0,1-.38.38H187.32c.25,4.09,1.86,5.91,4.9,5.91a4,4,0,0,0,4.22-3.3.48.48,0,0,1,.46-.37ZM192.05,51.65c-2.54,0-4.05,1.52-4.56,4.52h8.91C196.14,53.84,194.83,51.65,192.05,51.65Z"/><path class="cls-7" d="M64.9,21.77c0-.86-.78-1.75-2-2.61-4.3.56-14.83-5.83-20.21-5.63-6.73.25-12.08,3.54-12.15,7.4-6,3.6-7.1,7.68-10.06,11.24,1.33,3.39,10.17,2.59,17.65-.34a28.08,28.08,0,0,0,7.22-4.07C52.77,27.25,65,25.36,64.9,21.77Z"/><path class="cls-4" d="M61.73,20.28c-.14-3.7-14.28-7.92-20.67-7.69S29.8,15.9,29.73,19.5c-5.61,3.35-9.45,9.53-8.37,12.28,1.23,3.16,8.48.6,15.44-2.13a25.88,25.88,0,0,0,6.73-3.79C50.43,25.38,61.85,23.62,61.73,20.28Z"/><path class="cls-5" d="M21.36,31.76c1.23,3.16,8.48.59,15.44-2.13a26.47,26.47,0,0,0,6.73-3.79c6.9-.48,18.32-2.24,18.2-5.59a90.64,90.64,0,0,1-18,4.27,2.09,2.09,0,0,0-.83.31L40.7,26.26a21.65,21.65,0,0,1-6.12,2.86c-3.19.89-6.18,1.15-9.94,1.95Z"/><path class="cls-6" d="M51,14.13c-1.25-.35-2.51-.64-3.73-.89a9.51,9.51,0,0,0-4.68-.62c-.56,0-1.09,0-1.57,0-6.27.24-11.26,3.31-11.33,6.91-5.61,3.35-9.45,9.53-8.37,12.28a37.9,37.9,0,0,1,8.41-9.59,10.43,10.43,0,0,1,6-2.25,23.7,23.7,0,0,0,4.3-.62,17.69,17.69,0,0,0,7-3.08A10.68,10.68,0,0,1,51,14.14Z"/><ellipse class="cls-6" cx="31.45" cy="23.37" rx="2.86" ry="1.07" transform="translate(-7.47 18.86) rotate(-30)"/></svg>