<svg id="Layer_1" data-name="Layer 1" xmlns="http://www.w3.org/2000/svg" xmlns:xlink="http://www.w3.org/1999/xlink" viewBox="0 0 85 85"><defs><style>.cls-1{fill:#00b7ff;}.cls-2{fill:url(#linear-gradient);}.cls-3{fill:url(#linear-gradient-2);}.cls-4{fill:url(#linear-gradient-3);}.cls-5{fill:#fff;}.cls-6{fill:#d7f7ff;}.cls-7{fill:#97e1f2;}.cls-8{fill:url(#linear-gradient-4);}</style><linearGradient id="linear-gradient" x1="42.92" y1="82.14" x2="42.92" y2="7.14" gradientUnits="userSpaceOnUse"><stop offset="0" stop-color="#1a5b96"/><stop offset="0.04" stop-color="#1a5b96" stop-opacity="0.93"/><stop offset="0.19" stop-color="#1a5b96" stop-opacity="0.65"/><stop offset="0.35" stop-color="#1a5b96" stop-opacity="0.41"/><stop offset="0.51" stop-color="#1a5b96" stop-opacity="0.23"/><stop offset="0.67" stop-color="#1a5b96" stop-opacity="0.1"/><stop offset="0.83" stop-color="#1a5b96" stop-opacity="0.03"/><stop offset="1" stop-color="#1a5b96" stop-opacity="0"/></linearGradient><linearGradient id="linear-gradient-2" x1="32.16" y1="-0.85" x2="37.08" y2="23.87" gradientUnits="userSpaceOnUse"><stop offset="0" stop-color="#1a5b96" stop-opacity="0"/><stop offset="0.13" stop-color="#1a5b96" stop-opacity="0.04"/><stop offset="0.31" stop-color="#1a5b96" stop-opacity="0.15"/><stop offset="0.5" stop-color="#1a5b96" stop-opacity="0.33"/><stop offset="0.72" stop-color="#1a5b96" stop-opacity="0.59"/><stop offset="0.94" stop-color="#1a5b96" stop-opacity="0.91"/><stop offset="1" stop-color="#1a5b96"/></linearGradient><linearGradient id="linear-gradient-3" x1="53.82" y1="37.12" x2="53.82" y2="55.85" xlink:href="#linear-gradient-2"/><linearGradient id="linear-gradient-4" x1="30.06" y1="36.29" x2="29.85" y2="60.91" xlink:href="#linear-gradient-2"/></defs><title>Mute - 85x85</title><circle class="cls-1" cx="42.92" cy="44.64" r="37.5"/><circle class="cls-2" cx="42.92" cy="44.64" r="37.5"/><path class="cls-3" d="M16.15,11.49C27,.61,34.35,4.08,41.53,6.78c9.75,0,16.79-1.67,23.4,7.45,2.69,3.72,1.59,6.83-3,6.47-3.31-.26-7.73.4-13.71-2.52a8.61,8.61,0,0,0-7-.23c-3.75,1.51-10.09,3.44-16.62,2.69a9,9,0,0,0-8,3.13,50.48,50.48,0,0,1-5.81,6.39c-1.27,1.09-3,1.68-3.08,0C7.52,24.88,6.54,14.2,16.15,11.49Z"/><path class="cls-4" d="M55.5,48.06,61.6,42a1.18,1.18,0,1,0-1.68-1.67l-6.1,6.1-6.1-6.1A1.18,1.18,0,1,0,46,42l6.1,6.1L46,54.17a1.18,1.18,0,0,0,0,1.67,1.16,1.16,0,0,0,.84.35,1.14,1.14,0,0,0,.84-.35l6.1-6.1,6.1,6.1a1.16,1.16,0,0,0,.84.35,1.14,1.14,0,0,0,.84-.35,1.18,1.18,0,0,0,0-1.67Z"/><path class="cls-5" d="M60.76,53.7a1.2,1.2,0,0,1-.84-.35L46,39.47a1.18,1.18,0,1,1,1.68-1.67L61.6,51.68a1.19,1.19,0,0,1-.84,2Z"/><path class="cls-5" d="M46.88,53.7a1.2,1.2,0,0,1-.84-.35,1.18,1.18,0,0,1,0-1.67L59.92,37.8a1.18,1.18,0,1,1,1.68,1.67L47.72,53.35A1.18,1.18,0,0,1,46.88,53.7Z"/><path class="cls-6" d="M16.15,9.46C27-1.42,41.53,4.75,41.53,4.75S51.34-2.6,64,12.84c2.91,3.55,1.67,5.14-2.91,4.78-3.31-.26-6.84,1.45-12.82-1.47a8.61,8.61,0,0,0-7-.23c-3.75,1.51-10.09,3.44-16.62,2.69a9,9,0,0,0-8,3.13,74.88,74.88,0,0,1-7.26,7.73A2,2,0,0,1,6.1,28C5.83,22.75,6.54,12.17,16.15,9.46Z"/><path class="cls-5" d="M59.48,8.15C49.09-.91,41.53,4.75,41.53,4.75S27-1.42,16.15,9.46A12.27,12.27,0,0,0,9,14.73a13,13,0,0,1,2.26-1.18,7.8,7.8,0,0,0,2.34-1.39c7.87-7,17.3-5.79,21.78-4.62a8.37,8.37,0,0,0,4.85-.25,13.42,13.42,0,0,1,10.43.92s7.7,2.62,10,2A3.18,3.18,0,0,0,59.48,8.15Z"/><path class="cls-7" d="M61.06,13.5C57.75,13.24,54.22,15,48.24,12a8.53,8.53,0,0,0-7-.23c-3.75,1.51-10.09,3.44-16.62,2.68a9,9,0,0,0-8,3.14,75.91,75.91,0,0,1-7.26,7.73,2,2,0,0,1-3.28-1.24A32.63,32.63,0,0,0,6.1,28a2,2,0,0,0,3.32,1.44,74.88,74.88,0,0,0,7.26-7.73,9,9,0,0,1,8-3.13c6.53.75,12.87-1.18,16.62-2.69a8.61,8.61,0,0,1,7,.23c6,2.92,9.51,1.21,12.82,1.47,4.38.34,5.7-1.1,3.25-4.35A8.43,8.43,0,0,1,61.06,13.5Z"/><path class="cls-8" d="M40.42,34.81A.92.92,0,0,0,39,34.05l-9.55,6.62v.47H21.85a2.42,2.42,0,0,0-2.43,2.42v9.15a2.43,2.43,0,0,0,2.43,2.43h7.57v0L39,61.73A.92.92,0,0,0,40.42,61Z"/><path class="cls-5" d="M40.42,32.81A.92.92,0,0,0,39,32.05l-9.55,6.62v.47H21.85a2.42,2.42,0,0,0-2.43,2.42v9.15a2.43,2.43,0,0,0,2.43,2.43h7.57v0L39,59.73A.92.92,0,0,0,40.42,59Z"/></svg>