<svg id="Layer_1" data-name="Layer 1" xmlns="http://www.w3.org/2000/svg" xmlns:xlink="http://www.w3.org/1999/xlink" viewBox="0 0 270 90"><defs><style>.cls-1{fill:#00b7ff;}.cls-2{fill:url(#linear-gradient);}.cls-3{fill:#97e1f2;}.cls-4{font-size:42.23px;font-family:FormaDJRDisplay-Bold, Forma DJR Display;font-weight:700;letter-spacing:0.02em;}.cls-4,.cls-8{fill:#fff;}.cls-5{letter-spacing:0.02em;}.cls-6{fill:url(#linear-gradient-3);}.cls-7{fill:#d7f7ff;}</style><linearGradient id="linear-gradient" x1="135.67" y1="90" x2="135.67" y2="19" gradientUnits="userSpaceOnUse"><stop offset="0" stop-color="#1a5b96"/><stop offset="0.04" stop-color="#1a5b96" stop-opacity="0.93"/><stop offset="0.19" stop-color="#1a5b96" stop-opacity="0.65"/><stop offset="0.35" stop-color="#1a5b96" stop-opacity="0.41"/><stop offset="0.51" stop-color="#1a5b96" stop-opacity="0.23"/><stop offset="0.67" stop-color="#1a5b96" stop-opacity="0.1"/><stop offset="0.83" stop-color="#1a5b96" stop-opacity="0.03"/><stop offset="1" stop-color="#1a5b96" stop-opacity="0"/></linearGradient><linearGradient id="linear-gradient-3" x1="134.25" y1="-2.62" x2="135.15" y2="67.15" gradientUnits="userSpaceOnUse"><stop offset="0" stop-color="#1a5b96"/><stop offset="0.14" stop-color="#1a5b96" stop-opacity="0.83"/><stop offset="0.55" stop-color="#1a5b96" stop-opacity="0.39"/><stop offset="0.85" stop-color="#1a5b96" stop-opacity="0.11"/><stop offset="1" stop-color="#1a5b96" stop-opacity="0"/></linearGradient></defs><title>Play - 270x90 - v01</title><rect class="cls-1" x="14.67" y="19" width="242" height="71" rx="35.25"/><rect class="cls-2" x="14.67" y="19" width="242" height="71" rx="35.25"/><path class="cls-3" d="M254.15,41c-8.25-1.25-11-6.4-11.2-10.74-.18-4.15-3.69-7.86-7.64-9.14-40.94-13.25-72.28.18-72.28.18-28,10.43-83.39,1-83.39,1-11.39-4-22.26,5.56-27.61,11.49A43.12,43.12,0,0,1,35.68,45.18c-11,4.27-23.62,2.72-22.54-8.61.37-3.92,2.45-6.54,1.83-7.36A29.86,29.86,0,0,0,9,39.64a11.51,11.51,0,0,0,4.13,12c4.26,3.22,11.5,5.87,22.54,1.6A43.1,43.1,0,0,0,52,41.81c5.35-5.93,16.22-15.54,27.61-11.49,0,0,55.42,9.46,83.39-1,0,0,31.34-13.43,72.28-.17,3.95,1.28,4.46,5,4.64,9.14.18,4.34,6,9.48,14.2,10.73a6.22,6.22,0,0,0,7.2-6.16c0-3,0-4.91-1.85-3.63A6.31,6.31,0,0,1,254.15,41Z"/><text class="cls-4" transform="translate(94.84 68.95)">Pla<tspan class="cls-5" x="59.71" y="0">y</tspan></text><rect class="cls-1" x="14.67" y="19" width="242" height="71" rx="35.25"/><rect class="cls-2" x="14.67" y="19" width="242" height="71" rx="35.25"/><path class="cls-6" d="M253,45c-8.25-1.25-11-6.4-11.2-10.73-.18-4.15-3.69-7.87-7.64-9.15-40.94-13.25-72.27.18-72.27.18-28,10.43-83.4,1-83.4,1-11.39-4-22.25,5.57-27.61,11.5A43.14,43.14,0,0,1,34.58,49.19C23.53,53.46,11,51.92,12,40.58c.38-3.92,1.71-6.61,1.09-7.43C9.68,37,10.38,41.63,9.91,43.45c-.71,2.82,3.38,7.65,4.69,10.14,0,1.18.14,3.17.14,3.17,4.38,2.16,11.07,3.88,19.84.5A43.16,43.16,0,0,0,50.92,45.82c5.36-5.92,16.22-15.53,27.61-11.49,0,0,55.42,9.47,83.4-1,0,0,31.33-13.43,72.27-.18,4,1.28,4.46,5,4.64,9.14.18,4.34,5.95,9.49,14.2,10.74a6.31,6.31,0,0,0,3.57-.5c0-.55-.31-3.27-.31-3.27s3.56-3.9,3.56-4c0-2.7.29-3.19-1.47-2A6.29,6.29,0,0,1,253,45Z"/><path class="cls-7" d="M52,42.81c5.35-5.93,16.22-15.54,27.61-11.49,0,0,55.42,9.46,83.39-1,0,0,31.34-13.43,72.28-.17A9.87,9.87,0,0,1,242,39.32c.18,4.34,4,9.48,12.2,10.73a6.22,6.22,0,0,0,7.2-6.16c-.08-9.62-4.35-27.51-33.29-34.37l-3.62-1a229.21,229.21,0,0,0-103.51-3c-1.63.32-3.26.61-4.89.85L86.8,11.54c-4.25.75-8.52,1.4-12.81,1.87-7.09.79-14.18,2.52-21.24,1.88C31,13.33,13,25.09,9,40.64a11.51,11.51,0,0,0,4.13,12c4.26,3.22,11.5,5.87,22.54,1.6A43.1,43.1,0,0,0,52,42.81Z"/><path class="cls-3" d="M254.15,42c-8.25-1.25-11-6.4-11.2-10.74-.18-4.15-3.69-7.86-7.64-9.14-40.94-13.25-72.28.18-72.28.18-28,10.43-83.39,1-83.39,1-11.39-4-22.26,5.56-27.61,11.49A43.12,43.12,0,0,1,35.68,46.18c-11,4.27-23.62,2.72-22.54-8.61.37-3.92,1.71-6.62,1.09-7.44A25.51,25.51,0,0,0,9,40.64a11.51,11.51,0,0,0,4.13,12c4.26,3.22,11.5,5.87,22.54,1.6A43.1,43.1,0,0,0,52,42.81c5.35-5.93,16.22-15.54,27.61-11.49,0,0,55.42,9.46,83.39-1,0,0,31.34-13.43,72.28-.17,3.95,1.28,4.46,5,4.64,9.14.18,4.34,6,9.48,14.2,10.73a6.22,6.22,0,0,0,7.2-6.16c0-3,0-4.91-1.85-3.63A6.31,6.31,0,0,1,254.15,42Z"/><path class="cls-8" d="M96.93,11.09c-1.86-.48-1.76-1.16.14-1.49l18.29-3.24c1.63-.24,3.25-.53,4.88-.85,34.34-6.74,69.68-6.25,103.48,2.8l3.62,1c12.07,2.86,20.29,7.59,25.27,12.89,0,0-38.66-10.32-65.88-14-23.43-3.13-32.95,3.15-80.33,4.39A34,34,0,0,1,96.93,11.09Z"/><path class="cls-8" d="M107.5,59.69h-5l.12,9.88a.37.37,0,0,1-.38.38H96.4a.38.38,0,0,1-.38-.38l.21-14.39L96,40.78a.38.38,0,0,1,.38-.38h11.14c7.14,0,11.24,3.21,11.24,9.5S114.55,59.69,107.5,59.69Zm.3-14.61h-5.24L102.44,55H108c2.49,0,4.6-1.44,4.6-5C112.57,46.65,110.84,45.08,107.8,45.08Z"/><path class="cls-8" d="M121.73,70a.38.38,0,0,1-.38-.38l.17-14.39-.17-14.4a.38.38,0,0,1,.38-.38h5.53a.37.37,0,0,1,.38.38l-.16,14.4.16,14.39a.37.37,0,0,1-.38.38Z"/><path class="cls-8" d="M146.52,70a.38.38,0,0,1-.38-.38l.08-2.15a8,8,0,0,1-6.41,3c-6.17,0-9.42-4.9-9.42-11.24s3.63-11.35,9.54-11.35a7.8,7.8,0,0,1,6.29,2.74l-.12-1.94a.38.38,0,0,1,.38-.38h5.65a.37.37,0,0,1,.38.38l-.12,10.51.12,10.47a.37.37,0,0,1-.38.38Zm-4.94-3.8c3.08,0,4.73-2.32,4.77-6.92s-1.6-7.18-4.64-7.22c-3.21-.09-4.86,2.32-4.86,6.8C136.85,63.7,138.54,66.2,141.58,66.15Z"/><path class="cls-8" d="M166.62,76.75a.59.59,0,0,1-.51.38h-5.28a.28.28,0,0,1-.25-.38l2.28-6.59-8.74-21.61a.28.28,0,0,1,.26-.34h6.37a.64.64,0,0,1,.51.34L166,62.14l3.92-13.55a.51.51,0,0,1,.47-.38H176a.26.26,0,0,1,.26.38Z"/></svg>