<svg id="Layer_1" data-name="Layer 1" xmlns="http://www.w3.org/2000/svg" xmlns:xlink="http://www.w3.org/1999/xlink" viewBox="0 0 270 90"><defs><style>.cls-1{fill:#00b7ff;}.cls-2{fill:url(#linear-gradient);}.cls-3{fill:url(#linear-gradient-2);}.cls-4{fill:#d7f7ff;}.cls-5{fill:#fff;}.cls-6{fill:#97e1f2;}</style><linearGradient id="linear-gradient" x1="138.6" y1="90" x2="138.6" y2="19" gradientUnits="userSpaceOnUse"><stop offset="0" stop-color="#1a5b96"/><stop offset="0.04" stop-color="#1a5b96" stop-opacity="0.93"/><stop offset="0.19" stop-color="#1a5b96" stop-opacity="0.65"/><stop offset="0.35" stop-color="#1a5b96" stop-opacity="0.41"/><stop offset="0.51" stop-color="#1a5b96" stop-opacity="0.23"/><stop offset="0.67" stop-color="#1a5b96" stop-opacity="0.1"/><stop offset="0.83" stop-color="#1a5b96" stop-opacity="0.03"/><stop offset="1" stop-color="#1a5b96" stop-opacity="0"/></linearGradient><linearGradient id="linear-gradient-2" x1="61.23" y1="3.76" x2="93" y2="76.97" xlink:href="#linear-gradient"/></defs><title>Artboard 22</title><rect class="cls-1" x="17.6" y="19" width="242" height="71" rx="35.25"/><rect class="cls-2" x="17.6" y="19" width="242" height="71" rx="35.25"/><path class="cls-3" d="M138.36,23.94a25.7,25.7,0,0,0-5.07-3.31c-2.86,1.48-12.1,2.13-14.7,4.54-3.4,3.15-22.24-.41-30.09-2.06a7,7,0,0,0-5.28.94c-3.21,2.13-9.6,4.1-17.11,5.05a60.07,60.07,0,0,1-12.87.33,12.25,12.25,0,0,0-7,1.36c-.55.29-1.09.58-1.64.89A24.44,24.44,0,0,0,33.06,46a34.84,34.84,0,0,1-3.59,8.41C27.08,58.32,21.89,60,18.18,59.9l-.13.67s.35,1.65.44,2.06.35,1.55.35,1.55c4.75,1.87,12.1.71,15.39-4.62a35.1,35.1,0,0,0,3.59-8.42A24.44,24.44,0,0,1,49.36,36.77c.53-.3,1.07-.59,1.6-.87a12.36,12.36,0,0,1,7-1.37c3.56.36,8,1.08,12.9.67A32.13,32.13,0,0,0,88.08,29a4.77,4.77,0,0,1,4.24-.62c9.2,3,27.1,5.55,31,1.91C126.8,27.08,142,27,138.36,23.94Z"/><path class="cls-4" d="M134.18,20.06c-13.73-11.58-39-6.26-39-6.26S77.94,3,57.71,15.43l-5.19,1.82A20.54,20.54,0,0,1,44,18.34C14.36,15.88,9.21,36.4,8.86,49.32,8.54,61,23.9,65.64,30.05,55.67a35,35,0,0,0,3.59-8.41A24.39,24.39,0,0,1,45.13,32.91q.82-.46,1.65-.9a12.3,12.3,0,0,1,7-1.36,59.39,59.39,0,0,0,12.86-.34c9.49-1.19,17.18-4,19-6.74h0c8,3.33,29.17,6.81,33.49,2.81C122.62,23.2,137.78,23.08,134.18,20.06Z"/><path class="cls-5" d="M9.67,48.89C8.57,47.6,8.83,45.69,9,44c1.57-12.6,8.69-28.23,34.81-26.07a20.59,20.59,0,0,0,8.49-1.09L57.53,15C77.75,2.52,95.2,13.8,95.2,13.8s-3.83,1-9,2c-1.73.31-6.06-1-8-.73-3.15.39-4,2.23-7.09,2.16C63.64,17,57.94,22,48.27,21.51c0,0-.56-.08-1.55-.15A29.52,29.52,0,0,0,17.11,39.84C12.68,51.28,9.67,48.89,9.67,48.89Z"/><path class="cls-6" d="M134.18,20.06a25.48,25.48,0,0,0-5.06-3.31c-2.87,1.47-12.11,2.13-14.71,4.53-3.4,3.16-22.23-.4-30.09-2.06a7,7,0,0,0-5.28.94c-3.21,2.13-9.6,4.1-17.11,5.05a58.8,58.8,0,0,1-12.87.33,12.42,12.42,0,0,0-7,1.36l-1.64.89A24.43,24.43,0,0,0,28.88,42.16a34.92,34.92,0,0,1-3.59,8.4A11.33,11.33,0,0,1,9.88,54.51c3.49,7.64,15,9.48,20.17,1.16a34.84,34.84,0,0,0,3.59-8.41A24.43,24.43,0,0,1,45.18,32.88c.53-.3,1.07-.59,1.6-.87a12.27,12.27,0,0,1,7-1.36c3.57.36,8,1.07,12.9.67A32.21,32.21,0,0,0,83.9,25.11a4.74,4.74,0,0,1,4.24-.63c9.21,3,27.11,5.55,31,1.91C122.62,23.2,137.78,23.09,134.18,20.06Z"/><path class="cls-5" d="M93.86,71.45c-7.77,0-13.09-3.26-13.39-10.26a.37.37,0,0,1,.38-.38h6a.44.44,0,0,1,.42.38c.42,3.29,1.9,5.44,6.75,5.44,3.84,0,6-1.14,6-3.92,0-6.68-18.88-1.4-18.88-13.14,0-5.53,4.31-9,11.87-9,6.92,0,11.69,2.66,12.58,9a.34.34,0,0,1-.34.38h-6a.46.46,0,0,1-.43-.38c-.33-2.65-2.49-4.13-6.08-4.13-3,0-5.23,1.05-5.23,3.5,0,6.29,19,1.18,19,12.88C106.4,68.07,101.58,71.45,93.86,71.45Z"/><path class="cls-5" d="M119.87,53.16c-2,0-4.22,1.57-4.94,4.65l.17,12.58a.38.38,0,0,1-.38.38h-5.53a.38.38,0,0,1-.38-.38L109,56l-.17-14.36a.37.37,0,0,1,.38-.37h5.53a.37.37,0,0,1,.38.37L115,51.43a7.88,7.88,0,0,1,6.59-2.91c4.9,0,7.89,2.91,7.77,9.29v4.64l.12,7.94a.38.38,0,0,1-.38.38h-5.7a.38.38,0,0,1-.38-.38l.13-7.85,0-5.49C123,54.43,121.6,53.16,119.87,53.16Z"/><path class="cls-5" d="M147.91,70.77a.38.38,0,0,1-.38-.38l.08-2.15a8,8,0,0,1-6.42,3c-6.16,0-9.41-4.9-9.41-11.23s3.63-11.36,9.54-11.36a7.8,7.8,0,0,1,6.29,2.75l-.13-1.94a.37.37,0,0,1,.38-.38h5.66a.37.37,0,0,1,.38.38l-.12,10.51.12,10.47a.38.38,0,0,1-.38.38ZM143,67c3.08,0,4.73-2.32,4.77-6.92s-1.61-7.18-4.65-7.22c-3.21-.09-4.85,2.32-4.85,6.79C138.24,64.52,139.93,67,143,67Z"/><path class="cls-5" d="M157.28,70.77a.38.38,0,0,1-.38-.38l.17-10.51-.17-10.47a.37.37,0,0,1,.38-.38h5.58a.37.37,0,0,1,.38.38l-.17,3.29a9,9,0,0,1,7.77-3.84,7.46,7.46,0,0,1,1,.08.49.49,0,0,1,.38.47v3.92a.35.35,0,0,1-.38.34,5.43,5.43,0,0,0-.8,0c-4.48,0-7.82,2.49-7.77,7.47v9.29a.38.38,0,0,1-.38.38Z"/><path class="cls-5" d="M194.1,63.42a.33.33,0,0,1,.34.38c-.55,4-4.35,7.52-10.43,7.52-7.26,0-11.19-4.77-11.19-11.36,0-6.92,4.14-11.48,11.06-11.48,7.14,0,11.11,4.73,11.24,12.33a.38.38,0,0,1-.38.38H179.2c.25,4.09,1.86,5.91,4.9,5.91a4,4,0,0,0,4.22-3.3.49.49,0,0,1,.46-.38ZM183.93,52.66c-2.54,0-4.06,1.52-4.56,4.52h8.91C188,54.85,186.71,52.66,183.93,52.66Z"/></svg>