<svg id="Layer_1" data-name="Layer 1" xmlns="http://www.w3.org/2000/svg" xmlns:xlink="http://www.w3.org/1999/xlink" viewBox="0 0 270 90"><defs><style>.cls-1{fill:#00b7ff;}.cls-2{fill:url(#linear-gradient);}.cls-3{fill:#fff;}.cls-4{fill:url(#linear-gradient-2);}.cls-5{fill:#d7f7ff;}.cls-6{fill:#97e1f2;}</style><linearGradient id="linear-gradient" x1="137.22" y1="90" x2="137.22" y2="19" gradientUnits="userSpaceOnUse"><stop offset="0" stop-color="#1a5b96"/><stop offset="0.04" stop-color="#1a5b96" stop-opacity="0.93"/><stop offset="0.19" stop-color="#1a5b96" stop-opacity="0.65"/><stop offset="0.35" stop-color="#1a5b96" stop-opacity="0.41"/><stop offset="0.51" stop-color="#1a5b96" stop-opacity="0.23"/><stop offset="0.67" stop-color="#1a5b96" stop-opacity="0.1"/><stop offset="0.83" stop-color="#1a5b96" stop-opacity="0.03"/><stop offset="1" stop-color="#1a5b96" stop-opacity="0"/></linearGradient><linearGradient id="linear-gradient-2" x1="74.17" y1="-2.5" x2="98.93" y2="126.09" xlink:href="#linear-gradient"/></defs><title>Store  270x90 - v01</title><rect class="cls-1" x="16.22" y="19" width="242" height="71" rx="35.25"/><rect class="cls-2" x="16.22" y="19" width="242" height="71" rx="35.25"/><path class="cls-3" d="M97.11,68.63c-7.77,0-13.09-3.25-13.39-10.26A.38.38,0,0,1,84.1,58h6a.45.45,0,0,1,.42.38c.42,3.29,1.9,5.44,6.75,5.44,3.84,0,6-1.14,6-3.92,0-6.67-18.88-1.4-18.88-13.13,0-5.53,4.31-9,11.87-9,6.92,0,11.69,2.66,12.58,9a.35.35,0,0,1-.34.38h-6a.47.47,0,0,1-.43-.38c-.33-2.66-2.49-4.14-6.08-4.14-3,0-5.23,1.05-5.23,3.5,0,6.29,19,1.18,19,12.88C109.65,65.25,104.83,68.63,97.11,68.63Z"/><path class="cls-3" d="M125.61,67.15a.64.64,0,0,1-.34.51,12.51,12.51,0,0,1-4,.71c-3.67,0-7.17-1.85-7.17-6.79l0-10.9h-2.45a.38.38,0,0,1-.38-.38V46.59a.38.38,0,0,1,.38-.38h2.45l0-5.07a.37.37,0,0,1,.38-.38h5.61a.38.38,0,0,1,.38.38l0,5.07h4.81a.38.38,0,0,1,.38.38V50.3a.38.38,0,0,1-.38.38h-4.85l0,10.73c0,1.85.93,2.45,2.32,2.45a7.68,7.68,0,0,0,2.45-.38.31.31,0,0,1,.38.29Z"/><path class="cls-3" d="M138.11,68.5c-7.09,0-11.19-4.43-11.19-11.36s4.1-11.48,11.19-11.48,11.1,4.43,11.1,11.36S145.2,68.5,138.11,68.5Zm0-4.22c3.12,0,4.6-2.15,4.6-7.14s-1.52-7.26-4.64-7.26-4.69,2.41-4.69,7.3S134.94,64.28,138.11,64.28Z"/><path class="cls-3" d="M152.17,68a.38.38,0,0,1-.38-.38L152,57.06l-.17-10.47a.38.38,0,0,1,.38-.38h5.57a.38.38,0,0,1,.39.38L158,49.88A9,9,0,0,1,165.73,46a7.46,7.46,0,0,1,1,.08.51.51,0,0,1,.38.47v3.92a.35.35,0,0,1-.38.34,5.49,5.49,0,0,0-.81,0c-4.47,0-7.81,2.49-7.76,7.47v9.29a.38.38,0,0,1-.39.38Z"/><path class="cls-3" d="M189,60.6a.33.33,0,0,1,.34.38c-.55,4-4.35,7.52-10.43,7.52-7.26,0-11.19-4.77-11.19-11.36,0-6.92,4.14-11.48,11.06-11.48,7.14,0,11.11,4.73,11.23,12.33a.37.37,0,0,1-.38.38H174.09c.25,4.09,1.86,5.91,4.89,5.91a4,4,0,0,0,4.23-3.3.49.49,0,0,1,.46-.38ZM178.82,49.84c-2.54,0-4.06,1.52-4.56,4.52h8.9C182.91,52,181.6,49.84,178.82,49.84Z"/><path class="cls-4" d="M146,20.27l-.42-.21c-4.33,3.34-13.44,6.16-32-.14,0,0-15.48-8.16-56.5,1.45a3.93,3.93,0,0,0-2.52,1.87c-2.08,3.63-8.58,12.7-20.72,10.23a3.89,3.89,0,0,0-4.39,2.1c-5,11.56-9.65,14.33-12.93,14.14,0,0-.26,2.32-.26,4a4.32,4.32,0,0,0,.88,0c6.2-.31,10.37-7.21,12.31-11.3a3.93,3.93,0,0,1,4.39-2.1c12.14,2.46,18.64-6.6,20.72-10.24A4,4,0,0,1,57,28.26c41-9.61,56.5-1.45,56.5-1.45,20.61,7,29.56,2.77,33.28-.94A3.52,3.52,0,0,0,146,20.27Z"/><path class="cls-5" d="M10.35,45.5c-.26-7.57,1.41-23.9,19.86-27.67a8.45,8.45,0,0,0,5.24-3.51c4.26-6.17,20.39-18.67,78.46-2.71a5.33,5.33,0,0,0,3,0c3.3-1,12.77-2.62,27.52,5.35a3.52,3.52,0,0,1,.82,5.6c-3.72,3.7-12.67,7.93-33.28.94,0,0-15.48-8.16-56.5,1.45a3.93,3.93,0,0,0-2.52,1.87C50.86,30.43,44.36,39.49,32.22,37a3.92,3.92,0,0,0-4.38,2.11c-1.95,4.09-6.12,11-12.32,11.3A5,5,0,0,1,10.35,45.5Z"/><path class="cls-6" d="M144.54,17l-.42-.21c-4.33,3.34-13.44,6.17-32-.14,0,0-8.28-.42-28.42.89-7.62.5-16.83-2.08-28.08.56A4,4,0,0,0,53.05,20C51,23.58,44.48,32.65,32.33,30.18A3.88,3.88,0,0,0,28,32.29c-9.07,20.93-17,13-17.61,10.89-.06,2.18-.07,1.51-.12,2.48a5.17,5.17,0,0,0,5.42,4.82C21.83,50.17,26,43.27,28,39.18a3.94,3.94,0,0,1,4.38-2.1C44.48,39.54,51,30.48,53.05,26.84A4,4,0,0,1,55.58,25c41-9.6,56.5-1.44,56.5-1.44,20.61,7,29.56,2.76,33.28-1A3.53,3.53,0,0,0,144.54,17Z"/><path class="cls-3" d="M85.47,5.41C50.21.12,38.92,9.3,35.45,14.32a8.45,8.45,0,0,1-5.24,3.51C18,20.32,13.16,28.29,11.33,35.59c0,0,9.88-13.33,19.2-12.56a8.21,8.21,0,0,0,7-2.53,12.64,12.64,0,0,0,2-3.11,10.21,10.21,0,0,1,4.28-4.74c5.59-3.11,18.35-8.09,39.6-5.26a7.73,7.73,0,0,0,1.37,0c2.17-.15,4.2-.75,3.65-1.47Z"/></svg>