<svg id="Layer_1" data-name="Layer 1" xmlns="http://www.w3.org/2000/svg" xmlns:xlink="http://www.w3.org/1999/xlink" viewBox="0 0 85 85"><defs><style>.cls-1{fill:#00b7ff;}.cls-2{fill:url(#linear-gradient);}.cls-3{fill:url(#linear-gradient-2);}.cls-4{fill:#d7f7ff;}.cls-5{fill:#fff;}.cls-6{fill:#97e1f2;}.cls-7{fill:url(#linear-gradient-3);}.cls-8{fill:url(#linear-gradient-4);}.cls-9{fill:url(#linear-gradient-5);}.cls-10{fill:url(#linear-gradient-6);}</style><linearGradient id="linear-gradient" x1="42.92" y1="82.43" x2="42.92" y2="7.43" gradientUnits="userSpaceOnUse"><stop offset="0" stop-color="#1a5b96"/><stop offset="0.04" stop-color="#1a5b96" stop-opacity="0.93"/><stop offset="0.19" stop-color="#1a5b96" stop-opacity="0.65"/><stop offset="0.35" stop-color="#1a5b96" stop-opacity="0.41"/><stop offset="0.51" stop-color="#1a5b96" stop-opacity="0.23"/><stop offset="0.67" stop-color="#1a5b96" stop-opacity="0.1"/><stop offset="0.83" stop-color="#1a5b96" stop-opacity="0.03"/><stop offset="1" stop-color="#1a5b96" stop-opacity="0"/></linearGradient><linearGradient id="linear-gradient-2" x1="32.16" y1="-0.85" x2="37.08" y2="23.87" gradientUnits="userSpaceOnUse"><stop offset="0" stop-color="#1a5b96" stop-opacity="0"/><stop offset="0.13" stop-color="#1a5b96" stop-opacity="0.04"/><stop offset="0.31" stop-color="#1a5b96" stop-opacity="0.15"/><stop offset="0.5" stop-color="#1a5b96" stop-opacity="0.33"/><stop offset="0.72" stop-color="#1a5b96" stop-opacity="0.59"/><stop offset="0.94" stop-color="#1a5b96" stop-opacity="0.91"/><stop offset="1" stop-color="#1a5b96"/></linearGradient><linearGradient id="linear-gradient-3" x1="30.06" y1="36.58" x2="29.85" y2="61.21" xlink:href="#linear-gradient-2"/><linearGradient id="linear-gradient-4" x1="58.89" y1="38.78" x2="58.98" y2="66.23" xlink:href="#linear-gradient-2"/><linearGradient id="linear-gradient-5" x1="52.89" y1="38.79" x2="52.98" y2="66.25" xlink:href="#linear-gradient-2"/><linearGradient id="linear-gradient-6" x1="47.89" y1="38.81" x2="47.98" y2="66.26" xlink:href="#linear-gradient-2"/></defs><title>volume on - 85x85</title><circle class="cls-1" cx="42.92" cy="44.93" r="37.5"/><circle class="cls-2" cx="42.92" cy="44.93" r="37.5"/><path class="cls-3" d="M16.15,11.49C27,.61,34.35,4.08,41.53,6.78c9.75,0,16.79-1.67,23.4,7.45,2.69,3.72,1.59,6.83-3,6.47-3.31-.26-7.73.4-13.71-2.52a8.61,8.61,0,0,0-7-.23c-3.75,1.51-10.09,3.44-16.62,2.69a9,9,0,0,0-8,3.13,50.48,50.48,0,0,1-5.81,6.39c-1.27,1.09-3,1.68-3.08,0C7.52,24.88,6.54,14.2,16.15,11.49Z"/><path class="cls-4" d="M16.15,9.46C27-1.42,41.53,4.75,41.53,4.75S51.34-2.6,64,12.84c2.91,3.55,1.67,5.14-2.91,4.78-3.31-.26-6.84,1.45-12.82-1.47a8.61,8.61,0,0,0-7-.23c-3.75,1.51-10.09,3.44-16.62,2.69a9,9,0,0,0-8,3.13,74.88,74.88,0,0,1-7.26,7.73A2,2,0,0,1,6.1,28C5.83,22.75,6.54,12.17,16.15,9.46Z"/><path class="cls-5" d="M59.48,8.15C49.09-.91,41.53,4.75,41.53,4.75S27-1.42,16.15,9.46A12.27,12.27,0,0,0,9,14.73a13,13,0,0,1,2.26-1.18,7.8,7.8,0,0,0,2.34-1.39c7.87-7,17.3-5.79,21.78-4.62a8.37,8.37,0,0,0,4.85-.25,13.42,13.42,0,0,1,10.43.92s7.7,2.62,10,2A3.18,3.18,0,0,0,59.48,8.15Z"/><path class="cls-6" d="M61.06,13.5C57.75,13.24,54.22,15,48.24,12a8.53,8.53,0,0,0-7-.23c-3.75,1.51-10.09,3.44-16.62,2.68a9,9,0,0,0-8,3.14,75.91,75.91,0,0,1-7.26,7.73,2,2,0,0,1-3.28-1.24A32.63,32.63,0,0,0,6.1,28a2,2,0,0,0,3.32,1.44,74.88,74.88,0,0,0,7.26-7.73,9,9,0,0,1,8-3.13c6.53.75,12.87-1.18,16.62-2.69a8.61,8.61,0,0,1,7,.23c6,2.92,9.51,1.21,12.82,1.47,4.38.34,5.7-1.1,3.25-4.35A8.43,8.43,0,0,1,61.06,13.5Z"/><path class="cls-7" d="M40.42,35.11A.92.92,0,0,0,39,34.35L29.42,41v.46H21.85a2.43,2.43,0,0,0-2.43,2.42V53a2.42,2.42,0,0,0,2.43,2.42h7.57v0L39,62a.92.92,0,0,0,1.45-.76Z"/><path class="cls-5" d="M40.42,32.11A.92.92,0,0,0,39,31.35L29.42,38v.46H21.85a2.43,2.43,0,0,0-2.43,2.42V50a2.42,2.42,0,0,0,2.43,2.42h7.57v0L39,59a.92.92,0,0,0,1.45-.76Z"/><path class="cls-8" d="M58.92,62.17a1.5,1.5,0,0,1-1.5-1.5V35.46a1.5,1.5,0,1,1,3,0V60.67A1.5,1.5,0,0,1,58.92,62.17Z"/><path class="cls-9" d="M52.92,59a1.5,1.5,0,0,1-1.5-1.5V38.61a1.5,1.5,0,0,1,3,0V57.52A1.5,1.5,0,0,1,52.92,59Z"/><path class="cls-10" d="M47.92,56.47a1.51,1.51,0,0,1-1.5-1.5V41.16a1.5,1.5,0,0,1,3,0V55A1.5,1.5,0,0,1,47.92,56.47Z"/><path class="cls-5" d="M58.92,59.41a1.51,1.51,0,0,1-1.5-1.5V32.7a1.5,1.5,0,1,1,3,0V57.91A1.5,1.5,0,0,1,58.92,59.41Z"/><path class="cls-5" d="M52.92,56.26a1.51,1.51,0,0,1-1.5-1.5V35.85a1.5,1.5,0,0,1,3,0V54.76A1.5,1.5,0,0,1,52.92,56.26Z"/><path class="cls-5" d="M47.92,53.7a1.5,1.5,0,0,1-1.5-1.5V38.4a1.5,1.5,0,1,1,3,0V52.2A1.5,1.5,0,0,1,47.92,53.7Z"/></svg>