<svg id="Layer_1" data-name="Layer 1" xmlns="http://www.w3.org/2000/svg" viewBox="0 0 1920 1080"><defs><style>.cls-1{fill:#8ecbf8;}.cls-2{fill:#1cb54b;}.cls-3{fill:#b2b2b2;}.cls-4{fill:#fff;}.cls-5{fill:#d8d8d8;}.cls-6{fill:#b7b7b7;}</style></defs><title>Level 1 - Background - v01-02</title><rect class="cls-1" width="1920" height="1080"/><rect class="cls-2" y="863.67" width="1920" height="216.37"/><ellipse class="cls-3" cx="480.5" cy="1025.8" rx="14.68" ry="5.24"/><ellipse class="cls-3" cx="572.76" cy="1031.04" rx="17.61" ry="6.28"/><ellipse class="cls-3" cx="372.5" cy="1013.76" rx="31.45" ry="11.22"/><ellipse class="cls-3" cx="169.1" cy="1021.09" rx="14.68" ry="5.24"/><ellipse class="cls-3" cx="663.98" cy="1032.08" rx="14.68" ry="5.24"/><ellipse class="cls-3" cx="1752.3" cy="1031.04" rx="17.61" ry="6.28"/><ellipse class="cls-3" cx="732.13" cy="1027.89" rx="14.68" ry="5.24"/><ellipse class="cls-3" cx="1496.47" cy="1027.89" rx="14.68" ry="5.24"/><ellipse class="cls-3" cx="1822.55" cy="1031.04" rx="17.61" ry="6.28"/><ellipse class="cls-3" cx="1260.56" cy="1015.33" rx="32.5" ry="11.59"/><ellipse class="cls-3" cx="976.43" cy="1025.8" rx="32.5" ry="11.59"/><ellipse class="cls-3" cx="1181.93" cy="1027.89" rx="14.68" ry="5.24"/><ellipse class="cls-4" cx="480.5" cy="1022.66" rx="14.68" ry="5.24"/><ellipse class="cls-4" cx="572.76" cy="1027.89" rx="17.61" ry="6.28"/><ellipse class="cls-4" cx="372.5" cy="1010.62" rx="31.45" ry="11.22"/><ellipse class="cls-4" cx="169.1" cy="1017.95" rx="14.68" ry="5.24"/><ellipse class="cls-4" cx="663.98" cy="1028.94" rx="14.68" ry="5.24"/><ellipse class="cls-4" cx="1752.3" cy="1027.89" rx="17.61" ry="6.28"/><ellipse class="cls-4" cx="732.13" cy="1024.75" rx="14.68" ry="5.24"/><ellipse class="cls-4" cx="1496.47" cy="1024.75" rx="14.68" ry="5.24"/><ellipse class="cls-4" cx="1822.55" cy="1027.89" rx="17.61" ry="6.28"/><ellipse class="cls-4" cx="1260.56" cy="1012.19" rx="32.5" ry="11.59"/><ellipse class="cls-4" cx="976.43" cy="1022.66" rx="32.5" ry="11.59"/><ellipse class="cls-4" cx="1181.93" cy="1024.75" rx="14.68" ry="5.24"/><path class="cls-3" d="M1920,863.63H0v87.21H0v73.88c47.76,0,86.58-16.54,86.58-36.94a16,16,0,0,0-.28-2.85c30.87,10.73,80.17,17.68,135.73,17.68h.56c.76,6.57,15.94,11.82,34.56,11.82,19.11,0,34.6-5.53,34.6-12.34a5.3,5.3,0,0,0-1.21-3.24c36.13-4.15,65.62-11.49,83.17-20.65,13.46,3.79,30.71,7.27,51.06,10.35-3.19,1.41-5.11,3.2-5.11,5.16,0,4.54,10.33,8.23,23.07,8.23s23-3.67,23.06-8.19c52.5,5.56,117.87,8.86,188.73,8.86,44.23,0,86.31-1.29,124.46-3.6a7.22,7.22,0,0,0-.74,3.08c0,10.12,23,18.32,51.38,18.32s51.38-8.2,51.38-18.32c0-4.35-4.25-8.34-11.34-11.48,11.7-1.55,22.56-3.22,32.45-5,37.9,8.57,93.44,14.6,157,16.42,4,6.36,19.86,11.12,38.89,11.12s34.78-4.71,38.83-11c64.16-1.68,120.35-7.65,158.85-16.2,6.82,7.26,26,12.5,48.71,12.5a134.37,134.37,0,0,0,19.64-1.39c40.33,11,107.94,18.7,186.1,20,0,.07,0,.14,0,.21,0,3.47,7.89,6.28,17.62,6.28s17.61-2.81,17.61-6.28v0c13-.1,25.67-.37,38-.8a4.79,4.79,0,0,0-.09.84c0,6.4,14.55,11.59,32.5,11.59s32.5-5.19,32.5-11.59c0-1.63-.94-3.17-2.63-4.58,22-1.92,42.23-4.4,60-7.33,29,4.51,67.07,7.26,108.83,7.26h1.59c15.81,7.37,38.64,12,63.88,12v-8.38h0Z"/><path class="cls-4" d="M1920,863.63H0v156c47.77,0,86.58-16.54,86.58-36.94a14.52,14.52,0,0,0-.09-1.48c31,10.49,79.68,17.26,134.5,17.26h.56c.77,6.58,15.95,11.82,34.57,11.82,19.11,0,34.6-5.52,34.6-12.34a5.34,5.34,0,0,0-1.21-3.23c36.13-4.16,65.61-11.5,83.16-20.66,13.46,3.8,30.72,7.28,51.07,10.36-3.19,1.41-5.11,3.2-5.11,5.16,0,4.54,10.33,8.22,23.07,8.22s23-3.66,23.06-8.18c52.5,5.56,117.86,8.86,188.73,8.86,44.22,0,86.31-1.29,124.46-3.61a7.11,7.11,0,0,0-.74,3.08c0,10.12,23,18.33,51.38,18.33S880,1008,880,997.9c0-4.34-4.25-8.33-11.33-11.47,11.69-1.55,22.56-3.22,32.45-5,37.9,8.57,93.44,14.6,157,16.42,4,6.36,19.86,11.12,38.89,11.12s34.78-4.71,38.83-11c64.15-1.68,120.34-7.66,158.85-16.2,6.82,7.26,26,12.5,48.71,12.5a135.77,135.77,0,0,0,19.64-1.39c40.33,11,107.94,18.7,186.1,20a1.52,1.52,0,0,0,0,.21c0,3.46,7.89,6.28,17.62,6.28s17.61-2.82,17.61-6.28c0,0,0,0,0-.05,13-.09,25.68-.36,38.06-.79a3.86,3.86,0,0,0-.1.84c0,6.4,14.56,11.59,32.51,11.59s32.5-5.19,32.5-11.59c0-1.63-.94-3.18-2.63-4.58,22-1.93,42.23-4.4,60-7.34,29,4.52,67.08,7.27,108.83,7.27,1.58,0,3.14,0,4.71,0,15.69,6.82,37.65,11.06,61.8,11.06V1007.7h0Z"/><rect class="cls-5" x="0.02" y="923.06" width="1919.98" height="25"/><rect class="cls-6" y="923.06" width="1919.98" height="6.8"/></svg>