<svg id="Layer_1" data-name="Layer 1" xmlns="http://www.w3.org/2000/svg" viewBox="0 0 1920 1080"><defs><style>.cls-6{opacity:.38}.cls-7{fill:#fff}.cls-8{fill:#9e9e9e}.cls-9{fill:#828282}</style><linearGradient id="linear-gradient" x1="959.51" y1="1080.11" x2="959.51" y2="-2.89" gradientUnits="userSpaceOnUse"><stop offset="0" stop-color="#070a16"/><stop offset=".45" stop-color="#101772"/><stop offset="1" stop-color="#1a5b96"/></linearGradient><linearGradient id="linear-gradient-2" x1="959.51" y1="870.11" x2="959.51" y2="-2.89" gradientUnits="userSpaceOnUse"><stop offset="0" stop-color="#16ffcb" stop-opacity=".5"/><stop offset=".6" stop-color="#00fdc7" stop-opacity="0"/></linearGradient><linearGradient id="linear-gradient-3" x1="956.32" y1="862.1" x2="956.32" y2="474.51" gradientUnits="userSpaceOnUse"><stop offset=".4" stop-color="#00fdc7" stop-opacity="0"/><stop offset="1" stop-color="#16ffcb" stop-opacity=".5"/></linearGradient><linearGradient id="linear-gradient-4" x1="960.02" y1="867.11" x2="960.02" y2="591.62" gradientUnits="userSpaceOnUse"><stop offset="0" stop-color="#070a16"/><stop offset=".6" stop-color="#154084"/></linearGradient></defs><path fill="url(#linear-gradient)" d="M-.99-2.89h1921v1083H-.99z"/><path fill="url(#linear-gradient-2)" d="M-.99-2.89h1921v873H-.99z"/><path d="M0 862.1l179-320.43a34.53 34.53 0 0 1 29.85-17.17H234a34.5 34.5 0 0 0 24.41-10.11l29.77-29.76a34.52 34.52 0 0 1 48.83 0l59.95 60a34.52 34.52 0 0 0 24.42 10.11 34.5 34.5 0 0 0 24.15-9.85l19.6-19.19a34.53 34.53 0 0 1 48.57.26L569.79 582l105.78 116a34.54 34.54 0 0 0 49.93 1.15l160.8-160.8a34.52 34.52 0 0 1 48.83 0l111.34 111.34a34.54 34.54 0 0 0 48.83 0l68.87-68.87a34.53 34.53 0 0 1 24.42-10.12h64.64a34.56 34.56 0 0 0 24.42-10.11l56.89-56.9a34.54 34.54 0 0 1 48.83 0L1627.66 748a34.52 34.52 0 0 0 48.83 0l72-72a34.53 34.53 0 0 1 53.85 6.36l110.3 179.8z" fill="url(#linear-gradient-3)"/><path d="M0 863.63L282.26 613a40.71 40.71 0 0 1 46.49-5.31l31.18 17a40.69 40.69 0 0 0 46.84-5.69l47.11-42.84a40.69 40.69 0 0 1 56.73 1.91l63.71 66.31a40.68 40.68 0 0 0 29.35 12.5h35.59a40.71 40.71 0 0 1 19.52 5l59.4 32.48a40.72 40.72 0 0 0 43.09-2.52l110.85-78.72a40.69 40.69 0 0 1 47.12 0l38.86 27.59a40.68 40.68 0 0 0 23.56 7.52h51.77a40.67 40.67 0 0 1 23.56 7.51 40.7 40.7 0 0 0 47.13 0l91.5-65a40.69 40.69 0 0 1 47.12 0l112.34 79.77a40.66 40.66 0 0 0 23.56 7.52h18.69a40.71 40.71 0 0 0 23.56-7.52l100.17-71.13a40.68 40.68 0 0 1 23.56-7.52h44.46a40.67 40.67 0 0 0 23.56-7.51l12.61-9a40.7 40.7 0 0 1 51.27 3.37l101 93.85a40.69 40.69 0 0 0 27.7 10.89h10.62a40.71 40.71 0 0 1 37.39 24.63L1920 863.63z" fill="#bbfaff" opacity=".2"/><path d="M1920 847.85l-4.4-38.74h2.06l-5.88-31.43-5.88-31.18-5.9 31.18-5.88 31.43h2l-1 4.29-2-1.55-1.59-6.74h1.76l-4-21.2-4-21.21-4 21.21-3.14 16.64-9.65-7.6-.45-1.84h2.31l-3.68-17h2l-5.88-31.73-5.8-31.18-5.89 31.18-5.88 31.73h2l-.39 1.22-7.25-5.71-.39-1.51h1.27l-3.85-20.38-3.84-20.38-3.78 20.38-2.27 12-7.24-5.71-3-13.93h2.16l-5.93-31.45-5.93-31.44-5.94 31.44-5 26.77-3.65-2.88-2.1-11.12-3.9-20.66-3.9 20.66-.55 2.89-5.92-4.66-3.8-17.55h2.4l-5.94-31.45-5.93-31.44-5.94 31.44-4.06 21.55-2-10.34-3.89-20.67-3.9 20.67-1.89 10-3.78-2.85-3-13.85h2.22l-5.89-31.21-5.89-31.2-5.89 31.2-5 26.37-1.89-1.49-3-15.91-5.89-31.2-5.89 31.2-.7 3.72-4.42-3.48h1.5l-3.18-16.86-3.18-16.9-3.19 16.86-3.1 16.45-2.53 2-6-31.51-6-31.57-6 31.57-2.56 13.59-2.46-13-6 31.58-4.9 26-3.39 2.67-2.54-13.44-3.88-20.58-3.89 20.58-3.88 20.59h.93l-.75 3.47-1.28 1-3.06-16.21-5.52-30.6-5.76 30.54-5.65 29.9-3.28-17.39-3.75 19.9-1.17 6.2-1.39 1.09-2.61-13.84-5.76-30.54-1.38 7.31-.77-4.07-5.76 30.53-2.32 12.31-2.28-12-4.31-22.86-4.1 21.69-1.27-6.75-3.79 20.06-.52 2.81-5.75-4.53-3.7-17h1.4l-5.94-31.45-5.93-31.44-5.94 31.44-4.06 21.55-2-10.34-3.89-20.67-3.9 20.67-1.89 10-3.71-2.92-3-13.85h2.18l-5.89-31.21-5.89-31.2-5.89 31.2-5 26.37-1.89-1.49-3-15.91-5.89-31.2-5.89 31.2-.7 3.72-4.42-3.48h1.5l-3.18-16.86-3.18-16.86-3.19 16.86-3.1 16.45-2.53 2-6-31.51-6-31.57-6 31.57-2.56 13.59-2.46-13-6 31.58-4.9 26-3.39 2.67-2.54-13.44-3.88-20.58-3.89 20.58-3.88 20.59h1.47l-.76 3.51-1.3 1-3.1-16.42-5.83-30.93-5.84 30.93-5.72 30.3-3.32-17.62-3.81 20.16-1.18 6.27-1.41 1.11-2.64-14-5.84-30.93-5.83 30.93-3.75 19.87-2.85-16.44-4.37-23.15-4.37 23.15-4.36 23.16h1.24l-2.82 13h1.35l-.38 1.57-2.07 1.63-3.62-19.14-5.83-30.93-5.84 30.93-5.84 30.94h2.14l-.87 4-.65.51-1.65-1-2.12-8.59-2.8-11.38-1.25-6.64-2 10.75-1.79 7.27-.55 2.23-6-3.61-3.84-13.57h1.74l-5.74-23.3-5.73-23.29-5.74 23.29-3.93 16-1.89-7.66-3.77-15.31-3.77 15.31-1.82 7.41-3.58-2.16-2.9-10.26h1.77l-6-24.16-5.94-24.11-5.93 24.11-5 20.38-1.9-1.15-3-12.29-5.94-24.12-5.94 24.12-.7 2.87-4.46-2.69h1.54l-3.16-12.87-3.17-12.86-3.17 12.86-3.09 12.56-2.52 1.52-5.92-24-5.94-24.1-5.93 24.1-2.56 10.37-2.45-9.95-5.93 24.1-4.89 19.76-3.38 2-2.52-10.25-3.87-15.71-3.87 15.71-3.87 15.71h1.59l-.77 2.71-.21.13-4.46-23.65-1.14 6L1141 699l-5.88 23.89-5.76 23.39-3.35-13.6-1.38 5.6-2.18-11.28-3.86 20.49-.29 1.53-1.43-5.81-5.87-23.94-3.88 15.73-5-26.37-5.88-31.18-5.88 31.18-5 26.53-3.63-2.85-2.08-11-3.86-20.49-3.87 20.49-.54 2.86-5.87-4.62-3.77-17.4h2.19l-5.93-31.49-5.94-31.44-5.93 31.44-4.07 21.55-2-10.34-3.9-20.67-3.9 20.67-1.89 10-3.7-2.92-3-13.85h2.21l-5.89-31.21-5.88-31.2-5.89 31.2-5 26.37-1.89-1.49-3-15.91-5.89-31.2-5.89 31.2-.7 3.72-4.41-3.48H983l-3.18-16.86-3.18-16.86-3.18 16.86-3.11 16.45-2.53 2-5.94-31.51-6-31.57-6 31.57-2.57 13.59-2.46-13-6 31.58-4.9 26-3.4 2.67-2.53-13.44-3.89-20.58-3.88 20.58-3.89 20.59H918l-.77 3.51-1.29 1-3.1-16.42-5.84-30.97-5.84 30.93-5.71 30.3-3.35-17.62-3.8 20.16-1.18 6.27-1.41 1.11-2.65-14-5.83-30.93-5.84 30.93-3.75 19.87-3.08-16.31-4.37-23.15-4.37 23.15-4.37 23.16h1.25l-2.82 13h1.44l-.39 1.63-2.08 1.64-3.64-19.29-5.89-31.18-5.88 31.18-5.44 28.6-4.5-3.55-2.74-14.08h1.3l-5.94-31.45-5.93-31.44-5.94 31.44-4.34 23-2.74-14.66-2.26 12-1.43-7.58-3.9-20.66-3.9 20.66-.54 2.89-5.92-4.66-3.81-17.55h2.4l-5.94-31.45-5.93-31.44-5.94 31.45-4.07 21.55-2-10.34-3.9-20.67-3.9 20.67-1.89 10-3.64-2.87-3-13.85h2.22l-5.89-31.21L728 612.7l-5.88 31.2-5 26.37-1.89-1.49-3-15.91-5.89-31.2-5.89 31.2-.7 3.72-4.41-3.48h1.49l-3.18-16.86-3.18-16.86-3.18 16.86-3.11 16.45-2.53 2-6-31.51-6-31.57-5.95 31.57-2.57 13.59-2.46-13-6 31.58-4.89 26-3.4 2.67-2.38-13.51-3.89-20.58-3.88 20.58-3.89 20.59h1.19l-.76 3.5-1.29 1-3.09-16.37-5.82-30.82-5.82 30.82-5.69 30.19-3.31-17.55L602 712l-1.18 6.25-1.4 1.11-2.63-14-5.79-30.81-5.82 30.82-3.74 19.81-3.07-16.29-4.37-23.07-4.36 23.07-1.09 5.82-5.31-21.57-5.82 23.63-.2.79-3.66-19.4-3.77 20-2.09-8.5-3.83 15.53-1.87 7.52-3.63-2.2-2.94-10.4h1.68L531.16 696l-5.94-24.11-5.93 24.11-5 20.38-1.9-1.15-3-12.29-5.94-24.12-5.94 24.12-.7 2.87-4.46-2.69h1.54l-3.16-12.87-3.17-12.86-3.17 12.86-3.09 12.56-2.52 1.52-5.92-24-5.94-24.1-5.93 24.1-2.56 10.37-2.44-9.95L450 704.8l-4.88 19.81-3.38 2-2.52-10.25-3.87-15.71-3.87 15.71-3.87 15.71h3.06l-.8 2.83-1.37.82-3.25-13.23-6.14-24.91-6.11 24.95-4.9 19.87-6-32-6.14 32.51-.92 4.87-1-4.15-6.13-24.92-6.14 24.92-.94 3.82-3.91-20.73-3.12 16.54-3.8-15.44-4.6 18.65-2.1 8.54-.38-.31-3.17-14.6h3.68l-5.93-31.45-5.93-31.44-5.94 31.44-5.05 26.77-3.66-2.88-2.09-11.12-3.9-20.66-3.93 20.67-.55 2.89-5.92-4.66-3.8-17.55h2.39l-5.93-31.45-5.93-31.44-5.94 31.44-4.06 21.55-2-10.34-3.9-20.67-3.9 20.67-1.88 10-3.71-2.87-3-13.85h2.22l-5.89-31.25-5.89-31.2-5.89 31.2-5 26.37-1.89-1.49-3-15.91-5.89-31.2-5.89 31.2-.7 3.72-4.42-3.48h1.5L235 636.25l-3.19-16.86-3.18 16.86-3.1 16.45-2.53 2-6-31.51-6-31.57-6 31.57-2.56 13.59-2.46-13-6 31.58-4.9 26-3.24 2.64-2.54-13.44-3.88-20.58-3.89 20.58-3.88 20.59h1.47l-.76 3.51-1.3 1-3.06-16.44-5.84-30.93-5.83 30.93-5.72 30.3-3.32-17.62-3.81 20.16-1.18 6.27-1.41 1.11-2.64-14-5.84-30.93-5.84 30.93-3.75 19.87L119.7 709l-4.37-23.15L111 709l-4.37 23.16h1.25l-2.82 13h1.35l-.38 1.57-2.07 1.63-3.62-19.14-5.83-30.93-5.84 30.93-5.84 30.94h2l-.87 4-2.96 2.21-1-5.58-4.43-23.46-4.42 23.46-3 15.72-5.73 4.49-.42-1.89h2.5l-6.08-32.2-6.07-32.2-6.08 32.2-6.08 32.2h2.1l-3.9 18h2.4l-.49 2-2.8 2.19-2.31-12.24-4.38-23.22-4.38 23.22-.08.41-2.57-13.6-4.38-23.22-4.4 23.22-4.37 23.18-3.86-20.54-4.38 23.23-2.34 37.37h.49L0 844.73v22.38h1920zM819.47 740.11l-.07.36-.08-.36z" fill="url(#linear-gradient-4)"/><g class="cls-6"><path class="cls-7" d="M232.06 48.11l.73 2.26h2.38l-1.92 1.39.73 2.26-1.92-1.4-1.92 1.4.74-2.26-1.92-1.39h2.37l.73-2.26z"/></g><g class="cls-6"><path class="cls-7" d="M329.24 80.12l-.2-.62h-.65l.53-.38-.21-.62.53.39.52-.39-.2.62.53.38h-.65l-.2.62z"/></g><g class="cls-6"><path class="cls-7" d="M145.61 76.36l.74 2.25h2.37l-1.92 1.4.73 2.26-1.92-1.4-1.92 1.4.74-2.26-1.92-1.4h2.37l.73-2.25z"/></g><g class="cls-6"><path class="cls-7" d="M537.83 80.12l.73 2.26h2.37l-1.92 1.39.74 2.26-1.92-1.4-1.92 1.4.73-2.26-1.92-1.39h2.38l.73-2.26z"/></g><g class="cls-6"><path class="cls-7" d="M635 112.13l-.2-.62h-.64l.52-.38-.2-.62.52.38.53-.38-.2.62.52.38h-.64l-.21.62z"/></g><g class="cls-6"><path class="cls-7" d="M451.38 108.37l.73 2.25h2.38l-1.93 1.4.74 2.26-1.92-1.4-1.92 1.4.73-2.26-1.92-1.4h2.37l.74-2.25z"/></g><g class="cls-6"><path class="cls-7" d="M492.78 159.84l.73 2.26h2.37l-1.92 1.4.74 2.25-1.92-1.39-1.92 1.39.73-2.25-1.92-1.4h2.37l.74-2.26z"/></g><g class="cls-6"><path class="cls-7" d="M589.95 191.85l-.2-.61h-.64l.52-.39-.2-.61.52.38.53-.38-.2.61.52.39h-.65l-.2.61z"/></g><g class="cls-6"><path class="cls-7" d="M406.33 188.09l.73 2.26h2.37l-1.92 1.39.74 2.26-1.92-1.4-1.92 1.4.73-2.26-1.92-1.39h2.37l.74-2.26z"/></g><g class="cls-6"><path class="cls-7" d="M265.65 159.84l.73 2.26h2.37l-1.91 1.4.73 2.25-1.92-1.39-1.92 1.39.73-2.25-1.92-1.4h2.38l.73-2.26z"/></g><g class="cls-6"><path class="cls-7" d="M362.83 191.85l-.2-.61h-.65l.52-.39-.2-.61.53.38.52-.38-.2.61.53.39h-.65l-.2.61z"/></g><g class="cls-6"><path class="cls-7" d="M179.2 188.09l.73 2.26h2.38l-1.92 1.39.73 2.26-1.92-1.4-1.92 1.4.73-2.26-1.92-1.39h2.38l.73-2.26z"/></g><g class="cls-6"><path class="cls-7" d="M154.43 271.06l.73 2.26h2.38l-1.92 1.39.73 2.26-1.92-1.39-1.92 1.39.73-2.26-1.92-1.39h2.38l.73-2.26z"/></g><g class="cls-6"><path class="cls-7" d="M251.61 303.07l-.2-.62h-.65l.52-.38-.2-.61.53.38.52-.38-.2.61.53.38h-.65l-.2.62z"/></g><g class="cls-6"><path class="cls-7" d="M67.98 299.31l.73 2.26h2.38l-1.92 1.39.73 2.26-1.92-1.4-1.92 1.4.73-2.26-1.92-1.39h2.38l.73-2.26z"/></g><g class="cls-6"><path class="cls-7" d="M154.43 191.13l.73 2.26h2.38l-1.92 1.39.73 2.26-1.92-1.39-1.92 1.39.73-2.26-1.92-1.39h2.38l.73-2.26z"/></g><g class="cls-6"><path class="cls-7" d="M251.61 223.14l-.2-.62h-.65l.52-.38-.2-.61.53.38.52-.38-.2.61.53.38h-.65l-.2.62z"/></g><g class="cls-6"><path class="cls-7" d="M67.98 219.38l.73 2.26h2.38l-1.92 1.39.73 2.26-1.92-1.4-1.92 1.4.73-2.26-1.92-1.39h2.38l.73-2.26z"/></g><g class="cls-6"><path class="cls-7" d="M761.9 83.07l.74 2.26h2.37l-1.92 1.39.73 2.26-1.92-1.39-1.92 1.39.74-2.26-1.92-1.39h2.37l.73-2.26z"/></g><g class="cls-6"><path class="cls-7" d="M728.57 44.64l.73 2.26h2.38l-1.92 1.39.73 2.26-1.92-1.4-1.92 1.4.73-2.26-1.91-1.39h2.37l.73-2.26z"/></g><g class="cls-6"><path class="cls-7" d="M825.75 76.65l-.2-.62h-.65l.52-.38-.2-.62.53.38.52-.38-.2.62.53.38h-.65l-.2.62z"/></g><g class="cls-6"><path class="cls-7" d="M642.12 72.89l.74 2.25h2.37l-1.92 1.4.73 2.25-1.92-1.39-1.92 1.39.74-2.25-1.92-1.4h2.37l.73-2.25z"/></g><g class="cls-6"><path class="cls-7" d="M21.48 80.63l.73 2.26h2.37l-1.92 1.39.74 2.26-1.92-1.39-1.92 1.39.73-2.26-1.92-1.39h2.37l.74-2.26z"/></g><g class="cls-6"><path class="cls-7" d="M118.65 112.64l-.2-.61h-.64l.52-.39-.2-.61.52.38.53-.38-.2.61.52.39h-.64l-.21.61z"/></g><g class="cls-6"><path class="cls-7" d="M125.77 73.4l.73 2.26h2.38l-1.92 1.39.73 2.26-1.92-1.4-1.92 1.4.73-2.26-1.91-1.39h2.37l.73-2.26z"/></g><g class="cls-6"><path class="cls-7" d="M867.86 80.12l.73 2.26h2.37l-1.92 1.39.73 2.26-1.91-1.4-1.92 1.4.73-2.26-1.92-1.39h2.37l.74-2.26z"/></g><g class="cls-6"><path class="cls-7" d="M965.03 112.13l-.2-.62h-.65l.53-.38-.2-.62.52.38.53-.38-.2.62.52.38h-.65l-.2.62z"/></g><g class="cls-6"><path class="cls-7" d="M822.8 159.84l.74 2.26h2.37l-1.92 1.4.74 2.25-1.93-1.39-1.92 1.39.74-2.25-1.92-1.4h2.37l.73-2.26z"/></g><g class="cls-6"><path class="cls-7" d="M972.15 72.89l.73 2.25h2.38l-1.92 1.4.73 2.25-1.92-1.39-1.92 1.39.73-2.25-1.92-1.4h2.38l.73-2.25z"/></g><g class="cls-6"><path class="cls-7" d="M1261.38 80.12l.73 2.26h2.37l-1.91 1.39.73 2.26-1.92-1.4-1.92 1.4.73-2.26-1.92-1.39h2.37l.74-2.26z"/></g><g class="cls-6"><path class="cls-7" d="M1358.56 112.13l-.2-.62h-.65l.52-.38-.2-.62.53.38.52-.38-.2.62.52.38h-.64l-.2.62z"/></g><g class="cls-6"><path class="cls-7" d="M1216.33 159.84l.73 2.26h2.37l-1.92 1.4.74 2.25-1.92-1.39-1.92 1.39.73-2.25-1.92-1.4h2.37l.74-2.26z"/></g><g class="cls-6"><path class="cls-7" d="M1365.67 72.89l.74 2.25h2.37l-1.92 1.4.73 2.25-1.92-1.39-1.92 1.39.74-2.25-1.92-1.4h2.37l.73-2.25z"/></g><g class="cls-6"><path class="cls-7" d="M952.65 47.59l.73 2.26h2.37l-1.91 1.39.73 2.26-1.92-1.39-1.92 1.39.73-2.26-1.92-1.39h2.37l.74-2.26z"/></g><g class="cls-6"><path class="cls-7" d="M960.35 183.91l-.2-.62h-.65l.52-.38-.2-.62.53.38.52-.38-.2.62.53.38h-.65l-.2.62z"/></g><g class="cls-6"><path class="cls-7" d="M1087.25 154.85l.73 2.26h2.37l-1.92 1.39.74 2.26-1.92-1.4-1.92 1.4.73-2.26-1.92-1.39h2.37l.74-2.26z"/></g><g class="cls-6"><path class="cls-7" d="M1053.91 116.42l.74 2.25h2.37l-1.92 1.4.74 2.25-1.93-1.39-1.92 1.39.74-2.25-1.92-1.4h2.37l.73-2.25z"/></g><g class="cls-6"><path class="cls-7" d="M967.47 144.66l.73 2.26h2.37l-1.92 1.39.73 2.26-1.91-1.39-1.93 1.39.74-2.26-1.92-1.39h2.37l.74-2.26z"/></g><g class="cls-6"><path class="cls-7" d="M1193.2 151.9l.73 2.25h2.38l-1.93 1.4.74 2.26-1.92-1.4-1.92 1.4.73-2.26-1.92-1.4h2.37l.74-2.25z"/></g><g class="cls-6"><path class="cls-7" d="M1290.38 183.91l-.21-.62h-.64l.52-.38-.2-.62.53.38.52-.38-.2.62.52.38h-.64l-.2.62z"/></g><g class="cls-6"><path class="cls-7" d="M1297.49 144.66l.74 2.26h2.37l-1.92 1.39.73 2.26-1.92-1.39-1.92 1.39.74-2.26-1.92-1.39h2.37l.73-2.26z"/></g><g class="cls-6"><path class="cls-7" d="M1277.99 119.37l.73 2.26h2.38l-1.92 1.39.73 2.26-1.92-1.4-1.92 1.4.73-2.26-1.92-1.39h2.38l.73-2.26z"/></g><g class="cls-6"><path class="cls-7" d="M1134.65 64.88l.74 2.25h2.37l-1.92 1.4.73 2.25-1.92-1.39-1.92 1.39.74-2.25-1.92-1.4h2.37l.73-2.25z"/></g><g class="cls-6"><path class="cls-7" d="M1069.42 53.46l-.2-.62h-.65l.52-.38-.2-.62.53.38.52-.38-.2.62.53.38h-.65l-.2.62z"/></g><g class="cls-6"><path class="cls-7" d="M1196.32 24.4l.73 2.26h2.37l-1.92 1.39.74 2.26-1.92-1.4-1.92 1.4.73-2.26-1.92-1.39h2.37l.74-2.26z"/></g><g class="cls-6"><path class="cls-7" d="M1532.07 34.61l.73 2.26h2.37l-1.92 1.39.73 2.26-1.91-1.4-1.93 1.4.74-2.26-1.92-1.39h2.37l.74-2.26z"/></g><g class="cls-6"><path class="cls-7" d="M1629.24 66.62l-.2-.62h-.65l.53-.38-.2-.62.52.39.53-.39-.2.62.52.38h-.65l-.2.62z"/></g><g class="cls-6"><path class="cls-7" d="M1636.36 27.38l.73 2.25h2.37l-1.91 1.4.73 2.25-1.92-1.39-1.92 1.39.73-2.25-1.92-1.4h2.38l.73-2.25z"/></g><g class="cls-6"><path class="cls-7" d="M1421.78 102.91l-.2-.61h-.65l.52-.38-.2-.62.53.38.52-.38-.2.62.53.38h-.65l-.2.61z"/></g><g class="cls-6"><path class="cls-7" d="M1440.76 183.91l-.2-.62h-.65l.53-.38-.2-.62.52.38.53-.38-.2.62.52.38h-.65l-.2.62z"/></g><g class="cls-6"><path class="cls-7" d="M1567.66 154.85l.74 2.26h2.37l-1.92 1.39.73 2.26-1.92-1.4-1.92 1.4.74-2.26-1.92-1.39h2.37l.73-2.26z"/></g><g class="cls-6"><path class="cls-7" d="M1534.33 116.42l.73 2.25h2.38l-1.92 1.4.73 2.25-1.92-1.39-1.92 1.39.73-2.25-1.92-1.4h2.38l.73-2.25z"/></g><g class="cls-6"><path class="cls-7" d="M1420.01 212.26l.73 2.26h2.38l-1.92 1.4.73 2.25-1.92-1.39-1.92 1.39.73-2.25-1.92-1.4h2.38l.73-2.26z"/></g><g class="cls-6"><path class="cls-7" d="M1517.19 244.27l-.2-.61h-.65l.52-.38-.2-.62.53.38.52-.38-.2.62.53.38h-.65l-.2.61z"/></g><g class="cls-6"><path class="cls-7" d="M1144.95 179.36l.73 2.26h2.37l-1.92 1.39.74 2.26-1.92-1.39-1.92 1.39.73-2.26-1.92-1.39h2.37l.74-2.26z"/></g><g class="cls-6"><path class="cls-7" d="M1631.51 148.42l-.2-.61h-.65l.52-.38-.2-.62.53.38.52-.38-.2.62.53.38h-.65l-.2.61z"/></g><g class="cls-6"><path class="cls-7" d="M1807.87 202l.74 2.25h2.37l-1.92 1.4.73 2.26-1.92-1.4-1.92 1.4.74-2.26-1.92-1.4h2.37l.73-2.25z"/></g><g class="cls-6"><path class="cls-7" d="M1774.54 163.56l.73 2.26h2.38l-1.92 1.39.73 2.26-1.92-1.39-1.92 1.39.73-2.26-1.92-1.39h2.38l.73-2.26z"/></g><g class="cls-6"><path class="cls-7" d="M1871.72 195.57l-.2-.61h-.65l.52-.39-.2-.61.53.38.52-.38-.2.61.53.39h-.65l-.2.61z"/></g><g class="cls-6"><path class="cls-7" d="M1779.62 69.77l.73 2.25h2.37l-1.91 1.4.73 2.25-1.92-1.39-1.92 1.39.73-2.25-1.92-1.4h2.37l.74-2.25z"/></g><g class="cls-6"><path class="cls-7" d="M1746.29 31.33l.73 2.26h2.37l-1.92 1.39.74 2.26-1.92-1.4-1.92 1.4.73-2.26-1.92-1.39h2.37l.74-2.26z"/></g><g class="cls-6"><path class="cls-7" d="M1843.46 63.34l-.2-.62h-.65l.53-.38-.2-.62.52.38.53-.38-.2.62.52.38h-.65l-.2.62z"/></g><g class="cls-6"><path class="cls-7" d="M1447.88 144.66l.74 2.26h2.37l-1.92 1.39.73 2.26-1.92-1.39-1.92 1.39.73-2.26-1.91-1.39h2.37l.73-2.26z"/></g><g class="cls-6"><path class="cls-7" d="M1673.62 151.9l.73 2.25h2.37l-1.92 1.4.74 2.26-1.92-1.4-1.93 1.4.74-2.26-1.92-1.4h2.37l.74-2.25z"/></g><g class="cls-6"><path class="cls-7" d="M1770.79 183.91l-.2-.62h-.65l.53-.38-.2-.62.52.38.53-.38-.2.62.52.38h-.65l-.2.62z"/></g><g class="cls-6"><path class="cls-7" d="M1853.84 108.88l.74 2.26h2.37l-1.92 1.39.73 2.26-1.92-1.4-1.92 1.4.74-2.26-1.92-1.39h2.37l.73-2.26z"/></g><g class="cls-6"><path class="cls-7" d="M1758.41 119.37l.73 2.26h2.37l-1.92 1.39.74 2.26-1.92-1.4-1.92 1.4.73-2.26-1.92-1.39h2.37l.74-2.26z"/></g><g class="cls-6"><path class="cls-7" d="M1015.69 223.14l-.2-.62h-.65l.52-.38-.2-.61.53.38.52-.38-.2.61.53.38h-.65l-.2.62z"/></g><g class="cls-6"><path class="cls-7" d="M832.06 219.38l.73 2.26h2.38l-1.92 1.39.73 2.26-1.92-1.4-1.92 1.4.74-2.26-1.92-1.39h2.37l.73-2.26z"/></g><path class="cls-8" d="M-.97 864.11h1920.98v216H-.97z"/><ellipse class="cls-9" cx="479.75" cy="1025.76" rx="14.69" ry="5.24"/><ellipse class="cls-9" cx="572.06" cy="1030.99" rx="17.62" ry="6.28"/><ellipse class="cls-9" cx="371.7" cy="1013.71" rx="31.47" ry="11.22"/><ellipse class="cls-9" cx="168.19" cy="1021.04" rx="14.69" ry="5.24"/><ellipse class="cls-9" cx="663.33" cy="1032.04" rx="14.69" ry="5.24"/><ellipse class="cls-9" cx="1752.22" cy="1030.99" rx="17.62" ry="6.28"/><ellipse class="cls-9" cx="731.51" cy="1027.85" rx="14.69" ry="5.24"/><ellipse class="cls-9" cx="1496.25" cy="1027.85" rx="14.69" ry="5.24"/><ellipse class="cls-9" cx="1822.5" cy="1030.99" rx="17.62" ry="6.28"/><ellipse class="cls-9" cx="1260.22" cy="1015.29" rx="32.52" ry="11.59"/><ellipse class="cls-9" cx="975.94" cy="1025.76" rx="32.52" ry="11.59"/><ellipse class="cls-9" cx="1181.55" cy="1027.85" rx="14.69" ry="5.24"/><ellipse class="cls-8" cx="479.75" cy="1022.61" rx="14.69" ry="5.24"/><ellipse class="cls-8" cx="572.06" cy="1027.85" rx="17.62" ry="6.28"/><ellipse class="cls-8" cx="371.7" cy="1010.57" rx="31.47" ry="11.22"/><ellipse class="cls-8" cx="168.19" cy="1017.9" rx="14.69" ry="5.24"/><ellipse class="cls-8" cx="663.33" cy="1028.9" rx="14.69" ry="5.24"/><ellipse class="cls-8" cx="1752.22" cy="1027.85" rx="17.62" ry="6.28"/><ellipse class="cls-8" cx="731.51" cy="1024.71" rx="14.69" ry="5.24"/><ellipse class="cls-8" cx="1496.25" cy="1024.71" rx="14.69" ry="5.24"/><ellipse class="cls-8" cx="1822.5" cy="1027.85" rx="17.62" ry="6.28"/><ellipse class="cls-8" cx="1260.22" cy="1012.14" rx="32.52" ry="11.59"/><ellipse class="cls-8" cx="975.94" cy="1022.61" rx="32.52" ry="11.59"/><ellipse class="cls-8" cx="1181.55" cy="1024.71" rx="14.69" ry="5.24"/><path class="cls-9" d="M1920 863.11H-1V1024.2c47.75 0 86.54-16.52 86.54-36.91a16.1 16.1 0 0 0-.28-2.85c30.86 10.73 80.14 17.67 135.67 17.67h.56c.77 6.56 15.94 11.8 34.55 11.8 19.1 0 34.58-5.52 34.58-12.33a5.32 5.32 0 0 0-1.2-3.22c36.11-4.16 65.58-11.49 83.12-20.64 13.46 3.79 30.71 7.27 51.05 10.34-3.19 1.41-5.11 3.2-5.11 5.16 0 4.54 10.33 8.22 23.06 8.22s23-3.66 23.05-8.19c52.48 5.56 117.82 8.86 188.65 8.86 44.21 0 86.27-1.29 124.41-3.6a7.07 7.07 0 0 0-.74 3.07c0 10.11 23 18.31 51.35 18.31s51.36-8.2 51.36-18.31c0-4.34-4.25-8.32-11.33-11.46 11.69-1.55 22.55-3.22 32.44-5 37.88 8.56 93.4 14.59 157 16.41 4 6.36 19.85 11.11 38.87 11.11s34.77-4.71 38.81-11c64.13-1.68 120.3-7.65 158.79-16.19 6.82 7.26 26 12.49 48.69 12.49a135.78 135.78 0 0 0 19.63-1.38c40.31 11 107.9 18.68 186 20v.2c0 3.47 7.89 6.28 17.61 6.28s17.61-2.81 17.61-6.28c13-.1 25.67-.37 38-.8a4 4 0 0 0-.09.84c0 6.4 14.54 11.58 32.49 11.58s32.48-5.18 32.48-11.58c0-1.62-.94-3.17-2.63-4.57 22-1.92 42.22-4.4 60-7.33 29 4.52 67 7.26 108.79 7.26h3.31c15.82 7.37 38.7 12 64 12v-8.38z"/><path class="cls-8" d="M1920 863.11H-1v156.2c47.8 0 86.62-16.57 86.62-37a14.71 14.71 0 0 0-.09-1.49c31 10.51 79.72 17.29 134.57 17.29h.56c.77 6.58 16 11.83 34.58 11.83 19.12 0 34.62-5.53 34.62-12.36a5.28 5.28 0 0 0-1.21-3.23c36.15-4.17 65.65-11.52 83.21-20.69C385.34 977.46 402.6 981 423 984c-3.19 1.41-5.11 3.21-5.11 5.16 0 4.55 10.33 8.24 23.08 8.24s23-3.66 23.07-8.2c52.53 5.57 117.93 8.88 188.83 8.88 44.25 0 86.35-1.29 124.52-3.61a7.08 7.08 0 0 0-.74 3.08c0 10.14 23 18.35 51.4 18.35s51.41-8.21 51.41-18.35c0-4.35-4.26-8.34-11.34-11.49 11.7-1.55 22.57-3.22 32.46-5 37.92 8.58 93.49 14.63 157.11 16.45 4 6.37 19.87 11.14 38.91 11.14s34.8-4.72 38.85-11c64.19-1.69 120.41-7.67 158.93-16.23 6.83 7.28 26.06 12.52 48.74 12.52a134.61 134.61 0 0 0 19.65-1.39c40.35 11.06 108 18.73 186.19 20.06v.21c0 3.47 7.89 6.29 17.63 6.29s17.62-2.82 17.62-6.29q19.47-.15 38.08-.8a4 4 0 0 0-.09.84c0 6.41 14.55 11.61 32.51 11.61s32.52-5.2 32.52-11.61c0-1.63-.94-3.18-2.63-4.58 22-1.93 42.25-4.41 60-7.35 29 4.52 67.1 7.27 108.88 7.27h4.71c15.7 6.83 37.72 11.07 61.88 11.07v-11.79z"/><path fill="#a8a8a8" d="M-.97 923.11h1920.98v25H-.97z"/><path class="cls-9" d="M-.97 923.11h1920.98v7H-.97z"/></svg>