<svg id="Layer_1" data-name="Layer 1" xmlns="http://www.w3.org/2000/svg" xmlns:xlink="http://www.w3.org/1999/xlink" viewBox="0 0 1334 750"><defs><style>.cls-1{fill:url(#linear-gradient);}.cls-2{fill:url(#linear-gradient-2);}.cls-3{fill:url(#linear-gradient-3);}.cls-4{fill:url(#linear-gradient-4);}.cls-5{fill:#fff;}.cls-6{fill:#d7f7ff;}.cls-7{fill:#97e1f2;}.cls-8{opacity:0.79;}.cls-9{fill:#0e0e1e;}.cls-10{fill:#484860;}.cls-11{fill:url(#linear-gradient-5);}.cls-12{fill:url(#linear-gradient-6);}.cls-13{fill:#dd6c3a;}.cls-14{fill:#ffb07b;}.cls-15{fill:#c1c1c1;}.cls-16{fill:#8e8e8e;}.cls-17{fill:#efefef;}.cls-18{fill:#00a99d;}.cls-19{fill:#ef6e26;}.cls-20{fill:#ea8a59;}.cls-21{fill:#c66738;}.cls-22,.cls-32,.cls-41,.cls-43,.cls-44,.cls-45,.cls-47,.cls-48,.cls-51,.cls-52{fill:none;}.cls-22{stroke:#fff;stroke-width:1.64px;}.cls-22,.cls-32,.cls-41,.cls-44,.cls-45{stroke-linecap:round;}.cls-22,.cls-32,.cls-41,.cls-43,.cls-44,.cls-45,.cls-47,.cls-48,.cls-51{stroke-miterlimit:10;}.cls-23{fill:#b55731;}.cls-24{fill:#932600;}.cls-25{fill:#c43300;}.cls-26{fill:#ff4800;}.cls-27{fill:#2d9000;}.cls-28{fill:#1b4900;}.cls-29{fill:#308200;}.cls-30{fill:#3da804;}.cls-31{fill:#ff5d31;}.cls-32{stroke:#efefef;stroke-width:2.73px;}.cls-33{fill:#7600ff;}.cls-34{fill:#4b00b5;}.cls-35{fill:#06fff2;}.cls-36{fill:#008278;}.cls-37{fill:#0749a8;}.cls-38{fill:#035eff;}.cls-39{fill:#ffd400;}.cls-40{fill:#a58500;}.cls-41{stroke:#931f00;stroke-width:12.98px;}.cls-42{fill:#915320;}.cls-43{stroke:#ffe09c;stroke-width:15.42px;}.cls-44{stroke:#c67328;stroke-width:9.74px;}.cls-45{stroke:#915320;stroke-width:4.87px;}.cls-46{fill:#c63300;}.cls-47{stroke:#ffc200;stroke-width:10.55px;}.cls-48{stroke:#c18f02;stroke-width:5.68px;}.cls-49{fill:#936a05;}.cls-50{fill:#ffc200;}.cls-51{stroke:#ffd261;stroke-width:6.49px;}</style><linearGradient id="linear-gradient" x1="667" y1="750" x2="667" gradientUnits="userSpaceOnUse"><stop offset="0" stop-color="#1a5b96"/><stop offset="0.55" stop-color="#101772"/><stop offset="1" stop-color="#070a16"/></linearGradient><linearGradient id="linear-gradient-2" x1="1118.6" y1="739.61" x2="1118.6" y2="418.29" gradientUnits="userSpaceOnUse"><stop offset="0" stop-color="#070a16" stop-opacity="0"/><stop offset="0.45" stop-color="#101772"/><stop offset="1" stop-color="#1a5b96"/></linearGradient><linearGradient id="linear-gradient-3" x1="622.62" y1="764.5" x2="622.62" y2="340.64" gradientUnits="userSpaceOnUse"><stop offset="0" stop-color="#070a16" stop-opacity="0"/><stop offset="0.57" stop-color="#101772"/><stop offset="1" stop-color="#1a5b96"/></linearGradient><linearGradient id="linear-gradient-4" x1="196.09" y1="627.4" x2="196.09" y2="342.32" gradientUnits="userSpaceOnUse"><stop offset="0" stop-color="#070a16"/><stop offset="0.04" stop-color="#080b1e" stop-opacity="0"/><stop offset="0.45" stop-color="#101772"/><stop offset="1" stop-color="#1a5b96"/></linearGradient><linearGradient id="linear-gradient-5" x1="152.72" y1="703.14" x2="311.34" y2="434.28" gradientUnits="userSpaceOnUse"><stop offset="0" stop-color="#192d3a"/><stop offset="0.23" stop-color="#194162" stop-opacity="0.56"/><stop offset="0.47" stop-color="#1a507f" stop-opacity="0.25"/><stop offset="0.72" stop-color="#1a5890" stop-opacity="0.06"/><stop offset="1" stop-color="#1a5b96" stop-opacity="0"/></linearGradient><linearGradient id="linear-gradient-6" x1="329.72" y1="421.62" x2="262.68" y2="512.5" gradientUnits="userSpaceOnUse"><stop offset="0" stop-color="#36aacd"/><stop offset="1" stop-color="#070a16" stop-opacity="0"/></linearGradient></defs><title>Background</title><polyline class="cls-1" points="1334 0 1334 750 0 750 0 0"/><path class="cls-2" d="M1318.5,509.85a14,14,0,0,0-14-14h-37.37a5.63,5.63,0,0,0-5.58-6.21H1205a5.63,5.63,0,0,0-5.58,6.21h-1.89v-49.9h9.81a6.18,6.18,0,0,0,6.18-6.19V433.1c2.68,0,4.68-2.54,4.68-5.51a6.16,6.16,0,0,0-.15-1.36,6.74,6.74,0,0,0,.16-1.43,6.35,6.35,0,0,0-6.14-6.51h-88a6.36,6.36,0,0,0-6.14,6.51,6.71,6.71,0,0,0,.4,2.26,4.71,4.71,0,0,0,0,.53,6.22,6.22,0,0,0,6.09,6.31h.23v5.85a6.19,6.19,0,0,0,6.18,6.19h3.44a4.45,4.45,0,0,0,3.87,2.39,4.17,4.17,0,0,0,1.5-.29v44.73h-45.18a4.49,4.49,0,0,0-4.23,3.07H1062.6a4.48,4.48,0,0,0-4.23-3.07h-80.9a4.49,4.49,0,0,0-4.23,3.07H932.7a14,14,0,0,0-14,14v60.67h0a2.28,2.28,0,0,0,0,.26h0a7.49,7.49,0,0,0,7.46,7.47h13.59a4.5,4.5,0,0,0,3.29,6.59,4.55,4.55,0,0,0,.72,9,4.55,4.55,0,1,0,0,9.1,4.56,4.56,0,0,0,0,9.11,4.56,4.56,0,0,0,0,9.11,4.55,4.55,0,0,0,0,9.1,4.56,4.56,0,0,0,0,9.11,4.56,4.56,0,0,0-4.55,4.56h0a4.56,4.56,0,0,0,4.55,4.55,4.56,4.56,0,0,0,0,9.11,4.55,4.55,0,1,0,0,9.1,4.56,4.56,0,0,0,0,9.11,4.56,4.56,0,0,0,0,9.11,4.56,4.56,0,0,0-4.55,4.55h0a4.55,4.55,0,0,0,4.55,4.55,4.56,4.56,0,0,0-4.49,3.92h-.58v16.85a4.41,4.41,0,0,0,0,4v3.77H950a9.93,9.93,0,0,0,6.08,2.08h10a3.93,3.93,0,0,0-.06.6,4.22,4.22,0,0,0,4.22,4.2H993.4a4.91,4.91,0,0,0,.67-.06,8.5,8.5,0,0,0,8.41,7.42h69.24a8.51,8.51,0,0,0,8.16-6.19H1102a5.14,5.14,0,0,0,5.1-4.64h.68a5.58,5.58,0,0,0,2.86-.79v14.4h84V726.2a5.16,5.16,0,0,0,3,1h26a5.36,5.36,0,0,0,4.49,2.45H1267a5.37,5.37,0,0,0,5.3-4.64h9.94a4.8,4.8,0,0,0,4.16-2.41h16.12V718a4.58,4.58,0,0,0,.21-1.29,4.71,4.71,0,0,0-.21-1.3V709a4.1,4.1,0,0,0,0-2.59V699.9a4.45,4.45,0,0,0-2.51-5.45v-.79a4.56,4.56,0,0,0,2.72-4.16h0a4.56,4.56,0,0,0-2.72-4.16v-.79a4.54,4.54,0,0,0,0-8.32v-.78a4.54,4.54,0,0,0,0-8.32v-.79a4.54,4.54,0,0,0,0-8.32v-.79a4.54,4.54,0,0,0,0-8.32v-.78a4.56,4.56,0,0,0,2.72-4.16h0a4.57,4.57,0,0,0-2.72-4.17V639a4.54,4.54,0,0,0,0-8.32v-.78a4.32,4.32,0,0,0,.67-.36,4.75,4.75,0,0,0,.69-.57l0,0a5.46,5.46,0,0,0,.53-.64l0,0a5,5,0,0,0,.39-.72v0a4.17,4.17,0,0,0,.25-.78.68.68,0,0,0,0-.14,4.49,4.49,0,0,0,.09-.83h0a4.56,4.56,0,0,0-2.72-4.16v-.78a4.6,4.6,0,0,0,2.32-2.32.43.43,0,0,1,0-.07,5.16,5.16,0,0,0,.16-.52c0-.11.08-.22.11-.34s0-.26,0-.4a4.4,4.4,0,0,0,0-.51h0a4.56,4.56,0,0,0-2.72-4.16v-.78a4.56,4.56,0,0,0,2.72-4.16h0a4.57,4.57,0,0,0-2.72-4.16v-.78a4.56,4.56,0,0,0,2.72-4.16h0a4.56,4.56,0,0,0-2.72-4.16v-.78a4.54,4.54,0,0,0,2.72-4.16h0a4.57,4.57,0,0,0-2.72-4.16v-.62a4.56,4.56,0,0,0,2.72-4.16s0-.06,0-.09,0-.06,0-.09a9.89,9.89,0,0,0-.18-1.93h8.5a7.49,7.49,0,0,0,7.46-7.47h0c0-.09,0-.17,0-.26h0Z"/><path class="cls-3" d="M919.62,606H860.76V536.51h13l.05,0c.23.13.45.26.69.37l.12.06a8.29,8.29,0,0,0,.83.31l.16,0c.24.06.47.11.72.15l.24,0a6.56,6.56,0,0,0,.9.07h0a6.64,6.64,0,0,0,1.42-.15,6.82,6.82,0,0,0,2.17-.85l.12-.07h3.37v-6h0v-3.62h0V423.14a12.72,12.72,0,0,0-12.7-12.72H846a8.57,8.57,0,0,0-8.48-7.6H805.1a10.85,10.85,0,0,0-10.2-7.27h-2.08v-21.7h8V355.34a5.67,5.67,0,0,0,4.86-5.68,5.79,5.79,0,0,1,0-3.3,5.62,5.62,0,0,0-5.49-5.72H721.08a7.74,7.74,0,0,0-.63,14.7v18.51h8v31.43H698.73a4.62,4.62,0,0,0-4.61,4.61,4.75,4.75,0,0,0,0,.53H663.78a9.46,9.46,0,0,0,.25-2.07,9,9,0,0,0-9-9H614.45a9,9,0,0,0-8.67,6.59h-53a7.59,7.59,0,0,0-6.91,4.51H527V373.85h8V355.34a5.67,5.67,0,0,0,4.86-5.68,5.79,5.79,0,0,1,0-3.3,5.62,5.62,0,0,0-5.49-5.72H455.21a7.74,7.74,0,0,0-.63,14.7v18.51h8v29H419.16a5.86,5.86,0,0,0-5.84,5.84,6,6,0,0,0,.27,1.76h-6.94A12.71,12.71,0,0,0,394,423.14V526.86h0v2.32l-68.33,77.61v5.61h15.71V736.2h71.25v13.68H595.81V764.5h75.43V749.88H860.76V736.19h58.86Z"/><path class="cls-4" d="M338.16,447.8h0l-16.91-45.22a9.25,9.25,0,0,0-6.64-5.88,3.54,3.54,0,0,0-3.49-3.07h-12.6v-1a2.84,2.84,0,0,0-2.82-2.83H271.05V368.37h9a6.19,6.19,0,0,0,6.18-6.19v-6c2.54,0,4.44-2.42,4.44-5.24a6.45,6.45,0,0,0-.11-1.17,7.47,7.47,0,0,0,.12-1.26,6,6,0,0,0-5.83-6.17H201.26a6,6,0,0,0-5.83,6.17,6.42,6.42,0,0,0,.37,2.12c0,.11,0,.21,0,.31a5.91,5.91,0,0,0,5.78,6h.22v5.26a6.19,6.19,0,0,0,6.18,6.19h2.84a4.23,4.23,0,0,0,3.79,2.49,4,4,0,0,0,1.42-.28v19.25H177.09a2.85,2.85,0,0,0-2.83,2.83v1h-4a3.56,3.56,0,0,0-3.47,2.85h-22a3.55,3.55,0,0,0-3.46-2.85H121.13v-.26a3.55,3.55,0,0,0-3.54-3.54h-29a3.55,3.55,0,0,0-3.54,3.54v2.42a3.84,3.84,0,0,0,.07.69H81.62a9.12,9.12,0,0,0-8.29,5.68l-18.65,43.5a5.06,5.06,0,0,0-.79,1.84l-.13.3h.08a5.56,5.56,0,0,0-.08.82v21.26A4.92,4.92,0,0,0,58.5,475a4.76,4.76,0,0,0,4.31-3l3.79,3.95h11V624.35h74.85v3h79.7v-3H311.2V475.93h11.87l1.32-1.23v3.35a3.37,3.37,0,0,0,1.67,2.91,4.35,4.35,0,0,0,2.72,1h.35a4.35,4.35,0,0,0,2.72-1,3.4,3.4,0,0,0,1.67-2.91V475.4l.15,0a4.93,4.93,0,0,0,4.75-4.57V449.33A5.17,5.17,0,0,0,338.16,447.8Z"/><path class="cls-5" d="M681.41,303.61c2.58,0,2.58-4,0-4s-2.58,4,0,4Z"/><path class="cls-5" d="M893.68,268.65a1,1,0,0,0,0-2,1,1,0,0,0,0,2Z"/><ellipse class="cls-6" cx="162.52" cy="727.99" rx="112.55" ry="211.64" transform="translate(-583.02 704.78) rotate(-75.63)"/><ellipse class="cls-7" cx="112.12" cy="625.05" rx="70.79" ry="148.33" transform="translate(-522.89 628.8) rotate(-80.17)"/><ellipse class="cls-7" cx="205.79" cy="686.41" rx="72.22" ry="35.99"/><ellipse class="cls-7" cx="11.87" cy="550.67" rx="135.51" ry="72.55"/><ellipse class="cls-6" cx="11.87" cy="538.6" rx="135.51" ry="72.55"/><ellipse class="cls-6" cx="213.91" cy="678.28" rx="72.22" ry="35.99"/><ellipse class="cls-6" cx="112.12" cy="612.41" rx="70.79" ry="148.33" transform="translate(-510.44 618.32) rotate(-80.17)"/><path class="cls-6" d="M1426.74,750.52c0,61.65-110.32,111.62-246.41,111.62S863.72,816.32,863.72,754.67s180.52-115.78,316.61-115.78S1426.74,688.87,1426.74,750.52Z"/><path class="cls-6" d="M1637.36,641.52c0,67.91-110.32,123-246.41,123S1074.34,714,1074.34,646.1,1254.86,518.55,1391,518.55,1637.36,573.6,1637.36,641.52Z"/><g class="cls-8"><polygon class="cls-5" points="1043.19 56.8 1043.92 59.05 1046.3 59.05 1044.38 60.45 1045.11 62.71 1043.19 61.31 1041.27 62.71 1042.01 60.45 1040.09 59.05 1042.46 59.05 1043.19 56.8"/></g><g class="cls-8"><polygon class="cls-5" points="1043.19 110.19 1043.92 112.45 1046.3 112.45 1044.38 113.84 1045.11 116.1 1043.19 114.7 1041.27 116.1 1042.01 113.84 1040.09 112.45 1042.46 112.45 1043.19 110.19"/></g><g class="cls-8"><polygon class="cls-5" points="61.55 56.8 62.28 59.05 64.65 59.05 62.73 60.45 63.47 62.71 61.55 61.31 59.63 62.71 60.36 60.45 58.44 59.05 60.81 59.05 61.55 56.8"/></g><g class="cls-8"><polygon class="cls-5" points="1003.86 96.19 1004.59 98.45 1006.96 98.45 1005.04 99.85 1005.77 102.11 1003.86 100.71 1001.94 102.11 1002.67 99.85 1000.75 98.45 1003.12 98.45 1003.86 96.19"/></g><g class="cls-8"><polygon class="cls-5" points="974.87 67.16 975.6 69.42 977.97 69.42 976.05 70.81 976.78 73.07 974.87 71.67 972.95 73.07 973.68 70.81 971.76 69.42 974.13 69.42 974.87 67.16"/></g><g class="cls-8"><polygon class="cls-5" points="908.42 71.95 909.16 74.21 911.53 74.21 909.61 75.6 910.34 77.86 908.42 76.47 906.51 77.86 907.24 75.6 905.32 74.21 907.69 74.21 908.42 71.95"/></g><g class="cls-8"><polygon class="cls-5" points="802.56 37.51 803.29 39.77 805.66 39.77 803.74 41.17 804.48 43.43 802.56 42.03 800.64 43.43 801.37 41.17 799.45 39.77 801.83 39.77 802.56 37.51"/></g><g class="cls-8"><polygon class="cls-5" points="660.66 37.51 661.4 39.77 663.77 39.77 661.85 41.17 662.58 43.43 660.66 42.03 658.75 43.43 659.48 41.17 657.56 39.77 659.93 39.77 660.66 37.51"/></g><g class="cls-8"><polygon class="cls-5" points="1139.44 96.19 1140.18 98.45 1142.55 98.45 1140.63 99.85 1141.36 102.11 1139.44 100.71 1137.53 102.11 1138.26 99.85 1136.34 98.45 1138.71 98.45 1139.44 96.19"/></g><g class="cls-8"><polygon class="cls-5" points="1217.66 96.19 1218.4 98.45 1220.77 98.45 1218.85 99.85 1219.58 102.11 1217.66 100.71 1215.75 102.11 1216.48 99.85 1214.56 98.45 1216.93 98.45 1217.66 96.19"/></g><g class="cls-8"><polygon class="cls-5" points="1174.97 53.44 1175.71 55.7 1178.08 55.7 1176.16 57.09 1176.89 59.35 1174.97 57.96 1173.06 59.35 1173.79 57.09 1171.87 55.7 1174.24 55.7 1174.97 53.44"/></g><g class="cls-8"><polygon class="cls-5" points="348.85 97.24 349.32 98.7 350.85 98.7 349.62 99.6 350.09 101.05 348.85 100.15 347.62 101.05 348.09 99.6 346.85 98.7 348.38 98.7 348.85 97.24"/></g><g class="cls-8"><polygon class="cls-5" points="251.49 97.24 251.97 98.7 253.49 98.7 252.26 99.6 252.73 101.05 251.49 100.15 250.26 101.05 250.73 99.6 249.49 98.7 251.02 98.7 251.49 97.24"/></g><g class="cls-8"><polygon class="cls-5" points="419.36 26.63 419.83 28.08 421.36 28.08 420.13 28.98 420.6 30.44 419.36 29.54 418.13 30.44 418.6 28.98 417.36 28.08 418.89 28.08 419.36 26.63"/></g><g class="cls-8"><polygon class="cls-5" points="736.55 41.52 737.02 42.98 738.55 42.98 737.31 43.88 737.78 45.33 736.55 44.43 735.31 45.33 735.78 43.88 734.55 42.98 736.08 42.98 736.55 41.52"/></g><g class="cls-8"><polygon class="cls-5" points="532.51 26.63 532.99 28.08 534.51 28.08 533.28 28.98 533.75 30.44 532.51 29.54 531.28 30.44 531.75 28.98 530.51 28.08 532.04 28.08 532.51 26.63"/></g><g class="cls-8"><polygon class="cls-5" points="234.97 211.29 235.44 212.75 236.97 212.75 235.74 213.65 236.21 215.1 234.97 214.2 233.74 215.1 234.21 213.65 232.97 212.75 234.5 212.75 234.97 211.29"/></g><g class="cls-8"><polygon class="cls-5" points="121.09 325.34 121.56 326.8 123.09 326.8 121.86 327.69 122.33 329.15 121.09 328.25 119.86 329.15 120.33 327.69 119.09 326.8 120.62 326.8 121.09 325.34"/></g><g class="cls-8"><polygon class="cls-5" points="1131.1 228.37 1131.57 229.82 1133.1 229.82 1131.86 230.72 1132.33 232.18 1131.1 231.28 1129.86 232.18 1130.34 230.72 1129.1 229.82 1130.63 229.82 1131.1 228.37"/></g><g class="cls-8"><polygon class="cls-5" points="1066.3 163.47 1066.77 164.93 1068.3 164.93 1067.06 165.83 1067.53 167.28 1066.3 166.38 1065.06 167.28 1065.54 165.83 1064.3 164.93 1065.83 164.93 1066.3 163.47"/></g><g class="cls-8"><polygon class="cls-5" points="1000.75 228.37 1001.22 229.82 1002.75 229.82 1001.51 230.72 1001.99 232.18 1000.75 231.28 999.51 232.18 999.99 230.72 998.75 229.82 1000.28 229.82 1000.75 228.37"/></g><g class="cls-8"><polygon class="cls-5" points="272.64 19.87 273.38 22.13 275.75 22.13 273.83 23.52 274.56 25.78 272.64 24.39 270.72 25.78 271.46 23.52 269.54 22.13 271.91 22.13 272.64 19.87"/></g><g class="cls-8"><polygon class="cls-5" points="309.58 58.39 309.94 59.48 311.08 59.48 310.16 60.16 310.51 61.25 309.58 60.57 308.66 61.25 309.01 60.16 308.08 59.48 309.23 59.48 309.58 58.39"/></g><g class="cls-8"><polygon class="cls-5" points="307.35 199.7 307.7 200.79 308.85 200.79 307.92 201.46 308.28 202.55 307.35 201.88 306.43 202.55 306.78 201.46 305.85 200.79 307 200.79 307.35 199.7"/></g><g class="cls-8"><polygon class="cls-5" points="376.29 199.7 376.64 200.79 377.79 200.79 376.86 201.46 377.22 202.55 376.29 201.88 375.37 202.55 375.72 201.46 374.79 200.79 375.94 200.79 376.29 199.7"/></g><g class="cls-8"><polygon class="cls-5" points="1139.44 199.7 1139.8 200.79 1140.94 200.79 1140.02 201.46 1140.37 202.55 1139.44 201.88 1138.52 202.55 1138.87 201.46 1137.95 200.79 1139.09 200.79 1139.44 199.7"/></g><g class="cls-8"><polygon class="cls-5" points="1237.24 199.7 1237.59 200.79 1238.74 200.79 1237.81 201.46 1238.17 202.55 1237.24 201.88 1236.31 202.55 1236.67 201.46 1235.74 200.79 1236.89 200.79 1237.24 199.7"/></g><g class="cls-8"><polygon class="cls-5" points="1201.46 137.59 1201.82 138.68 1202.96 138.68 1202.04 139.35 1202.39 140.44 1201.46 139.77 1200.54 140.44 1200.89 139.35 1199.96 138.68 1201.11 138.68 1201.46 137.59"/></g><g class="cls-8"><polygon class="cls-5" points="221.67 58.39 222.03 59.48 223.17 59.48 222.25 60.16 222.6 61.25 221.67 60.57 220.75 61.25 221.1 60.16 220.18 59.48 221.32 59.48 221.67 58.39"/></g><g class="cls-8"><polygon class="cls-5" points="150.41 96.19 151.15 98.45 153.52 98.45 151.6 99.85 152.33 102.11 150.41 100.71 148.5 102.11 149.23 99.85 147.31 98.45 149.68 98.45 150.41 96.19"/></g><g class="cls-8"><polygon class="cls-5" points="89.26 157.44 89.99 159.69 92.37 159.69 90.45 161.09 91.18 163.35 89.26 161.95 87.34 163.35 88.08 161.09 86.16 159.69 88.53 159.69 89.26 157.44"/></g><ellipse class="cls-6" cx="76.54" cy="720.2" rx="106.91" ry="44.42"/><ellipse class="cls-6" cx="208.72" cy="702.89" rx="95.89" ry="34.42"/><ellipse class="cls-6" cx="286.67" cy="751.49" rx="155.47" ry="50.47"/><path class="cls-9" d="M143.72,509.5c-35.54,24.15-61.92,71-61.92,71-3,5,2.37,9.52,7.6,6.49,0,0,43-27.94,80.91-29.57L156,508Z"/><path class="cls-9" d="M293,484.55c42.11-8.45,92.15,22.16,92.15,22.16,5.62,1.35,5.12,8.37-.71,10,0,0-48.95-4.69-76.7,21.24Z"/><path class="cls-10" d="M389,509.6a4.84,4.84,0,0,0-3.79-3.37s-50-30.61-92.15-22.16l4.38,15.85C332.86,494.29,371,504,389,509.6Z"/><path class="cls-5" d="M283.45,456.37A32.75,32.75,0,0,0,219.66,471a32.75,32.75,0,0,0-62.22,20.27l29.95,149.88a30.74,30.74,0,0,0,37.82,21.47l88.59-24.53a30.79,30.79,0,0,0,21.44-37.88"/><path class="cls-11" d="M283,456.51a32.75,32.75,0,0,0-63.78,14.63A32.75,32.75,0,0,0,157,491.4l30,149.89a30.73,30.73,0,0,0,37.82,21.46l88.59-24.53a30.79,30.79,0,0,0,21.43-37.88"/><path class="cls-9" d="M297.16,448.36A75,75,0,0,0,204.86,396l-13.1,3.63A75.14,75.14,0,0,0,139.45,492l32.39,158.69a42.86,42.86,0,0,0,52.75,29.94l96.63-26.76a43,43,0,0,0,29.9-52.83Zm16.4,189.73L225,662.62a30.73,30.73,0,0,1-37.82-21.47l-30-149.88A32.75,32.75,0,0,1,219.42,471a32.75,32.75,0,0,1,63.78-14.63L335,600.21A30.79,30.79,0,0,1,313.56,638.09Z"/><path class="cls-12" d="M297.09,448.36A75,75,0,0,0,204.8,396l-13.1,3.63A75.13,75.13,0,0,0,139.39,492l32.38,158.69a42.86,42.86,0,0,0,52.75,29.94l96.63-26.76a42.94,42.94,0,0,0,29.9-52.83Zm16.4,189.73L224.9,662.62a30.74,30.74,0,0,1-37.82-21.47l-30-149.88A32.75,32.75,0,0,1,219.35,471a32.75,32.75,0,0,1,63.79-14.63l51.79,143.84A30.8,30.8,0,0,1,313.49,638.09Z"/><path class="cls-13" d="M349.77,612.93l-16.57,16-6.88-31.26a2,2,0,0,0-3.75,0l-7.08,31.13-16.31-15.83a2,2,0,0,0-2.74,2.47l1.77,4.1,11.87,33.64,7.63,21.78a7.16,7.16,0,0,0,13.53,0l7.63-21.78,11.87-33.64,1.77-4.1A2,2,0,0,0,349.77,612.93Z"/><path class="cls-14" d="M338.72,653.09c1-3.62,2.16-7.2,3.24-10.8l3.44-10.73c1.16-3.57,2.36-7.13,3.55-10.69l1.83-5.33.22-.67a.57.57,0,0,0,.06-.23.31.31,0,0,0-.08-.19.31.31,0,0,0-.2-.12.28.28,0,0,0-.2,0l.34-.25c-2.76,2.67-5.46,5.39-8.27,8l-8.37,7.9-2,1.93-.55-2.71-3.46-16.88-1.75-8.44-.88-4.22-.22-1.05-.11-.53a.89.89,0,0,0-.05-.23.32.32,0,0,1,0-.09.81.81,0,0,0-.71-.48.84.84,0,0,0-.79.42s0,.07,0,.1l0,0,0,.13-.12.52-.26,1.05-1,4.18-2,8.38-4.06,16.75-.27,1.16-.83-.83L299,613.15l.06.05a1.63,1.63,0,0,0-1.86.13,1.66,1.66,0,0,0-.57,1.81c.25.69.58,1.43.87,2.14l.89,2.16-.3.13-1-2.13c-.32-.72-.64-1.39-1-2.15a2.18,2.18,0,0,1,.68-2.38,2.21,2.21,0,0,1,2.5-.25l0,0,0,0L316,628.29l-1.1.33,3.59-16.89,1.82-8.44.91-4.22.22-1.05.12-.53,0-.13.07-.21a2.66,2.66,0,0,1,.16-.39,3.05,3.05,0,0,1,5.46.12l.16.41a1.67,1.67,0,0,1,.07.29l.12.53.25,1,1,4.2,1.95,8.41,4,16.81-2.6-.79,8.2-8.08c2.72-2.71,5.54-5.31,8.3-8l.15-.14.19-.11a3.58,3.58,0,0,1,5.32,3.44,4.62,4.62,0,0,1-.3,1.12l-.25.65-2,5.25q-2,5.24-4.1,10.46l-4.21,10.42c-1.46,3.46-2.87,6.93-4.4,10.37Z"/><path class="cls-13" d="M234.24,680.81a15.51,15.51,0,0,0-7,1.54c-2.72-2.77-7.93-4.65-13.92-4.65-6.22,0-11.61,2-14.23,5a15,15,0,0,0-7.63-1.88c-5.78,0-10.46,2.66-10.46,5.94H244.7C244.7,683.47,240,680.81,234.24,680.81Z"/><polygon class="cls-15" points="228.22 503.44 206.47 523.7 238.48 540.6 251.9 516.88 228.22 503.44"/><path class="cls-15" d="M223.49,492.66C228,509,220.78,521,206.91,524.81s-26.39-3.58-30.91-19.94,2.27-29.67,16.14-33.51S219,476.3,223.49,492.66Z"/><path class="cls-15" d="M270.18,478.42c4.51,16.37-6.37,26.84-17.5,29.82-11.91,3.2-26.17-1-30.69-17.37s1.1-29.45,16.39-33.68S265.66,462.06,270.18,478.42Z"/><ellipse class="cls-16" cx="201.37" cy="494.3" rx="23.54" ry="25.89" transform="translate(-122.76 70.24) rotate(-15.23)"/><ellipse class="cls-17" cx="201.37" cy="494.3" rx="20.89" ry="22.97" transform="matrix(0.96, -0.26, 0.26, 0.96, -122.76, 70.24)"/><ellipse class="cls-5" cx="201.37" cy="494.3" rx="17.9" ry="19.69" transform="matrix(0.96, -0.26, 0.26, 0.96, -122.76, 70.24)"/><ellipse class="cls-16" cx="247.69" cy="481.47" rx="23.54" ry="25.89" transform="translate(-117.76 81.96) rotate(-15.23)"/><ellipse class="cls-17" cx="247.38" cy="481.56" rx="20.89" ry="22.97" transform="translate(-117.8 81.88) rotate(-15.23)"/><ellipse class="cls-5" cx="247.38" cy="481.56" rx="17.9" ry="19.69" transform="translate(-117.8 81.88) rotate(-15.23)"/><ellipse class="cls-18" cx="247.38" cy="481.56" rx="5.3" ry="5.31"/><ellipse class="cls-9" cx="247.38" cy="481.56" rx="4.64" ry="4.65"/><circle class="cls-5" cx="249.87" cy="478.12" r="1.99"/><ellipse class="cls-18" cx="201.37" cy="494.3" rx="5.3" ry="5.31"/><ellipse class="cls-9" cx="201.37" cy="494.3" rx="4.64" ry="4.65"/><circle class="cls-5" cx="203.86" cy="490.86" r="1.99"/><path class="cls-9" d="M212.57,470.77A22.31,22.31,0,0,0,176,480.89S189.34,458,212.57,470.77Z"/><path class="cls-9" d="M227.36,453.87a22.31,22.31,0,0,1,37.88-2.16S245.25,434.27,227.36,453.87Z"/><polygon class="cls-19" points="238.48 540.6 215.56 522.62 228.22 503.44 251.9 516.88 238.48 540.6"/><polygon class="cls-20" points="251.9 516.88 228.22 503.44 215.56 522.62 245.51 521.23 251.9 516.88"/><polygon class="cls-13" points="238.06 539.09 244 528.59 225.91 529.27 238.06 539.09"/><path class="cls-21" d="M229,505.56l20.93,11.88L238.2,538.08,218,522.21l11-16.65m-.52-2.18-12.66,19.18,22.92,18,13.42-23.72-23.68-13.45Z"/><path d="M232.69,525.08a39.9,39.9,0,0,1-6.51-.54,30,30,0,0,1-8-2.36l-.77-.37.84-.15a76.37,76.37,0,0,1,8.1-.86c2.07-.13,4.11-.22,6.14-.31l1.87-.09c2.46-.13,5-.26,7.44-.59a23,23,0,0,0,3.64-.72,9.88,9.88,0,0,0,3.4-1.64l.65-.5-.22.78a7.23,7.23,0,0,1-2.64,3.61,14.38,14.38,0,0,1-3.89,2.11,27.66,27.66,0,0,1-8.33,1.59C233.86,525.07,233.28,525.08,232.69,525.08Z"/><path class="cls-21" d="M249,517.66a6.94,6.94,0,0,1-2.55,3.47,14.18,14.18,0,0,1-3.82,2.07,27.5,27.5,0,0,1-8.24,1.57c-.58,0-1.16,0-1.74,0a38.75,38.75,0,0,1-6.46-.54,29.74,29.74,0,0,1-7.9-2.34,74.06,74.06,0,0,1,8.07-.86c2.64-.16,5.25-.27,7.83-.39s5.14-.26,7.63-.6a22.73,22.73,0,0,0,3.69-.73,10.23,10.23,0,0,0,3.49-1.69m1-1.42-1.28,1a9.69,9.69,0,0,1-3.32,1.6,23.51,23.51,0,0,1-3.59.71c-2.43.32-4.87.45-7.44.59h-.15l-1.7.08c-2,.09-4.08.18-6.15.31a74.58,74.58,0,0,0-8.13.86l-1.68.3,1.54.73a30.49,30.49,0,0,0,8,2.39,40.38,40.38,0,0,0,6.55.54c.59,0,1.18,0,1.77,0a27.81,27.81,0,0,0,8.4-1.6,14.81,14.81,0,0,0,4-2.15,7.65,7.65,0,0,0,2.74-3.75l.42-1.57Zm-1,2Z"/><line class="cls-22" x1="223.57" y1="517.85" x2="228.15" y2="511.53"/><polygon class="cls-23" points="244.7 687.85 180.99 687.85 180.99 686.75 244.7 686.66 244.7 687.85"/><path class="cls-23" d="M214,677.71h-.66c-6.22,0-11.61,2-14.23,5a15,15,0,0,0-7.63-1.88c-5.78,0-10.46,2.66-10.46,5.94h36Z"/><path class="cls-24" d="M67.31,556.75a15.74,15.74,0,0,0-3.27,1l-.2.08a16.06,16.06,0,0,0,12.89,29.42c21.92-8.91,32-17.37,32-17.37C90.81,553.65,74.27,555.1,67.31,556.75Zm13.91,25a10.36,10.36,0,0,1-8.32-19l.14-.06a10.79,10.79,0,0,1,2.1-.64c4.49-1.06,15.17-2,26.71,8.47C101.85,570.55,95.37,576,81.22,581.76Z"/><path class="cls-24" d="M108.69,569.87s13-1.68,34.4-11.8a16.06,16.06,0,0,0-12.89-29.42l-.21.1a16.13,16.13,0,0,0-2.93,1.73C121.14,534.5,108.87,545.71,108.69,569.87Zm5.13-4.58c.12-15.59,8-22.83,11.86-25.42a9.91,9.91,0,0,1,1.89-1.12l.13-.07a10.37,10.37,0,0,1,8.32,19C122.22,564.21,113.82,565.29,113.82,565.29Z"/><path class="cls-25" d="M65.08,560.69l.11,0,0,0h0a12.87,12.87,0,0,1,2.63-.8H68l.07,0a35.67,35.67,0,0,1,15.26-.12,47.54,47.54,0,0,1,20.39,10,138.64,138.64,0,0,1-23,12.5c-1.66.73-3.37,1.46-5.08,2.15l0,0,0,0a12.93,12.93,0,0,1-10.39-23.69m-1.24-2.87a16.06,16.06,0,0,0,12.89,29.42q2.7-1.1,5.16-2.18c18.34-8.06,26.8-15.19,26.8-15.19-17.88-16.22-34.42-14.77-41.38-13.12a15.92,15.92,0,0,0-3.27,1l-.2.08Z"/><path class="cls-26" d="M131.47,531.51a12.93,12.93,0,0,1,10.37,23.69l0,0,0,0c-1.68.79-3.37,1.57-5,2.29A138.85,138.85,0,0,1,112,566.05a47.66,47.66,0,0,1,6.44-21.81,35.89,35.89,0,0,1,10.42-11.17l.06,0,0,0a12.84,12.84,0,0,1,2.37-1.4h0l0,0,.11,0m-1.27-2.86-.21.1a16.13,16.13,0,0,0-2.93,1.73c-5.92,4-18.19,15.23-18.37,39.39,0,0,11-1.41,29.3-9.47,1.64-.72,3.35-1.5,5.1-2.33a16.06,16.06,0,0,0-12.89-29.42Z"/><path class="cls-24" d="M81.09,584.06q-2.48,1.1-5.17,2.19a16,16,0,0,1-20.87-7.7c.07.2.15.39.23.58a16,16,0,0,0,21.14,8.25q2.7-1.1,5.16-2.19c18.34-8.06,26.8-15.19,26.8-15.19l-.91-.79C105.57,570.7,97.1,577,81.09,584.06Z"/><path class="cls-24" d="M142.28,557.08c-1.75.83-3.46,1.6-5.1,2.32-16,7-26.4,9-28.78,9.4,0,.4,0,.79,0,1.2,0,0,11-1.4,29.3-9.47q2.46-1.08,5.1-2.32A16.08,16.08,0,0,0,151,537c-.08-.19-.17-.37-.26-.56A16.09,16.09,0,0,1,142.28,557.08Z"/><path class="cls-24" d="M97.6,567.12a4.31,4.31,0,0,1,2.59-2.74l1-.42-1.49-1-1,.43a4.29,4.29,0,0,0-2.56,2.74Z"/><path class="cls-24" d="M114.18,559.83a4.34,4.34,0,0,0-3.77,0l-1,.43.31-1.75,1-.43a4.26,4.26,0,0,1,3.75,0Z"/><path class="cls-26" d="M114.12,573.07l-6.75,3a6.76,6.76,0,0,1-8.92-3.48h0a6.78,6.78,0,0,1,3.48-8.92l6.75-3a6.76,6.76,0,0,1,8.92,3.48h0A6.79,6.79,0,0,1,114.12,573.07Z"/><path class="cls-27" d="M175.22,644.21,131,665.93a25.63,25.63,0,0,1-34.31-11.75L79.34,618.75a25.66,25.66,0,0,1,11.73-34.3l44.25-21.71a25.62,25.62,0,0,1,34.3,11.75L187,609.92A25.64,25.64,0,0,1,175.22,644.21Z"/><path class="cls-27" d="M175.59,568.35l-9.54-19.5a5.4,5.4,0,0,0-7.24-2.48L63.68,593.05a5.43,5.43,0,0,0-2.48,7.25l9.55,19.5Z"/><polygon class="cls-28" points="114.63 612.35 138.01 662.44 142.53 660.26 117.43 606.35 114.63 612.35"/><path class="cls-29" d="M114.63,612.35,138,662.44l-18.61,8.45a14,14,0,0,1-18.6-6.78L86.3,633l28.33-20.63Z"/><polygon class="cls-28" points="86.3 632.98 168.84 572.89 167.22 569.27 76 611.92 86.3 632.98"/><path class="cls-29" d="M112,599.68,99.62,575.22,63.68,593.05a5.41,5.41,0,0,0-2.47,7.25l9.54,19.5Z"/><path class="cls-30" d="M192.17,620.27l-23.33-47.38L175.59,644l10.17-5A14,14,0,0,0,192.17,620.27Z"/><path class="cls-29" d="M165.68,548.89a5.41,5.41,0,0,0-7.24-2.48L120.64,565l11.93,24.37,42.65-20.94Z"/><path class="cls-30" d="M166,548.84a5.5,5.5,0,0,0-1.46-1.83l1.7,25.84,9.3-4.51Z"/><path class="cls-26" d="M157.82,655.19l-11,5.38a6.62,6.62,0,0,1-8.86-3L99.37,578.6a5.33,5.33,0,0,1,2.43-7.13L115.1,565a5.31,5.31,0,0,1,7.12,2.44l38.63,78.94A6.63,6.63,0,0,1,157.82,655.19Z"/><path class="cls-24" d="M145.39,657.26l-41-83.81a2.91,2.91,0,0,1,1.29-3.87l-6,3a2.92,2.92,0,0,0-1.33,3.9l41,83.8a3.61,3.61,0,0,0,4.84,1.66l16.36-8,.08,0-10.37,5.08A3.61,3.61,0,0,1,145.39,657.26Z"/><path class="cls-31" d="M154.17,652.94a3.63,3.63,0,0,1-1.65,4.85l8.12-4A3.62,3.62,0,0,0,162.3,649l-21-43"/><line class="cls-32" x1="178.06" y1="601.12" x2="184.69" y2="614.33"/><path class="cls-23" d="M315.38,628.54l-16.31-15.83a2,2,0,0,0-2.74,2.47l1.77,4.1L310,652.92l7.63,21.78a7.17,7.17,0,0,0,13.54,0l7.54-21.56-20.15-38.41Z"/><rect class="cls-33" x="1169.66" y="564.55" width="80.8" height="72.85" rx="7.8" transform="translate(314.16 -410.35) rotate(22.05)"/><polygon class="cls-34" points="1177.17 574.55 1251.97 605.1 1253.98 600.15 1255.27 597.25 1180.86 565.45 1177.17 574.55"/><path class="cls-35" d="M1201.47,558.55h15.77a2.34,2.34,0,0,1,2.34,2.34V635.8a2.91,2.91,0,0,1-2.91,2.91H1202a2.91,2.91,0,0,1-2.91-2.91V560.89a2.34,2.34,0,0,1,2.34-2.34Z" transform="translate(313.23 -410.26) rotate(22.05)"/><path class="cls-33" d="M1207.47,580.44l8-20.5-29.93-12a4.35,4.35,0,0,0-5.67,2.4l-6.54,16.16Z"/><path class="cls-33" d="M1266.93,585.51a4.35,4.35,0,0,0-2.4-5.67l-31.35-12.7L1225,587.33l35.39,14.34Z"/><path class="cls-36" d="M1209.18,530.7a12,12,0,0,0-2.34-1.42l-.16-.08A12.89,12.89,0,1,0,1196,552.67c17.07,8.36,27.52,9.84,27.52,9.84C1223.64,543.12,1213.9,534,1209.18,530.7Zm-7.49,21.73a8.32,8.32,0,0,1,6.89-15.15l.1.05a8.91,8.91,0,0,1,1.52.92c3,2.12,9.33,8,9.26,20.53C1219.46,558.78,1212.71,557.82,1201.69,552.43Z"/><path class="cls-36" d="M1223.53,562.51s8,6.9,25.5,14.28a12.89,12.89,0,1,0,10.68-23.47l-.17-.07a12.56,12.56,0,0,0-2.61-.83C1251.35,551,1238.07,549.68,1223.53,562.51Zm5.49.62c9.39-8.28,18-7.42,21.56-6.51a8,8,0,0,1,1.68.53l.11.05a8.32,8.32,0,1,1-6.89,15.15C1234.17,567.58,1229,563.13,1229,563.13Z"/><path class="cls-35" d="M1205.63,531.48l.09,0h0l0,0a10.67,10.67,0,0,1,1.89,1.14l0,0,0,0a28.84,28.84,0,0,1,8.25,9.08,38.07,38.07,0,0,1,5,17.58,112.68,112.68,0,0,1-19.83-7.11c-1.32-.6-2.67-1.24-4-1.89l0,0h0a10.38,10.38,0,0,1,8.59-18.91m1-2.28A12.89,12.89,0,1,0,1196,552.67q2.1,1,4.07,1.93c14.65,6.66,23.45,7.91,23.45,7.91.11-19.39-9.63-28.53-14.35-31.81a12,12,0,0,0-2.34-1.42l-.16-.08Z"/><path class="cls-35" d="M1258.68,555.61a10.38,10.38,0,0,1-8.61,18.9l0,0h0c-1.37-.58-2.74-1.18-4.06-1.78a112.82,112.82,0,0,1-18.39-10.28,38.17,38.17,0,0,1,16.5-7.82,28.84,28.84,0,0,1,12.26.25l.06,0h0a10.56,10.56,0,0,1,2.11.67h0l.09,0m1-2.29-.17-.07a12.56,12.56,0,0,0-2.61-.83c-5.58-1.4-18.86-2.74-33.4,10.09,0,0,6.72,5.81,21.38,12.48,1.31.59,2.69,1.2,4.12,1.8a12.89,12.89,0,1,0,10.68-23.47Z"/><path class="cls-36" d="M1200.24,553.58q-2-.9-4.08-1.92a12.9,12.9,0,0,1-6.59-16.62c-.07.14-.15.29-.21.44a12.89,12.89,0,0,0,6.39,17.08q2.12,1,4.08,1.92c14.65,6.67,23.45,7.92,23.45,7.92,0-.33,0-.65,0-1C1221.36,561.09,1213,559.4,1200.24,553.58Z"/><path class="cls-36" d="M1249.19,575.78c-1.44-.61-2.81-1.21-4.12-1.81-12.8-5.82-19.55-11-21-12.21l-.74.64s6.72,5.81,21.38,12.47c1.31.6,2.68,1.2,4.12,1.81a12.9,12.9,0,0,0,17.08-6.4c.07-.15.13-.3.19-.46A12.89,12.89,0,0,1,1249.19,575.78Z"/><path class="cls-36" d="M1219.23,554.4a3.42,3.42,0,0,1,3,.08l.77.35-.23-1.41-.78-.36a3.43,3.43,0,0,0-3-.06Z"/><path class="cls-36" d="M1232.47,560.42a3.46,3.46,0,0,0-2-2.23l-.76-.34,1.2-.76.79.36a3.43,3.43,0,0,1,2,2.23Z"/><rect class="cls-36" x="1215.68" y="555.85" width="16.81" height="10.89" rx="1.55" transform="matrix(0.91, 0.41, -0.41, 0.91, 342.26, -456.46)"/><path class="cls-36" d="M1191,631.29l28.12-69.44a2.33,2.33,0,0,1,3-1.3l-5-2a2.35,2.35,0,0,0-3,1.29l-28.11,69.44a2.89,2.89,0,0,0,1.6,3.78l13.57,5.5.07,0-8.6-3.49A2.9,2.9,0,0,1,1191,631.29Z"/><path class="cls-37" d="M1106.43,474.12a14.6,14.6,0,0,0-3-.69l-.21,0a14.7,14.7,0,0,0-3.08,29.23c21.47,2.88,33.3.72,33.3.72C1126.53,482.34,1112.72,476,1106.43,474.12Zm-.27,26.2a9.49,9.49,0,0,1,2-18.87l.13,0a9,9,0,0,1,2,.45c4.06,1.19,13,5.3,17.41,18.86C1127.65,500.78,1120,502.18,1106.16,500.32Z"/><path class="cls-37" d="M1133.4,503.35s11.12,4.58,32.72,6.25a14.7,14.7,0,0,0,3.09-29.23l-.21,0a15.45,15.45,0,0,0-3.12,0C1159.34,480.9,1144.5,484.24,1133.4,503.35Zm6.16-1.31c7.16-12.34,16.74-14.49,21-14.81a9.71,9.71,0,0,1,2,0h.13a9.48,9.48,0,0,1-2,18.86C1146.73,505,1139.56,502,1139.56,502Z"/><path class="cls-38" d="M1102.87,476.24l.11,0h.07a12.09,12.09,0,0,1,2.45.56l.06,0,.06,0a32.83,32.83,0,0,1,12.2,6.84,43.67,43.67,0,0,1,11.68,17.22,127.72,127.72,0,0,1-24-.53c-1.65-.18-3.34-.38-5-.61h-.08a11.83,11.83,0,0,1,2.47-23.54m.31-2.84a14.7,14.7,0,0,0-3.08,29.23c1.76.24,3.46.44,5.1.61,18.24,1.93,28.2.11,28.2.11-6.87-21-20.68-27.37-27-29.23a14.6,14.6,0,0,0-3-.69l-.21,0Z"/><path class="cls-38" d="M1168.92,483.22a11.83,11.83,0,0,1-2.5,23.53h-.08c-1.69-.13-3.38-.29-5-.46a128.91,128.91,0,0,1-23.58-4.49,43.52,43.52,0,0,1,15-14.41,32.89,32.89,0,0,1,13.36-4.14h.12a12.48,12.48,0,0,1,2.52,0h.18m.29-2.85-.21,0a15.45,15.45,0,0,0-3.12,0c-6.54.5-21.38,3.84-32.48,23,0,0,9.36,3.86,27.61,5.78,1.63.18,3.34.33,5.11.47a14.7,14.7,0,0,0,3.09-29.23Z"/><path class="cls-37" d="M1105,502.09c-1.63-.18-3.33-.38-5.1-.62a14.69,14.69,0,0,1-13.11-15.59c0,.19,0,.37-.07.56a14.7,14.7,0,0,0,13.07,16.16c1.76.23,3.46.44,5.09.61,18.25,1.92,28.21.1,28.21.1l-.36-1C1130.55,502.59,1120.93,503.77,1105,502.09Z"/><path class="cls-37" d="M1165.93,508.44c-1.78-.13-3.48-.29-5.12-.46-15.93-1.68-25.08-4.84-27.15-5.62l-.57.95s9.36,3.86,27.6,5.79c1.64.17,3.34.33,5.12.47A14.69,14.69,0,0,0,1182,496.5c0-.19,0-.38,0-.57A14.68,14.68,0,0,1,1165.93,508.44Z"/><path class="cls-37" d="M1125.83,496.12a4,4,0,0,1,3.3-1l.95.1-.75-1.44-1-.1a4,4,0,0,0-3.29,1Z"/><path class="cls-37" d="M1142.32,497.87a4,4,0,0,0-3-1.67l-1-.1,1-1.25,1,.1a4,4,0,0,1,3,1.67Z"/><rect class="cls-38" x="1123.98" y="495.63" width="19.16" height="12.41" rx="1.77" transform="translate(58.95 -116.24) rotate(6.03)"/><rect class="cls-39" x="1086.65" y="508.27" width="92.08" height="83.02" rx="7.8" transform="translate(36.96 -70.4) rotate(3.62)"/><path class="cls-27" d="M1187.31,532.53l1.25-19.83a5,5,0,0,0-4.63-5.26l-96.84-6.12a5,5,0,0,0-5.27,4.63l-1.25,19.83Z"/><polygon class="cls-28" points="1118.86 539.8 1114.74 590.21 1119.33 590.53 1123.8 536.3 1118.86 539.8"/><polygon class="cls-40" points="1086.97 543.31 1179.88 533.07 1180.23 529.46 1088.32 521.9 1086.97 543.31"/><path class="cls-39" d="M1122.49,528.52l1.27-25-36.67-2.15a4.94,4.94,0,0,0-5.26,4.63l-1.26,19.83Z"/><path class="cls-39" d="M1188.25,512.57a5,5,0,0,0-4.63-5.26l-38.48-2.43-1.57,24.77L1187,532.4Z"/><path class="cls-38" d="M1122.1,501.83h18a2.67,2.67,0,0,1,2.67,2.67v85.37a3.32,3.32,0,0,1-3.32,3.32h-16.68a3.32,3.32,0,0,1-3.32-3.32V504.5a2.67,2.67,0,0,1,2.67-2.67Z" transform="translate(36.82 -70.3) rotate(3.62)"/><path class="cls-37" d="M1123,589.44l5.39-85.2a2.65,2.65,0,0,1,2.78-2.49l-6.14-.39a2.67,2.67,0,0,0-2.83,2.49l-5.38,85.21a3.3,3.3,0,0,0,3.09,3.51l16.66,1h.08l-10.55-.67A3.32,3.32,0,0,1,1123,589.44Z"/><path class="cls-37" d="M1131.91,590a3.31,3.31,0,0,1-3.52,3.09l8.27.53a3.32,3.32,0,0,0,3.52-3.1l2.76-43.68"/><path class="cls-13" d="M1308.79,633.4a12.78,12.78,0,0,0-5.74,1.24c-2.22-2.27-6.48-3.81-11.38-3.82-5.1,0-9.51,1.64-11.66,4a12.22,12.22,0,0,0-6.24-1.55c-4.73,0-8.57,2.15-8.57,4.84l52.14.11C1317.35,635.59,1313.52,633.41,1308.79,633.4Z"/><polygon class="cls-23" points="1317.34 639.17 1265.19 639.05 1265.2 638.16 1317.34 638.2 1317.34 639.17"/><path class="cls-41" d="M1055.09,507.74a4.79,4.79,0,0,1,3.71-1.75h3.12a4.77,4.77,0,0,1,4.18,2.46c6,10.95,32.66,54.64,74.82,54.15h12.17c1.56-.11,17.26-.76,22.85,16.54l4.91,26.82"/><path class="cls-42" d="M1662.67,717.08H1033.31a5.84,5.84,0,0,1-5.85-5.84v-4.92a4.55,4.55,0,0,1,4-4.59,4.43,4.43,0,0,1,4.86,4.4v2.11h626.44c21.18,0,38.94-16.75,39.34-37.93.4-21.64-17.39-39.37-39.31-39.37h0a4.42,4.42,0,0,1-4.42-4.42v-7a4.55,4.55,0,0,1,4-4.59,4.43,4.43,0,0,1,4.86,4.4v3c25.31,2.29,45,24,43.66,49.81C1709.54,697.46,1688.06,717.08,1662.67,717.08Z"/><path class="cls-43" d="M1078.43,662.58a4.77,4.77,0,0,1-4.66-5.85c3-12.91,8.89-44.85,1-72.39a59.48,59.48,0,0,0-20.82-30.14c-8.47-6.64-19.19-20.22-3-40.07a4.8,4.8,0,0,1,3.7-1.76h3.13a4.76,4.76,0,0,1,4.18,2.47c6,10.95,32.66,54.63,74.82,54.14h12.17c1.55-.11,17.26-.76,22.85,16.54l15.5,51a4.77,4.77,0,0,0,4.57,3.39H1564.6a4.78,4.78,0,0,0,4.78-4.78V597.84s.28-28.3,31.94-28.3h20.73s13.17-.84,13.17,13.17v6.19a4.77,4.77,0,0,1-4.55,4.78c-8.06.3-23.62,3.3-19.6,22.42,0,.16.08.32.13.47l7.66,24.64a4,4,0,0,1,.17.76c.39,2.94,2,20.61-15.19,20.61"/><line class="cls-44" x1="1191.45" y1="662.65" x2="1174.08" y2="703.56"/><line class="cls-45" x1="1184.09" y1="662.65" x2="1166.72" y2="703.56"/><line class="cls-44" x1="1101.2" y1="662.65" x2="1083.82" y2="703.56"/><line class="cls-45" x1="1093.84" y1="662.65" x2="1076.47" y2="703.56"/><line class="cls-44" x1="1281.7" y1="662.65" x2="1264.33" y2="703.56"/><line class="cls-45" x1="1274.35" y1="662.65" x2="1256.97" y2="703.56"/><path class="cls-26" d="M1073.77,656.73c3-12.91,8.89-44.85,1-72.39a59.48,59.48,0,0,0-20.82-30.14c-8.47-6.64-19.19-20.22-3-40.07a4.8,4.8,0,0,1,3.7-1.76h3.13a4.76,4.76,0,0,1,4.18,2.47c6,10.95,32.66,54.63,74.82,54.14h12.17c1.55-.11,17.26-.76,22.85,16.54l15.5,51a4.77,4.77,0,0,0,4.57,3.39H1564.6a4.78,4.78,0,0,0,4.78-4.78V597.84s.28-28.3,31.94-28.3h20.73s13.17-.84,13.17,13.17v6.19a4.77,4.77,0,0,1-4.55,4.78c-8.06.3-23.62,3.3-19.6,22.42,0,.16.08.32.13.47l7.66,24.64a4,4,0,0,1,.17.76c.39,2.94,2,20.61-15.19,20.61H1078.43A4.77,4.77,0,0,1,1073.77,656.73Z"/><path class="cls-46" d="M1058.44,520.59h0m-2.61,3.55c10.27,17.14,37.72,54.9,80.18,54.9h12.56c.35,0,.67,0,1,0h.34c3.5,0,9.78,1.27,12.55,9.76l15.47,50.89a14.44,14.44,0,0,0,13.89,10.29H1564.6a14.53,14.53,0,0,0,14.51-14.51V598.24a23.3,23.3,0,0,1,2.83-9.41c3.53-6.22,9.87-9.24,19.38-9.24h20.73l.09,0,.43,0a5,5,0,0,1,2.14.52c.64.38.77,1.8.77,2.92v1.65c-6.78.94-14.52,3.6-19.71,10.24-3.29,4.22-6.7,11.72-4.23,23.5.1.45.22.91.36,1.36l7.53,24.2c.3,2.84-.07,6.48-1.4,8-.69.78-2.1,1.18-4.19,1.18H1084.57c3.17-15.9,7-45.19-.5-71.2a68.85,68.85,0,0,0-24.16-35.11c-3.17-2.48-7.06-6.47-7.61-11.36-.37-3.37.81-7.18,3.53-11.35m566.85,55.43h0m-565-66.88h-3.13a4.79,4.79,0,0,0-3.7,1.75c-16.18,19.85-5.46,33.43,3,40.07a59.51,59.51,0,0,1,20.82,30.15c7.94,27.53,2.07,59.48-1,72.38a4.78,4.78,0,0,0,4.66,5.86h525.41c17.21,0,15.58-17.67,15.19-20.61a4.08,4.08,0,0,0-.17-.77l-7.66-24.63c0-.16-.09-.32-.13-.48-4-19.12,11.54-22.12,19.6-22.42a4.75,4.75,0,0,0,4.55-4.78V583c0-12.51-10.5-13.18-12.75-13.18h-21.15c-31.66,0-31.94,28.3-31.94,28.3v37.26a4.78,4.78,0,0,1-4.78,4.78H1191.81a4.78,4.78,0,0,1-4.57-3.39l-15.5-51c-5-15.38-17.92-16.58-21.84-16.58a9.85,9.85,0,0,0-1,0H1136c-41.75,0-68.13-43.26-74.11-54.15a4.77,4.77,0,0,0-4.18-2.46Z"/><path class="cls-47" d="M1078.43,662.9a4.78,4.78,0,0,1-4.66-5.86c3-12.9,8.89-44.85,1-72.38a59.51,59.51,0,0,0-20.82-30.15c-8.47-6.64-19.19-20.22-3-40.07a4.79,4.79,0,0,1,3.7-1.75h3.13a4.77,4.77,0,0,1,4.18,2.46c6,11,32.66,54.64,74.82,54.15h12.17c1.55-.11,17.26-.76,22.85,16.54l15.5,51a4.78,4.78,0,0,0,4.57,3.39H1564.6a4.78,4.78,0,0,0,4.78-4.78V598.16s.28-28.3,31.94-28.3h20.73s13.17-.84,13.17,13.17v6.18a4.75,4.75,0,0,1-4.55,4.78c-8.06.3-23.62,3.3-19.6,22.42,0,.16.08.32.13.48l7.66,24.63a4.08,4.08,0,0,1,.17.77c.39,2.94,2,20.61-15.19,20.61"/><path class="cls-48" d="M1078.43,662.9a4.78,4.78,0,0,1-4.66-5.86c3-12.9,8.89-44.85,1-72.38a59.51,59.51,0,0,0-20.82-30.15c-8.47-6.64-19.19-20.22-3-40.07a4.79,4.79,0,0,1,3.7-1.75h3.13a4.77,4.77,0,0,1,4.18,2.46c6,11,32.66,54.64,74.82,54.15h12.17c1.55-.11,17.26-.76,22.85,16.54l15.5,51a4.78,4.78,0,0,0,4.57,3.39H1564.6a4.78,4.78,0,0,0,4.78-4.78V598.16s.28-28.3,31.94-28.3h20.73s13.17-.84,13.17,13.17v6.18a4.75,4.75,0,0,1-4.55,4.78c-8.06.3-23.62,3.3-19.6,22.42,0,.16.08.32.13.48l7.66,24.63a4.08,4.08,0,0,1,.17.77c.39,2.94,2,20.61-15.19,20.61"/><path class="cls-44" d="M1662.12,626.69a39.51,39.51,0,1,1,0,79h-628"/><path class="cls-49" d="M1060.08,661h569.4a0,0,0,0,1,0,0v11a4.37,4.37,0,0,1-4.37,4.37H1064.45a4.37,4.37,0,0,1-4.37-4.37V661A0,0,0,0,1,1060.08,661Z"/><path class="cls-50" d="M1060.08,657.66h569.4a0,0,0,0,1,0,0v11a4.37,4.37,0,0,1-4.37,4.37H1064.45a4.37,4.37,0,0,1-4.37-4.37v-11A0,0,0,0,1,1060.08,657.66Z"/><line class="cls-51" x1="1060.08" y1="657.66" x2="1629.47" y2="657.66"/><rect class="cls-52" width="1334" height="750"/></svg>