<svg id="Layer_1" data-name="Layer 1" xmlns="http://www.w3.org/2000/svg" xmlns:xlink="http://www.w3.org/1999/xlink" viewBox="0 0 500 250"><defs><style>.cls-1{fill:none;}.cls-2{fill:#750000;}.cls-3{fill:#00376d;}.cls-4{fill:#fff;}.cls-5{fill:url(#linear-gradient);}.cls-6{fill:url(#linear-gradient-2);}.cls-7{fill:url(#linear-gradient-3);}.cls-8{fill:url(#linear-gradient-4);}.cls-9{fill:url(#linear-gradient-5);}.cls-10{fill:url(#linear-gradient-6);}.cls-11{fill:url(#linear-gradient-7);}.cls-12{fill:url(#linear-gradient-8);}.cls-13{fill:url(#linear-gradient-9);}.cls-14{fill:url(#linear-gradient-10);}.cls-15{fill:url(#linear-gradient-11);}.cls-16{fill:url(#linear-gradient-12);}.cls-17{fill:url(#linear-gradient-13);}.cls-18{fill:url(#linear-gradient-14);}.cls-19{fill:url(#linear-gradient-15);}.cls-20{fill:url(#linear-gradient-16);}.cls-21{clip-path:url(#clip-path);}.cls-22{opacity:0.3;}.cls-23{clip-path:url(#clip-path-2);}.cls-24{fill:url(#linear-gradient-17);}.cls-25{fill:url(#linear-gradient-18);}.cls-26{fill:url(#linear-gradient-19);}.cls-27{fill:#a00;}.cls-28{fill:url(#linear-gradient-20);}.cls-29{fill:url(#linear-gradient-21);}.cls-30{fill:url(#linear-gradient-22);}.cls-31{fill:url(#linear-gradient-23);}.cls-32{fill:url(#linear-gradient-24);}.cls-33{fill:url(#linear-gradient-25);}.cls-34{fill:url(#linear-gradient-26);}.cls-35{fill:url(#linear-gradient-27);}.cls-36{fill:url(#linear-gradient-28);}.cls-37{fill:url(#linear-gradient-29);}.cls-38{fill:url(#linear-gradient-30);}.cls-39{fill:url(#linear-gradient-31);}.cls-40{fill:url(#linear-gradient-32);}.cls-41{fill:url(#linear-gradient-33);}.cls-42{fill:url(#linear-gradient-34);}.cls-43{fill:url(#linear-gradient-35);}.cls-44{fill:url(#linear-gradient-36);}.cls-45{fill:url(#linear-gradient-37);}.cls-46{fill:url(#linear-gradient-38);}.cls-47{fill:#00479b;}.cls-48{fill:#179900;}.cls-49{fill:#00b7ff;}.cls-50{clip-path:url(#clip-path-3);}.cls-51{fill:url(#linear-gradient-39);}.cls-52{fill:url(#linear-gradient-40);}.cls-53{clip-path:url(#clip-path-4);}.cls-54{fill:url(#linear-gradient-41);}.cls-55{fill:url(#linear-gradient-42);}</style><linearGradient id="linear-gradient" x1="44.4" y1="137.18" x2="44.4" y2="23.18" gradientUnits="userSpaceOnUse"><stop offset="0" stop-color="#0082ff" stop-opacity="0.4"/><stop offset="0.4" stop-color="#74bbff" stop-opacity="0.22"/><stop offset="0.79" stop-color="#d8ecff" stop-opacity="0.06"/><stop offset="1" stop-color="#fff" stop-opacity="0"/></linearGradient><linearGradient id="linear-gradient-2" x1="111.31" y1="109.27" x2="111.31" y2="15.78" xlink:href="#linear-gradient"/><linearGradient id="linear-gradient-3" x1="171.91" y1="95.92" x2="171.91" y2="10.07" xlink:href="#linear-gradient"/><linearGradient id="linear-gradient-4" x1="231.51" y1="88.93" x2="231.51" y2="10.07" xlink:href="#linear-gradient"/><linearGradient id="linear-gradient-5" x1="231.51" y1="88.93" x2="231.51" y2="10.07" gradientUnits="userSpaceOnUse"><stop offset="0" stop-color="#00a0be" stop-opacity="0.6"/><stop offset="0.12" stop-color="#44bacf" stop-opacity="0.44"/><stop offset="0.27" stop-color="#88d3e1" stop-opacity="0.28"/><stop offset="0.42" stop-color="#bce6ee" stop-opacity="0.16"/><stop offset="0.59" stop-color="#e2f4f8" stop-opacity="0.07"/><stop offset="0.77" stop-color="#f8fcfd" stop-opacity="0.02"/><stop offset="1" stop-color="#fff" stop-opacity="0"/></linearGradient><linearGradient id="linear-gradient-6" x1="286.05" y1="90.63" x2="286.05" y2="10.63" xlink:href="#linear-gradient"/><linearGradient id="linear-gradient-7" x1="327.9" y1="104.18" x2="327.9" y2="11.18" xlink:href="#linear-gradient"/><linearGradient id="linear-gradient-8" x1="376.9" y1="111.18" x2="376.9" y2="18.18" xlink:href="#linear-gradient"/><linearGradient id="linear-gradient-9" x1="447.4" y1="132.18" x2="447.4" y2="23.18" xlink:href="#linear-gradient"/><linearGradient id="linear-gradient-10" x1="44.74" y1="137.59" x2="44.74" y2="23.09" xlink:href="#linear-gradient-5"/><linearGradient id="linear-gradient-11" x1="111.4" y1="109.18" x2="111.4" y2="15.18" xlink:href="#linear-gradient-5"/><linearGradient id="linear-gradient-12" x1="171.45" y1="95.6" x2="171.45" y2="9.6" xlink:href="#linear-gradient-5"/><linearGradient id="linear-gradient-13" x1="285.9" y1="90.18" x2="285.9" y2="11.18" xlink:href="#linear-gradient-5"/><linearGradient id="linear-gradient-14" x1="327.9" y1="104.18" x2="327.9" y2="11.18" xlink:href="#linear-gradient-5"/><linearGradient id="linear-gradient-15" x1="376.9" y1="111.18" x2="376.9" y2="18.18" xlink:href="#linear-gradient-5"/><linearGradient id="linear-gradient-16" x1="447.4" y1="132.18" x2="447.4" y2="23.18" xlink:href="#linear-gradient-5"/><clipPath id="clip-path"><path class="cls-1" d="M181.79,96c-5.26.37-7.9-1.69-9-7l-5-19.57c-.42-1.5-1.07-2-2.46-2h-1.71v28H142.94V9.51H159.4c5.46,0,8.34,2.78,9.41,7.59L179.4,66.28c.1.54.21.75.74.75h.33V9.51h20.42V95.92Z"/></clipPath><clipPath id="clip-path-2"><path class="cls-1" d="M379,224.77c0,.09-.07.18-.15.27-5.89,6.68-12.78,10.29-19.19,10.73-8.58.6-9.71-6.89-9.08-12.86l2.1-20-14.2,27.45c-.22.54-.54,1-1.06,1a51.74,51.74,0,0,1-7.19.5c-.6,0-.72-.39-.93-.89l-8.62-26.39c-.3-.59-.43-1.19-.64-1.7l-3.48,32.63c-.16,1.49-.22,3.06-3.41,3.63-3.78.61-11.82,1.43-13.74-1.14-.38-.41-.34-1.11-.23-2.07l3.6-34.63c.16-1.49.31-3.16,3.41-3.63a39,39,0,0,1,10.5-.47c-5.58-6.32-12.23-1.76-16-.55a.57.57,0,0,1-.82-.46,23.53,23.53,0,0,1-.2-4.25c0-.52.29-.72.63-.92,5.06-2.35,8.88-3.66,12.26-3.89,14-1,15.61,8,18,16.77L335,221.21l18-34.93c1.26-1.92,2.1-2.41,5.3-2.72,3.63-.34,11,.8,12.94,3.36a3.59,3.59,0,0,1,.15,2.17l-3.29,31.65c-.44,3.6.85,4.64,2.49,4.53,2.17-.15,5.82-2.67,8.12-4.66a.57.57,0,0,1,.34-.11c.26,0,.36.15.38.41Z"/></clipPath><linearGradient id="linear-gradient-17" x1="37.21" y1="211.63" x2="37.21" y2="161.8" gradientUnits="userSpaceOnUse"><stop offset="0" stop-color="#ffa08e"/><stop offset="0.54" stop-color="#ff6050"/><stop offset="1" stop-color="#ff2d1e"/></linearGradient><linearGradient id="linear-gradient-18" x1="90.46" y1="228.3" x2="90.46" y2="172.55" xlink:href="#linear-gradient-17"/><linearGradient id="linear-gradient-19" x1="141.93" y1="236.37" x2="141.93" y2="182.12" xlink:href="#linear-gradient-17"/><linearGradient id="linear-gradient-20" x1="185.78" y1="237.62" x2="185.78" y2="187.12" xlink:href="#linear-gradient-17"/><linearGradient id="linear-gradient-21" x1="221.58" y1="239.95" x2="221.58" y2="187.53" xlink:href="#linear-gradient-17"/><linearGradient id="linear-gradient-22" x1="275.26" y1="240.34" x2="275.26" y2="189.4" xlink:href="#linear-gradient-17"/><linearGradient id="linear-gradient-23" x1="410.49" y1="233.39" x2="410.49" y2="175.79" xlink:href="#linear-gradient-17"/><linearGradient id="linear-gradient-24" x1="339.28" y1="239.8" x2="339.28" y2="183.5" xlink:href="#linear-gradient-17"/><linearGradient id="linear-gradient-25" x1="468.12" y1="218.77" x2="468.12" y2="163.7" xlink:href="#linear-gradient-17"/><linearGradient id="linear-gradient-26" x1="184.25" y1="215.37" x2="180.24" y2="239.84" gradientUnits="userSpaceOnUse"><stop offset="0" stop-color="#fff"/><stop offset="0.21" stop-color="#fcffff"/><stop offset="0.36" stop-color="#f3fdfe"/><stop offset="0.49" stop-color="#e3fbfc"/><stop offset="0.61" stop-color="#cdf8fa"/><stop offset="0.73" stop-color="#b0f4f8"/><stop offset="0.84" stop-color="#8deff4"/><stop offset="0.94" stop-color="#63eaf0"/><stop offset="1" stop-color="#4ae6ee"/></linearGradient><linearGradient id="linear-gradient-27" x1="219.87" y1="209.71" x2="219.74" y2="241.95" xlink:href="#linear-gradient-26"/><linearGradient id="linear-gradient-28" x1="209.73" y1="786.49" x2="209.6" y2="818.86" gradientTransform="translate(28.98 -500.24) rotate(-17.32)" xlink:href="#linear-gradient-26"/><linearGradient id="linear-gradient-29" x1="153.31" y1="216.92" x2="154.61" y2="238.67" xlink:href="#linear-gradient-26"/><linearGradient id="linear-gradient-30" x1="70.88" y1="202.85" x2="68.55" y2="225" gradientUnits="userSpaceOnUse"><stop offset="0" stop-color="#fff"/><stop offset="0.2" stop-color="#fcffff"/><stop offset="0.34" stop-color="#f3fdfe"/><stop offset="0.47" stop-color="#e3fbfc"/><stop offset="0.59" stop-color="#cdf8fa"/><stop offset="0.7" stop-color="#b0f4f8"/><stop offset="0.8" stop-color="#8deff4"/><stop offset="0.9" stop-color="#63eaf0"/><stop offset="0.95" stop-color="#4ae6ee"/></linearGradient><linearGradient id="linear-gradient-31" x1="100.49" y1="203.66" x2="97.13" y2="234.35" gradientUnits="userSpaceOnUse"><stop offset="0" stop-color="#fff"/><stop offset="0.19" stop-color="#fcffff"/><stop offset="0.33" stop-color="#f3fdfe"/><stop offset="0.45" stop-color="#e3fbfc"/><stop offset="0.56" stop-color="#cdf8fa"/><stop offset="0.67" stop-color="#b0f4f8"/><stop offset="0.77" stop-color="#8deff4"/><stop offset="0.86" stop-color="#63eaf0"/><stop offset="0.91" stop-color="#4ae6ee"/></linearGradient><linearGradient id="linear-gradient-32" x1="34.87" y1="190.55" x2="28.78" y2="215.02" xlink:href="#linear-gradient-26"/><linearGradient id="linear-gradient-33" x1="271.77" y1="216.69" x2="266.47" y2="244.02" xlink:href="#linear-gradient-26"/><linearGradient id="linear-gradient-34" x1="309.66" y1="219.28" x2="307.28" y2="241.43" xlink:href="#linear-gradient-26"/><linearGradient id="linear-gradient-35" x1="130.4" y1="201.95" x2="120.43" y2="240.41" gradientUnits="userSpaceOnUse"><stop offset="0" stop-color="#fff"/><stop offset="0.26" stop-color="#fdffff"/><stop offset="0.4" stop-color="#f5fefe"/><stop offset="0.51" stop-color="#e8fcfd"/><stop offset="0.6" stop-color="#d5f9fb"/><stop offset="0.68" stop-color="#bcf6f9"/><stop offset="0.76" stop-color="#9df2f6"/><stop offset="0.83" stop-color="#79edf2"/><stop offset="0.89" stop-color="#51e7ef"/><stop offset="0.9" stop-color="#4ae6ee"/></linearGradient><linearGradient id="linear-gradient-36" x1="335.63" y1="218.01" x2="335.37" y2="233.55" xlink:href="#linear-gradient-26"/><linearGradient id="linear-gradient-37" x1="363.94" y1="215.73" x2="366.28" y2="236.19" xlink:href="#linear-gradient-26"/><linearGradient id="linear-gradient-38" x1="406.23" y1="199.65" x2="413.74" y2="231.51" xlink:href="#linear-gradient-26"/><clipPath id="clip-path-3"><path class="cls-1" d="M122.44,153.15l-2.67,8.5-9.59-2.4L117.39,128l12,2.82-.68,4.44c-2.68,13.44,10.24,19.32,20.18,20.61,8.8,1.14,15.91-.89,16.75-7.41.95-7.35-3.17-8.83-22.56-16.82-15.72-6.24-24.67-12.77-22.83-27,1.58-12.22,12.16-21.59,32.56-19,11.39,1.47,20,6.69,24.82,13.21l2.91-8.67L190,92.62,183.58,120l-12.19-2.63.43-2.47c2.07-11.1-9.47-16.28-18.27-17.42-6.53-.84-13.24.61-14,6.51s2.82,7.52,22.12,15.39,25.06,13.77,23.44,26.3c-1.9,14.7-13.18,23.77-34.61,21C137.34,165,127.69,159.83,122.44,153.15Z"/></clipPath><linearGradient id="linear-gradient-39" x1="274.23" y1="176.93" x2="274.23" y2="101.73" gradientUnits="userSpaceOnUse"><stop offset="0.01" stop-color="#fff" stop-opacity="0.8"/><stop offset="0.2" stop-color="#fff" stop-opacity="0.57"/><stop offset="0.4" stop-color="#fff" stop-opacity="0.37"/><stop offset="0.58" stop-color="#fff" stop-opacity="0.21"/><stop offset="0.75" stop-color="#fff" stop-opacity="0.09"/><stop offset="0.9" stop-color="#fff" stop-opacity="0.02"/><stop offset="1" stop-color="#fff" stop-opacity="0"/></linearGradient><linearGradient id="linear-gradient-40" x1="150.07" y1="166.67" x2="150.07" y2="84.76" gradientUnits="userSpaceOnUse"><stop offset="0.01" stop-color="#fff" stop-opacity="0.8"/><stop offset="0.36" stop-color="#fff" stop-opacity="0.48"/><stop offset="0.66" stop-color="#fff" stop-opacity="0.22"/><stop offset="0.89" stop-color="#fff" stop-opacity="0.06"/><stop offset="1" stop-color="#fff" stop-opacity="0"/></linearGradient><clipPath id="clip-path-4"><path class="cls-1" d="M256,173.49l-14.64-61.94-10.11-2.44,1.54-8.26L272.73,106l-.62,8.38-12.89-.64,11.58,50,23.8-45.22L282,115.68l1.54-8.26,33.64,4.35-.61,8.38h-11l-29.69,55.92Z"/></clipPath><linearGradient id="linear-gradient-41" x1="208.62" y1="165.32" x2="208.62" y2="103.92" xlink:href="#linear-gradient-40"/><linearGradient id="linear-gradient-42" x1="294.27" y1="186.21" x2="359.37" y2="121.11" xlink:href="#linear-gradient-39"/></defs><title>Logo - text - v01</title><path class="cls-2" d="M101.18,222.17c-3.82-.42-11.78-1.77-13-4.75a3.3,3.3,0,0,1,.42-2l6.44-16.51-11.91-2.41-6.77,17.23c-.55,1.4-1,2.89-4.25,2.59-3.82-.41-11.78-1.76-12.95-4.75-.25-.49,0-1.16.33-2.06l14.17-36.2c.36-.9-.45-.89-1-.9a12.31,12.31,0,0,1-1.43.06c-.55.07-.73-.32-.68-.58a24.42,24.42,0,0,1,.94-4.24c.11-.51.47-.52.84-.63a32.7,32.7,0,0,1,12.55.16c3.47.79,7,1.94,7.64,3.85.34.51.11,1.18-.26,2.16l-6.79,17.32,11.91,2.42,7.13-18.14c.55-1.39,1-2.91,4.23-2.51,3.65.39,11.8,1.69,12.88,4.65.26.5,0,1.16-.34,2.15l-15.93,40.54C104.88,221,104.48,222.49,101.18,222.17Z"/><path class="cls-2" d="M168.16,220.86c0,.08-.11.16-.2.24-2.43,2.68-8.09,9-16,9.17-16.5.46-14.32-21.15-13.79-27l-.43-.05-6,19.74c-.44,1.44-.8,3-4,2.93-3.83-.12-11.88-.83-13.28-3.71a3.19,3.19,0,0,1,.16-2.08l9.64-32c.44-1.43.88-3,4-2.92,3.82.2,11.88.82,13.28,3.7a2.63,2.63,0,0,1-.08,2.09l-2.28,7.33c8.24.56,13.66-2.28,14-8.27.42-8.52-21.64-6.9-28.35-6.4-.71.09-.76-.27-.81-.54a35.06,35.06,0,0,1,.52-4.31.94.94,0,0,1,1-.67c12.86-2.2,22.16-2.48,28.7-1.6,16.2,2,16,11,14.67,15.42-1.16,3.79-7.77,10.69-22.21,11.48.89,4.22,2.56,15.79,10.57,16.76,2.93.35,6.49-.09,11.35-3.44a.62.62,0,0,1,.36,0c.25,0,.32.21.29.47Z"/><path class="cls-2" d="M185.12,231.53c-3.84.06-11.91-.28-13.44-3.09a3.26,3.26,0,0,1,.16-2.08l10.73-42.3c.37-1.45.57-3,3.88-3,3.67-.07,11.92.19,13.36,3,.32.46.18,1.15-.07,2.17L189,228.43C188.64,229.88,188.44,231.43,185.12,231.53Z"/><path class="cls-2" d="M197.37,222.05l.15-.64.7-3.15a.54.54,0,0,1,.53-.42c.09,0,.26,0,.26.1,4.54,4,10.42,6.92,16.15,7.14,4.16.16,8.37-.81,9.11-4.26.42-1.8-.74-3.41-3.61-5.52-4.31-3.21-18.17-8.78-15.95-19.13,2.53-11.46,12.66-15.06,22-14.7,9.55.37,14.47,3.34,17.16,5.87a5.79,5.79,0,0,1,1.79,5.29c-.42,1.81-2.41,6.33-7.53,6.14-4.86-.19-5.19-5.24-3.16-8.21-6.4-3.2-13.09-1-13.82,2.25-.75,3.62,2.49,5.22,6,7.88,4.31,3.21,17.13,8.83,14.9,19.26-2.11,9.74-14.8,14.29-25,13.89s-17.47-6.75-19.63-11.53C197.45,222.22,197.37,222.13,197.37,222.05Z"/><path class="cls-2" d="M300.69,184.09l-1.35,7.74a.86.86,0,0,1-.86.79l-15.28.09-6.46,37.89c-.25,1.48-.33,3-3.63,3.41-3.82.37-11.89.68-13.64-2a3.27,3.27,0,0,1,0-2.09l6.29-37-15.11.09c-.61.09-.78-.26-.78-.52s0-4.78,0-5.73a.92.92,0,0,1,.86-.79c13.71-1.82,35.67-2.55,49.3-2.64A.62.62,0,0,1,300.69,184.09Z"/><path class="cls-2" d="M379,218.68c0,.09-.07.18-.15.27-5.89,6.68-12.78,10.29-19.19,10.74-8.58.59-9.71-6.9-9.08-12.86l2.1-20-14.2,27.45c-.22.54-.54,1-1.06,1a48.84,48.84,0,0,1-7.19.5c-.6,0-.72-.38-.93-.89l-8.62-26.39c-.3-.58-.43-1.19-.64-1.69l-3.48,32.62c-.16,1.49-.22,3.06-3.41,3.63-3.78.61-11.82,1.43-13.74-1.14-.38-.41-.34-1.1-.23-2.07l3.6-34.63c.16-1.49.31-3.15,3.41-3.63a39,39,0,0,1,10.5-.47c-5.58-6.31-12.23-1.76-16-.54a.57.57,0,0,1-.82-.47,23.53,23.53,0,0,1-.2-4.25c0-.52.29-.72.63-.91,5.06-2.36,8.88-3.67,12.26-3.9,14-1,15.61,8,18,16.77L335,215.12l18-34.93c1.26-1.92,2.1-2.41,5.3-2.72,3.37-.31,10,.64,12.44,2.83a3.6,3.6,0,0,1,.5.54,3.55,3.55,0,0,1,.15,2.16l-3.29,31.65c-.44,3.6.85,4.64,2.49,4.53,2.17-.15,5.82-2.67,8.12-4.66a.57.57,0,0,1,.34-.11c.26,0,.36.15.38.41Z"/><path class="cls-2" d="M444.13,208.07a.25.25,0,0,1-.13.29c-5.2,7.15-11.75,11.34-18.18,12.36-7.81,1.23-10-4.93-10.12-10.62l-17.58,2.77-2.75,4.3c-3.36,5.45-6.59,9.48-10.36,10.07-3.52.56-6.39-2.59-8.21-8-.12-.16.11-.37.29-.4l3.86-.6a.55.55,0,0,1,.48.27c.49.89,1,1.34,1.7,1.31,1.78.16,3.16-1.72,4.5-3.78l27.24-43c1.18-2,2-2.59,5.05-3.08,3.51-.64,11.05-.16,13.1,2.24.5.36.52,1.06.51,2.12L433,205c-.13,3.63,1.24,4.55,2.79,4.31,2.14-.34,5.56-3.16,7.68-5.34a.57.57,0,0,1,.33-.14c.26,0,.37.11.41.37Zm-28.38-4.4.29-19.3-13.42,21.37Z"/><path class="cls-2" d="M447.32,206.33l-.31-3.87a.54.54,0,0,1,.4-.55c.08,0,.25-.07.27,0,5.51,2.49,12,3.56,17.53,2.1,4-1.07,7.77-3.23,7.47-6.74-.13-1.85-1.7-3-5.07-4.23-5.06-1.8-19.94-3.08-20.84-13.62-.94-11.69,7.69-18.11,16.76-20.51,9.23-2.44,14.81-1,18.12.6a5.79,5.79,0,0,1,3.26,4.53c.13,1.85-.46,6.76-5.41,8.07-4.7,1.25-6.49-3.49-5.42-6.92-7.05-1.18-12.81,2.85-12.55,6.2.34,3.68,3.91,4.26,8.08,5.77,5.06,1.8,19,3.42,19.88,14,.83,9.93-10,18-19.88,20.61s-18.67-1.34-22.14-5.28C447.45,206.48,447.34,206.42,447.32,206.33Z"/><path class="cls-3" d="M9.9,147.18v-115H64c11.72,0,14.86,3.15,14.86,19.06v51.89c0,12.75-3.14,15.05-12.29,15.05H38.9v29Zm35.58-70H38.9v26H45c4.57,0,6.92-1.89,6.92-6V83.59A6.41,6.41,0,0,0,45.48,77.18Z"/><path class="cls-3" d="M94.7,117.18c-7.35,0-9.8-2.27-9.8-9.29V39.33c0-12.88,2.45-15.15,13.66-15.15H137.9v36H110.41c-2.34,0-3.51,1-3.51,3.28V78.15a3,3,0,0,0,3,3h27v13H110c-2,0-3,1.13-3,3.63v3.76a3.61,3.61,0,0,0,3.61,3.61H137.9v12Z"/><path class="cls-3" d="M181.39,105.18c-5.09,0-7.1-1.82-8.27-6.31L168,79.21c-.42-1.5-1.06-2-2.43-2h-1.7v28h-21v-86h17.37c5.34,0,8.17,2.8,9.22,7.65l10.36,49.59c.11.54.21.76.74.76h.31v-58h20v86Z"/><path class="cls-3" d="M216.09,97.18c-6.14,0-8.19-2-8.19-8v-58c0-11.1,2.08-13.06,11.58-13.06h24.74c9.5,0,10.68,2,10.68,13.06V59.18h-19V52c0-1.9-1-2.8-3.16-2.8h-3.66c-2.22,0-3.18.87-3.18,2.72V83.17c0,1.94,1.06,3,3.29,3h5.21c2.54,0,3.5-1.17,3.5-3.21V77.18h-7v-10h24v30Z"/><path class="cls-3" d="M270.35,99.18c-6.26,0-8.45-2-8.45-8.17V19.18h19V85.09A3.09,3.09,0,0,0,284,88.18h6.91v-69h19v80Z"/><path class="cls-3" d="M315.9,112.18v-93h24v93Z"/><path class="cls-3" d="M386.81,120.18c-5.5,0-7.68-2-8.94-6.76l-5.5-21.07c-.46-1.6-1.15-2.17-2.64-2.17H367.9v31h-22v-93h17.31c5.87,0,9,3,10.13,8.18l11.41,53c.11.58.23.81.8.81h.35v-62h22v92Z"/><path class="cls-3" d="M413.9,141.18v-14h37.8c2.84,0,4.2-1.49,4.2-4.07v-6.69c0-2.16-1.36-3.24-4.34-3.24H423.65a9.76,9.76,0,0,1-9.75-9.76V50.13c0-15.25,3-18,16.12-18h35.77c12.43,0,15.11,2.69,15.11,17.92V89.18h-25V78.8c0-2.42-1.12-3.62-3.48-3.62h-9.2c-2.93,0-4.32,1.2-4.32,3.62V95.29c0,2.55,1.39,3.89,4.32,3.89H472c6.64,0,8.95,2.45,8.95,9.68v21c0,9-2.58,11.32-11.39,11.32Z"/><path class="cls-4" d="M9.9,137.18v-114H64c11.72,0,14.86,3.15,14.86,19.06V94.13c0,12.75-3.14,15.05-12.29,15.05H38.9v28Zm35.58-69H38.9v26H45c4.57,0,6.92-1.89,6.92-6V74.59A6.41,6.41,0,0,0,45.48,68.18Z"/><path class="cls-4" d="M94.66,109.27c-7.34,0-9.78-2.33-9.78-9.55V31.26c0-13.15,2.44-15.48,13.62-15.48h39.23V52.57H110.84c-2.33,0-3.49,1-3.49,3.26V70.38a2.71,2.71,0,0,0,3,3h26.78V85.63H110.37c-2,0-3,1.17-3,3.73v4A3.25,3.25,0,0,0,111,96.93h26.77v12.34Z"/><path class="cls-4" d="M181.21,95.92c-5.13,0-7.16-1.82-8.34-6.31l-5.13-19.67c-.43-1.49-1.07-2-2.46-2h-1.71v28H142.94V10.07H159.4c5.45,0,8.34,2.78,9.41,7.6l10.58,49.17c.11.54.21.75.75.75h.32V10.07h20.42V95.92Z"/><path class="cls-4" d="M216,88.93c-6.19,0-8.25-2-8.25-8.05V23.14c0-11.1,2.06-13.07,11.49-13.07h24.55c9.43,0,11.59,2,11.59,13.07V50.93H236.08V43.86c0-1.87-1-2.75-3.05-2.75H229.2c-2.06,0-2.94.88-2.94,2.75V75.48a2.7,2.7,0,0,0,3,3h4.81c2.36,0,3.24-1.17,3.24-3.24V69h-6.87V58.59H255V88.93Z"/><path class="cls-4" d="M270.46,90.63c-6.28,0-8.47-2-8.47-8.17V10.63h18.83V77a2.79,2.79,0,0,0,3.09,3.09H291V10.63h19.13v80Z"/><path class="cls-4" d="M315.9,104.18v-93h24v93Z"/><path class="cls-4" d="M386.81,111.18c-5.5,0-7.68-2-8.94-6.76l-5.5-21.07c-.46-1.6-1.15-2.17-2.64-2.17H367.9v30h-22v-93h17.31c5.87,0,9,3,10.13,8.18l11.41,53c.11.58.23.81.8.81h.35v-62h22v93Z"/><path class="cls-4" d="M413.9,132.18v-15h37.8c2.84,0,4.2-1.49,4.2-4.07v-5.69c0-2.16-1.36-3.24-4.34-3.24H423.65a9.76,9.76,0,0,1-9.75-9.76V41.13c0-15.25,3-18,16.12-18h35.77c12.43,0,15.11,2.69,15.11,17.92V80.18h-25V69.8c0-2.42-1.12-3.62-3.48-3.62h-9.2c-2.93,0-4.32,1.2-4.32,3.62V86.29c0,2.55,1.39,3.89,4.32,3.89H472c6.64,0,8.95,2.45,8.95,9.68v21c0,9-2.58,11.32-11.39,11.32Z"/><path class="cls-5" d="M9.9,137.18v-114H64c11.72,0,14.86,3.15,14.86,19.06V94.13c0,12.75-3.14,15.05-12.29,15.05H38.9v28Zm35.58-69H38.9v26H45c4.57,0,6.92-1.89,6.92-6V74.59A6.41,6.41,0,0,0,45.48,68.18Z"/><path class="cls-6" d="M94.66,109.27c-7.34,0-9.78-2.33-9.78-9.55V31.26c0-13.15,2.44-15.48,13.62-15.48h39.23V52.57H110.84c-2.33,0-3.49,1-3.49,3.26V70.38a2.71,2.71,0,0,0,3,3h26.78V85.63H110.37c-2,0-3,1.17-3,3.73v4A3.25,3.25,0,0,0,111,96.93h26.77v12.34Z"/><path class="cls-7" d="M181.21,95.92c-5.13,0-7.16-1.82-8.33-6.31l-5.14-19.67c-.42-1.49-1.07-2-2.46-2h-1.71v28H142.94V10.07H159.4c5.46,0,8.34,2.78,9.41,7.6L179.4,66.84c.1.54.21.75.74.75h.33V10.07h20.42V95.92Z"/><path class="cls-8" d="M216,88.93c-6.19,0-8.25-2-8.25-8.05V23.14c0-11.1,2.06-13.07,11.49-13.07h24.55c9.43,0,11.59,2,11.59,13.07V50.93H236.08V43.86c0-1.87-1-2.75-3.05-2.75H229.2c-2.06,0-2.94.88-2.94,2.75V75.48a2.7,2.7,0,0,0,3,3h4.81c2.36,0,3.24-1.17,3.24-3.24V69h-6.87V58.59H255V88.93Z"/><path class="cls-9" d="M216,88.93c-6.19,0-8.25-2-8.25-8.05V23.14c0-11.1,2.06-13.07,11.49-13.07h24.55c9.43,0,11.59,2,11.59,13.07V50.93H236.08V43.86c0-1.87-1-2.75-3.05-2.75H229.2c-2.06,0-2.94.88-2.94,2.75V75.48a2.7,2.7,0,0,0,3,3h4.81c2.36,0,3.24-1.17,3.24-3.24V69h-6.87V58.59H255V88.93Z"/><path class="cls-10" d="M270.46,90.63c-6.28,0-8.47-2-8.47-8.17V10.63h18.83V77a2.79,2.79,0,0,0,3.09,3.09H291V10.63h19.13v80Z"/><path class="cls-11" d="M315.9,104.18v-93h24v93Z"/><path class="cls-12" d="M386.81,111.18c-5.5,0-7.68-2-8.94-6.76l-5.5-21.07c-.46-1.6-1.15-2.17-2.64-2.17H367.9v30h-22v-93h17.31c5.87,0,9,3,10.13,8.18l11.41,53c.11.58.23.81.8.81h.35v-62h22v93Z"/><path class="cls-13" d="M413.9,132.18v-15h37.8c2.84,0,4.2-1.49,4.2-4.07v-5.69c0-2.16-1.36-3.24-4.34-3.24H423.65a9.76,9.76,0,0,1-9.75-9.76V41.13c0-15.25,3-18,16.12-18h35.77c12.43,0,15.11,2.69,15.11,17.92V80.18h-25V69.8c0-2.42-1.12-3.62-3.48-3.62h-9.2c-2.93,0-4.32,1.2-4.32,3.62V86.29c0,2.55,1.39,3.89,4.32,3.89H472c6.64,0,8.95,2.45,8.95,9.68v21c0,9-2.58,11.32-11.39,11.32Z"/><path class="cls-14" d="M10.31,137.59V23.09h54c11.69,0,14.83,3.14,14.83,19V93.67c0,12.69-3.14,15-12.27,15H38.82v28.94Zm41.92-63c0-4.28-2.28-6.42-6.56-6.42H38.82V93.67H45.1c4.7,0,7.13-1.85,7.13-5.84Z"/><path class="cls-15" d="M94.7,109.18c-7.35,0-9.8-2.27-9.8-9.29V30.75c0-13.23,2.45-15.57,13.66-15.57H137.9v37H110.41c-2.34,0-3.51,1-3.51,3.28V70.15a3,3,0,0,0,3,3h27v13H110c-2,0-3,1.13-3,3.63v3.76a3.61,3.61,0,0,0,3.61,3.61H137.9v12Z"/><path class="cls-16" d="M181,95.6c-5.09,0-7.11-1.82-8.27-6.31l-5.09-19.66c-.43-1.5-1.06-2-2.44-2h-1.7v28h-21V9.6h17.37c5.35,0,8.17,2.8,9.22,7.65l10.37,49.59c.1.54.2.76.73.76h.31V9.6h20v86Z"/><path class="cls-17" d="M270.35,90.18c-6.26,0-8.45-2-8.45-8.07V11.18h19V77.09A3.09,3.09,0,0,0,284,80.18h6.91v-69h19v79Z"/><path class="cls-18" d="M315.9,104.18v-93h24v93Z"/><path class="cls-19" d="M386.81,111.18c-5.5,0-7.68-2-8.94-6.76l-5.5-21.07c-.46-1.6-1.15-2.17-2.64-2.17H367.9v30h-22v-93h17.31c5.87,0,9,3,10.13,8.18l11.41,53c.11.58.23.81.8.81h.35v-62h22v93Z"/><path class="cls-20" d="M413.9,132.18v-15h37.8c2.84,0,4.2-1.49,4.2-4.07v-5.69c0-2.16-1.36-3.24-4.34-3.24H423.65a9.76,9.76,0,0,1-9.75-9.76V41.13c0-15.25,3-18,16.12-18h35.77c12.43,0,15.11,2.69,15.11,17.92V80.18h-25V69.8c0-2.42-1.12-3.62-3.48-3.62h-9.2c-2.93,0-4.32,1.2-4.32,3.62V86.29c0,2.55,1.39,3.89,4.32,3.89H472c6.64,0,8.95,2.45,8.95,9.68v21c0,9-2.58,11.32-11.39,11.32Z"/><g class="cls-21"><path class="cls-22" d="M120.43,156.88l-3.05,9.68-10.93-2.73,8.22-35.65,13.74,3.22-.78,5.06c-3.06,15.32,11.67,22,23,23.49,10,1.3,18.13-1,19.09-8.45,1.08-8.38-3.62-10.07-25.72-19.16-17.91-7.12-28.11-14.56-26-30.73C119.79,87.69,131.85,77,155.09,80c13,1.68,22.77,7.63,28.29,15.06l3.32-9.89,10.69,2.7-7.28,31.22-13.89-3,.48-2.82c2.36-12.65-10.79-18.55-20.82-19.85-7.44-1-15.09.69-16,7.41s3.21,8.58,25.2,17.54,28.57,15.7,26.72,30c-2.17,16.76-15,27.09-39.45,23.93C137.4,170.35,126.4,164.49,120.43,156.88Z"/></g><g class="cls-23"><path class="cls-22" d="M291.92,185.11l10.83,0,6.2-47.95-10.48-2.73,1.51-8.07,62.75,8.12L357,159.65l-10.77-1.94,2.74-14.8-23.32-3.47L323.37,157l16.85,1.73-1.41,10.92L322.08,167l-2.61,20.22,23.44,2.58,1.47-17.72,11.1.71-1.32,28.65-62.84-8.13Z"/></g><path class="cls-2" d="M52.36,157.62a31.49,31.49,0,0,0-33.6,7.91C3.57,181.82,8.83,199.86,30,204.73a34.7,34.7,0,0,0,4.71.69l-.93,1.28,17.24,1.84,5.34-3.11c1.11-3.61.3-5.49-.21-6.25a.7.7,0,0,0-.74-.3A42.47,42.47,0,0,1,38,198.7c-14.33-3.47-12.43-12.83-8.25-20.29s14.22-18.75,23-12.54a8.32,8.32,0,0,0-2.15,2.46c-2,3.54-.67,7.41,2.86,8.64s8.08-.75,10-4.13C65,170.23,66.29,162.51,52.36,157.62Z"/><path class="cls-2" d="M51.77,182.13s-5.08-3.07-2-11.23H55.1"/><path class="cls-2" d="M63.7,178.51a19.21,19.21,0,0,0,.51-10.78l-3.42,3.6Z"/><path class="cls-24" d="M30,210.81C8.83,206,3.57,187.91,18.76,171.61a31.5,31.5,0,0,1,33.6-7.9c13.93,4.88,12.6,12.61,11.13,15.22-1.92,3.38-6.4,5.39-10,4.13s-4.84-5.1-2.86-8.64A8.49,8.49,0,0,1,52.78,172c-8.77-6.2-18.84,5.17-23,12.55S23.71,201.32,38,204.79a42.39,42.39,0,0,0,17.82.08c.08,0,.28,0,.36,0,.24.08.27.28.18.52l-2,3.54c-.12.05-.14.14-.26.19C47.22,211.14,38.06,212.61,30,210.81Z"/><path class="cls-2" d="M70.91,178.51s-.89.53-.28-6.66l3.74-.29,1.16,2.27-2,2.85Z"/><path class="cls-2" d="M92.5,178.79a13.14,13.14,0,0,0,.26-7.23L88.85,178,90,180.75Z"/><path class="cls-2" d="M121.81,184c1-3.14-.11-7.1-.11-7.1l-5.43,6.25Z"/><path class="cls-2" d="M59.1,217.23s-.77-4.63.22-7.17l4.24,1Z"/><path class="cls-2" d="M88.23,223.51c-1.2-4.64,0-6.91,0-6.91l3,3Z"/><path class="cls-25" d="M101.18,228.26c-3.82-.42-11.78-1.77-13-4.75a3.33,3.33,0,0,1,.42-2L95.09,205l-11.91-2.41-6.77,17.23c-.55,1.39-1,2.89-4.25,2.59-3.82-.42-11.78-1.77-12.95-4.75-.25-.49,0-1.16.33-2.06l14.17-36.2c.36-.9-.45-.89-1-.91a10.56,10.56,0,0,1-1.43.07c-.55.06-.73-.33-.68-.58a24.23,24.23,0,0,1,.94-4.24c.11-.51.47-.53.84-.63a32.73,32.73,0,0,1,12.55.15c3.47.8,7,1.95,7.64,3.86.34.51.11,1.17-.26,2.16l-6.79,17.32L97.46,199l7.13-18.13c.55-1.4,1-2.91,4.23-2.51,3.65.38,11.8,1.68,12.88,4.65.26.49,0,1.16-.34,2.15l-15.93,40.53C104.88,227.06,104.48,228.57,101.18,228.26Z"/><path class="cls-2" d="M124.12,182.88s-.52,6.28.28,6.78l11.45-5L131.32,181Z"/><polygon class="cls-2" points="169.26 216.82 169.31 223.24 161.95 228.56 160.07 222.45 169.26 216.82"/><path class="cls-2" d="M114.49,220.61s-.85,7.48.27,8.07l7.47-7.88Z"/><rect class="cls-2" x="144.98" y="202.24" width="3.66" height="2.88"/><path class="cls-26" d="M168.16,227c0,.08-.11.16-.2.23-2.43,2.68-8.09,9-16,9.18-16.5.45-14.32-21.15-13.79-27l-.43-.05-6,19.74c-.44,1.43-.8,3-4,2.92-3.83-.11-11.88-.82-13.28-3.7a3.19,3.19,0,0,1,.16-2.08l9.64-32c.44-1.44.88-3,4-2.93,3.82.2,11.88.83,13.28,3.71a2.63,2.63,0,0,1-.08,2.09l-2.28,7.33c8.24.56,13.66-2.28,14-8.27.42-8.52-21.64-6.9-28.35-6.4-.71.09-.76-.27-.81-.54a34.84,34.84,0,0,1,.52-4.31.91.91,0,0,1,1-.67c12.86-2.21,22.16-2.48,28.7-1.6,16.2,2,16,11,14.67,15.41-1.16,3.8-7.77,10.7-22.21,11.49.89,4.22,2.56,15.79,10.57,16.76,2.93.35,6.49-.09,11.35-3.44a.64.64,0,0,1,.36-.05c.25,0,.32.22.29.48Z"/><path class="cls-27" d="M117.22,217.74a12.39,12.39,0,0,1,12.13-2.17s1.9-6.1,8-4.87l-5.25,17.66c-.43,1.44-.79,3-4,2.93-3.84-.12-11.89-.83-13.29-3.71a3.21,3.21,0,0,1,.17-2.08l2.27-7.76"/><path class="cls-27" d="M157.24,226.23c5.76.44,6.56-.07,11.42-3.42.18-.07.29,0,.38,0,.26,0,.3.13.27.39l-1.16,3.09c0,.08-.1.16-.2.23-2.42,2.69-8.08,9-16,9.18-12.9.36-14.38-12.78-14.16-21.33a6,6,0,0,1,6.22,4.33.49.49,0,0,0,.84.13h0a3.79,3.79,0,0,1,3.77-1.56s2,7,7.16,8.6"/><path class="cls-2" d="M199.93,184.3a35.81,35.81,0,0,1,0,7.13l-15.54-1.24,5.58-6.43Z"/><path class="cls-2" d="M171.62,227.29s-1.42,7,.5,7.81l4.85-4.25Z"/><path class="cls-28" d="M185.12,237.62c-3.84.06-11.91-.28-13.44-3.1a3.23,3.23,0,0,1,.16-2.07l10.73-42.3c.37-1.46.57-3,3.88-3,3.67-.08,11.92.19,13.36,3,.32.46.18,1.14-.07,2.17L189,234.51C188.64,236,188.44,237.52,185.12,237.62Z"/><path class="cls-27" d="M179.63,216.27c3.14-10.53,11.34-5.87,11.34-5.87a3.4,3.4,0,0,1,2.9,4.24L189,233.77c-.37,1.45-.57,3-3.89,3.1-3.84.06-11.91-.28-13.44-3.09a3.26,3.26,0,0,1,.16-2.08l3.49-13.78C177.73,214.39,179.63,216.27,179.63,216.27Z"/><path class="cls-2" d="M197.37,228.13s-.75-4.42.32-7.52l3,2.3.47,4.38Z"/><path class="cls-2" d="M204.61,196.71s-.6,7.64,0,9.57l2.14-6.53Z"/><path class="cls-2" d="M242.14,215.36A21.16,21.16,0,0,1,242,226.5l-7.45-7.65Z"/><path class="cls-2" d="M245.72,190.78s.64,6.12,0,7.93l-7.21-4,4.31-4.22Z"/><path class="cls-29" d="M197.37,228.13l.85-3.79a.54.54,0,0,1,.53-.41c.09,0,.26,0,.26.1,4.54,4,10.42,6.91,16.15,7.14,4.16.16,8.37-.81,9.11-4.26.42-1.81-.74-3.42-3.61-5.53-4.31-3.2-18.17-8.78-15.95-19.12,2.53-11.46,12.66-15.06,22-14.7,9.55.36,14.47,3.33,17.16,5.87a5.78,5.78,0,0,1,1.79,5.28c-.42,1.81-2.41,6.34-7.53,6.14-4.86-.18-5.19-5.24-3.16-8.2-6.4-3.2-13.09-1-13.82,2.25-.75,3.62,2.49,5.22,6,7.88,4.31,3.21,17.13,8.83,14.9,19.25-2.11,9.74-14.8,14.29-25,13.9s-17.47-6.76-19.63-11.53C197.45,228.31,197.37,228.22,197.37,228.13Z"/><path class="cls-2" d="M259.3,231.2s-1.05,6.56.42,7.21l3.32-4.69-2.93-3.26Z"/><path class="cls-30" d="M300.69,190.18l-1.35,7.74a.85.85,0,0,1-.86.78l-15.28.09-6.46,37.9c-.25,1.48-.33,3-3.63,3.41-3.82.37-11.89.67-13.64-2a3.23,3.23,0,0,1,0-2.08l6.29-37-15.11.09c-.61.09-.78-.25-.78-.51s0-4.78,0-5.73c.08-.53.43-.7.86-.79,13.71-1.82,35.67-2.56,49.3-2.64A.62.62,0,0,1,300.69,190.18Z"/><path class="cls-2" d="M299.2,229.75s-.71,6.45.06,8.05l5.82-6.67Z"/><path class="cls-2" d="M379.3,214.48s.73,4.43.14,6.43l-8.74,6.71L369,224Z"/><path class="cls-2" d="M371.36,189.47s1.44-8.1-.8-9.32l-4.27,6.63v4.88Z"/><path class="cls-2" d="M444,203.83a20.29,20.29,0,0,1,.23,6.45l-5.84,5.59-.6-5.13Z"/><path class="cls-2" d="M379.67,218.59s-2.82,4.76-2.87,6.72l6.24.88.91-4.92Z"/><path class="cls-31" d="M444.13,214.16a.25.25,0,0,1-.13.29c-5.2,7.15-11.75,11.34-18.18,12.36-7.81,1.23-10-4.93-10.12-10.63L398.12,219l-2.75,4.3c-3.36,5.45-6.59,9.48-10.36,10.07-3.52.56-6.39-2.59-8.21-8-.12-.16.11-.37.29-.4l3.86-.61a.59.59,0,0,1,.48.28c.49.89,1,1.33,1.7,1.31,1.78.16,3.16-1.73,4.5-3.78l27.24-43c1.18-2,2-2.59,5.05-3.08,3.51-.64,11.05-.16,13.1,2.24.5.36.52,1.06.51,2.12L433,211.08c-.13,3.63,1.24,4.55,2.79,4.31,2.14-.34,5.56-3.17,7.68-5.35a.75.75,0,0,1,.33-.14c.26,0,.37.12.41.38Zm-28.38-4.4.29-19.3-13.42,21.37Z"/><path class="cls-32" d="M379,224.77c0,.09-.07.18-.15.27-5.89,6.68-12.78,10.29-19.19,10.73-8.58.6-9.71-6.89-9.08-12.86l2.1-20-14.2,27.45c-.22.54-.54,1-1.06,1a51.74,51.74,0,0,1-7.19.5c-.6,0-.72-.39-.93-.89l-8.62-26.39c-.3-.59-.43-1.19-.64-1.7l-3.48,32.63c-.16,1.49-.22,3.06-3.41,3.63-3.78.61-11.82,1.43-13.74-1.14-.38-.41-.34-1.11-.23-2.07l3.6-34.63c.16-1.49.31-3.16,3.41-3.63a39,39,0,0,1,10.5-.47c-5.58-6.32-12.23-1.76-16-.55a.57.57,0,0,1-.82-.46,23.53,23.53,0,0,1-.2-4.25c0-.52.29-.72.63-.92,5.06-2.35,8.88-3.66,12.26-3.89,14-1,15.61,8,18,16.77L335,221.21l18-34.93c1.26-1.92,2.1-2.41,5.3-2.72,3.63-.34,11,.8,12.94,3.36a3.59,3.59,0,0,1,.15,2.17l-3.29,31.65c-.44,3.6.85,4.64,2.49,4.53,2.17-.15,5.82-2.67,8.12-4.66a.57.57,0,0,1,.34-.11c.26,0,.36.15.38.41Z"/><path class="cls-27" d="M311.66,224.75a6.65,6.65,0,0,1,1.58-.07,4.41,4.41,0,0,1,3.95,4.92l-.5,4.68c-.16,1.49-.22,3.06-3.4,3.63-3.79.61-11.83,1.43-13.75-1.13-.38-.41-.34-1.11-.23-2.08l.77-7.43a4.44,4.44,0,0,1,4.39-4,13,13,0,0,1,4.68,1.15A4.61,4.61,0,0,0,311.66,224.75Z"/><path class="cls-27" d="M343.66,220.42l-5,8.87c-.22.54-.54,1-1.06,1a48.84,48.84,0,0,1-7.19.5c-.6,0-1.15.07-1.36-.44l-1.5-4.68s1.83-5.83,7.61-3.33C335.21,222.37,339.27,216.5,343.66,220.42Z"/><path class="cls-2" d="M484.64,162.91a24.77,24.77,0,0,1,.21,8.85l-13.86-3,3.3-8.87Z"/><path class="cls-2" d="M447,202.46s-.44,6.31.31,10l9.43-4.32Z"/><path class="cls-2" d="M446.7,175.79s-1.12,10.62,1.15,13.55l5.25-10Z"/><path class="cls-2" d="M489.3,189.89s1.59,6.48-.19,11.81l-4-7Z"/><path class="cls-33" d="M447.32,212.42l-.31-3.87a.54.54,0,0,1,.4-.55c.08,0,.25-.07.27,0,5.51,2.5,12,3.57,17.53,2.1,4-1.06,7.77-3.22,7.47-6.73-.13-1.85-1.7-3-5.07-4.23-5.06-1.81-19.94-3.08-20.84-13.62-.94-11.7,7.69-18.11,16.76-20.51,9.23-2.44,14.81-1,18.12.6a5.77,5.77,0,0,1,3.26,4.52c.13,1.86-.46,6.77-5.41,8.08-4.7,1.24-6.49-3.49-5.42-6.92-7.05-1.19-12.81,2.85-12.55,6.2.34,3.68,3.91,4.26,8.08,5.76,5.06,1.81,19,3.43,19.88,14.05.83,9.93-10,18-19.88,20.62s-18.67-1.35-22.14-5.28C447.45,212.57,447.34,212.5,447.32,212.42Z"/><path class="cls-4" d="M19.89,203.59c3.86,0,3.87-6,0-6s-3.87,6,0,6Z"/><path class="cls-4" d="M14.71,195.91a.5.5,0,0,0,0-1,.5.5,0,0,0,0,1Z"/><path class="cls-4" d="M17.3,185.74c3.22,0,3.22-5,0-5s-3.22,5,0,5Z"/><path class="cls-4" d="M25.07,206a1.5,1.5,0,0,0,0-3,1.5,1.5,0,0,0,0,3Z"/><path class="cls-4" d="M32.32,209.09a1.5,1.5,0,0,0,0-3,1.5,1.5,0,0,0,0,3Z"/><path class="cls-4" d="M43.2,210.9a1.5,1.5,0,0,0,0-3,1.5,1.5,0,0,0,0,3Z"/><path class="cls-4" d="M15.49,197.14c3.22,0,3.22-5,0-5s-3.22,5,0,5Z"/><path class="cls-4" d="M23.26,190.16c2.57,0,2.58-4,0-4s-2.58,4,0,4Z"/><path class="cls-4" d="M29.73,205a1,1,0,0,0,0-2,1,1,0,0,0,0,2Z"/><path class="cls-4" d="M64.7,219.12c4.5,0,4.51-7,0-7s-4.52,7,0,7Z"/><path class="cls-4" d="M71.17,220.46c2.58,0,2.58-4,0-4s-2.58,4,0,4Z"/><path class="cls-4" d="M73.24,215.8c2.58,0,2.58-4,0-4s-2.57,4,0,4Z"/><path class="cls-4" d="M69.1,213a1,1,0,0,0,0-2,1,1,0,0,0,0,2Z"/><path class="cls-4" d="M77.13,212a1,1,0,0,0,0-2,1,1,0,0,0,0,2Z"/><path class="cls-4" d="M69.36,208.85a1,1,0,0,0,0-2,1,1,0,0,0,0,2Z"/><path class="cls-4" d="M96,225.54c6.44,0,6.45-10,0-10s-6.44,10,0,10Z"/><path class="cls-4" d="M103,218.67a1.5,1.5,0,0,0,0-3,1.5,1.5,0,0,0,0,3Z"/><path class="cls-4" d="M103,223.33a1.5,1.5,0,0,0,0-3,1.5,1.5,0,0,0,0,3Z"/><path class="cls-4" d="M120.38,227.4c4.5,0,4.51-7,0-7s-4.51,7,0,7Z"/><path class="cls-4" d="M127.63,229.27c2.58,0,2.58-4,0-4s-2.58,4,0,4Z"/><path class="cls-4" d="M128.41,227.07c2.57,0,2.58-4,0-4s-2.58,4,0,4Z"/><path class="cls-4" d="M127.89,223.54c3.86,0,3.87-6,0-6s-3.87,6,0,6Z"/><path class="cls-4" d="M123.23,217.13a1,1,0,0,0,0-2,1,1,0,0,0,0,2Z"/><path class="cls-4" d="M132.55,218.43a1,1,0,0,0,0-2,1,1,0,0,0,0,2Z"/><path class="cls-4" d="M70.39,205.74a1,1,0,0,0,0-2,1,1,0,0,0,0,2Z"/><path class="cls-4" d="M21.44,181.15a.5.5,0,0,0,0-1,.5.5,0,0,0,0,1Z"/><path class="cls-4" d="M26.62,182.19a.5.5,0,0,0,0-1,.5.5,0,0,0,0,1Z"/><path class="cls-4" d="M25.59,198.24a.5.5,0,0,0,0-1,.5.5,0,0,0,0,1Z"/><path class="cls-4" d="M22.22,184.78a.5.5,0,0,0,0-1,.5.5,0,0,0,0,1Z"/><path class="cls-4" d="M18.6,178.3a.5.5,0,0,0,0-1,.5.5,0,0,0,0,1Z"/><path class="cls-4" d="M65.21,207.57a.5.5,0,0,0,0-1,.5.5,0,0,0,0,1Z"/><path class="cls-4" d="M69.1,202.91a.5.5,0,0,0,0-1,.5.5,0,0,0,0,1Z"/><path class="cls-4" d="M73.76,203.68a.5.5,0,0,0,0-1,.5.5,0,0,0,0,1Z"/><path class="cls-4" d="M80.24,203.17a.5.5,0,0,0,0-1,.5.5,0,0,0,0,1Z"/><path class="cls-4" d="M81.53,197.73a.5.5,0,0,0,0-1,.5.5,0,0,0,0,1Z"/><path class="cls-4" d="M80,206.53a.5.5,0,0,0,0-1,.5.5,0,0,0,0,1Z"/><path class="cls-4" d="M71.43,209.64a.5.5,0,0,0,0-1,.5.5,0,0,0,0,1Z"/><path class="cls-4" d="M75.83,215.6a.5.5,0,0,0,0-1,.5.5,0,0,0,0,1Z"/><path class="cls-4" d="M75.83,220.52a.5.5,0,0,0,0-1,.5.5,0,0,0,0,1Z"/><path class="cls-4" d="M65.47,210.94a.5.5,0,0,0,0-1,.5.5,0,0,0,0,1Z"/><path class="cls-4" d="M96,213.53a.5.5,0,0,0,0-1,.5.5,0,0,0,0,1Z"/><path class="cls-4" d="M98.37,208.81c2.57,0,2.57-4,0-4s-2.58,4,0,4Z"/><path class="cls-4" d="M103,214.28a1,1,0,0,0,0-2,1,1,0,0,0,0,2Z"/><path class="cls-4" d="M107.17,214.56a.5.5,0,0,0,0-1,.5.5,0,0,0,0,1Z"/><path class="cls-4" d="M102,209.64a.5.5,0,0,0,0-1,.5.5,0,0,0,0,1Z"/><path class="cls-4" d="M105.62,217.41a.5.5,0,0,0,0-1,.5.5,0,0,0,0,1Z"/><path class="cls-4" d="M130.22,213.78a.5.5,0,0,0,0-1,.5.5,0,0,0,0,1Z"/><path class="cls-4" d="M129.7,217.15a.5.5,0,0,0,0-1,.5.5,0,0,0,0,1Z"/><path class="cls-4" d="M132,224.66a.5.5,0,0,0,0-1,.5.5,0,0,0,0,1Z"/><path class="cls-4" d="M121.67,220.78a.5.5,0,0,0,0-1,.5.5,0,0,0,0,1Z"/><path class="cls-4" d="M121.42,218.45a.5.5,0,0,0,0-1,.5.5,0,0,0,0,1Z"/><path class="cls-4" d="M123.75,213.27a.5.5,0,0,0,0-1,.5.5,0,0,0,0,1Z"/><path class="cls-4" d="M93.7,203.17a.5.5,0,0,0,0-1,.5.5,0,0,0,0,1Z"/><path class="cls-4" d="M30.25,177.53a.5.5,0,0,0,0-1,.5.5,0,0,0,0,1Z"/><path class="cls-4" d="M25.07,178a.5.5,0,0,0,0-1,.5.5,0,0,0,0,1Z"/><path class="cls-4" d="M53.56,180.36a1,1,0,0,0,0-2,1,1,0,0,0,0,2Z"/><path class="cls-4" d="M58,182.69a1,1,0,0,0,0-2,1,1,0,0,0,0,2Z"/><path class="cls-4" d="M57.44,182.69a1,1,0,0,0,0-2,1,1,0,0,0,0,2Z"/><path class="cls-4" d="M59.26,180.37a.5.5,0,0,0,0-1,.5.5,0,0,0,0,1Z"/><path class="cls-4" d="M142.91,230.29c3.22,0,3.22-5,0-5s-3.22,5,0,5Z"/><path class="cls-4" d="M146.28,231.64a1,1,0,0,0,0-2,1,1,0,0,0,0,2Z"/><path class="cls-4" d="M149.39,235.74c2.57,0,2.58-4,0-4s-2.58,4,0,4Z"/><path class="cls-4" d="M154.83,232.93a1,1,0,0,0,0-2,1,1,0,0,0,0,2Z"/><path class="cls-4" d="M153,236.3a1,1,0,0,0,0-2,1,1,0,0,0,0,2Z"/><path class="cls-4" d="M160,231.65a.5.5,0,0,0,0-1,.5.5,0,0,0,0,1Z"/><path class="cls-4" d="M143.67,223.71a1.5,1.5,0,0,0,0-3,1.5,1.5,0,0,0,0,3Z"/><path class="cls-4" d="M149.91,230.32a1.5,1.5,0,0,0,0-3,1.5,1.5,0,0,0,0,3Z"/><path class="cls-4" d="M154.31,208.07a1,1,0,0,0,0-2,1,1,0,0,0,0,2Z"/><path class="cls-4" d="M128.41,209.64a.5.5,0,0,0,0-1,.5.5,0,0,0,0,1Z"/><path class="cls-4" d="M156.9,206.53a.5.5,0,0,0,0-1,.5.5,0,0,0,0,1Z"/><path class="cls-4" d="M165.44,201.87a.5.5,0,0,0,0-1,.5.5,0,0,0,0,1Z"/><path class="cls-4" d="M159.23,200.83a.5.5,0,0,0,0-1,.5.5,0,0,0,0,1Z"/><path class="cls-4" d="M177.36,233.65c3.22,0,3.22-5,0-5s-3.22,5,0,5Z"/><path class="cls-4" d="M183.83,234.43c3.22,0,3.23-5,0-5s-3.22,5,0,5Z"/><path class="cls-4" d="M180.73,224.88a1.5,1.5,0,0,0,0-3,1.5,1.5,0,0,0,0,3Z"/><path class="cls-4" d="M186.42,226.35a1.5,1.5,0,0,0,0-3,1.5,1.5,0,0,0,0,3Z"/><path class="cls-4" d="M186.42,225.52a1.5,1.5,0,0,0,0-3,1.5,1.5,0,0,0,0,3Z"/><path class="cls-4" d="M186.42,224.19a1.5,1.5,0,0,0,0-3,1.5,1.5,0,0,0,0,3Z"/><path class="cls-4" d="M181.5,227.51a.5.5,0,0,0,0-1,.5.5,0,0,0,0,1Z"/><path class="cls-4" d="M178.14,225.18a.5.5,0,0,0,0-1,.5.5,0,0,0,0,1Z"/><path class="cls-4" d="M183.32,218.19a.5.5,0,0,0,0-1,.5.5,0,0,0,0,1Z"/><path class="cls-4" d="M184.35,219.48a.5.5,0,0,0,0-1,.5.5,0,0,0,0,1Z"/><path class="cls-4" d="M187.46,221.3a.5.5,0,0,0,0-1,.5.5,0,0,0,0,1Z"/><path class="cls-4" d="M179.69,220.52a.5.5,0,0,0,0-1,.5.5,0,0,0,0,1Z"/><path class="cls-4" d="M181,228.81a.5.5,0,0,0,0-1,.5.5,0,0,0,0,1Z"/><path class="cls-4" d="M186.94,228.55a.5.5,0,0,0,0-1,.5.5,0,0,0,0,1Z"/><path class="cls-4" d="M177.36,227.49a1,1,0,0,0,0-2,1,1,0,0,0,0,2Z"/><path class="cls-4" d="M200.93,230.6a1,1,0,0,0,0-2,1,1,0,0,0,0,2Z"/><path class="cls-4" d="M205.33,234.43c3.22,0,3.22-5,0-5s-3.22,5,0,5Z"/><path class="cls-4" d="M212.06,236.8a1.5,1.5,0,0,0,0-3,1.5,1.5,0,0,0,0,3Z"/><path class="cls-4" d="M219.32,238.32c3.21,0,3.22-5,0-5s-3.23,5,0,5Z"/><path class="cls-4" d="M226.05,237.3c2.57,0,2.58-4,0-4s-2.58,4,0,4Z"/><path class="cls-4" d="M224,231.91a.5.5,0,0,0,0-1,.5.5,0,0,0,0,1Z"/><path class="cls-4" d="M215.17,232.69a.5.5,0,0,0,0-1,.5.5,0,0,0,0,1Z"/><path class="cls-4" d="M209.47,232.69a.5.5,0,0,0,0-1,.5.5,0,0,0,0,1Z"/><path class="cls-4" d="M228.38,231.32c3.22,0,3.22-5,0-5s-3.22,5,0,5Z"/><path class="cls-4" d="M231.49,235.52a1,1,0,0,0,0-2,1,1,0,0,0,0,2Z"/><path class="cls-4" d="M234.85,231.12a1,1,0,0,0,0-2,1,1,0,0,0,0,2Z"/><path class="cls-4" d="M228.9,222.81a1.5,1.5,0,0,0,0-3,1.5,1.5,0,0,0,0,3Z"/><path class="cls-4" d="M237.19,217.93a.5.5,0,0,0,0-1,.5.5,0,0,0,0,1Z"/><path class="cls-4" d="M239.26,223.63a.5.5,0,0,0,0-1,.5.5,0,0,0,0,1Z"/><path class="cls-4" d="M236.57,199.2l-.26.26c-.45.46.26,1.17.71.71l.26-.26c.46-.45-.25-1.16-.71-.71Z"/><path class="cls-4" d="M238,204.68a1.5,1.5,0,0,0,0-3,1.5,1.5,0,0,0,0,3Z"/><path class="cls-4" d="M242.11,202.11a1,1,0,0,0,0-2,1,1,0,0,0,0,2Z"/><path class="cls-4" d="M210.77,210.92a1,1,0,0,0,0-2,1,1,0,0,0,0,2Z"/><path class="cls-4" d="M213.88,214.53a1.5,1.5,0,0,0,0-3,1.5,1.5,0,0,0,0,3Z"/><path class="cls-4" d="M218.54,218.39c2.57,0,2.58-4,0-4s-2.58,4,0,4Z"/><path class="cls-4" d="M223.46,216.34a1.5,1.5,0,0,0,0-3,1.5,1.5,0,0,0,0,3Z"/><path class="cls-4" d="M223.2,221a1.5,1.5,0,0,0,0-3,1.5,1.5,0,0,0,0,3Z"/><path class="cls-4" d="M215.17,209.64a.5.5,0,0,0,0-1,.5.5,0,0,0,0,1Z"/><path class="cls-4" d="M264.64,214.56a.5.5,0,0,0,0-1,.5.5,0,0,0,0,1Z"/><path class="cls-4" d="M264.64,220.48a1.5,1.5,0,0,0,0-3,1.5,1.5,0,0,0,0,3Z"/><path class="cls-4" d="M266.19,224.38a1,1,0,0,0,0-2,1,1,0,0,0,0,2Z"/><path class="cls-4" d="M263.86,230.81c3.22,0,3.22-5,0-5s-3.22,5,0,5Z"/><path class="cls-4" d="M266.71,232.93a1,1,0,0,0,0-2,1,1,0,0,0,0,2Z"/><path class="cls-4" d="M263.6,238.08c2.58,0,2.58-4,0-4s-2.58,4,0,4Z"/><path class="cls-4" d="M270.34,234.23a1,1,0,0,0,0-2,1,1,0,0,0,0,2Z"/><path class="cls-4" d="M272.93,239.11c2.57,0,2.57-4,0-4s-2.58,4,0,4Z"/><path class="cls-4" d="M268.26,238.09a1.5,1.5,0,0,0,0-3,1.5,1.5,0,0,0,0,3Z"/><path class="cls-4" d="M271.11,222.26c3.22,0,3.23-5,0-5s-3.22,5,0,5Z"/><path class="cls-4" d="M275.52,231.1a1.5,1.5,0,0,0,0-3,1.5,1.5,0,0,0,0,3Z"/><path class="cls-4" d="M276,225.91l.26-.26a1,1,0,0,0-1.41-1.42l-.26.26a1,1,0,0,0,1.41,1.42Z"/><path class="cls-4" d="M304.52,237.5c4.51,0,4.52-7,0-7s-4.51,7,0,7Z"/><path class="cls-4" d="M304.52,229.51c3.22,0,3.23-5,0-5s-3.22,5,0,5Z"/><path class="cls-4" d="M303.49,223.07a1.5,1.5,0,0,0,0-3,1.5,1.5,0,0,0,0,3Z"/><path class="cls-4" d="M309.19,222a1.5,1.5,0,0,0,0-3,1.5,1.5,0,0,0,0,3Z"/><path class="cls-4" d="M306.08,219.21a1,1,0,0,0,0-2,1,1,0,0,0,0,2Z"/><path class="cls-4" d="M312.29,232.67a1,1,0,0,0,0-2,1,1,0,0,0,0,2Z"/><path class="cls-4" d="M310.48,237.08a1,1,0,0,0,0-2,1,1,0,0,0,0,2Z"/><path class="cls-4" d="M314.11,237.08a1,1,0,0,0,0-2,1,1,0,0,0,0,2Z"/><path class="cls-4" d="M314.11,230.08a1,1,0,0,0,0-2,1,1,0,0,0,0,2Z"/><path class="cls-4" d="M313.33,223.87a1,1,0,0,0,0-2,1,1,0,0,0,0,2Z"/><path class="cls-4" d="M311.78,217.93a.5.5,0,0,0,0-1,.5.5,0,0,0,0,1Z"/><path class="cls-4" d="M313.33,220a.5.5,0,0,0,0-1,.5.5,0,0,0,0,1Z"/><path class="cls-4" d="M306.6,216.63a.5.5,0,0,0,0-1,.5.5,0,0,0,0,1Z"/><path class="cls-4" d="M269.56,215.6a.5.5,0,0,0,0-1,.5.5,0,0,0,0,1Z"/><path class="cls-4" d="M275.78,218.19a.5.5,0,0,0,0-1,.5.5,0,0,0,0,1Z"/><path class="cls-4" d="M275.52,221.55a.5.5,0,0,0,0-1,.5.5,0,0,0,0,1Z"/><path class="cls-4" d="M272.93,214.56a.5.5,0,0,0,0-1,.5.5,0,0,0,0,1Z"/><path class="cls-4" d="M270.08,214c2.57,0,2.58-4,0-4s-2.58,4,0,4Z"/><path class="cls-4" d="M326.8,218.17a1,1,0,0,0,0-2,1,1,0,0,0,0,2Z"/><path class="cls-4" d="M332.24,227a1,1,0,0,0,0-2,1,1,0,0,0,0,2Z"/><path class="cls-4" d="M337.16,227.72c2.57,0,2.57-4,0-4s-2.58,4,0,4Z"/><path class="cls-4" d="M333.53,231.38a1,1,0,0,0,0-2,1,1,0,0,0,0,2Z"/><path class="cls-4" d="M343.89,215.82a1.5,1.5,0,0,0,0-3,1.5,1.5,0,0,0,0,3Z"/><path class="cls-4" d="M336.64,222.85a.5.5,0,0,0,0-1,.5.5,0,0,0,0,1Z"/><path class="cls-4" d="M330.68,218.45a.5.5,0,0,0,0-1,.5.5,0,0,0,0,1Z"/><path class="cls-4" d="M329.13,220.26a.5.5,0,0,0,0-1,.5.5,0,0,0,0,1Z"/><path class="cls-4" d="M328.09,214.25c2.58,0,2.58-4,0-4s-2.58,4,0,4Z"/><path class="cls-4" d="M354.25,224.87c2.57,0,2.58-4,0-4s-2.58,4,0,4Z"/><path class="cls-4" d="M354,228.79a1,1,0,0,0,0-2,1,1,0,0,0,0,2Z"/><path class="cls-4" d="M360.73,230.49c5.14,0,5.15-8,0-8s-5.16,8,0,8Z"/><path class="cls-4" d="M367.46,229.84a.5.5,0,0,0,0-1,.5.5,0,0,0,0,1Z"/><path class="cls-4" d="M372.38,229.29a1.5,1.5,0,0,0,0-3,1.5,1.5,0,0,0,0,3Z"/><path class="cls-4" d="M361.76,233.21a.5.5,0,0,0,0-1,.5.5,0,0,0,0,1Z"/><path class="cls-4" d="M354.77,234a1.5,1.5,0,0,0,0-3,1.5,1.5,0,0,0,0,3Z"/><path class="cls-4" d="M359.43,221.52a1.5,1.5,0,0,0,0-3,1.5,1.5,0,0,0,0,3Z"/><path class="cls-4" d="M365.13,221.3a.5.5,0,0,0,0-1,.5.5,0,0,0,0,1Z"/><path class="cls-4" d="M360.73,216.89a.5.5,0,0,0,0-1,.5.5,0,0,0,0,1Z"/><path class="cls-4" d="M354.25,217.89a1.5,1.5,0,0,0,0-3,1.5,1.5,0,0,0,0,3Z"/><path class="cls-4" d="M357.62,215.34a.5.5,0,0,0,0-1,.5.5,0,0,0,0,1Z"/><path class="cls-4" d="M362.8,216.08a1.5,1.5,0,0,0,0-3,1.5,1.5,0,0,0,0,3Z"/><path class="cls-4" d="M357.88,211.19a.5.5,0,0,0,0-1,.5.5,0,0,0,0,1Z"/><path class="cls-4" d="M364.87,212.42c3.22,0,3.22-5,0-5s-3.22,5,0,5Z"/><path class="cls-4" d="M365.39,219.45a1.5,1.5,0,0,0,0-3,1.5,1.5,0,0,0,0,3Z"/><path class="cls-4" d="M383,228.79a1,1,0,0,0,0-2,1,1,0,0,0,0,2Z"/><path class="cls-4" d="M385.33,232.15a1,1,0,0,0,0-2,1,1,0,0,0,0,2Z"/><path class="cls-4" d="M387.4,228a1,1,0,0,0,0-2,1,1,0,0,0,0,2Z"/><path class="cls-4" d="M388.7,229c3.21,0,3.22-5,0-5s-3.23,5,0,5Z"/><path class="cls-4" d="M392.32,222.81a1.5,1.5,0,0,0,0-3,1.5,1.5,0,0,0,0,3Z"/><path class="cls-4" d="M394.14,218.65c2.57,0,2.57-4,0-4s-2.58,4,0,4Z"/><path class="cls-4" d="M399.57,216.86a1.5,1.5,0,0,0,0-3,1.5,1.5,0,0,0,0,3Z"/><path class="cls-4" d="M396.21,213a.5.5,0,0,0,0-1,.5.5,0,0,0,0,1Z"/><path class="cls-4" d="M406.57,214.56a.5.5,0,0,0,0-1,.5.5,0,0,0,0,1Z"/><path class="cls-4" d="M403.72,216.12a.5.5,0,0,0,0-1,.5.5,0,0,0,0,1Z"/><path class="cls-4" d="M410.71,215.56a1.5,1.5,0,0,0,0-3,1.5,1.5,0,0,0,0,3Z"/><path class="cls-4" d="M416.93,214.8a1,1,0,0,0,0-2,1,1,0,0,0,0,2Z"/><path class="cls-4" d="M419.26,218.93a1.5,1.5,0,0,0,0-3,1.5,1.5,0,0,0,0,3Z"/><path class="cls-4" d="M421.33,223.87a1,1,0,0,0,0-2,1,1,0,0,0,0,2Z"/><path class="cls-4" d="M427,224.55c4.5,0,4.51-7,0-7s-4.51,7,0,7Z"/><path class="cls-4" d="M423.4,217.12a1.5,1.5,0,0,0,0-3,1.5,1.5,0,0,0,0,3Z"/><path class="cls-4" d="M427.8,216.1a1,1,0,0,0,0-2,1,1,0,0,0,0,2Z"/><path class="cls-4" d="M432.73,220.48a1.5,1.5,0,0,0,0-3,1.5,1.5,0,0,0,0,3Z"/><path class="cls-4" d="M436.87,219.72a1,1,0,0,0,0-2,1,1,0,0,0,0,2Z"/><path class="cls-4" d="M440,218.15a1.5,1.5,0,0,0,0-3,1.5,1.5,0,0,0,0,3Z"/><path class="cls-4" d="M426.25,212.94c3.22,0,3.22-5,0-5s-3.22,5,0,5Z"/><path class="cls-4" d="M451.37,214.27a1.5,1.5,0,0,0,0-3,1.5,1.5,0,0,0,0,3Z"/><path class="cls-4" d="M456.81,214.3a.5.5,0,0,0,0-1,.5.5,0,0,0,0,1Z"/><path class="cls-4" d="M461,217.86c3.21,0,3.22-5,0-5s-3.23,5,0,5Z"/><path class="cls-4" d="M465.1,215.32a1,1,0,0,0,0-2,1,1,0,0,0,0,2Z"/><path class="cls-4" d="M469.24,215.54c2.58,0,2.58-4,0-4s-2.57,4,0,4Z"/><path class="cls-4" d="M473.91,214.73c3.86,0,3.86-6,0-6s-3.87,6,0,6Z"/><path class="cls-4" d="M475.46,208.05a1.5,1.5,0,0,0,0-3,1.5,1.5,0,0,0,0,3Z"/><path class="cls-4" d="M480.12,208.77c3.86,0,3.87-6,0-6s-3.87,6,0,6Z"/><path class="cls-4" d="M482.71,201c5.79,0,5.8-9,0-9s-5.8,9,0,9Z"/><path class="cls-4" d="M474.68,201c2.58,0,2.58-4,0-4s-2.58,4,0,4Z"/><path class="cls-4" d="M475.2,194.6a1,1,0,0,0,0-2,1,1,0,0,0,0,2Z"/><path class="cls-4" d="M478.05,192.79h.26a1,1,0,0,0,0-2h-.26a1,1,0,0,0,0,2Z"/><path class="cls-4" d="M470,196.38c2.57,0,2.58-4,0-4s-2.58,4,0,4Z"/><path class="cls-4" d="M473.65,192a1.5,1.5,0,0,0,0-3,1.5,1.5,0,0,0,0,3Z"/><path class="cls-4" d="M482.45,191a.5.5,0,0,0,0-1,.5.5,0,0,0,0,1Z"/><path class="cls-4" d="M485.3,204.18a1,1,0,0,0,0-2,1,1,0,0,0,0,2Z"/><path class="cls-4" d="M479.34,212.73a1,1,0,0,0,0-2,1,1,0,0,0,0,2Z"/><path class="cls-4" d="M465.62,212.23a.5.5,0,0,0,0-1,.5.5,0,0,0,0,1Z"/><path class="cls-4" d="M455.52,194.06a1.5,1.5,0,0,0,0-3,1.5,1.5,0,0,0,0,3Z"/><path class="cls-4" d="M452.15,191a.5.5,0,0,0,0-1,.5.5,0,0,0,0,1Z"/><path class="cls-4" d="M457.85,189.44a.5.5,0,0,0,0-1,.5.5,0,0,0,0,1Z"/><path class="cls-4" d="M421.85,207.05a.5.5,0,0,0,0-1,.5.5,0,0,0,0,1Z"/><path class="cls-4" d="M428.58,206.79a.5.5,0,0,0,0-1,.5.5,0,0,0,0,1Z"/><path class="cls-4" d="M432,212a.5.5,0,0,0,0-1,.5.5,0,0,0,0,1Z"/><path class="cls-4" d="M425,205.2a1.5,1.5,0,0,0,0-3,1.5,1.5,0,0,0,0,3Z"/><path class="cls-4" d="M419.78,206.51a1,1,0,0,0,0-2,1,1,0,0,0,0,2Z"/><path class="cls-4" d="M277.07,211.71a.5.5,0,0,0,0-1,.5.5,0,0,0,0,1Z"/><path class="cls-4" d="M188.75,216.12a.5.5,0,0,0,0-1,.5.5,0,0,0,0,1Z"/><path class="cls-4" d="M22,175.42a1.5,1.5,0,0,0,0-3,1.5,1.5,0,0,0,0,3Z"/><path class="cls-4" d="M269.3,201.35a.5.5,0,0,0,0-1,.5.5,0,0,0,0,1Z"/><path class="cls-4" d="M309.19,208.6a.5.5,0,0,0,0-1,.5.5,0,0,0,0,1Z"/><path class="cls-4" d="M219.06,209.38a.5.5,0,0,0,0-1,.5.5,0,0,0,0,1Z"/><path class="cls-4" d="M158.19,197.21a.5.5,0,0,0,0-1,.5.5,0,0,0,0,1Z"/><path class="cls-4" d="M106.91,204.46a.5.5,0,0,0,0-1,.5.5,0,0,0,0,1Z"/><path class="cls-4" d="M103.29,202.13a.5.5,0,0,0,0-1,.5.5,0,0,0,0,1Z"/><path class="cls-4" d="M133.33,209.64a.5.5,0,0,0,0-1,.5.5,0,0,0,0,1Z"/><path class="cls-4" d="M128.93,200.83a.5.5,0,0,0,0-1,.5.5,0,0,0,0,1Z"/><path class="cls-4" d="M143.43,215.6a.5.5,0,0,0,0-1,.5.5,0,0,0,0,1Z"/><path class="cls-4" d="M420.81,195.91a.5.5,0,0,0,0-1,.5.5,0,0,0,0,1Z"/><path class="cls-4" d="M427.8,189.44a.5.5,0,0,0,0-1,.5.5,0,0,0,0,1Z"/><path class="cls-4" d="M429.62,197.73a.5.5,0,0,0,0-1,.5.5,0,0,0,0,1Z"/><path class="cls-4" d="M452.67,187.11a.5.5,0,0,0,0-1,.5.5,0,0,0,0,1Z"/><path class="cls-4" d="M456.81,182.71a.5.5,0,0,0,0-1,.5.5,0,0,0,0,1Z"/><path class="cls-4" d="M461,174.16a.5.5,0,0,0,0-1,.5.5,0,0,0,0,1Z"/><path class="cls-4" d="M453.7,181.93a.5.5,0,0,0,0-1,.5.5,0,0,0,0,1Z"/><path class="cls-4" d="M477,175.45h.26a.5.5,0,0,0,0-1H477a.5.5,0,0,0,0,1Z"/><path class="cls-4" d="M479.86,177.53a.5.5,0,0,0,0-1,.5.5,0,0,0,0,1Z"/><path class="cls-4" d="M354,210.94a.5.5,0,0,0,0-1,.5.5,0,0,0,0,1Z"/><path class="cls-4" d="M78.29,210.4a1,1,0,0,0,0-2,1,1,0,0,0,0,2Z"/><path class="cls-4" d="M140.35,214.37a.5.5,0,0,0,0-1,.5.5,0,0,0,0,1Z"/><path class="cls-4" d="M146,217.19a.5.5,0,0,0,0-1,.5.5,0,0,0,0,1Z"/><path class="cls-4" d="M140,210.76a.5.5,0,0,0,0-1,.5.5,0,0,0,0,1Z"/><path class="cls-4" d="M144.16,217a.5.5,0,0,0,0-1,.5.5,0,0,0,0,1Z"/><path class="cls-4" d="M128.71,217.58a1.49,1.49,0,0,0,0-3,1.49,1.49,0,0,0,0,3Z"/><path class="cls-4" d="M120.25,218.27a1.49,1.49,0,0,0,0-3,1.49,1.49,0,0,0,0,3Z"/><path class="cls-4" d="M134.62,212.64a1,1,0,0,0,0-2,1,1,0,0,0,0,2Z"/><path class="cls-4" d="M119.13,218.12a1,1,0,0,0,0-2,1,1,0,0,0,0,2Z"/><path class="cls-34" d="M179.63,217.16c3.14-10.53,11.34-5.87,11.34-5.87a3.4,3.4,0,0,1,2.9,4.24L189,234.66c-.37,1.45-.57,3-3.89,3.1-3.84.06-11.91-.28-13.44-3.09a3.26,3.26,0,0,1,.16-2.08l3.49-13.78C177.73,215.28,179.63,217.16,179.63,217.16Z"/><path class="cls-27" d="M180.38,215a1.5,1.5,0,0,0,0-3,1.5,1.5,0,0,0,0,3Z"/><path class="cls-4" d="M180,216.08a1.5,1.5,0,0,0,0-3,1.5,1.5,0,0,0,0,3Z"/><path class="cls-4" d="M182.62,215.91a1.5,1.5,0,0,0,0-3,1.5,1.5,0,0,0,0,3Z"/><path class="cls-4" d="M188.58,208.4a1.5,1.5,0,0,0,0-3,1.5,1.5,0,0,0,0,3Z"/><path class="cls-4" d="M184.26,208.35a.5.5,0,0,0,0-1,.5.5,0,0,0,0,1Z"/><path class="cls-4" d="M192.55,209.21a.5.5,0,0,0,0-1,.5.5,0,0,0,0,1Z"/><path class="cls-4" d="M192.47,206.76a1.5,1.5,0,0,0,0-3,1.5,1.5,0,0,0,0,3Z"/><path class="cls-4" d="M179.69,210.5a.5.5,0,0,0,0-1,.5.5,0,0,0,0,1Z"/><path class="cls-4" d="M194.62,208.43a.5.5,0,0,0,0-1,.5.5,0,0,0,0,1Z"/><path class="cls-27" d="M240.72,225.12c1.3-6.09-2.53-10.54-6.81-13.83h0s-12.9-6.13-16.27,1.44c0,0-5.31-.7-4.5,3.92h0c2.45,1.56,1.34,1,2.66,1.7"/><path class="cls-35" d="M235.24,212.16h0S222.33,206,219,213.6c0,0-5.32-.7-4.5,3.92h0c2.45,1.56,4.76,2.81,6.12,3.82,2.87,2.11,4,3.72,3.61,5.53-.74,3.44-4.95,4.41-9.11,4.25-5.73-.22-11.61-3.14-16.15-7.14,0-.09-.17-.09-.26-.1a.54.54,0,0,0-.53.42l-.85,3.79c0,.09.08.18.08.26,2.16,4.78,9.39,11.14,19.63,11.53s22.93-4.15,25-13.89C243.35,219.9,239.51,215.44,235.24,212.16Z"/><path class="cls-27" d="M487.79,196.67c-.57-6.21-5.56-9.31-10.62-11.18h0s-14.14-2-15.1,6.22c0,0-5.28.91-3.13,5.09h0c2.81.75,1.56.52,3,.82"/><path class="cls-36" d="M478.7,185.92h0s-14.15-2-15.11,6.22c0,0-5.28.91-3.13,5.09h0c2.81.76,5.34,1.28,6.94,1.84,3.37,1.16,5,2.33,5.14,4.18.32,3.51-3.41,5.69-7.43,6.78-5.54,1.49-12,.45-17.54-2,0-.09-.2,0-.28,0a.56.56,0,0,0-.39.56l.33,3.87c0,.08.13.14.15.22,3.48,3.92,12.34,7.95,22.23,5.28s20.76-10.69,19.88-20.62C488.92,191.11,483.76,187.79,478.7,185.92Z"/><path class="cls-1" d="M30.06,210.81C8.85,206,3.59,187.91,18.78,171.61a31.5,31.5,0,0,1,33.6-7.9c13.93,4.88,12.6,12.61,11.13,15.22-1.92,3.38-6.4,5.39-10,4.13s-4.83-5.1-2.85-8.64A8.49,8.49,0,0,1,52.8,172c-8.77-6.2-18.84,5.17-23,12.55s-6.09,16.82,8.25,20.29a42.39,42.39,0,0,0,17.82.08c.08,0,.28,0,.36,0,.24.08.27.28.18.52l-2,3.54c-.11.05-.14.14-.25.19C47.24,211.14,38.07,212.61,30.06,210.81Zm71.14,17.45c-3.82-.42-11.78-1.77-13-4.75a3.33,3.33,0,0,1,.42-2L95.11,205,83.2,202.55l-6.77,17.23c-.55,1.39-1,2.89-4.25,2.59-3.82-.42-11.78-1.77-13-4.75-.25-.49,0-1.16.33-2.06l14.16-36.2c.37-.9-.44-.89-1-.91a10.56,10.56,0,0,1-1.43.07c-.55.06-.74-.33-.68-.58a24.23,24.23,0,0,1,.94-4.24c.11-.51.47-.53.84-.63a32.73,32.73,0,0,1,12.55.15c3.47.8,7,1.95,7.64,3.86.34.51.11,1.17-.26,2.16l-6.79,17.32L97.48,199l7.13-18.13c.55-1.4,1-2.91,4.23-2.51,3.65.38,11.8,1.68,12.88,4.65.26.49,0,1.16-.34,2.15l-15.93,40.53C104.9,227.06,104.5,228.57,101.2,228.26Zm83.94,9.36c-3.84.06-11.91-.28-13.44-3.1a3.28,3.28,0,0,1,.15-2.07l10.74-42.3c.37-1.46.57-3,3.88-3,3.67-.08,11.92.19,13.36,3,.32.46.18,1.14-.07,2.17L189,234.51C188.66,236,188.45,237.52,185.14,237.62Zm12.25-9.49.84-3.79a.56.56,0,0,1,.54-.41c.09,0,.26,0,.26.1,4.54,4,10.42,6.91,16.15,7.14,4.16.16,8.37-.81,9.11-4.26.42-1.81-.74-3.42-3.61-5.53-4.31-3.2-18.17-8.78-16-19.12,2.53-11.46,12.66-15.06,22-14.7,9.55.36,14.47,3.33,17.16,5.87a5.78,5.78,0,0,1,1.79,5.28c-.42,1.81-2.42,6.34-7.53,6.14-4.86-.18-5.19-5.24-3.16-8.2-6.4-3.2-13.09-1-13.82,2.25-.75,3.62,2.49,5.22,6,7.88,4.31,3.21,17.13,8.83,14.9,19.25-2.11,9.74-14.8,14.29-25,13.9s-17.47-6.76-19.63-11.53C197.47,228.31,197.39,228.22,197.39,228.13Zm103.32-37.95-1.35,7.74a.85.85,0,0,1-.86.78l-15.28.09-6.46,37.9c-.25,1.48-.33,3-3.63,3.41-3.82.37-11.89.67-13.64-2a3.28,3.28,0,0,1,0-2.08l6.3-37-15.11.09c-.61.09-.78-.25-.79-.51s0-4.78.06-5.73c.08-.53.43-.7.86-.79,13.71-1.82,35.67-2.56,49.3-2.64A.62.62,0,0,1,300.71,190.18Zm143.44,24a.25.25,0,0,1-.13.29c-5.2,7.15-11.75,11.34-18.18,12.36-7.81,1.23-10-4.93-10.12-10.63L398.14,219l-2.75,4.3c-3.36,5.45-6.59,9.48-10.36,10.07-3.52.56-6.39-2.59-8.21-8-.12-.16.11-.37.28-.4l3.86-.61a.6.6,0,0,1,.49.28c.49.89,1,1.33,1.7,1.31,1.78.16,3.15-1.73,4.5-3.78l27.24-43c1.17-2,2-2.59,5.05-3.08,3.51-.64,11.05-.16,13.1,2.24.5.36.52,1.06.51,2.12L433,211.08c-.13,3.63,1.24,4.55,2.79,4.31,2.14-.34,5.56-3.17,7.68-5.35a.75.75,0,0,1,.33-.14c.26,0,.37.12.41.38Zm-28.38-4.4.29-19.3-13.42,21.37Zm-36.74,15c0,.09-.07.18-.15.27-5.89,6.68-12.78,10.29-19.19,10.73-8.58.6-9.71-6.89-9.08-12.86l2.1-20-14.2,27.45c-.22.54-.54,1-1.06,1a51.74,51.74,0,0,1-7.19.5c-.61,0-.72-.39-.93-.89l-8.62-26.39c-.3-.59-.43-1.19-.64-1.7l-3.48,32.63c-.16,1.49-.22,3.06-3.41,3.63-3.78.61-11.82,1.43-13.74-1.14-.38-.41-.34-1.11-.23-2.07l3.6-34.63c.16-1.49.3-3.16,3.41-3.63a39,39,0,0,1,10.49-.47c-5.57-6.32-12.22-1.76-16-.55a.57.57,0,0,1-.82-.46,24.33,24.33,0,0,1-.21-4.25c0-.52.3-.72.64-.92,5.06-2.35,8.88-3.66,12.26-3.89,14-1,15.61,8,18,16.77L335,221.21l18-34.93c1.26-1.92,2.1-2.41,5.3-2.72,3.63-.34,11,.8,12.94,3.36a3.67,3.67,0,0,1,.15,2.17l-3.29,31.65c-.44,3.6.85,4.64,2.49,4.53,2.17-.15,5.82-2.67,8.12-4.66a.57.57,0,0,1,.34-.11c.26,0,.36.15.38.41Zm68.31-12.35-.31-3.87a.54.54,0,0,1,.4-.55c.08,0,.25-.07.27,0,5.51,2.5,12,3.57,17.53,2.1,4-1.06,7.77-3.22,7.47-6.73-.13-1.85-1.7-3-5.07-4.23-5.06-1.81-19.94-3.08-20.85-13.62-.93-11.7,7.7-18.11,16.77-20.51,9.23-2.44,14.81-1,18.12.6a5.77,5.77,0,0,1,3.26,4.52c.13,1.86-.46,6.77-5.41,8.08-4.7,1.24-6.49-3.49-5.42-6.92-7.05-1.19-12.81,2.85-12.55,6.2.34,3.68,3.91,4.26,8.08,5.76,5.05,1.81,19,3.43,19.88,14.05.83,9.93-10,18-19.88,20.62s-18.68-1.35-22.14-5.28C447.47,212.57,447.36,212.5,447.34,212.42ZM168.18,227c0,.08-.11.16-.2.23-2.43,2.68-8.09,9-16,9.18-16.5.45-14.32-21.15-13.79-27l-.43-.05-6,19.74c-.44,1.43-.8,3-4,2.92-3.83-.11-11.88-.82-13.28-3.7a3.13,3.13,0,0,1,.16-2.08l9.64-32c.44-1.44.88-3,4-2.93,3.82.2,11.88.83,13.28,3.71a2.63,2.63,0,0,1-.08,2.09l-2.28,7.33c8.24.56,13.66-2.28,14-8.27.42-8.52-21.64-6.9-28.35-6.4-.71.09-.76-.27-.81-.54a34.84,34.84,0,0,1,.52-4.31.91.91,0,0,1,1-.67c12.86-2.21,22.16-2.48,28.7-1.6,16.2,2,16,11,14.67,15.41-1.16,3.8-7.77,10.7-22.21,11.49.89,4.22,2.56,15.79,10.57,16.76,2.93.35,6.48-.09,11.35-3.44a.64.64,0,0,1,.36-.05c.25,0,.32.22.29.48Z"/><circle class="cls-27" cx="140.67" cy="214.08" r="1.96"/><circle class="cls-27" cx="144.63" cy="220.06" r="1.96"/><path class="cls-4" d="M140.5,216.35c2.55,0,2.55-4,0-4s-2.56,4,0,4Z"/><path class="cls-37" d="M148.9,218.35c1.5,4,4,7.73,8.41,8.26,2.93.35,6.48-.09,11.34-3.44a.72.72,0,0,1,.36,0c.26,0,.32.21.29.47l-1.15,3.71c0,.09-.1.16-.2.24-2.42,2.68-8.08,9-16,9.17-12.9.36-14.38-12.77-14.16-21.33a6,6,0,0,1,6.22,4.34.49.49,0,0,0,.84.12h0a4.06,4.06,0,0,1,3.95-1.53h0"/><path class="cls-27" d="M109.79,214.48a1,1,0,0,0-.58-1.09.78.78,0,0,0-.22,0,1.66,1.66,0,0,0-1.63-1.33,1.63,1.63,0,0,0-.59.11,2.22,2.22,0,0,0-1.74-1.45s0-.09,0-.13a2.67,2.67,0,0,0-4.66-1.8,2.14,2.14,0,0,0-3.41-.07,1.75,1.75,0,0,0-3.17-.15l0,0-2.58,6.61-2.08,5.32a3.28,3.28,0,0,0-.41,2c1.16,3,9.13,4.33,12.94,4.75,3.3.32,3.7-1.2,4.25-2.59l3.8-9.82c0-.05.07-.08.08-.13s0-.11,0-.17v0Z"/><path class="cls-27" d="M80.71,208.13a2.15,2.15,0,0,0-3.87-1.29,1.32,1.32,0,0,0-.44-.08,1.37,1.37,0,0,0-1,.43,1.8,1.8,0,0,0-3.09-.9,2.31,2.31,0,0,0-4.06-.13,1.65,1.65,0,0,0-2.51.27,1.68,1.68,0,0,0-1.38-.73c-1.27,0-1.52,1.46-1.85,2.3L60,214.74c-.36.9-.73,1.52-.48,2,1.17,3,9.13,4.33,13,4.75,3.22.3,3.7-1.2,4.25-2.6l1.22-3.1,2.85-7.09h-.06A2.21,2.21,0,0,0,80.71,208.13Z"/><path class="cls-38" d="M80.45,209.14a2.15,2.15,0,0,0-3.87-1.29,1.32,1.32,0,0,0-.44-.08,1.37,1.37,0,0,0-1,.43,1.81,1.81,0,0,0-1.78-1.47,1.83,1.83,0,0,0-1.32.57,2.31,2.31,0,0,0-4-.13,1.67,1.67,0,0,0-1.14-.46,1.64,1.64,0,0,0-1.37.73,1.66,1.66,0,0,0-1.38-.73,1.64,1.64,0,0,0-1.63,1.49l-2.94,7.51c-.36.9-.58,1.56-.33,2.06,1.17,3,9.13,4.33,12.95,4.75,3.22.3,3.7-1.2,4.25-2.6l1.22-3.1,2.8-7.14h-.06A2,2,0,0,0,80.45,209.14Z"/><path class="cls-39" d="M109.35,215.67a1,1,0,0,0-.58-1.09.85.85,0,0,0-.22,0,1.67,1.67,0,0,0-2.23-1.23,2.22,2.22,0,0,0-1.73-1.45s0-.08,0-.13a2.68,2.68,0,0,0-2.69-2.68,2.65,2.65,0,0,0-2,.88,2.18,2.18,0,0,0-1.74-.88,2.14,2.14,0,0,0-1.68.82,1.74,1.74,0,0,0-3.16-.16l0,0-2.59,6.61-2.07,5.32a3.3,3.3,0,0,0-.42,2c1.17,3,9.13,4.33,13,4.75,3.3.32,3.7-1.2,4.25-2.59l3.8-9.82s.06-.08.08-.12a1.22,1.22,0,0,0,0-.17v0Z"/><path class="cls-27" d="M29,208.42c-12.69-2.91-19.28-10.85-18.71-20.19a2.13,2.13,0,0,1,0-.25,2.29,2.29,0,0,1,4.56-.37,2.24,2.24,0,0,1,.52-.06,2.47,2.47,0,0,1,2.46,2.37,1.76,1.76,0,0,1,.46-.06,2,2,0,0,1,2,2s0,.07,0,.1a2.12,2.12,0,0,1,.62-.1,2,2,0,0,1,2,1.85,2.2,2.2,0,0,1,.77-.15,2.05,2.05,0,0,1,2.05,2s.07,1.14.07,1.16l1.36,1.6.5.38"/><path class="cls-40" d="M56.22,204.91c-.08,0-.28,0-.36,0A42.39,42.39,0,0,1,38,204.79c-6.11-1.48-9.27-4-10.56-7l-.9-.48v0a2.17,2.17,0,0,0-2.18-2.18,2.26,2.26,0,0,0-.82.16,2.17,2.17,0,0,0-2.16-2,2.08,2.08,0,0,0-.66.12.5.5,0,0,0,0-.12,2.19,2.19,0,0,0-2.18-2.18,2.63,2.63,0,0,0-.49.06,2.63,2.63,0,0,0-2.62-2.52,2.51,2.51,0,0,0-.55.06,2.45,2.45,0,0,0-4.86.4,2.48,2.48,0,0,0,0,.27c-.6,9.94,6.41,18.39,19.93,21.49,8,1.8,17.18.33,24.13-1.65.12,0,.14-.14.26-.19l2-3.54C56.49,205.19,56.46,205,56.22,204.91Z"/><path class="cls-27" d="M272.1,225.85a1.27,1.27,0,0,0-1.13-.72,1.55,1.55,0,0,0-.31.06c-.7-2.11-2.84-6.07-8.74-3.64l-2.31,13.57a3.32,3.32,0,0,0,0,2.09c1.75,2.68,9.82,2.37,13.64,2,3.3-.37,3.38-1.93,3.63-3.41l1.43-8.41S276.41,224.07,272.1,225.85Z"/><path class="cls-41" d="M271.93,226.88a1.26,1.26,0,0,0-1.13-.71,1.07,1.07,0,0,0-.31.06c-.7-2.12-2.84-6.07-8.74-3.65l-2.31,13.58a3.3,3.3,0,0,0,0,2.08c1.76,2.69,9.83,2.38,13.65,2,3.3-.37,3.37-1.93,3.62-3.41l1.44-8.41S276.24,225.11,271.93,226.88Z"/><path class="cls-42" d="M311.56,226.05a6.69,6.69,0,0,1,1.58-.08,4.42,4.42,0,0,1,3.95,4.92l-.5,4.68c-.16,1.5-.22,3.07-3.41,3.64-3.78.61-11.82,1.43-13.74-1.14-.38-.41-.34-1.11-.23-2.07l.77-7.43a4.43,4.43,0,0,1,4.39-4,12.81,12.81,0,0,1,4.68,1.15A4.61,4.61,0,0,0,311.56,226.05Z"/><path class="cls-43" d="M117,218.8a12.39,12.39,0,0,1,12.13-2.17s1.91-6.1,8-4.87l-5.24,17.67c-.44,1.43-.8,3-4,2.92-3.83-.11-11.88-.82-13.28-3.71a3.1,3.1,0,0,1,.16-2.07L117,218.8"/><path class="cls-44" d="M343.11,221.41l-4.53,9.15c-.22.54-.54,1-1.06,1a50.22,50.22,0,0,1-7.19.49c-.6,0-.72-.38-.93-.89L328,226.76s1.35-5.62,7.13-3.12C335.08,223.64,338.72,217.48,343.11,221.41Z"/><path class="cls-27" d="M359.85,234.62c-8.57.59-10.16-7-9.07-12.86,0,0,4-3.6,8.07-.11a3,3,0,0,0,4.13-.11,6.52,6.52,0,0,1,3.21-1.92,1.5,1.5,0,0,1,1.85,1.61c-.2,2.58.7,4.26,2,4.16"/><path class="cls-45" d="M365.93,220.82a1.71,1.71,0,0,1,2,1.64c.1,2.25,1.42,2.71,2.6,2.75,2.55-.32,5.79-2.57,8.09-4.56a.5.5,0,0,1,.34-.11c.26,0,.36.15.37.41l-.42,3.86a.52.52,0,0,1-.16.27c-5.89,6.67-12.78,10.28-19.19,10.73-8.57.6-9.7-6.9-9.07-12.86,0,0,4-3.6,8.07-.11a3,3,0,0,0,4.13-.1A6.37,6.37,0,0,1,365.93,220.82Z"/><path class="cls-27" d="M389.24,220.25l6.22-10.5s2.67-3.44,5.15,2.87c.1.26.38,1.3.63,1.18,2.93-1.38,4.19-2.85,12.48-1.36a.45.45,0,0,0,.48-.11,5.07,5.07,0,0,1,5.27-1.91s5.2-5.51,13.51-.89c-.13,3.62-.63,6.59.91,6.34l-21.15-.77-12.6,1.29-6.35,2.89Z"/><path class="cls-46" d="M433,211.06c-.13,3.62,1.24,4.55,2.79,4.31,2.14-.34,5.56-3.17,7.68-5.35a.75.75,0,0,1,.33-.14c.26,0,.37.12.41.38l-.09,3.88a.24.24,0,0,1-.13.28c-5.2,7.15-11.75,11.35-18.18,12.36-7.81,1.24-10-4.92-10.12-10.62l-17.58,2.77-2.75,4.31c-3.36,5.45-6.59,9.47-10.36,10.07-3.52.55-6.39-2.6-8.21-8-.12-.16.11-.37.29-.4l3.86-.61a.56.56,0,0,1,.48.28c.49.89,1,1.33,1.7,1.31,1.78.16,3.16-1.73,4.5-3.79l6.6-10.41s3.22-3.64,5.7,2.67a.41.41,0,0,0,.63.18c1.24-1,5.27-3.4,12.48-.36a.4.4,0,0,0,.48-.12,5.1,5.1,0,0,1,5.27-1.91S424.7,206.44,433,211.06Z"/><path class="cls-47" d="M124.63,154.63l-2.68,8.5-9.59-2.4,7.21-31.28,12.06,2.82-.68,4.44c-2.69,13.45,10.23,19.33,20.17,20.62,8.8,1.13,15.91-.89,16.75-7.42.95-7.35-3.17-8.83-22.56-16.81-15.72-6.25-24.67-12.78-22.83-27,1.58-12.22,12.16-21.59,32.56-19,11.39,1.48,20,6.69,24.82,13.22l2.91-8.68,9.38,2.37-6.39,27.39-12.18-2.63.42-2.47c2.07-11.11-9.47-16.28-18.27-17.42-6.53-.85-13.24.6-14,6.5s2.81,7.53,22.11,15.39,25.07,13.77,23.44,26.3c-1.9,14.7-13.18,23.77-34.61,21C139.52,166.46,129.87,161.31,124.63,154.63Z"/><path class="cls-47" d="M258.2,176.11l-14.64-61.94-10.11-2.44,1.54-8.26,39.92,5.17L274.3,117l-12.89-.64,11.58,50,23.8-45.22-12.6-2.85,1.54-8.26,33.64,4.35-.61,8.38h-11l-29.69,55.92Z"/><path class="cls-48" d="M122.44,152.91l-2.67,8.49-9.59-2.4,7.21-31.28,12,2.83-.68,4.44c-2.68,13.44,10.24,19.32,20.18,20.61,8.8,1.14,15.91-.89,16.75-7.41.95-7.35-3.17-8.84-22.56-16.82-15.72-6.24-24.67-12.77-22.83-27,1.58-12.21,12.16-21.58,32.56-18.94,11.39,1.47,20,6.69,24.82,13.21L180.59,90,190,92.38l-6.39,27.38-12.19-2.63.43-2.47c2.07-11.1-9.47-16.28-18.27-17.42-6.53-.84-13.24.6-14,6.51s2.82,7.52,22.12,15.39,25.06,13.77,23.44,26.3c-1.9,14.7-13.18,23.77-34.61,21C137.34,164.73,127.69,159.59,122.44,152.91Z"/><path class="cls-49" d="M256,174.38l-14.63-61.94L231.27,110l1.54-8.26,39.92,5.17-.61,8.38-12.89-.63,11.58,50,23.8-45.22L282,116.57l1.54-8.26,33.64,4.35-.62,8.38h-11L275.88,177Z"/><path class="cls-48" d="M256,174.27l-14.63-61.94-10.11-2.43,1.54-8.26,39.92,5.17-.61,8.37-12.89-.63,11.58,50,23.8-45.23L282,116.46l1.54-8.26,33.64,4.36-.62,8.38-11,0-29.7,55.93Z"/><g class="cls-50"><path class="cls-22" d="M199.64,156.73l-26.39-3.41.49-6.67,8.36,0,19.69-37.21L191.7,107.2l1.39-6.7,40.8,5.28-.37,6.83-10-.55,9.73,41.47,7.61,1.81-1.22,6.57-31.39-4.07.49-6.66,10.69.56-2-9-22.49-2.91-4.27,8.12,10.25,2.22Zm10.52-45.5-.29,0-11.52,22,17.35,2.25Z"/></g><path class="cls-51" d="M256,174.36l-14.63-61.94L231.27,110l1.54-8.26,39.92,5.16-.61,8.38-12.89-.63,11.58,50,23.8-45.23L282,116.55l1.54-8.26,33.64,4.36-.62,8.38-11,0-29.7,55.92Z"/><path class="cls-52" d="M122.44,152.65l-2.68,8.49-9.59-2.39,7.21-31.29,12.06,2.83-.68,4.44c-2.69,13.44,10.23,19.32,20.17,20.61,8.8,1.14,15.91-.89,16.75-7.41,1-7.35-3.17-8.84-22.56-16.82-15.72-6.24-24.66-12.77-22.83-27,1.58-12.21,12.16-21.58,32.56-18.94,11.39,1.47,20,6.69,24.82,13.21l2.91-8.68L190,92.12l-6.39,27.38-12.18-2.63.42-2.47c2.07-11.1-9.47-16.28-18.27-17.42-6.52-.84-13.24.6-14,6.51s2.81,7.52,22.11,15.39,25.07,13.77,23.44,26.3c-1.9,14.7-13.18,23.77-34.61,21C137.33,164.47,127.68,159.33,122.44,152.65Z"/><g class="cls-53"><path class="cls-22" d="M289.29,172.11l10.83,0,6.2-47.94-10.48-2.73,1.51-8.07,62.75,8.12-5.73,25.15-10.77-1.95,2.74-14.79L323,126.44l-2.28,17.61,16.85,1.72-1.41,10.93L319.45,154l-2.62,20.23,23.45,2.57,1.46-17.71,11.11.7-1.32,28.66-62.84-8.13Z"/></g><path class="cls-47" d="M203.39,161.89,177,158.47l.48-6.66,8.37,0,19.69-37.22-10.1-2.27,1.39-6.7,40.8,5.28-.36,6.83-10-.55L237,158.69l7.62,1.81-1.23,6.56L212,163l.48-6.66,10.69.56-2-9L198.63,145l-4.26,8.12,10.25,2.22Zm10.53-45.5-.3,0-11.51,22,17.35,2.24Z"/><path class="cls-48" d="M201.21,160.16l-26.39-3.41.49-6.66,8.37,0,19.69-37.21-10.1-2.28,1.39-6.7,40.8,5.28L235.1,116l-10-.55L234.81,157l7.62,1.81-1.23,6.57-31.39-4.06.49-6.67,10.69.56-2.05-9-22.49-2.91-4.26,8.12,10.25,2.23Zm10.52-45.5-.29,0-11.51,22,17.34,2.25Z"/><path class="cls-54" d="M201.21,160.15l-26.39-3.42.48-6.66,8.37,0,19.69-37.21-10.09-2.28,1.39-6.69,40.79,5.28-.36,6.82-10-.54,9.73,41.46,7.62,1.81-1.23,6.57-31.38-4.06.48-6.66,10.69.56-2-9-22.5-2.91-4.26,8.11,10.25,2.23Zm10.52-45.5-.3,0-11.51,22,17.35,2.24Z"/><path class="cls-47" d="M291.74,176.26l10.83,0,6.2-47.94-10.48-2.73,1.5-8.07,62.76,8.12-5.73,25.15-10.77-1.95,2.74-14.79-23.33-3.48-2.28,17.61L340,149.92l-1.42,10.93-16.72-2.72-2.62,20.23,23.45,2.57,1.46-17.71,11.11.7L354,192.58l-62.84-8.14Z"/><path class="cls-48" d="M291.92,174.84l10.83,0,6.2-47.94-10.48-2.73,1.51-8.07,62.75,8.12L357,149.39l-10.77-1.95L349,132.65l-23.32-3.48-2.28,17.61,16.85,1.72-1.41,10.93-16.73-2.72-2.61,20.23,23.44,2.57,1.47-17.71,11.1.7-1.32,28.66L291.32,183Z"/><path class="cls-55" d="M291.69,174.84l10.83,0,6.21-47.94-10.48-2.73,1.5-8.07,62.75,8.12-5.73,25.15L346,147.44l2.74-14.79-23.33-3.48-2.28,17.61L340,148.5l-1.41,10.93-16.73-2.72-2.61,20.23,23.44,2.57,1.47-17.71,11.11.7-1.32,28.66L291.09,183Z"/></svg>