<svg id="Layer_1" data-name="Layer 1" xmlns="http://www.w3.org/2000/svg" xmlns:xlink="http://www.w3.org/1999/xlink" viewBox="0 0 250 50"><defs><style>.cls-1{fill:url(#linear-gradient);}.cls-2{fill:#fff;}</style><linearGradient id="linear-gradient" x1="125" y1="50" x2="125" gradientUnits="userSpaceOnUse"><stop offset="0" stop-color="#ffa08e"/><stop offset="0.08" stop-color="#ff8776"/><stop offset="0.21" stop-color="#ff6554"/><stop offset="0.33" stop-color="#ff4c3c"/><stop offset="0.45" stop-color="#ff3d2e"/><stop offset="0.54" stop-color="#ff3829"/><stop offset="0.62" stop-color="#ff3d2e"/><stop offset="0.71" stop-color="#ff4d3d"/><stop offset="0.82" stop-color="#ff6656"/><stop offset="0.94" stop-color="#ff8978"/><stop offset="1" stop-color="#ffa08e"/></linearGradient></defs><title>Level 8 Complete</title><rect class="cls-1" width="250" height="50" rx="25"/><path class="cls-2" d="M29.49,32.21a.21.21,0,0,1-.21-.21l.12-8.19-.12-8.18a.21.21,0,0,1,.21-.22h3.29a.22.22,0,0,1,.22.22l-.1,8,.1,5.9h6.81a.22.22,0,0,1,.22.22V32a.21.21,0,0,1-.22.21Z"/><path class="cls-2" d="M52.8,28a.18.18,0,0,1,.19.21c-.31,2.26-2.47,4.27-5.93,4.27-4.13,0-6.36-2.71-6.36-6.45,0-3.94,2.35-6.53,6.29-6.53s6.31,2.69,6.38,7a.21.21,0,0,1-.21.21H44.33c.14,2.33,1.05,3.36,2.78,3.36a2.26,2.26,0,0,0,2.4-1.87.27.27,0,0,1,.26-.21ZM47,21.91c-1.44,0-2.3.87-2.59,2.57h5.07A2.54,2.54,0,0,0,47,21.91Z"/><path class="cls-2" d="M61.85,32a.36.36,0,0,1-.29.2H57.74a.36.36,0,0,1-.29-.2L53.28,20c-.05-.09,0-.19.14-.19h3.46a.35.35,0,0,1,.29.22l2.64,9.12,2.9-9.12a.35.35,0,0,1,.29-.22h3a.14.14,0,0,1,.14.19Z"/><path class="cls-2" d="M78.12,28a.18.18,0,0,1,.19.21c-.31,2.26-2.47,4.27-5.93,4.27-4.13,0-6.36-2.71-6.36-6.45,0-3.94,2.35-6.53,6.29-6.53s6.31,2.69,6.38,7a.21.21,0,0,1-.21.21H69.65c.14,2.33,1,3.36,2.78,3.36a2.26,2.26,0,0,0,2.4-1.87.27.27,0,0,1,.26-.21Zm-5.79-6.13c-1.44,0-2.3.87-2.59,2.57h5.07A2.54,2.54,0,0,0,72.33,21.91Z"/><path class="cls-2" d="M80.44,32.21a.21.21,0,0,1-.21-.21l.09-8.19-.09-8.18a.21.21,0,0,1,.21-.22h3.15a.21.21,0,0,1,.21.22l-.09,8.18L83.8,32a.21.21,0,0,1-.21.21Z"/><path class="cls-2" d="M97.17,32.55c-3.6,0-6.43-1.85-6.43-5.14a4.18,4.18,0,0,1,3.14-4.08,3.86,3.86,0,0,1-2.68-3.74c0-2.93,2.16-4.54,6-4.54s5.93,1.61,6,4.54a4,4,0,0,1-2.71,3.74,4.19,4.19,0,0,1,3.17,4.08C103.63,30.7,100.8,32.55,97.17,32.55Zm0-2.45a2.74,2.74,0,0,0,2.88-2.81,2.89,2.89,0,0,0-5.76,0A2.74,2.74,0,0,0,97.17,30.1Zm0-7.73A2.28,2.28,0,0,0,99.62,20a2.45,2.45,0,1,0-4.9,0A2.28,2.28,0,0,0,97.17,22.37Z"/><path class="cls-2" d="M118.29,32.57c-5.16,0-8.35-3.57-8.35-8.69,0-5.35,3.26-8.83,8.33-8.83,3.62,0,6.55,1.49,7.51,6a.16.16,0,0,1-.17.21h-3.14a.27.27,0,0,1-.26-.21,3.77,3.77,0,0,0-4-3.17c-2.93,0-4.51,2.25-4.51,6s1.63,5.9,4.49,5.9c2.35,0,3.62-1.27,4-3.55a.29.29,0,0,1,.27-.21h3.21a.16.16,0,0,1,.17.21C125,30.8,122.23,32.57,118.29,32.57Z"/><path class="cls-2" d="M133.41,32.52c-4,0-6.36-2.52-6.36-6.45s2.33-6.53,6.36-6.53,6.31,2.52,6.31,6.46S137.44,32.52,133.41,32.52Zm0-2.4c1.78,0,2.62-1.22,2.62-4.05s-.87-4.13-2.64-4.13-2.67,1.37-2.67,4.15S131.61,30.12,133.41,30.12Z"/><path class="cls-2" d="M144.84,27.77l.07,4.23a.21.21,0,0,1-.22.21H141.4a.21.21,0,0,1-.21-.21l.07-4.23,0-7.7a.21.21,0,0,1,.21-.22h3.07a.22.22,0,0,1,.22.22l-.07,1.34a4.09,4.09,0,0,1,3.55-1.85,3.42,3.42,0,0,1,3.53,2.33,3.92,3.92,0,0,1,3.77-2.33c2.49,0,3.93,1.51,3.93,4.8v3.41L159.5,32a.21.21,0,0,1-.21.21H156a.21.21,0,0,1-.21-.21l.07-4.23V24.41c0-1.49-.6-2.21-1.58-2.21s-2.19,1.32-2.19,3.84v1.73l.08,4.23a.21.21,0,0,1-.22.21h-3.24a.21.21,0,0,1-.22-.21l.07-4.23V24.41c0-1.49-.57-2.21-1.58-2.21s-2.18,1.32-2.18,3.84Z"/><path class="cls-2" d="M168.24,32.45a4.46,4.46,0,0,1-3.53-1.51l0,5.14a.21.21,0,0,1-.22.21H161.3a.21.21,0,0,1-.22-.21l.08-8.88-.08-7.13a.22.22,0,0,1,.22-.22h3.22a.21.21,0,0,1,.21.22l-.07,1.22a4.52,4.52,0,0,1,3.65-1.68c3.5,0,5.35,2.78,5.35,6.39S171.6,32.45,168.24,32.45Zm-1-2.42c1.82,0,2.76-1.32,2.76-3.84,0-2.74-.94-4.13-2.69-4.13s-2.69,1.32-2.71,3.89S165.5,30,167.23,30Z"/><path class="cls-2" d="M175.43,32.21a.21.21,0,0,1-.21-.21l.09-8.19-.09-8.18a.21.21,0,0,1,.21-.22h3.15a.21.21,0,0,1,.21.22l-.09,8.18.09,8.19a.21.21,0,0,1-.21.21Z"/><path class="cls-2" d="M192.45,28a.18.18,0,0,1,.19.21c-.31,2.26-2.47,4.27-5.93,4.27-4.12,0-6.36-2.71-6.36-6.45,0-3.94,2.36-6.53,6.29-6.53s6.32,2.69,6.39,7a.21.21,0,0,1-.22.21H184c.14,2.33,1.06,3.36,2.78,3.36a2.25,2.25,0,0,0,2.4-1.87.29.29,0,0,1,.27-.21Zm-5.78-6.13c-1.44,0-2.31.87-2.59,2.57h5.06A2.53,2.53,0,0,0,186.67,21.91Z"/><path class="cls-2" d="M201.69,31.76a.32.32,0,0,1-.19.28,7.12,7.12,0,0,1-2.26.41c-2.08,0-4.08-1.05-4.08-3.86l0-6.2h-1.4a.21.21,0,0,1-.21-.21V20.07a.21.21,0,0,1,.21-.22h1.4l0-2.88a.22.22,0,0,1,.22-.22h3.19a.22.22,0,0,1,.22.22l0,2.88h2.74a.22.22,0,0,1,.22.22v2.11a.21.21,0,0,1-.22.21h-2.76l0,6.1c0,1.06.53,1.39,1.32,1.39a4.39,4.39,0,0,0,1.4-.21.17.17,0,0,1,.21.17Z"/><path class="cls-2" d="M214.53,28a.18.18,0,0,1,.19.21c-.31,2.26-2.47,4.27-5.93,4.27-4.12,0-6.36-2.71-6.36-6.45,0-3.94,2.36-6.53,6.29-6.53s6.32,2.69,6.39,7a.21.21,0,0,1-.22.21h-8.83c.14,2.33,1.06,3.36,2.78,3.36a2.25,2.25,0,0,0,2.4-1.87.29.29,0,0,1,.27-.21Zm-5.78-6.13c-1.44,0-2.31.87-2.59,2.57h5.06A2.53,2.53,0,0,0,208.75,21.91Z"/><path class="cls-2" d="M216.81,27.34a.22.22,0,0,1-.22-.22V15.63a.22.22,0,0,1,.22-.22H220a.21.21,0,0,1,.21.22V27.12a.21.21,0,0,1-.21.22Zm0,4.87a.21.21,0,0,1-.22-.21V29a.21.21,0,0,1,.22-.21H220a.21.21,0,0,1,.21.21v3a.21.21,0,0,1-.21.21Z"/></svg>