<svg id="Layer_1" data-name="Layer 1" xmlns="http://www.w3.org/2000/svg" xmlns:xlink="http://www.w3.org/1999/xlink" viewBox="0 0 250 50"><defs><style>.cls-1{fill:url(#linear-gradient);}.cls-2{fill:#fff;}</style><linearGradient id="linear-gradient" x1="125" y1="50" x2="125" gradientUnits="userSpaceOnUse"><stop offset="0" stop-color="#ffa08e"/><stop offset="0.08" stop-color="#ff8776"/><stop offset="0.21" stop-color="#ff6554"/><stop offset="0.33" stop-color="#ff4c3c"/><stop offset="0.45" stop-color="#ff3d2e"/><stop offset="0.54" stop-color="#ff3829"/><stop offset="0.62" stop-color="#ff3d2e"/><stop offset="0.71" stop-color="#ff4d3d"/><stop offset="0.82" stop-color="#ff6656"/><stop offset="0.94" stop-color="#ff8978"/><stop offset="1" stop-color="#ffa08e"/></linearGradient></defs><title>Level 7 Complet</title><rect class="cls-1" width="250" height="50" rx="25"/><path class="cls-2" d="M30.43,32.59a.21.21,0,0,1-.21-.22l.12-8.18L30.22,16a.21.21,0,0,1,.21-.21h3.29a.21.21,0,0,1,.22.21l-.1,8,.1,5.91h6.81a.21.21,0,0,1,.22.21v2.28a.22.22,0,0,1-.22.22Z"/><path class="cls-2" d="M53.74,28.41a.18.18,0,0,1,.19.22c-.31,2.26-2.47,4.27-5.93,4.27-4.13,0-6.36-2.71-6.36-6.45,0-3.94,2.35-6.53,6.29-6.53s6.31,2.68,6.38,7a.21.21,0,0,1-.21.21H45.27c.14,2.33,1,3.36,2.78,3.36a2.26,2.26,0,0,0,2.4-1.87.28.28,0,0,1,.26-.22ZM48,22.29c-1.44,0-2.3.87-2.59,2.57h5.07A2.54,2.54,0,0,0,48,22.29Z"/><path class="cls-2" d="M62.79,32.42a.35.35,0,0,1-.29.19H58.68a.35.35,0,0,1-.29-.19l-4.17-12c0-.1,0-.19.14-.19h3.46a.33.33,0,0,1,.29.21l2.64,9.13,2.9-9.13a.33.33,0,0,1,.29-.21h3a.15.15,0,0,1,.15.19Z"/><path class="cls-2" d="M79.06,28.41a.18.18,0,0,1,.19.22c-.31,2.26-2.47,4.27-5.93,4.27-4.13,0-6.36-2.71-6.36-6.45,0-3.94,2.35-6.53,6.29-6.53s6.31,2.68,6.38,7a.21.21,0,0,1-.21.21H70.59c.14,2.33,1,3.36,2.78,3.36a2.26,2.26,0,0,0,2.4-1.87.29.29,0,0,1,.26-.22Zm-5.79-6.12c-1.44,0-2.3.87-2.59,2.57h5.07A2.54,2.54,0,0,0,73.27,22.29Z"/><path class="cls-2" d="M81.38,32.59a.21.21,0,0,1-.21-.22l.09-8.18L81.17,16a.21.21,0,0,1,.21-.21h3.15a.21.21,0,0,1,.22.21l-.1,8.19.1,8.18a.22.22,0,0,1-.22.22Z"/><path class="cls-2" d="M97.85,32.4a.23.23,0,0,1-.24.21H94.25a.19.19,0,0,1-.19-.21,40.89,40.89,0,0,1,4.51-13.9H91.63a.21.21,0,0,1-.21-.22V16a.21.21,0,0,1,.21-.21h10.66a.21.21,0,0,1,.22.21v2.36a1.18,1.18,0,0,1-.1.4A44.37,44.37,0,0,0,97.85,32.4Z"/><path class="cls-2" d="M116.93,33c-5.16,0-8.35-3.58-8.35-8.69,0-5.35,3.26-8.83,8.33-8.83,3.62,0,6.55,1.49,7.51,6a.17.17,0,0,1-.17.22h-3.14a.3.3,0,0,1-.27-.22,3.76,3.76,0,0,0-4-3.16c-2.93,0-4.52,2.25-4.52,6s1.64,5.9,4.49,5.9c2.36,0,3.63-1.27,4.06-3.55a.28.28,0,0,1,.26-.22h3.22a.17.17,0,0,1,.17.22C123.63,31.17,120.87,33,116.93,33Z"/><path class="cls-2" d="M132.05,32.9c-4,0-6.36-2.52-6.36-6.45s2.33-6.53,6.36-6.53,6.31,2.52,6.31,6.45S136.08,32.9,132.05,32.9Zm0-2.4c1.78,0,2.62-1.22,2.62-4.05s-.87-4.13-2.64-4.13-2.67,1.36-2.67,4.15S130.25,30.5,132.05,30.5Z"/><path class="cls-2" d="M143.47,28.15l.07,4.22a.21.21,0,0,1-.21.22H140a.22.22,0,0,1-.22-.22l.08-4.22,0-7.71a.21.21,0,0,1,.22-.21h3.07a.21.21,0,0,1,.22.21l-.08,1.35a4.1,4.1,0,0,1,3.56-1.85,3.42,3.42,0,0,1,3.53,2.33,3.92,3.92,0,0,1,3.76-2.33c2.5,0,3.94,1.51,3.94,4.8v3.41l0,4.22a.22.22,0,0,1-.22.22h-3.24a.21.21,0,0,1-.21-.22l.07-4.22V24.79c0-1.49-.6-2.21-1.59-2.21s-2.18,1.32-2.18,3.84v1.73l.07,4.22a.21.21,0,0,1-.21.22h-3.25a.22.22,0,0,1-.21-.22l.07-4.22V24.79c0-1.49-.57-2.21-1.58-2.21s-2.19,1.32-2.19,3.84Z"/><path class="cls-2" d="M166.87,32.83a4.46,4.46,0,0,1-3.53-1.51l0,5.13a.21.21,0,0,1-.21.22h-3.24a.22.22,0,0,1-.22-.22l.07-8.88-.07-7.13a.21.21,0,0,1,.22-.21h3.21a.21.21,0,0,1,.22.21l-.07,1.23A4.5,4.5,0,0,1,166.94,20c3.51,0,5.36,2.78,5.36,6.38S170.23,32.83,166.87,32.83Zm-1-2.42c1.83,0,2.77-1.32,2.77-3.84,0-2.74-.94-4.13-2.69-4.13s-2.69,1.32-2.72,3.89S164.14,30.41,165.86,30.41Z"/><path class="cls-2" d="M174.07,32.59a.21.21,0,0,1-.21-.22l.09-8.18L173.86,16a.21.21,0,0,1,.21-.21h3.15a.21.21,0,0,1,.21.21l-.09,8.19.09,8.18a.21.21,0,0,1-.21.22Z"/><path class="cls-2" d="M191.09,28.41a.19.19,0,0,1,.19.22c-.31,2.26-2.47,4.27-5.93,4.27-4.13,0-6.36-2.71-6.36-6.45,0-3.94,2.35-6.53,6.29-6.53s6.31,2.68,6.38,7a.21.21,0,0,1-.21.21h-8.83c.14,2.33,1,3.36,2.78,3.36a2.26,2.26,0,0,0,2.4-1.87.28.28,0,0,1,.26-.22Zm-5.79-6.12c-1.44,0-2.3.87-2.59,2.57h5.07A2.54,2.54,0,0,0,185.3,22.29Z"/><path class="cls-2" d="M200.33,32.13a.37.37,0,0,1-.19.29,7.12,7.12,0,0,1-2.26.41c-2.09,0-4.08-1.06-4.08-3.86l0-6.2h-1.39a.21.21,0,0,1-.21-.21V20.44a.21.21,0,0,1,.21-.21h1.39l0-2.88a.22.22,0,0,1,.22-.22h3.19a.21.21,0,0,1,.21.22l0,2.88h2.74a.21.21,0,0,1,.21.21v2.12a.21.21,0,0,1-.21.21h-2.76l0,6.1c0,1.06.53,1.39,1.32,1.39a4.33,4.33,0,0,0,1.39-.21.18.18,0,0,1,.22.16Z"/><path class="cls-2" d="M213.17,28.41a.19.19,0,0,1,.19.22c-.31,2.26-2.47,4.27-5.93,4.27-4.13,0-6.36-2.71-6.36-6.45,0-3.94,2.35-6.53,6.29-6.53s6.31,2.68,6.38,7a.21.21,0,0,1-.21.21H204.7c.14,2.33,1.05,3.36,2.78,3.36a2.26,2.26,0,0,0,2.4-1.87.28.28,0,0,1,.26-.22Zm-5.79-6.12c-1.44,0-2.3.87-2.59,2.57h5.07A2.54,2.54,0,0,0,207.38,22.29Z"/><path class="cls-2" d="M215.45,27.72a.22.22,0,0,1-.22-.22V16a.21.21,0,0,1,.22-.21h3.14a.21.21,0,0,1,.22.21V27.5a.22.22,0,0,1-.22.22Zm0,4.87a.22.22,0,0,1-.22-.22v-3a.22.22,0,0,1,.22-.22h3.14a.22.22,0,0,1,.22.22v3a.22.22,0,0,1-.22.22Z"/></svg>