<svg id="Layer_1" data-name="Layer 1" xmlns="http://www.w3.org/2000/svg" xmlns:xlink="http://www.w3.org/1999/xlink" viewBox="0 0 250 50"><defs><style>.cls-1{fill:url(#linear-gradient);}.cls-2{fill:#fff;}</style><linearGradient id="linear-gradient" x1="125" y1="50" x2="125" gradientUnits="userSpaceOnUse"><stop offset="0" stop-color="#ffa08e"/><stop offset="0.08" stop-color="#ff8776"/><stop offset="0.21" stop-color="#ff6554"/><stop offset="0.33" stop-color="#ff4c3c"/><stop offset="0.45" stop-color="#ff3d2e"/><stop offset="0.54" stop-color="#ff3829"/><stop offset="0.62" stop-color="#ff3d2e"/><stop offset="0.71" stop-color="#ff4d3d"/><stop offset="0.82" stop-color="#ff6656"/><stop offset="0.94" stop-color="#ff8978"/><stop offset="1" stop-color="#ffa08e"/></linearGradient></defs><title>Level 4 Complete</title><rect class="cls-1" width="250" height="50" rx="25"/><path class="cls-2" d="M29.55,32.21a.21.21,0,0,1-.21-.21l.12-8.19-.12-8.18a.21.21,0,0,1,.21-.22h3.29a.22.22,0,0,1,.22.22l-.1,8,.1,5.91h6.81a.22.22,0,0,1,.22.22V32a.21.21,0,0,1-.22.21Z"/><path class="cls-2" d="M52.86,28a.18.18,0,0,1,.19.21c-.31,2.26-2.47,4.27-5.93,4.27-4.13,0-6.36-2.71-6.36-6.45,0-3.94,2.35-6.53,6.29-6.53s6.31,2.69,6.38,7a.21.21,0,0,1-.21.21H44.39c.14,2.33,1,3.36,2.78,3.36a2.26,2.26,0,0,0,2.4-1.87.27.27,0,0,1,.26-.21Zm-5.79-6.12c-1.44,0-2.3.86-2.59,2.56h5.07A2.53,2.53,0,0,0,47.07,21.92Z"/><path class="cls-2" d="M61.91,32a.36.36,0,0,1-.29.2H57.8a.36.36,0,0,1-.29-.2L53.34,20c-.05-.09,0-.19.14-.19h3.46a.35.35,0,0,1,.29.22l2.64,9.12,2.9-9.12a.35.35,0,0,1,.29-.22h3a.14.14,0,0,1,.14.19Z"/><path class="cls-2" d="M78.18,28a.18.18,0,0,1,.19.21c-.31,2.26-2.47,4.27-5.93,4.27-4.13,0-6.36-2.71-6.36-6.45,0-3.94,2.35-6.53,6.29-6.53s6.31,2.69,6.38,7a.21.21,0,0,1-.21.21H69.71c.14,2.33,1.05,3.36,2.78,3.36a2.26,2.26,0,0,0,2.4-1.87.27.27,0,0,1,.26-.21Zm-5.79-6.12c-1.44,0-2.3.86-2.59,2.56h5.07A2.53,2.53,0,0,0,72.39,21.92Z"/><path class="cls-2" d="M80.5,32.21a.21.21,0,0,1-.21-.21l.09-8.19-.09-8.18a.21.21,0,0,1,.21-.22h3.15a.21.21,0,0,1,.21.22l-.09,8.18L83.86,32a.21.21,0,0,1-.21.21Z"/><path class="cls-2" d="M103.76,28.18a.21.21,0,0,1-.21.22h-1.64V32a.21.21,0,0,1-.21.22H98.48a.21.21,0,0,1-.21-.22V28.4H91a.22.22,0,0,1-.22-.22V25.51a.92.92,0,0,1,.12-.4L97,15.6a.41.41,0,0,1,.33-.19h4.4a.21.21,0,0,1,.21.22v10h1.64a.21.21,0,0,1,.21.22Zm-5.49-6.72.12-3.39-4.76,7.61h4.64Z"/><path class="cls-2" d="M118.23,32.57c-5.16,0-8.35-3.57-8.35-8.69,0-5.35,3.26-8.83,8.33-8.83,3.62,0,6.55,1.49,7.51,6a.16.16,0,0,1-.17.21h-3.14a.27.27,0,0,1-.26-.21,3.77,3.77,0,0,0-4-3.17c-2.93,0-4.51,2.25-4.51,6s1.63,5.9,4.49,5.9c2.35,0,3.62-1.27,4-3.55a.29.29,0,0,1,.27-.21h3.21a.16.16,0,0,1,.17.21C124.93,30.8,122.17,32.57,118.23,32.57Z"/><path class="cls-2" d="M133.35,32.52c-4,0-6.36-2.52-6.36-6.45s2.33-6.53,6.36-6.53,6.31,2.52,6.31,6.46S137.38,32.52,133.35,32.52Zm0-2.4c1.78,0,2.62-1.22,2.62-4.05s-.87-4.13-2.64-4.13-2.67,1.37-2.67,4.15S131.55,30.12,133.35,30.12Z"/><path class="cls-2" d="M144.78,27.77l.07,4.23a.21.21,0,0,1-.22.21h-3.29a.21.21,0,0,1-.21-.21l.07-4.23,0-7.7a.21.21,0,0,1,.21-.22h3.07a.22.22,0,0,1,.22.22l-.07,1.34a4.09,4.09,0,0,1,3.55-1.85,3.42,3.42,0,0,1,3.53,2.33,3.92,3.92,0,0,1,3.77-2.33c2.49,0,3.93,1.51,3.93,4.8v3.41l.05,4.23a.21.21,0,0,1-.21.21H156a.21.21,0,0,1-.21-.21l.07-4.23V24.41c0-1.49-.6-2.21-1.58-2.21s-2.19,1.32-2.19,3.84v1.73l.08,4.23a.21.21,0,0,1-.22.21h-3.24a.21.21,0,0,1-.22-.21l.07-4.23V24.41c0-1.49-.57-2.21-1.58-2.21s-2.18,1.32-2.18,3.84Z"/><path class="cls-2" d="M168.18,32.45a4.46,4.46,0,0,1-3.53-1.51l0,5.14a.21.21,0,0,1-.22.21h-3.24a.21.21,0,0,1-.22-.21l.08-8.88L161,20.07a.22.22,0,0,1,.22-.22h3.22a.21.21,0,0,1,.21.22l-.07,1.22a4.52,4.52,0,0,1,3.65-1.68c3.5,0,5.35,2.78,5.35,6.39S171.54,32.45,168.18,32.45Zm-1-2.42c1.82,0,2.76-1.32,2.76-3.84,0-2.74-.94-4.13-2.69-4.13s-2.69,1.32-2.71,3.89S165.44,30,167.17,30Z"/><path class="cls-2" d="M175.37,32.21a.21.21,0,0,1-.21-.21l.1-8.19-.1-8.18a.22.22,0,0,1,.21-.22h3.15a.21.21,0,0,1,.21.22l-.09,8.18.09,8.19a.21.21,0,0,1-.21.21Z"/><path class="cls-2" d="M192.39,28a.18.18,0,0,1,.19.21c-.31,2.26-2.47,4.27-5.93,4.27-4.12,0-6.36-2.71-6.36-6.45,0-3.94,2.36-6.53,6.29-6.53s6.32,2.69,6.39,7a.21.21,0,0,1-.22.21h-8.83c.14,2.33,1.06,3.36,2.78,3.36a2.25,2.25,0,0,0,2.4-1.87.29.29,0,0,1,.27-.21Zm-5.78-6.12c-1.44,0-2.31.86-2.59,2.56h5.06A2.53,2.53,0,0,0,186.61,21.92Z"/><path class="cls-2" d="M201.63,31.76a.32.32,0,0,1-.19.28,7.12,7.12,0,0,1-2.26.41c-2.08,0-4.08-1.05-4.08-3.86l0-6.2h-1.4a.21.21,0,0,1-.21-.21V20.07a.21.21,0,0,1,.21-.22h1.4l0-2.88a.22.22,0,0,1,.22-.22h3.19a.22.22,0,0,1,.22.22l0,2.88h2.74a.22.22,0,0,1,.22.22v2.11a.21.21,0,0,1-.22.21h-2.76l0,6.1c0,1.06.53,1.39,1.32,1.39a4.39,4.39,0,0,0,1.4-.21.17.17,0,0,1,.21.17Z"/><path class="cls-2" d="M214.47,28a.18.18,0,0,1,.19.21c-.31,2.26-2.47,4.27-5.93,4.27-4.12,0-6.36-2.71-6.36-6.45,0-3.94,2.36-6.53,6.29-6.53s6.32,2.69,6.39,7a.21.21,0,0,1-.22.21H206c.14,2.33,1.06,3.36,2.78,3.36a2.25,2.25,0,0,0,2.4-1.87.29.29,0,0,1,.27-.21Zm-5.78-6.12c-1.44,0-2.31.86-2.59,2.56h5.06A2.53,2.53,0,0,0,208.69,21.92Z"/><path class="cls-2" d="M216.75,27.34a.22.22,0,0,1-.22-.22V15.63a.22.22,0,0,1,.22-.22h3.15a.21.21,0,0,1,.21.22V27.12a.21.21,0,0,1-.21.22Zm0,4.87a.21.21,0,0,1-.22-.21V29a.21.21,0,0,1,.22-.21h3.15a.21.21,0,0,1,.21.21v3a.21.21,0,0,1-.21.21Z"/></svg>