<svg id="Layer_1" data-name="Layer 1" xmlns="http://www.w3.org/2000/svg" xmlns:xlink="http://www.w3.org/1999/xlink" viewBox="0 0 250 50"><defs><style>.cls-1{fill:url(#linear-gradient);}.cls-2{fill:#fff;}</style><linearGradient id="linear-gradient" x1="125" y1="50" x2="125" gradientUnits="userSpaceOnUse"><stop offset="0" stop-color="#ffa08e"/><stop offset="0.08" stop-color="#ff8776"/><stop offset="0.21" stop-color="#ff6554"/><stop offset="0.33" stop-color="#ff4c3c"/><stop offset="0.45" stop-color="#ff3d2e"/><stop offset="0.54" stop-color="#ff3829"/><stop offset="0.62" stop-color="#ff3d2e"/><stop offset="0.71" stop-color="#ff4d3d"/><stop offset="0.82" stop-color="#ff6656"/><stop offset="0.94" stop-color="#ff8978"/><stop offset="1" stop-color="#ffa08e"/></linearGradient></defs><title>Level 10 Complete</title><rect class="cls-1" width="250" height="50" rx="25"/><path class="cls-2" d="M24.69,33.21a.21.21,0,0,1-.21-.21l.12-8.19-.12-8.18a.21.21,0,0,1,.21-.22H28a.22.22,0,0,1,.22.22l-.1,8,.1,5.91H35a.22.22,0,0,1,.22.22V33a.21.21,0,0,1-.22.21Z"/><path class="cls-2" d="M48,29a.18.18,0,0,1,.19.21c-.31,2.26-2.47,4.27-5.93,4.27-4.13,0-6.36-2.71-6.36-6.45,0-3.94,2.35-6.53,6.29-6.53s6.31,2.69,6.38,7a.21.21,0,0,1-.21.21H39.53c.14,2.33,1,3.36,2.78,3.36a2.26,2.26,0,0,0,2.4-1.87A.27.27,0,0,1,45,29Zm-5.79-6.12c-1.44,0-2.3.86-2.59,2.56h5.07A2.53,2.53,0,0,0,42.21,22.92Z"/><path class="cls-2" d="M57.05,33a.36.36,0,0,1-.29.2H52.94a.36.36,0,0,1-.29-.2L48.48,21c0-.09,0-.19.14-.19h3.46a.35.35,0,0,1,.29.22L55,30.19l2.9-9.12a.35.35,0,0,1,.29-.22h2.95a.14.14,0,0,1,.14.19Z"/><path class="cls-2" d="M73.32,29a.18.18,0,0,1,.19.21c-.31,2.26-2.47,4.27-5.93,4.27-4.13,0-6.36-2.71-6.36-6.45,0-3.94,2.35-6.53,6.29-6.53s6.31,2.69,6.38,7a.21.21,0,0,1-.21.21H64.85c.14,2.33,1.05,3.36,2.78,3.36A2.26,2.26,0,0,0,70,29.25a.27.27,0,0,1,.26-.21Zm-5.79-6.12c-1.44,0-2.3.86-2.59,2.56H70A2.53,2.53,0,0,0,67.53,22.92Z"/><path class="cls-2" d="M75.64,33.21a.21.21,0,0,1-.21-.21l.09-8.19-.09-8.18a.21.21,0,0,1,.21-.22h3.15a.21.21,0,0,1,.21.22l-.09,8.18L79,33a.21.21,0,0,1-.21.21Z"/><path class="cls-2" d="M89.59,33.21a.21.21,0,0,1-.22-.21l0-6.72,0-5.84A8.5,8.5,0,0,1,86,22.29a.15.15,0,0,1-.22-.14V19.79a.28.28,0,0,1,.22-.28,6.19,6.19,0,0,0,3.5-2.91.34.34,0,0,1,.31-.19h3a.21.21,0,0,1,.21.22L93,25l.07,8a.21.21,0,0,1-.21.21Z"/><path class="cls-2" d="M101.73,33.57c-4,0-6.67-3.09-6.67-8.71,0-5.83,2.62-8.81,6.67-8.81s6.7,2.9,6.7,8.81C108.43,30.48,105.79,33.57,101.73,33.57Zm0-2.81c1.87,0,2.9-1.72,2.9-5.9s-1-6-2.93-6-2.9,1.75-2.9,6S99.88,30.76,101.76,30.76Z"/><path class="cls-2" d="M123.09,33.57c-5.16,0-8.35-3.57-8.35-8.69,0-5.35,3.26-8.83,8.33-8.83,3.62,0,6.55,1.49,7.51,6a.16.16,0,0,1-.17.21h-3.14A.29.29,0,0,1,127,22a3.76,3.76,0,0,0-4-3.17c-2.93,0-4.51,2.25-4.51,6s1.63,5.9,4.49,5.9c2.35,0,3.62-1.27,4-3.55a.29.29,0,0,1,.27-.21h3.21a.16.16,0,0,1,.17.21C129.79,31.8,127,33.57,123.09,33.57Z"/><path class="cls-2" d="M138.21,33.52c-4,0-6.36-2.52-6.36-6.45s2.33-6.53,6.36-6.53,6.31,2.52,6.31,6.46S142.24,33.52,138.21,33.52Zm0-2.4c1.78,0,2.62-1.22,2.62-4.05s-.87-4.13-2.64-4.13-2.67,1.37-2.67,4.15S136.41,31.12,138.21,31.12Z"/><path class="cls-2" d="M149.64,28.77l.07,4.23a.21.21,0,0,1-.22.21H146.2A.21.21,0,0,1,146,33l.07-4.23,0-7.7a.21.21,0,0,1,.21-.22h3.07a.22.22,0,0,1,.22.22l-.07,1.34A4.09,4.09,0,0,1,153,20.56a3.42,3.42,0,0,1,3.53,2.33,3.92,3.92,0,0,1,3.77-2.33c2.49,0,3.93,1.51,3.93,4.8v3.41L164.3,33a.21.21,0,0,1-.22.21h-3.24a.21.21,0,0,1-.21-.21l.07-4.23V25.41c0-1.49-.6-2.21-1.58-2.21s-2.19,1.32-2.19,3.84v1.73L157,33a.21.21,0,0,1-.21.21h-3.24a.21.21,0,0,1-.22-.21l.07-4.23V25.41c0-1.49-.57-2.21-1.58-2.21s-2.18,1.32-2.18,3.84Z"/><path class="cls-2" d="M173,33.45a4.46,4.46,0,0,1-3.53-1.51l.05,5.14a.21.21,0,0,1-.22.21H166.1a.21.21,0,0,1-.22-.21L166,28.2l-.08-7.13a.22.22,0,0,1,.22-.22h3.22a.21.21,0,0,1,.21.22l-.07,1.22a4.52,4.52,0,0,1,3.65-1.68c3.5,0,5.35,2.78,5.35,6.39S176.4,33.45,173,33.45ZM172,31c1.82,0,2.76-1.32,2.76-3.84,0-2.74-.94-4.13-2.69-4.13s-2.69,1.32-2.71,3.89S170.3,31,172,31Z"/><path class="cls-2" d="M180.23,33.21A.21.21,0,0,1,180,33l.09-8.19L180,16.63a.21.21,0,0,1,.21-.22h3.15a.21.21,0,0,1,.21.22l-.09,8.18.09,8.19a.21.21,0,0,1-.21.21Z"/><path class="cls-2" d="M197.25,29a.18.18,0,0,1,.19.21c-.31,2.26-2.47,4.27-5.93,4.27-4.12,0-6.36-2.71-6.36-6.45,0-3.94,2.36-6.53,6.29-6.53s6.31,2.69,6.39,7a.21.21,0,0,1-.22.21h-8.83c.14,2.33,1.05,3.36,2.78,3.36a2.25,2.25,0,0,0,2.4-1.87.29.29,0,0,1,.27-.21Zm-5.78-6.12c-1.44,0-2.31.86-2.59,2.56h5.06A2.53,2.53,0,0,0,191.47,22.92Z"/><path class="cls-2" d="M206.49,32.76a.32.32,0,0,1-.19.28,7.12,7.12,0,0,1-2.26.41c-2.08,0-4.08-1.05-4.08-3.86l0-6.2h-1.4a.21.21,0,0,1-.21-.21V21.07a.21.21,0,0,1,.21-.22H200L200,18a.22.22,0,0,1,.22-.22h3.19a.22.22,0,0,1,.22.22l0,2.88h2.74a.22.22,0,0,1,.22.22v2.11a.21.21,0,0,1-.22.21h-2.76l0,6.1c0,1.06.53,1.39,1.32,1.39a4.39,4.39,0,0,0,1.4-.21.17.17,0,0,1,.21.17Z"/><path class="cls-2" d="M219.33,29a.18.18,0,0,1,.19.21c-.31,2.26-2.47,4.27-5.93,4.27-4.12,0-6.36-2.71-6.36-6.45,0-3.94,2.36-6.53,6.29-6.53s6.31,2.69,6.39,7a.21.21,0,0,1-.22.21h-8.83c.14,2.33,1.06,3.36,2.78,3.36a2.25,2.25,0,0,0,2.4-1.87.29.29,0,0,1,.27-.21Zm-5.78-6.12c-1.44,0-2.31.86-2.59,2.56H216A2.53,2.53,0,0,0,213.55,22.92Z"/><path class="cls-2" d="M221.61,28.34a.22.22,0,0,1-.22-.22V16.63a.22.22,0,0,1,.22-.22h3.14a.22.22,0,0,1,.22.22V28.12a.22.22,0,0,1-.22.22Zm0,4.87a.21.21,0,0,1-.22-.21V30a.22.22,0,0,1,.22-.22h3.14A.22.22,0,0,1,225,30v3a.21.21,0,0,1-.22.21Z"/></svg>