<svg id="Layer_1" data-name="Layer 1" xmlns="http://www.w3.org/2000/svg" xmlns:xlink="http://www.w3.org/1999/xlink" viewBox="0 0 250 50"><defs><style>.cls-1{fill:url(#linear-gradient);}.cls-2{fill:#fff;}</style><linearGradient id="linear-gradient" x1="124.79" y1="49.82" x2="124.79" y2="-0.18" gradientUnits="userSpaceOnUse"><stop offset="0" stop-color="#ffa08e"/><stop offset="0.08" stop-color="#ff8776"/><stop offset="0.21" stop-color="#ff6554"/><stop offset="0.33" stop-color="#ff4c3c"/><stop offset="0.45" stop-color="#ff3d2e"/><stop offset="0.54" stop-color="#ff3829"/><stop offset="0.62" stop-color="#ff3d2e"/><stop offset="0.71" stop-color="#ff4d3d"/><stop offset="0.82" stop-color="#ff6656"/><stop offset="0.94" stop-color="#ff8978"/><stop offset="1" stop-color="#ffa08e"/></linearGradient></defs><title>Level 5 Complete</title><rect class="cls-1" x="-0.21" y="-0.18" width="250" height="50" rx="25"/><path class="cls-2" d="M29.45,32a.22.22,0,0,1-.22-.22l.12-8.18-.12-8.19a.21.21,0,0,1,.22-.21h3.29a.21.21,0,0,1,.21.21l-.09,8L33,29.32h6.82a.21.21,0,0,1,.22.21v2.28a.22.22,0,0,1-.22.22Z"/><path class="cls-2" d="M52.75,27.85a.19.19,0,0,1,.2.22c-.32,2.25-2.48,4.27-5.93,4.27-4.13,0-6.36-2.71-6.36-6.46C40.66,22,43,19.36,47,19.36s6.31,2.68,6.38,7a.22.22,0,0,1-.22.22H44.28c.15,2.33,1.06,3.36,2.79,3.36a2.26,2.26,0,0,0,2.4-1.87.28.28,0,0,1,.26-.22ZM47,21.73c-1.44,0-2.3.87-2.59,2.57h5.06A2.53,2.53,0,0,0,47,21.73Z"/><path class="cls-2" d="M61.8,31.86a.34.34,0,0,1-.28.19H57.7a.35.35,0,0,1-.29-.19l-4.18-12c0-.1,0-.19.15-.19h3.45a.33.33,0,0,1,.29.21L59.76,29l2.91-9.12a.32.32,0,0,1,.28-.21h3a.14.14,0,0,1,.14.19Z"/><path class="cls-2" d="M78.07,27.85a.19.19,0,0,1,.2.22c-.32,2.25-2.48,4.27-5.93,4.27-4.13,0-6.36-2.71-6.36-6.46,0-3.93,2.35-6.52,6.29-6.52s6.31,2.68,6.38,7a.21.21,0,0,1-.21.22H69.6c.15,2.33,1.06,3.36,2.79,3.36a2.26,2.26,0,0,0,2.4-1.87.28.28,0,0,1,.26-.22Zm-5.78-6.12c-1.44,0-2.3.87-2.59,2.57h5.06A2.53,2.53,0,0,0,72.29,21.73Z"/><path class="cls-2" d="M80.4,32a.21.21,0,0,1-.21-.22l.09-8.18-.09-8.19a.21.21,0,0,1,.21-.21h3.15a.21.21,0,0,1,.21.21l-.09,8.19.09,8.18a.21.21,0,0,1-.21.22Z"/><path class="cls-2" d="M96.77,32.41c-3.62,0-5.67-1.92-6-4.65a.18.18,0,0,1,.19-.22H94.2a.22.22,0,0,1,.22.22,2.15,2.15,0,0,0,2.33,2.16c1.72,0,2.73-1.25,2.73-3.7,0-2.3-.79-3.58-2.69-3.58a2.3,2.3,0,0,0-2.44,1.76.27.27,0,0,1-.27.21H91.34a.18.18,0,0,1-.19-.21l.63-9a.25.25,0,0,1,.24-.21H102.1a.21.21,0,0,1,.21.21v2.28a.21.21,0,0,1-.21.22H95l-.36,3.34a4.55,4.55,0,0,1,3.28-1.18c3,0,5.41,2.38,5.41,5.86C103.35,29.94,100.68,32.41,96.77,32.41Z"/><path class="cls-2" d="M117.91,32.39c-5.16,0-8.35-3.58-8.35-8.69,0-5.35,3.26-8.83,8.33-8.83,3.62,0,6.55,1.49,7.51,6a.17.17,0,0,1-.17.22h-3.14a.28.28,0,0,1-.26-.22,3.77,3.77,0,0,0-4-3.16c-2.93,0-4.51,2.25-4.51,6s1.63,5.9,4.49,5.9c2.35,0,3.62-1.27,4.05-3.55a.3.3,0,0,1,.27-.22h3.21a.17.17,0,0,1,.17.22C124.61,30.61,121.85,32.39,117.91,32.39Z"/><path class="cls-2" d="M133,32.34c-4,0-6.36-2.52-6.36-6.46S129,19.36,133,19.36s6.32,2.52,6.32,6.45S137.06,32.34,133,32.34Zm0-2.4c1.78,0,2.62-1.22,2.62-4.06s-.87-4.12-2.64-4.12-2.67,1.36-2.67,4.15S131.23,29.94,133,29.94Z"/><path class="cls-2" d="M144.46,27.59l.07,4.22a.22.22,0,0,1-.22.22H141a.21.21,0,0,1-.21-.22l.07-4.22,0-7.71a.21.21,0,0,1,.21-.21h3.08a.21.21,0,0,1,.21.21l-.07,1.35a4.09,4.09,0,0,1,3.55-1.85,3.41,3.41,0,0,1,3.53,2.33,3.93,3.93,0,0,1,3.77-2.33c2.49,0,3.93,1.51,3.93,4.8v3.41l.05,4.22a.21.21,0,0,1-.21.22h-3.24a.22.22,0,0,1-.22-.22l.07-4.22V24.23c0-1.49-.6-2.21-1.58-2.21s-2.19,1.32-2.19,3.84v1.73l.08,4.22a.22.22,0,0,1-.22.22h-3.24a.22.22,0,0,1-.22-.22l.08-4.22V24.23c0-1.49-.58-2.21-1.59-2.21s-2.18,1.32-2.18,3.84Z"/><path class="cls-2" d="M167.86,32.27a4.46,4.46,0,0,1-3.53-1.51l0,5.13a.22.22,0,0,1-.22.22h-3.24a.22.22,0,0,1-.22-.22l.08-8.88-.08-7.13a.21.21,0,0,1,.22-.21h3.22a.21.21,0,0,1,.21.21l-.07,1.23a4.52,4.52,0,0,1,3.65-1.68c3.5,0,5.35,2.78,5.35,6.38S171.22,32.27,167.86,32.27Zm-1-2.43c1.82,0,2.76-1.32,2.76-3.84,0-2.73-.94-4.12-2.69-4.12s-2.69,1.32-2.71,3.88S165.12,29.84,166.85,29.84Z"/><path class="cls-2" d="M175.06,32a.22.22,0,0,1-.22-.22l.1-8.18-.1-8.19a.21.21,0,0,1,.22-.21h3.14a.21.21,0,0,1,.22.21l-.1,8.19.1,8.18a.22.22,0,0,1-.22.22Z"/><path class="cls-2" d="M192.07,27.85a.18.18,0,0,1,.19.22c-.31,2.25-2.47,4.27-5.92,4.27-4.13,0-6.36-2.71-6.36-6.46,0-3.93,2.35-6.52,6.28-6.52s6.32,2.68,6.39,7a.22.22,0,0,1-.22.22H183.6c.14,2.33,1.06,3.36,2.78,3.36a2.25,2.25,0,0,0,2.4-1.87.3.3,0,0,1,.27-.22Zm-5.78-6.12c-1.44,0-2.31.87-2.59,2.57h5.06A2.53,2.53,0,0,0,186.29,21.73Z"/><path class="cls-2" d="M201.31,31.57a.35.35,0,0,1-.19.29,7.12,7.12,0,0,1-2.26.41c-2.08,0-4.08-1.06-4.08-3.87l0-6.19h-1.39a.21.21,0,0,1-.22-.21V19.88a.21.21,0,0,1,.22-.21h1.39l0-2.88a.22.22,0,0,1,.22-.22h3.19a.22.22,0,0,1,.22.22l0,2.88h2.74a.21.21,0,0,1,.22.21V22a.21.21,0,0,1-.22.21h-2.76l0,6.1c0,1.05.53,1.39,1.32,1.39a4.37,4.37,0,0,0,1.4-.22.18.18,0,0,1,.21.17Z"/><path class="cls-2" d="M214.15,27.85a.18.18,0,0,1,.19.22c-.31,2.25-2.47,4.27-5.92,4.27-4.13,0-6.36-2.71-6.36-6.46,0-3.93,2.35-6.52,6.28-6.52s6.32,2.68,6.39,7a.22.22,0,0,1-.22.22h-8.83c.14,2.33,1.06,3.36,2.78,3.36a2.25,2.25,0,0,0,2.4-1.87.3.3,0,0,1,.27-.22Zm-5.78-6.12c-1.44,0-2.31.87-2.59,2.57h5.06A2.53,2.53,0,0,0,208.37,21.73Z"/><path class="cls-2" d="M216.43,27.16a.21.21,0,0,1-.21-.22V15.44a.21.21,0,0,1,.21-.21h3.15a.21.21,0,0,1,.21.21v11.5a.21.21,0,0,1-.21.22Zm0,4.87a.21.21,0,0,1-.21-.22v-3a.21.21,0,0,1,.21-.22h3.15a.21.21,0,0,1,.21.22v3a.21.21,0,0,1-.21.22Z"/></svg>