<svg id="Layer_1" data-name="Layer 1" xmlns="http://www.w3.org/2000/svg" xmlns:xlink="http://www.w3.org/1999/xlink" viewBox="0 0 250 50"><defs><style>.cls-1{fill:url(#linear-gradient);}.cls-2{fill:#fff;}</style><linearGradient id="linear-gradient" x1="124.79" y1="49.98" x2="124.79" y2="-0.02" gradientUnits="userSpaceOnUse"><stop offset="0" stop-color="#ffa08e"/><stop offset="0.08" stop-color="#ff8776"/><stop offset="0.21" stop-color="#ff6554"/><stop offset="0.33" stop-color="#ff4c3c"/><stop offset="0.45" stop-color="#ff3d2e"/><stop offset="0.54" stop-color="#ff3829"/><stop offset="0.62" stop-color="#ff3d2e"/><stop offset="0.71" stop-color="#ff4d3d"/><stop offset="0.82" stop-color="#ff6656"/><stop offset="0.94" stop-color="#ff8978"/><stop offset="1" stop-color="#ffa08e"/></linearGradient></defs><title>Level 2 Complete</title><rect class="cls-1" x="-0.21" y="-0.02" width="250" height="50" rx="25"/><path class="cls-2" d="M30,32.21a.21.21,0,0,1-.22-.21l.12-8.19-.12-8.18a.22.22,0,0,1,.22-.22H33.3a.21.21,0,0,1,.21.22l-.09,8,.09,5.9h6.82a.22.22,0,0,1,.22.22V32a.21.21,0,0,1-.22.21Z"/><path class="cls-2" d="M53.31,28a.19.19,0,0,1,.2.21c-.32,2.26-2.48,4.27-5.93,4.27-4.13,0-6.36-2.71-6.36-6.45,0-3.94,2.35-6.53,6.29-6.53s6.31,2.69,6.38,7a.21.21,0,0,1-.22.21H44.84c.15,2.33,1.06,3.36,2.79,3.36A2.26,2.26,0,0,0,50,28.25a.27.27,0,0,1,.26-.21Zm-5.78-6.13c-1.44,0-2.3.87-2.59,2.57H50A2.53,2.53,0,0,0,47.53,21.91Z"/><path class="cls-2" d="M62.36,32a.36.36,0,0,1-.29.2H58.26A.36.36,0,0,1,58,32L53.79,20a.14.14,0,0,1,.15-.19h3.45a.35.35,0,0,1,.29.22l2.64,9.12,2.91-9.12a.32.32,0,0,1,.28-.22h3a.14.14,0,0,1,.14.19Z"/><path class="cls-2" d="M78.63,28a.19.19,0,0,1,.2.21c-.32,2.26-2.48,4.27-5.93,4.27-4.13,0-6.36-2.71-6.36-6.45,0-3.94,2.35-6.53,6.29-6.53s6.31,2.69,6.38,7a.21.21,0,0,1-.22.21H70.16c.15,2.33,1.06,3.36,2.79,3.36a2.26,2.26,0,0,0,2.4-1.87.27.27,0,0,1,.26-.21Zm-5.78-6.13c-1.44,0-2.3.87-2.59,2.57h5.06A2.53,2.53,0,0,0,72.85,21.91Z"/><path class="cls-2" d="M81,32.21a.21.21,0,0,1-.22-.21l.1-8.19-.1-8.18a.22.22,0,0,1,.22-.22H84.1a.22.22,0,0,1,.22.22l-.09,8.18L84.32,32a.21.21,0,0,1-.22.21Z"/><path class="cls-2" d="M91.52,32.21A.21.21,0,0,1,91.3,32V29.86c0-6.7,8.31-6.07,8.31-9.6a2.17,2.17,0,0,0-2.35-2.55c-1.52,0-2.45,1.13-2.52,3.17a.22.22,0,0,1-.22.22h-2.9a.22.22,0,0,1-.22-.22c0-3.65,2-5.76,5.86-5.78,3.74,0,5.64,1.89,5.73,5,0,6.22-8.28,5.86-8.28,9.07v.29h8.07a.21.21,0,0,1,.21.22V32a.21.21,0,0,1-.21.21Z"/><path class="cls-2" d="M117.78,32.57c-5.16,0-8.36-3.57-8.36-8.69,0-5.35,3.27-8.83,8.33-8.83,3.63,0,6.56,1.49,7.52,6a.17.17,0,0,1-.17.21H122a.27.27,0,0,1-.26-.21,3.77,3.77,0,0,0-4-3.17c-2.92,0-4.51,2.25-4.51,6s1.63,5.9,4.49,5.9c2.35,0,3.63-1.27,4.06-3.55A.27.27,0,0,1,122,26h3.22a.17.17,0,0,1,.17.21C124.47,30.8,121.71,32.57,117.78,32.57Z"/><path class="cls-2" d="M132.9,32.52c-4,0-6.36-2.52-6.36-6.45s2.32-6.53,6.36-6.53,6.31,2.52,6.31,6.46S136.93,32.52,132.9,32.52Zm0-2.4c1.77,0,2.61-1.22,2.61-4.05s-.86-4.13-2.64-4.13-2.66,1.37-2.66,4.15S131.1,30.12,132.9,30.12Z"/><path class="cls-2" d="M144.32,27.77l.07,4.23a.21.21,0,0,1-.21.21h-3.29a.21.21,0,0,1-.22-.21l.07-4.23,0-7.7a.22.22,0,0,1,.22-.22H144a.21.21,0,0,1,.21.22l-.07,1.34a4.1,4.1,0,0,1,3.55-1.85,3.41,3.41,0,0,1,3.53,2.33A3.94,3.94,0,0,1,155,19.56c2.5,0,3.94,1.51,3.94,4.8v3.41L159,32a.21.21,0,0,1-.21.21h-3.24a.21.21,0,0,1-.22-.21l.08-4.23V24.41c0-1.49-.61-2.21-1.59-2.21s-2.18,1.32-2.18,3.84v1.73l.07,4.23a.21.21,0,0,1-.22.21h-3.24A.21.21,0,0,1,148,32l.07-4.23V24.41c0-1.49-.58-2.21-1.59-2.21s-2.18,1.32-2.18,3.84Z"/><path class="cls-2" d="M167.72,32.45a4.46,4.46,0,0,1-3.53-1.51l.05,5.14a.21.21,0,0,1-.22.21h-3.24a.21.21,0,0,1-.21-.21l.07-8.89-.07-7.12a.21.21,0,0,1,.21-.22H164a.22.22,0,0,1,.22.22l-.08,1.22a4.53,4.53,0,0,1,3.65-1.68c3.51,0,5.35,2.79,5.35,6.39S171.08,32.45,167.72,32.45Zm-1-2.42c1.83,0,2.76-1.32,2.76-3.84,0-2.74-.93-4.13-2.69-4.13s-2.68,1.32-2.71,3.89S165,30,166.71,30Z"/><path class="cls-2" d="M174.92,32.21a.21.21,0,0,1-.22-.21l.1-8.19-.1-8.18a.22.22,0,0,1,.22-.22h3.14a.22.22,0,0,1,.22.22l-.1,8.18.1,8.19a.21.21,0,0,1-.22.21Z"/><path class="cls-2" d="M191.94,28a.18.18,0,0,1,.19.21c-.31,2.26-2.47,4.27-5.93,4.27-4.13,0-6.36-2.71-6.36-6.45,0-3.94,2.35-6.53,6.29-6.53s6.31,2.69,6.38,7a.21.21,0,0,1-.21.21h-8.84c.15,2.33,1.06,3.36,2.79,3.36a2.26,2.26,0,0,0,2.4-1.87.27.27,0,0,1,.26-.21Zm-5.79-6.13c-1.44,0-2.3.87-2.59,2.57h5.06A2.53,2.53,0,0,0,186.15,21.91Z"/><path class="cls-2" d="M201.18,31.76a.33.33,0,0,1-.2.28,7,7,0,0,1-2.25.41c-2.09,0-4.08-1.05-4.08-3.86l0-6.19h-1.39a.22.22,0,0,1-.22-.22V20.07a.22.22,0,0,1,.22-.22h1.39l0-2.88a.21.21,0,0,1,.21-.22h3.2a.21.21,0,0,1,.21.22l0,2.88H201a.22.22,0,0,1,.22.22v2.11a.22.22,0,0,1-.22.22h-2.76l0,6.09c0,1.06.53,1.39,1.32,1.39a4.37,4.37,0,0,0,1.39-.21.18.18,0,0,1,.22.17Z"/><path class="cls-2" d="M214,28a.18.18,0,0,1,.19.21c-.31,2.26-2.48,4.27-5.93,4.27-4.13,0-6.36-2.71-6.36-6.45,0-3.94,2.35-6.53,6.29-6.53s6.31,2.69,6.38,7a.21.21,0,0,1-.21.21h-8.84c.15,2.33,1.06,3.36,2.79,3.36a2.26,2.26,0,0,0,2.4-1.87A.27.27,0,0,1,211,28Zm-5.79-6.13c-1.44,0-2.3.87-2.59,2.57h5.06A2.53,2.53,0,0,0,208.23,21.91Z"/><path class="cls-2" d="M216.29,27.34a.21.21,0,0,1-.21-.22V15.63a.21.21,0,0,1,.21-.22h3.15a.21.21,0,0,1,.21.22V27.12a.21.21,0,0,1-.21.22Zm0,4.87a.21.21,0,0,1-.21-.21V29a.21.21,0,0,1,.21-.21h3.15a.21.21,0,0,1,.21.21v3a.21.21,0,0,1-.21.21Z"/></svg>