<svg id="Layer_1" data-name="Layer 1" xmlns="http://www.w3.org/2000/svg" xmlns:xlink="http://www.w3.org/1999/xlink" viewBox="0 0 250 50"><defs><style>.cls-1{fill:url(#linear-gradient);}.cls-2{fill:#fff;}</style><linearGradient id="linear-gradient" x1="124.79" y1="49.94" x2="124.79" y2="-0.06" gradientUnits="userSpaceOnUse"><stop offset="0" stop-color="#ffa08e"/><stop offset="0.08" stop-color="#ff8776"/><stop offset="0.21" stop-color="#ff6554"/><stop offset="0.33" stop-color="#ff4c3c"/><stop offset="0.45" stop-color="#ff3d2e"/><stop offset="0.54" stop-color="#ff3829"/><stop offset="0.62" stop-color="#ff3d2e"/><stop offset="0.71" stop-color="#ff4d3d"/><stop offset="0.82" stop-color="#ff6656"/><stop offset="0.94" stop-color="#ff8978"/><stop offset="1" stop-color="#ffa08e"/></linearGradient></defs><title>Level 9 Complete</title><rect class="cls-1" x="-0.21" y="-0.06" width="250" height="50" rx="25"/><path class="cls-2" d="M29.57,32.21a.21.21,0,0,1-.22-.21l.12-8.19-.12-8.18a.22.22,0,0,1,.22-.22h3.28a.22.22,0,0,1,.22.22l-.1,8,.1,5.9h6.82a.21.21,0,0,1,.21.22V32a.21.21,0,0,1-.21.21Z"/><path class="cls-2" d="M52.87,28a.18.18,0,0,1,.19.21c-.31,2.26-2.47,4.27-5.93,4.27-4.12,0-6.36-2.71-6.36-6.45,0-3.94,2.36-6.53,6.29-6.53s6.31,2.69,6.39,7a.21.21,0,0,1-.22.21H44.4c.14,2.33,1.05,3.36,2.78,3.36a2.25,2.25,0,0,0,2.4-1.87.29.29,0,0,1,.27-.21Zm-5.78-6.13c-1.44,0-2.31.87-2.6,2.57h5.07A2.54,2.54,0,0,0,47.09,21.91Z"/><path class="cls-2" d="M61.92,32a.36.36,0,0,1-.29.2H57.81a.33.33,0,0,1-.28-.2L53.35,20c-.05-.09,0-.19.14-.19H57a.35.35,0,0,1,.29.22l2.64,9.12,2.9-9.12a.35.35,0,0,1,.29-.22H66a.15.15,0,0,1,.15.19Z"/><path class="cls-2" d="M78.19,28a.18.18,0,0,1,.19.21c-.31,2.26-2.47,4.27-5.93,4.27-4.12,0-6.36-2.71-6.36-6.45,0-3.94,2.36-6.53,6.29-6.53s6.31,2.69,6.39,7a.21.21,0,0,1-.22.21H69.72c.14,2.33,1,3.36,2.78,3.36a2.25,2.25,0,0,0,2.4-1.87.29.29,0,0,1,.27-.21Zm-5.78-6.13c-1.44,0-2.31.87-2.6,2.57h5.07A2.54,2.54,0,0,0,72.41,21.91Z"/><path class="cls-2" d="M80.52,32.21A.21.21,0,0,1,80.3,32l.1-8.19-.1-8.18a.22.22,0,0,1,.22-.22h3.14a.22.22,0,0,1,.22.22l-.1,8.18.1,8.19a.21.21,0,0,1-.22.21Z"/><path class="cls-2" d="M96.69,32.57c-3,0-4.94-1.56-5.28-4.27a.19.19,0,0,1,.19-.22h3.12a.26.26,0,0,1,.24.22,2,2,0,0,0,2,1.75c1.8,0,2.76-1.75,2.78-4.75a4.3,4.3,0,0,1-3.52,1.39,5.12,5.12,0,0,1-5.45-5.47A5.86,5.86,0,0,1,97,15.05c4,0,6.53,2.74,6.53,8.71C103.53,29.43,100.87,32.57,96.69,32.57ZM97,24.15c1.64,0,2.65-1.16,2.65-3.2s-.89-3.28-2.45-3.28-2.62,1.15-2.62,3.14S95.37,24.15,97,24.15Z"/><path class="cls-2" d="M118.22,32.57c-5.16,0-8.35-3.57-8.35-8.69,0-5.35,3.26-8.83,8.33-8.83,3.62,0,6.55,1.49,7.51,6a.17.17,0,0,1-.17.21H122.4a.29.29,0,0,1-.27-.21,3.76,3.76,0,0,0-4-3.17c-2.93,0-4.51,2.25-4.51,6s1.63,5.9,4.49,5.9c2.35,0,3.62-1.27,4.05-3.55a.29.29,0,0,1,.27-.21h3.21a.17.17,0,0,1,.17.21C124.92,30.8,122.16,32.57,118.22,32.57Z"/><path class="cls-2" d="M133.34,32.52c-4,0-6.36-2.52-6.36-6.45s2.33-6.53,6.36-6.53,6.31,2.52,6.31,6.46S137.37,32.52,133.34,32.52Zm0-2.4c1.78,0,2.62-1.22,2.62-4.05s-.87-4.13-2.64-4.13-2.67,1.37-2.67,4.15S131.54,30.12,133.34,30.12Z"/><path class="cls-2" d="M144.76,27.77l.08,4.23a.21.21,0,0,1-.22.21h-3.29a.21.21,0,0,1-.21-.21l.07-4.23,0-7.7a.22.22,0,0,1,.22-.22h3.07a.22.22,0,0,1,.22.22l-.07,1.34a4.09,4.09,0,0,1,3.55-1.85,3.42,3.42,0,0,1,3.53,2.33,3.92,3.92,0,0,1,3.77-2.33c2.49,0,3.93,1.51,3.93,4.8v3.41l.05,4.23a.21.21,0,0,1-.22.21H156a.21.21,0,0,1-.21-.21l.07-4.23V24.41c0-1.49-.6-2.21-1.58-2.21s-2.19,1.32-2.19,3.84v1.73l.07,4.23a.21.21,0,0,1-.21.21h-3.24a.21.21,0,0,1-.22-.21l.07-4.23V24.41c0-1.49-.57-2.21-1.58-2.21s-2.19,1.32-2.19,3.84Z"/><path class="cls-2" d="M168.17,32.45a4.46,4.46,0,0,1-3.53-1.51l0,5.14a.21.21,0,0,1-.21.21h-3.24a.21.21,0,0,1-.22-.21l.07-8.88L161,20.07a.22.22,0,0,1,.22-.22h3.21a.22.22,0,0,1,.22.22l-.07,1.22a4.55,4.55,0,0,1,3.65-1.68c3.5,0,5.35,2.79,5.35,6.39S171.53,32.45,168.17,32.45Zm-1-2.42c1.82,0,2.76-1.32,2.76-3.84,0-2.74-.94-4.13-2.69-4.13s-2.69,1.32-2.71,3.89S165.43,30,167.16,30Z"/><path class="cls-2" d="M175.36,32.21a.21.21,0,0,1-.21-.21l.09-8.19-.09-8.18a.21.21,0,0,1,.21-.22h3.15a.21.21,0,0,1,.21.22l-.09,8.18.09,8.19a.21.21,0,0,1-.21.21Z"/><path class="cls-2" d="M192.38,28a.18.18,0,0,1,.19.21c-.31,2.26-2.47,4.27-5.93,4.27-4.12,0-6.36-2.71-6.36-6.45,0-3.94,2.36-6.53,6.29-6.53s6.31,2.69,6.39,7a.21.21,0,0,1-.22.21h-8.83c.14,2.33,1.05,3.36,2.78,3.36a2.25,2.25,0,0,0,2.4-1.87.29.29,0,0,1,.27-.21Zm-5.78-6.13c-1.44,0-2.31.87-2.6,2.57h5.07A2.54,2.54,0,0,0,186.6,21.91Z"/><path class="cls-2" d="M201.62,31.76a.34.34,0,0,1-.19.28,7.12,7.12,0,0,1-2.26.41c-2.09,0-4.08-1.05-4.08-3.86l0-6.19h-1.4a.21.21,0,0,1-.21-.22V20.07a.21.21,0,0,1,.21-.22h1.4l0-2.88a.22.22,0,0,1,.22-.22h3.19a.21.21,0,0,1,.21.22l0,2.88h2.74a.21.21,0,0,1,.21.22v2.11a.21.21,0,0,1-.21.22h-2.76l0,6.09c0,1.06.53,1.39,1.32,1.39a4.33,4.33,0,0,0,1.39-.21.18.18,0,0,1,.22.17Z"/><path class="cls-2" d="M214.46,28a.18.18,0,0,1,.19.21c-.31,2.26-2.47,4.27-5.93,4.27-4.12,0-6.36-2.71-6.36-6.45,0-3.94,2.36-6.53,6.29-6.53s6.31,2.69,6.39,7a.21.21,0,0,1-.22.21H206c.14,2.33,1,3.36,2.78,3.36a2.25,2.25,0,0,0,2.4-1.87.29.29,0,0,1,.27-.21Zm-5.78-6.13c-1.44,0-2.31.87-2.6,2.57h5.07A2.54,2.54,0,0,0,208.68,21.91Z"/><path class="cls-2" d="M216.74,27.34a.22.22,0,0,1-.22-.22V15.63a.22.22,0,0,1,.22-.22h3.14a.22.22,0,0,1,.22.22V27.12a.22.22,0,0,1-.22.22Zm0,4.87a.21.21,0,0,1-.22-.21V29a.21.21,0,0,1,.22-.21h3.14a.21.21,0,0,1,.22.21v3a.21.21,0,0,1-.22.21Z"/></svg>