<svg id="Layer_1" data-name="Layer 1" xmlns="http://www.w3.org/2000/svg" xmlns:xlink="http://www.w3.org/1999/xlink" viewBox="0 0 250 50"><defs><style>.cls-1{fill:url(#linear-gradient);}.cls-2{fill:#fff;}</style><linearGradient id="linear-gradient" x1="125" y1="50" x2="125" gradientUnits="userSpaceOnUse"><stop offset="0" stop-color="#ffa08e"/><stop offset="0.08" stop-color="#ff8776"/><stop offset="0.21" stop-color="#ff6554"/><stop offset="0.33" stop-color="#ff4c3c"/><stop offset="0.45" stop-color="#ff3d2e"/><stop offset="0.54" stop-color="#ff3829"/><stop offset="0.62" stop-color="#ff3d2e"/><stop offset="0.71" stop-color="#ff4d3d"/><stop offset="0.82" stop-color="#ff6656"/><stop offset="0.94" stop-color="#ff8978"/><stop offset="1" stop-color="#ffa08e"/></linearGradient></defs><title>Level 1 Complete</title><rect class="cls-1" width="250" height="50" rx="25"/><path class="cls-2" d="M32.06,32.21a.21.21,0,0,1-.21-.21L32,23.81l-.12-8.18a.21.21,0,0,1,.21-.22h3.29a.22.22,0,0,1,.22.22l-.1,8,.1,5.91h6.81a.22.22,0,0,1,.22.22V32a.21.21,0,0,1-.22.21Z"/><path class="cls-2" d="M55.37,28a.18.18,0,0,1,.19.21c-.31,2.26-2.47,4.27-5.93,4.27-4.13,0-6.36-2.71-6.36-6.45,0-3.94,2.35-6.53,6.29-6.53s6.31,2.69,6.38,7a.21.21,0,0,1-.21.21H46.89c.15,2.33,1.06,3.36,2.79,3.36a2.26,2.26,0,0,0,2.4-1.87.27.27,0,0,1,.26-.21Zm-5.79-6.12c-1.44,0-2.3.86-2.59,2.56h5.06A2.52,2.52,0,0,0,49.58,21.92Z"/><path class="cls-2" d="M64.42,32a.36.36,0,0,1-.29.2H60.31A.36.36,0,0,1,60,32L55.85,20c-.05-.09,0-.19.14-.19h3.46a.32.32,0,0,1,.28.22l2.64,9.12,2.91-9.12a.35.35,0,0,1,.29-.22h3a.14.14,0,0,1,.14.19Z"/><path class="cls-2" d="M80.69,28a.18.18,0,0,1,.19.21c-.31,2.26-2.47,4.27-5.93,4.27-4.13,0-6.36-2.71-6.36-6.45,0-3.94,2.35-6.53,6.29-6.53s6.31,2.69,6.38,7a.21.21,0,0,1-.21.21H72.21c.15,2.33,1.06,3.36,2.79,3.36a2.26,2.26,0,0,0,2.4-1.87.27.27,0,0,1,.26-.21ZM74.9,21.92c-1.44,0-2.3.86-2.59,2.56h5.07A2.53,2.53,0,0,0,74.9,21.92Z"/><path class="cls-2" d="M83,32.21A.21.21,0,0,1,82.8,32l.09-8.19-.09-8.18a.21.21,0,0,1,.21-.22h3.15a.21.21,0,0,1,.21.22l-.09,8.18L86.37,32a.21.21,0,0,1-.21.21Z"/><path class="cls-2" d="M97,32.21a.21.21,0,0,1-.22-.21l.05-6.72,0-5.84a8.43,8.43,0,0,1-3.36,1.85.14.14,0,0,1-.21-.14V18.8a.3.3,0,0,1,.21-.29,6.18,6.18,0,0,0,3.51-2.91.34.34,0,0,1,.31-.19h3a.21.21,0,0,1,.21.22l-.07,8.4.07,8a.21.21,0,0,1-.21.21Z"/><path class="cls-2" d="M115.73,32.57c-5.17,0-8.36-3.57-8.36-8.69,0-5.35,3.27-8.83,8.33-8.83,3.63,0,6.55,1.49,7.51,6a.16.16,0,0,1-.16.21H119.9a.27.27,0,0,1-.26-.21,3.77,3.77,0,0,0-4-3.17c-2.93,0-4.51,2.25-4.51,6s1.63,5.9,4.49,5.9c2.35,0,3.62-1.27,4.06-3.55A.27.27,0,0,1,120,26h3.22a.16.16,0,0,1,.16.21C122.42,30.8,119.66,32.57,115.73,32.57Z"/><path class="cls-2" d="M130.84,32.52c-4,0-6.36-2.52-6.36-6.45s2.33-6.53,6.36-6.53,6.32,2.52,6.32,6.46S134.88,32.52,130.84,32.52Zm0-2.4c1.78,0,2.62-1.22,2.62-4.05s-.86-4.13-2.64-4.13-2.66,1.37-2.66,4.15S129,30.12,130.84,30.12Z"/><path class="cls-2" d="M142.27,27.77l.07,4.23a.21.21,0,0,1-.21.21h-3.29a.21.21,0,0,1-.22-.21l.07-4.23,0-7.7a.21.21,0,0,1,.21-.22H142a.21.21,0,0,1,.21.22l-.07,1.34a4.09,4.09,0,0,1,3.55-1.85,3.41,3.41,0,0,1,3.53,2.33A3.94,3.94,0,0,1,153,19.56c2.5,0,3.94,1.51,3.94,4.8v3.41l0,4.23a.21.21,0,0,1-.21.21h-3.24a.21.21,0,0,1-.22-.21l.07-4.23V24.41c0-1.49-.6-2.21-1.58-2.21s-2.18,1.32-2.18,3.84v1.73l.07,4.23a.21.21,0,0,1-.22.21h-3.24A.21.21,0,0,1,146,32l.08-4.23V24.41c0-1.49-.58-2.21-1.59-2.21s-2.18,1.32-2.18,3.84Z"/><path class="cls-2" d="M165.67,32.45a4.46,4.46,0,0,1-3.53-1.51l.05,5.14a.21.21,0,0,1-.22.21h-3.24a.21.21,0,0,1-.21-.21l.07-8.88-.07-7.13a.21.21,0,0,1,.21-.22H162a.21.21,0,0,1,.21.22l-.07,1.22a4.53,4.53,0,0,1,3.65-1.68c3.51,0,5.35,2.78,5.35,6.39S169,32.45,165.67,32.45Zm-1-2.42c1.82,0,2.76-1.32,2.76-3.84,0-2.74-.94-4.13-2.69-4.13S162,23.38,162,26,162.93,30,164.66,30Z"/><path class="cls-2" d="M172.87,32.21a.21.21,0,0,1-.22-.21l.1-8.19-.1-8.18a.22.22,0,0,1,.22-.22H176a.22.22,0,0,1,.22.22l-.1,8.18.1,8.19a.21.21,0,0,1-.22.21Z"/><path class="cls-2" d="M189.88,28a.19.19,0,0,1,.2.21c-.32,2.26-2.48,4.27-5.93,4.27-4.13,0-6.36-2.71-6.36-6.45,0-3.94,2.35-6.53,6.29-6.53s6.31,2.69,6.38,7a.21.21,0,0,1-.22.21h-8.83c.15,2.33,1.06,3.36,2.79,3.36a2.26,2.26,0,0,0,2.4-1.87.27.27,0,0,1,.26-.21Zm-5.78-6.12c-1.44,0-2.31.86-2.59,2.56h5.06A2.53,2.53,0,0,0,184.1,21.92Z"/><path class="cls-2" d="M199.12,31.76a.32.32,0,0,1-.19.28,7.07,7.07,0,0,1-2.26.41c-2.08,0-4.08-1.05-4.08-3.86l0-6.2h-1.39a.21.21,0,0,1-.22-.21V20.07a.22.22,0,0,1,.22-.22h1.39l0-2.88a.22.22,0,0,1,.22-.22H196a.22.22,0,0,1,.22.22l0,2.88h2.73a.22.22,0,0,1,.22.22v2.11a.21.21,0,0,1-.22.21h-2.76l0,6.1c0,1.06.52,1.39,1.32,1.39a4.37,4.37,0,0,0,1.39-.21.17.17,0,0,1,.21.17Z"/><path class="cls-2" d="M212,28a.19.19,0,0,1,.2.21c-.32,2.26-2.48,4.27-5.93,4.27-4.13,0-6.36-2.71-6.36-6.45,0-3.94,2.35-6.53,6.29-6.53s6.31,2.69,6.38,7a.21.21,0,0,1-.22.21h-8.83c.15,2.33,1.06,3.36,2.79,3.36a2.26,2.26,0,0,0,2.4-1.87.27.27,0,0,1,.26-.21Zm-5.78-6.12c-1.44,0-2.3.86-2.59,2.56h5.06A2.53,2.53,0,0,0,206.18,21.92Z"/><path class="cls-2" d="M214.24,27.34a.21.21,0,0,1-.21-.22V15.63a.21.21,0,0,1,.21-.22h3.15a.21.21,0,0,1,.21.22V27.12a.21.21,0,0,1-.21.22Zm0,4.87A.21.21,0,0,1,214,32V29a.21.21,0,0,1,.21-.21h3.15a.21.21,0,0,1,.21.21v3a.21.21,0,0,1-.21.21Z"/></svg>