<svg id="Layer_1" data-name="Layer 1" xmlns="http://www.w3.org/2000/svg" xmlns:xlink="http://www.w3.org/1999/xlink" viewBox="0 0 250 50"><defs><style>.cls-1{fill:url(#linear-gradient);}.cls-2{fill:#fff;}</style><linearGradient id="linear-gradient" x1="125" y1="50" x2="125" gradientUnits="userSpaceOnUse"><stop offset="0" stop-color="#ffa08e"/><stop offset="0.08" stop-color="#ff8776"/><stop offset="0.21" stop-color="#ff6554"/><stop offset="0.33" stop-color="#ff4c3c"/><stop offset="0.45" stop-color="#ff3d2e"/><stop offset="0.54" stop-color="#ff3829"/><stop offset="0.62" stop-color="#ff3d2e"/><stop offset="0.71" stop-color="#ff4d3d"/><stop offset="0.82" stop-color="#ff6656"/><stop offset="0.94" stop-color="#ff8978"/><stop offset="1" stop-color="#ffa08e"/></linearGradient></defs><title>Levl 3 Complete</title><rect class="cls-1" width="250" height="50" rx="25"/><path class="cls-2" d="M29.88,32.21a.21.21,0,0,1-.22-.21l.12-8.19-.12-8.18a.22.22,0,0,1,.22-.22h3.29a.21.21,0,0,1,.21.22l-.09,8,.09,5.9H40.2a.21.21,0,0,1,.21.22V32a.21.21,0,0,1-.21.21Z"/><path class="cls-2" d="M53.18,28a.18.18,0,0,1,.19.21c-.31,2.26-2.47,4.27-5.92,4.27-4.13,0-6.36-2.71-6.36-6.45,0-3.94,2.35-6.53,6.28-6.53s6.32,2.69,6.39,7a.21.21,0,0,1-.22.21H44.71c.14,2.33,1.06,3.36,2.78,3.36a2.25,2.25,0,0,0,2.4-1.87.29.29,0,0,1,.27-.21ZM47.4,21.91c-1.44,0-2.31.87-2.59,2.57h5.06A2.53,2.53,0,0,0,47.4,21.91Z"/><path class="cls-2" d="M62.23,32a.36.36,0,0,1-.29.2H58.13a.36.36,0,0,1-.29-.2L53.66,20c0-.09,0-.19.15-.19h3.45a.35.35,0,0,1,.29.22l2.64,9.12,2.9-9.12a.35.35,0,0,1,.29-.22h2.95a.15.15,0,0,1,.15.19Z"/><path class="cls-2" d="M78.5,28a.18.18,0,0,1,.19.21c-.31,2.26-2.47,4.27-5.92,4.27-4.13,0-6.36-2.71-6.36-6.45,0-3.94,2.35-6.53,6.28-6.53s6.32,2.69,6.39,7a.21.21,0,0,1-.22.21H70c.14,2.33,1.06,3.36,2.78,3.36a2.25,2.25,0,0,0,2.4-1.87.29.29,0,0,1,.27-.21Zm-5.78-6.13c-1.44,0-2.31.87-2.59,2.57h5.06A2.53,2.53,0,0,0,72.72,21.91Z"/><path class="cls-2" d="M80.83,32.21a.21.21,0,0,1-.22-.21l.1-8.19-.1-8.18a.22.22,0,0,1,.22-.22H84a.22.22,0,0,1,.22.22l-.1,8.18.1,8.19a.21.21,0,0,1-.22.21Z"/><path class="cls-2" d="M96.93,32.45c-3.69,0-5.66-1.85-5.93-5.3a.19.19,0,0,1,.2-.22h3.09a.22.22,0,0,1,.22.22C94.6,29,95.42,30,97,30c1.46,0,2.47-1.05,2.52-2.83s-1-2.71-3.48-2.71h-.51a.21.21,0,0,1-.21-.22V22.35a.21.21,0,0,1,.21-.22h.51c2.21,0,3.19-.93,3.19-2.28a2.11,2.11,0,0,0-2.11-2.23c-1.46,0-2.26.81-2.38,2.5a.25.25,0,0,1-.24.21h-3a.18.18,0,0,1-.19-.21c.22-3.2,2.38-5,6-5,3.26,0,5.47,1.7,5.5,4.32a3.61,3.61,0,0,1-2.76,3.63,3.84,3.84,0,0,1,3.19,3.93C103.27,30.51,100.34,32.45,96.93,32.45Z"/><path class="cls-2" d="M117.91,32.57c-5.16,0-8.35-3.57-8.35-8.69,0-5.35,3.26-8.83,8.33-8.83,3.62,0,6.55,1.49,7.51,6a.17.17,0,0,1-.17.21h-3.14a.29.29,0,0,1-.27-.21,3.76,3.76,0,0,0-4-3.17c-2.93,0-4.52,2.26-4.52,6s1.64,5.9,4.49,5.9c2.36,0,3.63-1.27,4.06-3.55a.27.27,0,0,1,.26-.21h3.22a.17.17,0,0,1,.17.21C124.61,30.8,121.85,32.57,117.91,32.57Z"/><path class="cls-2" d="M133,32.52c-4,0-6.36-2.52-6.36-6.45S129,19.54,133,19.54s6.31,2.52,6.31,6.46S137.06,32.52,133,32.52Zm0-2.4c1.78,0,2.62-1.22,2.62-4.05s-.87-4.13-2.64-4.13-2.67,1.37-2.67,4.15S131.23,30.12,133,30.12Z"/><path class="cls-2" d="M144.45,27.77l.07,4.23a.21.21,0,0,1-.21.21H141a.21.21,0,0,1-.22-.21l.08-4.23,0-7.7a.22.22,0,0,1,.22-.22h3.07a.22.22,0,0,1,.22.22l-.08,1.34a4.1,4.1,0,0,1,3.56-1.85,3.41,3.41,0,0,1,3.52,2.33,3.94,3.94,0,0,1,3.77-2.33c2.5,0,3.94,1.52,3.94,4.8v3.41l.05,4.23a.21.21,0,0,1-.22.21h-3.24a.21.21,0,0,1-.22-.21l.08-4.23V24.41c0-1.49-.6-2.21-1.59-2.21s-2.18,1.32-2.18,3.84v1.73l.07,4.23a.21.21,0,0,1-.22.21h-3.24a.21.21,0,0,1-.21-.21l.07-4.23V24.41c0-1.49-.58-2.21-1.58-2.21s-2.19,1.32-2.19,3.84Z"/><path class="cls-2" d="M167.85,32.45a4.46,4.46,0,0,1-3.53-1.51l.05,5.14a.21.21,0,0,1-.21.21h-3.24a.21.21,0,0,1-.22-.21l.07-8.88-.07-7.13a.22.22,0,0,1,.22-.22h3.21a.22.22,0,0,1,.22.22l-.07,1.22a4.53,4.53,0,0,1,3.64-1.68c3.51,0,5.36,2.79,5.36,6.39S171.21,32.45,167.85,32.45Zm-1-2.42c1.83,0,2.76-1.32,2.76-3.84,0-2.74-.93-4.13-2.68-4.13s-2.69,1.32-2.72,3.89S165.12,30,166.84,30Z"/><path class="cls-2" d="M175.05,32.21a.21.21,0,0,1-.21-.21l.09-8.19-.09-8.18a.21.21,0,0,1,.21-.22h3.15a.21.21,0,0,1,.21.22l-.09,8.18.09,8.19a.21.21,0,0,1-.21.21Z"/><path class="cls-2" d="M192.07,28a.18.18,0,0,1,.19.21c-.31,2.26-2.47,4.27-5.93,4.27-4.13,0-6.36-2.71-6.36-6.45,0-3.94,2.35-6.53,6.29-6.53s6.31,2.69,6.38,7a.21.21,0,0,1-.21.21H183.6c.14,2.33,1.05,3.36,2.78,3.36a2.26,2.26,0,0,0,2.4-1.87A.27.27,0,0,1,189,28Zm-5.79-6.13c-1.44,0-2.3.87-2.59,2.57h5.07A2.54,2.54,0,0,0,186.28,21.91Z"/><path class="cls-2" d="M201.31,31.76a.34.34,0,0,1-.19.28,7.12,7.12,0,0,1-2.26.41c-2.09,0-4.08-1.05-4.08-3.86l0-6.19h-1.39a.22.22,0,0,1-.22-.22V20.07a.22.22,0,0,1,.22-.22h1.39l0-2.88a.22.22,0,0,1,.21-.22h3.2a.21.21,0,0,1,.21.22l0,2.88h2.74a.21.21,0,0,1,.21.22v2.11a.21.21,0,0,1-.21.22h-2.77l0,6.09c0,1.06.53,1.39,1.32,1.39a4.33,4.33,0,0,0,1.39-.21.18.18,0,0,1,.22.17Z"/><path class="cls-2" d="M214.15,28a.18.18,0,0,1,.19.21c-.31,2.26-2.47,4.27-5.93,4.27-4.13,0-6.36-2.71-6.36-6.45,0-3.94,2.35-6.53,6.29-6.53s6.31,2.69,6.38,7a.21.21,0,0,1-.21.21h-8.83c.14,2.33,1,3.36,2.78,3.36a2.26,2.26,0,0,0,2.4-1.87.27.27,0,0,1,.26-.21Zm-5.79-6.13c-1.44,0-2.3.87-2.59,2.57h5.07A2.54,2.54,0,0,0,208.36,21.91Z"/><path class="cls-2" d="M216.43,27.34a.22.22,0,0,1-.22-.22V15.63a.22.22,0,0,1,.22-.22h3.14a.22.22,0,0,1,.22.22V27.12a.22.22,0,0,1-.22.22Zm0,4.87a.21.21,0,0,1-.22-.21V29a.21.21,0,0,1,.22-.21h3.14a.21.21,0,0,1,.22.21v3a.21.21,0,0,1-.22.21Z"/></svg>