<svg id="Layer_1" data-name="Layer 1" xmlns="http://www.w3.org/2000/svg" viewBox="0 0 35.03 38.69"><defs><style>.cls-1{fill:#fff;}.cls-2{fill:#932600;}.cls-3{fill:#c43300;}.cls-4{fill:#ff4800;}.cls-5{fill:#2d9000;}.cls-6{fill:#1b4900;}.cls-7{fill:#308200;}</style></defs><title>Present- v01-01</title><path class="cls-1" d="M6.69,1.79h.25A4.75,4.75,0,0,1,7.87,2a11.81,11.81,0,0,1,7.3,5.49h0l.26.42h.12L17.83,8,18,8h0l.29-.4h0A11.77,11.77,0,0,1,26,2.68a4.49,4.49,0,0,1,.83-.08H27a4.44,4.44,0,0,1,2.65,7.87h2.24a1.53,1.53,0,0,1,.6.12,1.77,1.77,0,0,1,.85.77s.07.19.1.27,0,0,0,0a1.86,1.86,0,0,1,0,.33v6H31.25v.31l-.25,0,.09.39.16-.43S31.31,33,31.31,33a3.89,3.89,0,0,1-3.88,3.89H24.28l.07-.18a8.76,8.76,0,0,1-1.79.19H20.28a1,1,0,0,1-.91.61h-2.8a3.53,3.53,0,0,1-.92-.14,1,1,0,0,0,.49.14H14.26a1,1,0,0,1-.92-.61H12.07a7.3,7.3,0,0,1-.94-.06L7,36.73a3.89,3.89,0,0,1-3.82-3.95l.17-9.49V20.47h0V18.08H1.07v-6a1.49,1.49,0,0,1,1.19-1.47l.23,0h3a4.47,4.47,0,0,1-3.3-4.48s0-.11,0-.17A4.51,4.51,0,0,0,2.3,6.94a3.58,3.58,0,0,1,0-.87A4.45,4.45,0,0,1,6.69,1.79M10.57,10c.87,0,1.63,0,2.31-.09.32,0,.6,0,.84-.08V9.56a1.67,1.67,0,0,1,.52-1.17A7.8,7.8,0,0,0,9.18,4.23a3.1,3.1,0,0,0-.61-.09H8.42A2.88,2.88,0,0,0,8.3,9.88c.84,0,1.58.07,2.27.07m12.67.53H25.6a2.87,2.87,0,0,0-.47-5.68H25a3.07,3.07,0,0,0-.53,0A7.79,7.79,0,0,0,19.1,8.58a1.79,1.79,0,0,1,.43,1.21V10l.56.11c.75.12,1.61.23,2.6.32l.56,0M6.69.68h0A5.57,5.57,0,0,0,1.14,5.81H1.05A1.7,1.7,0,0,0,1,6a5.46,5.46,0,0,0,1,3.46H2A2.63,2.63,0,0,0-.06,12.06V19.2H2.22v4.09l-.16,9.47A5,5,0,0,0,7,37.85l4.08.11a8.75,8.75,0,0,0,1,0h.71a2.13,2.13,0,0,0,1.48.61h5.13a2.1,2.1,0,0,0,1.46-.6h6.58a5,5,0,0,0,5-5c0-9-.05-12.5-.06-13.83H34.6V18l0-6a2.76,2.76,0,0,0-.06-.57l0-.07v0c-.05-.15-.12-.35-.15-.42l0,0,0,0a2.79,2.79,0,0,0-1.45-1.27,2.5,2.5,0,0,0-1-.19h0A5.56,5.56,0,0,0,27,1.49H26.8a5.66,5.66,0,0,0-1,.09,12.74,12.74,0,0,0-8.07,4.85h0l-.29.4-1.32-.06-.25-.42h0A12.72,12.72,0,0,0,8.14.87,5.53,5.53,0,0,0,7,.69H6.69Zm3.87,8.15c-.78,0-1.47,0-2.18-.07A1.78,1.78,0,0,1,7.13,8.2,1.75,1.75,0,0,1,8.42,5.25h.07a2.13,2.13,0,0,1,.39.06h0a6.44,6.44,0,0,1,4,3,3.79,3.79,0,0,0-.18.42c-.71.05-1.43.08-2.18.08Zm9.87-.2A6.4,6.4,0,0,1,24.64,6h.05a1.84,1.84,0,0,1,.33,0h.07a1.75,1.75,0,0,1,.38,3.44H23.28l-.36,0h-.15c-.75-.07-1.48-.16-2.2-.26a3.22,3.22,0,0,0-.14-.44Z"/><path class="cls-2" d="M7.87,2a4.75,4.75,0,0,0-.93-.15H6.87a4.45,4.45,0,0,0-.35,8.9,36,36,0,0,0,10.08-.44C14.11,4,9.81,2.39,7.87,2ZM8.3,9.88a2.88,2.88,0,0,1,.23-5.75h0a3.1,3.1,0,0,1,.61.09c1.25.29,4,1.35,5.63,5.36A22.8,22.8,0,0,1,8.3,9.88Z"/><path class="cls-2" d="M16.6,10.26a35.94,35.94,0,0,0,10,1.24A4.45,4.45,0,0,0,27,2.6h-.07a4.9,4.9,0,0,0-.94.08C24,3,19.58,4.26,16.6,10.26Zm1.84-.52c1.92-3.87,4.78-4.71,6-4.89a2.39,2.39,0,0,1,.6,0h0a2.87,2.87,0,1,1-.23,5.74A23.13,23.13,0,0,1,18.44,9.74Z"/><path class="cls-3" d="M6.84,2.66h0a3.17,3.17,0,0,1,.75.12h0A9.88,9.88,0,0,1,11.5,4.63a13.12,13.12,0,0,1,3.87,5,37.43,37.43,0,0,1-7.26.31c-.51,0-1,0-1.53-.08h0a3.59,3.59,0,1,1,.29-7.17m0-.86a4.45,4.45,0,0,0-.35,8.89l1.55.09a33.57,33.57,0,0,0,8.53-.52C14.11,4,9.81,2.39,7.87,2a4.75,4.75,0,0,0-.93-.15Z"/><path class="cls-4" d="M27,3.47a3.59,3.59,0,0,1-.3,7.17h0l-1.53,0a39.11,39.11,0,0,1-7.22-.9,13.18,13.18,0,0,1,4.26-4.65,9.85,9.85,0,0,1,3.95-1.51h0a3.25,3.25,0,0,1,.76-.06H27m0-.87h-.07a4.9,4.9,0,0,0-.94.08C24,3,19.58,4.26,16.6,10.26a33.31,33.31,0,0,0,8.46,1.2c.5,0,1,0,1.56,0A4.45,4.45,0,0,0,27,2.6Z"/><path class="cls-2" d="M8,10.43c-.5,0-1,0-1.55-.08A4.47,4.47,0,0,1,2.16,5.89c0,.06,0,.12,0,.17a4.45,4.45,0,0,0,4.27,4.63L8,10.78a33.2,33.2,0,0,0,8.53-.53,2.88,2.88,0,0,1-.13-.31A34.91,34.91,0,0,1,8,10.43Z"/><path class="cls-2" d="M26.54,11.16l-1.56,0A34.72,34.72,0,0,1,16.66,10l-.15.3A32.84,32.84,0,0,0,25,11.46l1.55,0a4.45,4.45,0,0,0,4.63-4.27V7.06A4.45,4.45,0,0,1,26.54,11.16Z"/><path class="cls-2" d="M14.17,8.22a1.22,1.22,0,0,1,1-.37l.29,0-.26-.42-.29,0a1.22,1.22,0,0,0-1,.37Z"/><path class="cls-2" d="M19.19,8.42a1.18,1.18,0,0,0-1-.44H18l.29-.4h.3a1.22,1.22,0,0,1,.94.45Z"/><rect class="cls-4" x="13.72" y="7.91" width="5.8" height="3.76" rx="1.58" transform="translate(0.41 -0.66) rotate(2.3)"/><rect class="cls-5" x="3.35" y="11.73" width="27.9" height="25.15" rx="3.02" transform="translate(-0.05 0.03) rotate(-0.11)"/><path class="cls-5" d="M33.48,18V12A1.51,1.51,0,0,0,32,10.5l-29.4.05a1.51,1.51,0,0,0-1.5,1.51v6Z"/><polygon class="cls-6" points="12.92 21.56 12.67 36.89 14.06 36.89 14.35 20.41 12.92 21.56"/><path class="cls-7" d="M12.92,21.56l-.25,15.33L7,36.73a3.89,3.89,0,0,1-3.82-3.95l.17-9.53,9.57-1.69Z"/><polygon class="cls-6" points="3.35 23.25 31.24 18.33 31.28 17.23 3.33 16.75 3.35 23.25"/><path class="cls-7" d="M13.8,18.08l-.11-7.6-11.13.07a1.51,1.51,0,0,0-1.5,1.51v6Z"/><path class="cls-7" d="M33.37,12a1.5,1.5,0,0,0-1.51-1.5l-11.68,0V18l13.19,0Z"/><path class="cls-4" d="M13.71,9.81h6.12a.47.47,0,0,1,.47.47V36.44a1.05,1.05,0,0,1-1.05,1.05h-5a1.05,1.05,0,0,1-1.05-1.05V10.29a.47.47,0,0,1,.47-.47Z" transform="translate(-0.04 0.03) rotate(-0.11)"/><path class="cls-2" d="M15.14,36.49l-.05-25.86a.8.8,0,0,1,.79-.81H14a.81.81,0,0,0-.81.81l0,25.87a1,1,0,0,0,1,1h1.87A1,1,0,0,1,15.14,36.49Z"/></svg>