<?xml version="1.0" encoding="utf-8"?>
<!-- Svg Vector Icons : http://www.onlinewebfonts.com/icon -->
<!DOCTYPE svg PUBLIC "-//W3C//DTD SVG 1.1//EN" "http://www.w3.org/Graphics/SVG/1.1/DTD/svg11.dtd">
<svg version="1.1" xmlns="http://www.w3.org/2000/svg" xmlns:xlink="http://www.w3.org/1999/xlink" x="0px" y="0px" viewBox="0 0 1000 1000" enable-background="new 0 0 1000 1000" xml:space="preserve">
<metadata> Svg Vector Icons : http://www.onlinewebfonts.com/icon </metadata>
<g><g><path d="M910.6,599.8c-11.9,0-21.7,9.7-21.7,21.6c0,12,9.7,21.7,21.7,21.7c20,0,36.1,16.2,36.1,36.1c0,20-16.2,36.1-36.1,36.1H728.5l-36.6-63.4h51.9c56.3,0,102-45.6,102-101.9c0-56.3-45.6-102.1-102-102.1c-51.8,0-30.3,27.3-100.7,89c-70.3,61.6-244.5,0-244.5,0c13.5-27.3,21.8-57.7,21.8-90.2c0-113.4-91.9-205.2-205.2-205.2H110.4C55,241.5,10,286.5,10,341.9c0,55.4,45,100.4,100.5,100.4c0.1,0,0.3,0,0.4,0c0,1.5-0.4,2.9-0.4,4.3c0,113.3,91.9,205.1,205.2,205.1h8.2l-36.7,63.4H68.5c-12,0-21.7,9.7-21.7,21.7c0,12,9.7,21.6,21.7,21.6h842.1c43.8,0,79.4-35.6,79.4-79.4C990,635.3,954.4,599.8,910.6,599.8z M371.9,651.8h271.8l36.6,63.4H335.3L371.9,651.8z"/></g><g></g><g></g><g></g><g></g><g></g><g></g><g></g><g></g><g></g><g></g><g></g><g></g><g></g><g></g><g></g></g>
</svg>