<svg id="Layer_1" data-name="Layer 1" xmlns="http://www.w3.org/2000/svg" viewBox="0 0 155 336"><defs><style>.cls-1{fill:#004651;}.cls-2{fill:none;}</style></defs><title>Blank Fish reward - v01</title><path class="cls-1" d="M78.58,261.76v-7.18C92.7,219.78,97,197.74,97,197.74c.67-2.63,1.28-5.21,1.87-7.78a127.09,127.09,0,0,0,12.49-20,50.25,50.25,0,0,0,4.28-13.38c2.68-14.66,12.08-34.87,12.08-34.87-10.49-9.64-18.6-10.52-21.93-10.37,0-.09,0-.19,0-.28s0-.29,0-.44a.45.45,0,0,0,.16-.24,11.48,11.48,0,0,0,.35-2.46l-.36-5.75a6.82,6.82,0,0,0-.63-2.44c1.41-3.08,1.86-8.26,2-11.28A3.32,3.32,0,0,0,104.61,85a11.86,11.86,0,0,0-2.8-.22l-.24-1c-.1-.42-.19-.85-.29-1.26s-.27-1-.4-1.55-.2-.83-.31-1.24-.27-1-.41-1.49L99.83,77l-.48-1.63c-.1-.33-.19-.67-.29-1l-.42-1.33c-.13-.41-.25-.83-.39-1.24s-.23-.7-.34-1l-.48-1.44-.38-1.07c-.16-.45-.31-.9-.47-1.34s-.3-.82-.46-1.23-.27-.75-.41-1.11-.31-.78-.46-1.17-.29-.74-.43-1.1l-.44-1.07c-.16-.38-.31-.76-.47-1.13s-.3-.71-.46-1.07-.3-.71-.46-1.06-.35-.77-.52-1.16-.27-.6-.41-.89-.35-.74-.52-1.1-.28-.6-.42-.88l-.5-1-.45-.9-.52-1c-.15-.27-.29-.55-.43-.82l-.54-1-.41-.77-.53-.94-.43-.77-.49-.83-.46-.8-.53-.88-.42-.69-.49-.77L84.47,42,84,41.35c-.16-.25-.32-.51-.49-.75l-.44-.66-.48-.7c-.14-.21-.28-.41-.43-.61l-.47-.69-.48-.65-.42-.58c-.14-.2-.29-.39-.43-.58s-.29-.4-.44-.59-.28-.36-.43-.55-.28-.37-.42-.54l-.44-.56-.39-.48-.44-.53-.36-.44L77,31.92l-.32-.38-.42-.47-.33-.37-.51-.56a2,2,0,0,0-.2-.21l-.39-.42a4.11,4.11,0,0,0-.29-.3l-.37-.38-.26-.27-.36-.35L73.32,28,73,27.66l-.23-.21-.33-.3L72.25,27h0c-1-.9-3.09.76-3.09.76l0,.11-9.94,3.28c0-.79-1.38-1.15-2-.41a32.4,32.4,0,0,0-3.85,6c-2.61,6.2-6.44,13.81-10.72,28.72l-.09.17a2,2,0,0,0-.69.11,5.72,5.72,0,0,0-1.64,1c-3.14,2.67-4,6.61-4.35,10.4a5.63,5.63,0,0,0,1,3.65h0c-1.12,3.85-1.79,6.69-1.79,6.69-6,44.16-.11,57.8,11.17,102.3,0,0,8.21,26.15,22.48,60.95L70.58,255v6.88c-19.51,3.18-35.58,25.22-43.46,47,12.25-18.88,29-33.35,47.53-33.35S109.92,290,122.18,308.9C114.17,286.79,97.74,264.41,78.58,261.76Z"/><path class="cls-2" d="M71.62,26.71a4.83,4.83,0,0,0-2.33,1l0,.11-9.93,3.28a1,1,0,0,0-1.09-.81,1.09,1.09,0,0,0-.87.4,32.4,32.4,0,0,0-3.85,6c-2.61,6.2-6.44,13.81-10.72,28.72,0,.05-.06.11-.09-.21h0a.93.93,0,0,1-.65.49,5.85,5.85,0,0,0-1.64,1c-3.14,2.67-4,6.61-4.35,10.4a5.63,5.63,0,0,0,1,3.65h0c-1.12,3.85-1.79,6.69-1.79,6.69-6,44.16-.11,57.8,11.17,102.3,0,0,8.22,26.15,22.48,60.95L70.58,255v6.88c-19.37,3.18-35.44,25.22-43.32,47,12.26-18.88,29-33.35,47.53-33.35S110.06,290,122.32,308.9c-8-22.11-24.44-44.49-43.74-47.14v-7.18c14.26-34.8,18.59-56.84,18.59-56.84.66-2.63,1.28-5.21,1.86-7.78a127.09,127.09,0,0,0,12.49-20,50.27,50.27,0,0,0,4.29-13.38c2.67-14.66,12.07-34.87,12.07-34.87-9.87-9.07-17.63-10.38-21.29-10.38H106c0-.09,0-.19,0-.28s0-.29,0-.44a.4.4,0,0,0,.16-.24,10.89,10.89,0,0,0,.35-2.46l-.36-5.75a6.62,6.62,0,0,0-.63-2.44c1.41-3.08,1.87-8.26,2-11.28A3.31,3.31,0,0,0,104.75,85a11.87,11.87,0,0,0-2.4-.23H102c-.08-.34-.15-.68-.23-1l-.3-1.26L101,81c-.11-.41-.21-.83-.32-1.24s-.27-1-.41-1.49L100,77l-.48-1.63c-.1-.33-.19-.67-.29-1l-.42-1.33c-.13-.41-.25-.83-.38-1.24s-.24-.7-.35-1l-.48-1.44c-.12-.36-.25-.71-.38-1.07s-.31-.9-.47-1.34l-.45-1.23c-.14-.37-.28-.75-.42-1.11s-.3-.78-.46-1.17-.28-.74-.43-1.1-.29-.71-.44-1.07-.31-.76-.46-1.13l-.47-1.07L93.14,58l-.53-1.16-.4-.89c-.18-.37-.35-.74-.53-1.1s-.28-.6-.42-.88-.33-.68-.5-1-.3-.6-.44-.9-.36-.68-.53-1-.28-.55-.43-.82l-.54-1c-.14-.26-.27-.52-.41-.77l-.53-.94c-.14-.25-.28-.52-.43-.77L87,45.9l-.46-.8L86,44.22l-.42-.69-.49-.77L84.61,42l-.45-.68-.48-.75-.45-.66-.48-.7-.42-.61c-.16-.23-.32-.47-.48-.69l-.48-.65L81,36.71l-.44-.58c-.15-.2-.29-.4-.44-.59L79.66,35l-.43-.54-.44-.56-.38-.48L78,32.88l-.36-.44-.45-.52c-.1-.13-.21-.26-.32-.38l-.42-.47-.32-.37-.52-.56-.19-.21-.4-.42-.28-.3-.37-.38-.27-.27-.36-.35L73.46,28l-.33-.31a2.29,2.29,0,0,0-.23-.21l-.32-.3L72.39,27h0a1.13,1.13,0,0,0-.77-.27Z"/></svg>