<svg id="Layer_1" data-name="Layer 1" xmlns="http://www.w3.org/2000/svg" xmlns:xlink="http://www.w3.org/1999/xlink" viewBox="0 0 72 80"><defs><style>.cls-1{fill:#00b7ff;}.cls-2{fill:url(#linear-gradient);}.cls-3{opacity:0.15;}.cls-4{fill:#fff;}.cls-5{fill:url(#linear-gradient-2);}.cls-6{fill:#d7f7ff;}.cls-7{fill:#97e1f2;}</style><linearGradient id="linear-gradient" x1="35.77" y1="9.48" x2="36.22" y2="78.08" gradientUnits="userSpaceOnUse"><stop offset="0" stop-color="#1a5b96" stop-opacity="0"/><stop offset="0.17" stop-color="#1a5b96" stop-opacity="0.03"/><stop offset="0.33" stop-color="#1a5b96" stop-opacity="0.1"/><stop offset="0.49" stop-color="#1a5b96" stop-opacity="0.23"/><stop offset="0.65" stop-color="#1a5b96" stop-opacity="0.41"/><stop offset="0.81" stop-color="#1a5b96" stop-opacity="0.65"/><stop offset="0.96" stop-color="#1a5b96" stop-opacity="0.93"/><stop offset="1" stop-color="#1a5b96"/></linearGradient><linearGradient id="linear-gradient-2" x1="1328.91" y1="-4.55" x2="1334.2" y2="22.05" gradientTransform="matrix(-1, 0, 0, 1, 1373.79, 0)" gradientUnits="userSpaceOnUse"><stop offset="0" stop-color="#1a5b96" stop-opacity="0"/><stop offset="0.13" stop-color="#1a5b96" stop-opacity="0.04"/><stop offset="0.31" stop-color="#1a5b96" stop-opacity="0.15"/><stop offset="0.5" stop-color="#1a5b96" stop-opacity="0.33"/><stop offset="0.72" stop-color="#1a5b96" stop-opacity="0.59"/><stop offset="0.94" stop-color="#1a5b96" stop-opacity="0.91"/><stop offset="1" stop-color="#1a5b96"/></linearGradient></defs><title>Next Level - 72x80 - v01</title><ellipse class="cls-1" cx="36" cy="44.5" rx="36" ry="35.5"/><ellipse class="cls-2" cx="36" cy="44.5" rx="36" ry="35.5"/><path class="cls-3" d="M21.62,42.65v5.24H38.9v10.3L52,45.24l-13.11-13V42.65Z"/><path class="cls-4" d="M20.28,41.33v5.23H37.56V56.87L50.67,43.92,37.56,31V41.33Z"/><path class="cls-5" d="M60.58,8.28C51.52-2.34,45.43,1,39.44,3.69c-8.12,0-20.84.36-26.34,9.26-2.24,3.63-1.33,6.66,2.48,6.31C18.34,19,22,19.66,27,16.81c1.82-1,10.77-3.11,12.65-2.22,3.12,1.47,8.4,3.35,13.84,2.62a7,7,0,0,1,6.66,3.06A47.21,47.21,0,0,0,65,26.5c1.06,1.07,2.49,1.64,2.56,0C67.78,21.35,68.59,10.93,60.58,8.28Z"/><path class="cls-6" d="M60.16,6.3C51.09-4.33,39,1.71,39,1.71S24-3.48,13.46,11.6c-2.42,3.46-1.38,5,2.43,4.66,2.76-.25,5.7,1.42,10.68-1.43,1.82-1,10.77-3.11,12.65-2.22,3.13,1.47,8.41,3.35,13.85,2.62a7,7,0,0,1,6.65,3.05,69.76,69.76,0,0,0,6,7.55c1.06,1.07,2.69.23,2.76-1.41C68.76,19.27,68.16,8.94,60.16,6.3Z"/><path class="cls-4" d="M17.21,7C25.86-1.83,39,1.71,39,1.71s12.08-6,21.14,4.59a10.53,10.53,0,0,1,6,5.14,10.82,10.82,0,0,0-1.89-1.15,6.43,6.43,0,0,1-1.94-1.36c-6.57-6.86-14.42-5.64-18.15-4.5a6,6,0,0,1-4-.25c-1.83-.74-11.73.75-15.54,2.89,0,0-6.42,2.56-8.32,2A3.36,3.36,0,0,1,17.21,7Z"/><path class="cls-7" d="M15.89,12.24c2.76-.26,5.7,1.41,10.68-1.44,1.82-1,10.77-3.1,12.65-2.22,3.12,1.47,8.4,3.36,13.84,2.62a7,7,0,0,1,6.66,3.06,69.73,69.73,0,0,0,6,7.55c1,1,2.54.28,2.74-1.21a38.06,38.06,0,0,1,0,3.82c-.07,1.64-1.71,2.48-2.77,1.41a69.73,69.73,0,0,1-6-7.55,7,7,0,0,0-6.66-3.05c-5.44.73-10.72-1.15-13.84-2.62-1.88-.89-10.83,1.18-12.65,2.22-5,2.85-7.92,1.18-10.68,1.43-3.65.34-4.75-1.07-2.71-4.24A6.23,6.23,0,0,0,15.89,12.24Z"/></svg>