<svg id="Layer_1" data-name="Layer 1" xmlns="http://www.w3.org/2000/svg" xmlns:xlink="http://www.w3.org/1999/xlink" viewBox="0 0 72 80"><defs><style>.cls-1{fill:#00b7ff;}.cls-2{fill:url(#linear-gradient);}.cls-3{opacity:0.15;}.cls-4{fill:#fff;}.cls-5{fill:url(#linear-gradient-2);}.cls-6{fill:#d7f7ff;}.cls-7{fill:#97e1f2;}</style><linearGradient id="linear-gradient" x1="35.76" y1="7.49" x2="36.23" y2="78.02" gradientUnits="userSpaceOnUse"><stop offset="0" stop-color="#1a5b96" stop-opacity="0"/><stop offset="0.17" stop-color="#1a5b96" stop-opacity="0.03"/><stop offset="0.33" stop-color="#1a5b96" stop-opacity="0.1"/><stop offset="0.49" stop-color="#1a5b96" stop-opacity="0.23"/><stop offset="0.65" stop-color="#1a5b96" stop-opacity="0.41"/><stop offset="0.81" stop-color="#1a5b96" stop-opacity="0.65"/><stop offset="0.96" stop-color="#1a5b96" stop-opacity="0.93"/><stop offset="1" stop-color="#1a5b96"/></linearGradient><linearGradient id="linear-gradient-2" x1="26.83" y1="-3.83" x2="31.75" y2="20.92" gradientUnits="userSpaceOnUse"><stop offset="0" stop-color="#1a5b96" stop-opacity="0"/><stop offset="0.13" stop-color="#1a5b96" stop-opacity="0.04"/><stop offset="0.31" stop-color="#1a5b96" stop-opacity="0.15"/><stop offset="0.5" stop-color="#1a5b96" stop-opacity="0.33"/><stop offset="0.72" stop-color="#1a5b96" stop-opacity="0.59"/><stop offset="0.94" stop-color="#1a5b96" stop-opacity="0.91"/><stop offset="1" stop-color="#1a5b96"/></linearGradient></defs><title>Replay - 72x80 - v01</title><ellipse class="cls-1" cx="36" cy="43.5" rx="36" ry="36.5"/><ellipse class="cls-2" cx="36" cy="43.5" rx="36" ry="36.5"/><path class="cls-3" d="M37,32.14V24.21l-9.73,9.91L37,44V36.1A11.9,11.9,0,1,1,25.33,48H21.44A15.7,15.7,0,0,0,37,63.85c11.23,0,15.56-9.78,15.56-15.85A15.71,15.71,0,0,0,37,32.14Z"/><path class="cls-4" d="M35,31.14V23.21l-9.73,9.91L35,43V35.1A11.9,11.9,0,1,1,23.33,47H19.44A15.56,15.56,0,1,0,35,31.14Z"/><path class="cls-5" d="M11.09,8.54c10.75-11,18-7.46,25.07-4.74,9.64,0,16.6-1.68,23.12,7.5,2.66,3.75,1.58,6.87-2.94,6.51-3.27-.26-7.64.41-13.54-2.53a8.35,8.35,0,0,0-6.88-.23c-3.71,1.52-10,3.46-16.42,2.7a8.86,8.86,0,0,0-7.89,3.16,50.76,50.76,0,0,1-5.74,6.43c-1.25,1.1-3,1.69-3,0C2.56,22,1.6,11.27,11.09,8.54Z"/><path class="cls-6" d="M11.09,6.5c10.75-11,25.07-4.74,25.07-4.74s9.7-7.41,22.18,8.14c2.87,3.58,1.64,5.18-2.88,4.81-3.27-.26-6.76,1.46-12.66-1.47A8.35,8.35,0,0,0,35.92,13c-3.71,1.52-10,3.47-16.42,2.71a8.85,8.85,0,0,0-7.89,3.15,75.4,75.4,0,0,1-7.17,7.79A2,2,0,0,1,1.16,25.2C.89,19.88,1.6,9.23,11.09,6.5Z"/><path class="cls-4" d="M53.9,5.17C43.63-3.95,36.16,1.76,36.16,1.76S21.84-4.46,11.09,6.5A12.09,12.09,0,0,0,4,11.81a12.12,12.12,0,0,1,2.23-1.2A7.78,7.78,0,0,0,8.52,9.22C16.3,2.14,25.61,3.39,30,4.57a8.17,8.17,0,0,0,4.79-.26,13,13,0,0,1,10.31.93S52.75,7.87,55,7.3A3.26,3.26,0,0,0,53.9,5.17Z"/><path class="cls-7" d="M55.46,10.56C52.19,10.3,48.7,12,42.8,9.08a8.35,8.35,0,0,0-6.88-.23c-3.71,1.52-10,3.46-16.42,2.71a8.85,8.85,0,0,0-7.89,3.15A75.4,75.4,0,0,1,4.44,22.5,2,2,0,0,1,1.2,21.25a33.13,33.13,0,0,0,0,3.95,2,2,0,0,0,3.28,1.45,75.4,75.4,0,0,0,7.17-7.79,8.87,8.87,0,0,1,7.89-3.15C26,16.47,32.21,14.52,35.92,13a8.35,8.35,0,0,1,6.88.24c5.9,2.93,9.39,1.21,12.66,1.47,4.33.35,5.63-1.1,3.21-4.37A8.25,8.25,0,0,1,55.46,10.56Z"/></svg>