<svg id="Layer_1" data-name="Layer 1" xmlns="http://www.w3.org/2000/svg" xmlns:xlink="http://www.w3.org/1999/xlink" viewBox="0 0 400 80"><defs><style>.cls-1{fill:#00b7ff;}.cls-2{fill:url(#linear-gradient);}.cls-3{opacity:0.15;}.cls-4,.cls-9{fill:#fff;}.cls-5{fill:none;stroke:#fff;stroke-miterlimit:10;stroke-width:1.51px;}.cls-6{fill:url(#linear-gradient-2);}.cls-7{fill:#d7f7ff;}.cls-8{fill:#97e1f2;}.cls-9{font-size:24px;font-family:FormaDJRDisplay-Bold, Forma DJR Display;font-weight:700;}.cls-10{letter-spacing:-0.09em;}.cls-11{letter-spacing:0.03em;}.cls-12{letter-spacing:0.01em;}.cls-13{letter-spacing:0.02em;}</style><linearGradient id="linear-gradient" x1="203.85" y1="80" x2="203.85" y2="11.33" gradientUnits="userSpaceOnUse"><stop offset="0" stop-color="#1a5b96"/><stop offset="0.04" stop-color="#1a5b96" stop-opacity="0.93"/><stop offset="0.19" stop-color="#1a5b96" stop-opacity="0.65"/><stop offset="0.35" stop-color="#1a5b96" stop-opacity="0.41"/><stop offset="0.51" stop-color="#1a5b96" stop-opacity="0.23"/><stop offset="0.67" stop-color="#1a5b96" stop-opacity="0.1"/><stop offset="0.83" stop-color="#1a5b96" stop-opacity="0.03"/><stop offset="1" stop-color="#1a5b96" stop-opacity="0"/></linearGradient><linearGradient id="linear-gradient-2" x1="68" y1="-4.36" x2="90.17" y2="110.77" xlink:href="#linear-gradient"/></defs><title>Your Score - 400x80 -v01</title><rect class="cls-1" x="7.7" y="11.33" width="392.3" height="68.67" rx="34.34"/><rect class="cls-2" x="7.7" y="11.33" width="392.3" height="68.67" rx="34.34"/><path class="cls-3" d="M214.55,41.89l2.7-3.25-.11,0c-2.95-1-9.78-2.92-15.74-1l-7.81-.17a2.08,2.08,0,0,0-1.54.65,1.77,1.77,0,0,0-.43,1.53l1.1,5.24a28.54,28.54,0,0,0-2.49,5l-10.69-.63a.42.42,0,0,0-.29.77l2.6,1.78A8.53,8.53,0,0,1,185.64,59l-.06,3a.46.46,0,0,0,.83.25L192.22,54a29.13,29.13,0,0,0,7.18,1.38,7.36,7.36,0,0,1,.12,3.59,1.09,1.09,0,0,0,1.62,1.1,11.78,11.78,0,0,0,5.38-5.63,10.72,10.72,0,0,0,1.13-.46l.61-.3,1.3-.79h0c-.25-.14-.48-.29-.7-.44A9.76,9.76,0,0,1,205.73,49a9.52,9.52,0,0,1-1.17-4.39l1.54,0A8.33,8.33,0,0,0,210.9,52c.33-.25.65-.51.95-.77l.57-.52.26-.26,1.66-2a27.5,27.5,0,0,0,3.47-6.63ZM193,39.41a.52.52,0,0,1,.13-.45.58.58,0,0,1,.43-.19h0l5.09.11a17.06,17.06,0,0,0-4.86,4.45Zm17.83,4.5a2.86,2.86,0,0,1-3-1,2.56,2.56,0,0,1,1.44-4,2.86,2.86,0,0,1,3,1A2.56,2.56,0,0,1,210.81,43.91Z"/><path class="cls-4" d="M213.52,40.6l2.69-3.24-.1,0c-3-1-9.79-2.93-15.75-1l-7.81-.17a2.1,2.1,0,0,0-1.53.65,1.75,1.75,0,0,0-.43,1.54l1.09,5.23a28.07,28.07,0,0,0-2.48,5L178.51,48a.42.42,0,0,0-.3.76l2.6,1.78a8.5,8.5,0,0,1,3.79,7.17l0,3a.45.45,0,0,0,.82.24l5.81-8.24a29.19,29.19,0,0,0,7.18,1.39,7.2,7.2,0,0,1,.12,3.58,1.1,1.1,0,0,0,1.63,1.11,11.92,11.92,0,0,0,5.38-5.63c.37-.14.75-.29,1.12-.46l.61-.31,1.31-.78h0c-.24-.15-.48-.29-.7-.45a9.84,9.84,0,0,1-3.15-3.46,9.49,9.49,0,0,1-1.16-4.4l1.54,0a8.3,8.3,0,0,0,4.79,7.32c.33-.25.65-.51,1-.77l.57-.52.26-.26,1.65-2a27.37,27.37,0,0,0,3.47-6.64ZM192,38.13a.51.51,0,0,1,.12-.45.6.6,0,0,1,.44-.19h0l5.09.11a16.88,16.88,0,0,0-4.85,4.45Zm17.82,4.49a2.86,2.86,0,0,1-3-1,2.56,2.56,0,0,1,1.44-4,2.88,2.88,0,0,1,3,1A2.56,2.56,0,0,1,209.77,42.62Z"/><line class="cls-5" x1="169.91" y1="30.58" x2="169.91" y2="64.78"/><path class="cls-6" d="M141.29,13.08c-.15-.07-1.69.09-1.83,0-4.49,3.09-13.13,7.14-32.4,1.29,0,0-16-5.61-58.5,3.3A4,4,0,0,0,46,19.42c-2.15,3.37-8.88,11.77-21.45,9.49A4.15,4.15,0,0,0,20,30.86C14.77,41.57,10.35,44,7,43.77c0,0,.07,2.38.08,4,.3,0-.15,0,.16,0C13.62,47.44,18,41,20,37.25a4.23,4.23,0,0,1,4.54-2C37.07,37.59,43.8,29.18,46,25.81a4.08,4.08,0,0,1,2.61-1.73c42.48-8.91,58.5-3.3,58.5-3.3,21.35,6.48,30.62,2.56,34.47-.87C143.26,18.35,143.44,14.13,141.29,13.08Z"/><path class="cls-7" d="M.12,40.06C-.14,33,1.59,17.91,20.7,14.4a8.82,8.82,0,0,0,5.42-3.24C30.54,5.43,47.23-8.1,107.36,6.69a6.14,6.14,0,0,0,3.1,0c3.42-.94,13.22-2.43,28.5,5a3.09,3.09,0,0,1,.84,5.19c-3.85,3.44-13.12,7.35-34.46.88,0,0-16-5.61-58.5,3.29a4.08,4.08,0,0,0-2.61,1.73c-2.15,3.38-8.88,11.78-21.46,9.49a4.26,4.26,0,0,0-4.54,1.95c-2,3.79-6.33,10.19-12.74,10.48A5,5,0,0,1,.12,40.06Z"/><path class="cls-8" d="M139.08,11.67l-.44-.2c-4.48,3.1-13.91,5.72-33.18-.13,0,0-8.56,1.57-29.43,2.78-7.88.46-17.42-1.92-29.07.52a4.08,4.08,0,0,0-2.61,1.73c-2.15,3.37-8.88,11.78-21.46,9.49a4.14,4.14,0,0,0-4.53,1.95C9,47.22.78,39.9.12,37.91c-.06,2-.07,1.4-.12,2.3.1,2.58,2.73,4.6,5.61,4.47C12,44.39,16.35,38,18.36,34.2a4.23,4.23,0,0,1,4.53-2c12.58,2.29,19.31-6.11,21.46-9.49A4.08,4.08,0,0,1,47,21c42.48-8.9,58.5-3.29,58.5-3.29,21.34,6.47,30.62,2.56,34.46-.88A3.09,3.09,0,0,0,139.08,11.67Z"/><path class="cls-4" d="M77.91,2.89C41.4-2,29.71,6.51,26.12,11.16A8.82,8.82,0,0,1,20.7,14.4C8.08,16.72,3,24.1,1.15,30.88c0,0,10.23-12.37,19.87-11.65a9.09,9.09,0,0,0,7.22-2.34A11.59,11.59,0,0,0,30.29,14a9.88,9.88,0,0,1,4.44-4.39c5.78-2.88,19-7.5,41-4.88a10,10,0,0,0,1.42,0c2.24-.15,4.34-.7,3.78-1.37Z"/><text class="cls-9" transform="translate(39.08 54.52)"><tspan class="cls-10">Y</tspan><tspan class="cls-11" x="12.29" y="0">ou</tspan><tspan class="cls-12" x="39.58" y="0">r</tspan><tspan class="cls-11" x="49.01" y="0" xml:space="preserve"> Sco</tspan><tspan x="97.05" y="0">r</tspan><tspan class="cls-13" x="106.37" y="0">e</tspan></text></svg>